<svg width="24" height="24" viewBox="0 0 24 24" fill="none" xmlns="http://www.w3.org/2000/svg">
<path d="M9 10H7V12H9V10ZM13 10H11V12H13V10ZM17 10H15V12H17V10ZM9 14H7V16H9V14ZM13 14H11V16H13V14ZM17 14H15V16H17V14ZM18 5V3C18 2.73478 17.8946 2.48043 17.7071 2.29289C17.5196 2.10536 17.2652 2 17 2C16.7348 2 16.4804 2.10536 16.2929 2.29289C16.1054 2.48043 16 2.73478 16 3V5H8V3C8 2.73478 7.89464 2.48043 7.70711 2.29289C7.51957 2.10536 7.26522 2 7 2C6.73478 2 6.48043 2.10536 6.29289 2.29289C6.10536 2.48043 6 2.73478 6 3V5H2V21H22V5H18ZM20 19H4V7H20V19Z" fill="#343E47"/>
</svg>
