<svg width="24" height="24" viewBox="0 0 24 24" fill="none" xmlns="http://www.w3.org/2000/svg">
<path d="M8.33116 15.6692C6.10494 13.4486 4.56237 10.636 3.88646 7.56511C3.77547 6.97013 3.88811 6.35513 4.20276 5.83811C4.51741 5.3211 5.01191 4.93849 5.59136 4.76371L7.19446 4.25111L8.67586 7.08731L7.46426 8.29871L6.43426 9.32871L7.09836 10.6251C8.48401 13.3215 10.6791 15.5166 13.3755 16.9022L14.6719 17.5663L15.7019 16.5363L16.9133 15.3247L19.7495 16.8061L19.2369 18.4092C19.0621 18.9887 18.6795 19.4832 18.1625 19.7978C17.6455 20.1125 17.0305 20.2251 16.4355 20.1141C13.3646 19.4382 10.5518 17.8954 8.33116 15.6692ZM6.91696 17.0834C9.40662 19.581 12.5613 21.3109 16.0058 22.0672C17.0875 22.2861 18.212 22.0953 19.161 21.5319C20.1101 20.9685 20.8159 20.0726 21.1417 19.0181L22.1668 15.8122L16.5368 12.8722L14.2868 15.1222C11.9638 13.9276 10.0726 12.0362 8.87836 9.71301L11.1284 7.46301L8.18836 1.83301L4.98226 2.85871C3.92777 3.18447 3.03189 3.89034 2.46847 4.83936C1.90506 5.78838 1.71428 6.91287 1.93316 7.99461C2.68952 11.4391 4.41938 14.5938 6.91696 17.0834Z" fill="#343E47"/>
</svg>
