<svg width="200" height="200" viewBox="0 0 200 200" fill="none" xmlns="http://www.w3.org/2000/svg">
<rect width="200" height="200" fill="white"/>
<g clip-path="url(#clip0_2002_1509)">
<rect width="154" height="154" transform="translate(0 23)" fill="white"/>
<mask id="mask0_2002_1509" style="mask-type:luminance" maskUnits="userSpaceOnUse" x="0" y="58" width="149" height="107">
<path d="M149 58.6538H0V164.362H149V58.6538Z" fill="white"/>
</mask>
<g mask="url(#mask0_2002_1509)">
<path d="M68.5068 109.096C68.6685 108.886 68.7483 108.945 68.5842 108.829C68.4202 108.715 68.5842 108.829 68.3108 108.608C67.4904 107.954 66.506 107.211 65.5717 106.405C65.2413 106.117 64.9155 105.892 64.4985 105.821C64.0723 105.748 63.6371 105.655 63.2087 105.668C61.3014 105.732 59.3918 105.835 57.4845 105.921C57.3341 105.928 57.1791 105.951 57.031 105.926C56.9649 105.915 56.9171 105.801 56.8601 105.732C59.0181 105.616 61.1305 105.525 63.2383 105.381C63.8786 105.331 64.5098 105.208 65.1228 105.014C65.7791 104.812 66.2257 104.331 66.2941 103.604C66.3693 102.9 66.408 102.193 66.408 101.485C66.3807 98.7434 66.3237 95.9998 66.2827 93.2585C66.2052 87.9285 66.1186 82.6008 66.0548 77.2685C65.9979 72.3009 65.9728 67.3355 65.9272 62.3679C65.9204 61.8711 65.8862 61.3743 65.8224 60.8798C65.6993 59.9 65.1547 59.2141 64.2523 58.8768C63.8262 58.7242 63.3773 58.649 62.9261 58.6535C57.1199 58.7105 51.3137 58.7834 45.5074 58.8677C41.989 58.9178 38.473 58.9771 34.9546 59.0477C30.4358 59.1343 25.9148 59.2255 21.3961 59.3235C18.0486 59.3895 14.7011 59.4511 11.3537 59.508C9.08176 59.5422 6.81441 59.5422 4.54706 59.5764C3.46922 59.5924 2.39593 59.72 1.35911 60.0367C0.650418 60.2555 0.210621 60.75 0.087569 61.5019C0.026043 61.8392 -0.00585938 62.1833 -0.00585938 62.5274C0.0852902 67.7616 0.183276 72.9959 0.288098 78.2279C0.35646 81.6209 0.443053 85.014 0.515972 88.407C0.598007 92.1829 0.677763 95.9588 0.75524 99.7369C0.800815 101.808 0.848668 103.877 0.901079 105.949C0.946654 107.423 1.50039 108.1 2.92688 108.446C3.07272 108.49 3.22312 108.512 3.37351 108.519C4.7362 108.508 6.09433 108.496 7.45246 108.465C8.19077 108.446 8.92453 108.389 9.65828 108.348C9.95907 108.328 10.2621 108.307 10.5629 108.287C11.0688 108.257 11.1053 108.221 11.1281 107.722C11.1326 107.628 11.1281 107.532 11.1281 107.357L17.3536 106.995C17.3354 107.195 17.3194 107.348 17.3035 107.498L17.3103 107.51L17.3148 107.535C17.5245 107.772 17.7752 107.813 18.0851 107.799L18.1511 107.795C20.3023 107.653 22.4534 107.546 24.6068 107.428C27.7788 107.254 30.9508 107.081 34.1206 106.908C37.5182 106.728 40.9158 106.555 44.3156 106.384C45.7877 106.307 47.2598 106.229 48.7341 106.149C48.9916 106.136 49.2446 106.088 49.5066 106.054C49.5886 106.204 49.5567 106.313 49.3836 106.341C49.1967 106.37 49.0076 106.389 48.8207 106.398C46.1774 106.532 43.534 106.66 40.8907 106.801C37.5296 106.976 34.1707 107.168 30.8095 107.343C27.5623 107.512 24.3151 107.669 21.0679 107.836C20.0288 107.888 18.992 107.956 17.9529 108.013C17.7865 108.022 17.6202 108.013 17.4174 108.013C17.3809 107.84 17.3468 107.687 17.3148 107.53L17.3012 107.514V107.496C17.2305 107.375 17.1622 107.254 17.1303 107.195C16.7657 107.268 16.4694 107.362 16.1686 107.38C14.8561 107.455 13.5435 107.514 12.2241 107.574C11.9074 107.587 11.5884 107.574 11.2374 107.574C11.2739 107.82 11.3058 108.034 11.3445 108.284C10.768 108.462 10.2097 108.353 9.65828 108.335L9.6127 108.348C9.56257 108.362 9.51244 108.378 9.46231 108.394C9.43268 108.403 9.40078 108.412 9.36888 108.421C9.35065 108.426 9.33242 108.433 9.31419 108.435C9.28001 108.444 9.24583 108.451 9.21392 108.455C9.17974 108.462 9.15924 108.465 9.13417 108.467C7.77832 108.562 6.41791 108.64 5.06206 108.74C4.47642 108.784 3.90218 108.891 3.38035 109.196C2.88586 109.483 2.55089 109.882 2.57823 110.479C2.61241 111.185 2.6785 111.889 2.76737 112.591C2.89953 113.633 3.35984 114.51 4.07992 115.271C7.13116 118.496 10.1756 121.727 13.2131 124.965C15.9362 127.87 18.6502 130.785 21.3573 133.706C22.2438 134.661 23.3695 135.041 24.6182 135.06C25.3725 135.071 26.129 134.996 26.8856 134.943C29.6406 134.763 32.3956 134.588 35.1506 134.397C38.8307 134.141 42.5086 133.879 46.1865 133.61C47.2575 133.535 48.3285 133.462 49.461 133.38C49.3676 133.537 49.3152 133.658 49.2332 133.756M63.2793 115.488C62.9649 114.836 62.7028 114.291 62.4043 113.671L64.8311 113.489C64.2729 114.207 63.8057 114.809 63.2793 115.488ZM28.344 116.351C29.3808 116.262 30.3219 116.192 31.2585 116.096C31.598 116.062 31.8259 116.162 31.9968 116.47C32.334 117.06 32.6986 117.634 33.0906 118.277C32.8559 118.315 32.7146 118.35 32.571 118.361C31.7438 118.427 30.9167 118.48 30.0895 118.557C29.873 118.578 29.7294 118.525 29.6132 118.343C29.2099 117.703 28.7974 117.067 28.3394 116.349L28.344 116.351ZM29.2668 118.589C28.0044 118.762 26.7602 118.81 25.5069 118.91L24.1374 116.684L27.6808 116.397L29.2691 118.591L29.2668 118.589ZM32.2816 116.044C32.988 115.98 33.601 115.914 34.2163 115.875C35.2007 115.811 35.2052 115.818 35.7248 116.65C35.9937 117.083 36.2512 117.522 36.5634 118.04L33.5349 118.295C33.1247 117.557 32.7305 116.846 32.2839 116.044H32.2816ZM35.841 115.761L38.8307 115.51L40.0749 117.769C39.1019 117.848 38.2041 117.93 37.3062 117.985C37.1923 117.992 37.0214 117.878 36.9599 117.771C36.5884 117.133 36.2398 116.481 35.841 115.759V115.761ZM39.4118 115.501C40.5329 115.339 41.5994 115.317 42.7 115.205L43.9989 117.463L40.5922 117.732L39.4118 115.501ZM43.2857 115.169L46.3665 114.916C46.7904 115.656 47.1937 116.365 47.6426 117.153C46.5443 117.304 45.5006 117.327 44.3726 117.436L43.2834 115.169H43.2857ZM46.9818 114.872L50.3315 114.603L51.5985 116.862L48.1348 117.147L46.9818 114.872ZM50.9445 114.56L54.3467 114.291L55.6045 116.554L52.0679 116.832L50.9468 114.56H50.9445ZM52.9316 113.922L51.7329 112.003L54.9938 111.734C55.4473 112.32 55.8962 112.897 56.2152 113.653L52.9316 113.92V113.922ZM52.4052 113.904C52.2639 113.943 52.1203 113.972 51.9745 113.993C51.1086 114.063 50.2449 114.136 49.379 114.189C49.2468 114.198 49.0486 114.155 48.9825 114.063C48.5974 113.519 48.2898 112.922 48.0733 112.288L51.1154 112.047C51.5484 112.671 51.9585 113.261 52.4052 113.904ZM48.6316 114.243C47.6358 114.325 46.7174 114.392 45.8014 114.485C45.496 114.517 45.3137 114.428 45.1611 114.155C44.8808 113.66 44.5663 113.186 44.2359 112.66C44.3931 112.614 44.5093 112.562 44.6278 112.55C45.4163 112.484 46.2024 112.42 46.9909 112.377C47.1413 112.368 47.3441 112.411 47.4444 112.512C47.9388 113.011 48.3399 113.596 48.6293 114.241L48.6316 114.243ZM44.8853 114.535C44.09 114.603 43.4178 114.665 42.7479 114.715C42.3924 114.74 41.9777 114.865 41.6974 114.726C41.4148 114.587 41.2621 114.177 41.0639 113.877C40.8679 113.576 40.6947 113.273 40.4669 112.897L43.4793 112.646L44.8853 114.537V114.535ZM41.1528 114.834C40.1045 114.916 39.127 114.986 38.1539 115.071C37.9101 115.091 37.7734 114.982 37.6549 114.783C37.3564 114.275 37.0442 113.776 36.6864 113.184C37.7119 113.104 38.6507 113.027 39.5895 112.967C39.6533 112.965 39.7171 112.976 39.7764 112.999C39.8356 113.022 39.8903 113.058 39.9359 113.104C40.3666 113.63 40.7904 114.164 41.155 114.834H41.1528ZM37.2379 115.011C37.2447 115.023 37.2379 115.048 37.231 115.128C36.8209 115.166 36.3993 115.212 35.9777 115.248C35.6769 115.273 35.3579 115.232 35.0754 115.314C34.435 115.499 34.0978 115.185 33.8129 114.67C33.5942 114.278 33.3253 113.911 33.0427 113.478C34.0043 113.398 34.8839 113.316 35.7635 113.259C35.898 113.25 36.0985 113.302 36.1669 113.398C36.5406 113.922 36.8847 114.469 37.2356 115.009L37.2379 115.011ZM33.7901 115.415L30.3903 115.681L29.2053 113.808C30.3242 113.655 31.3792 113.608 32.4343 113.535L33.7901 115.415ZM29.6109 115.114C29.7249 115.282 29.832 115.46 29.996 115.713L26.3933 116C26.0447 115.394 25.7006 114.79 25.3269 114.141C25.532 114.095 25.6528 114.052 25.7804 114.043C26.6281 113.975 27.478 113.924 28.3234 113.842C28.6014 113.815 28.7746 113.874 28.9228 114.129C29.121 114.474 29.3808 114.783 29.6087 115.112L29.6109 115.114ZM25.8806 116.037L22.1891 116.338L20.7649 114.483C22.0956 114.305 23.3284 114.284 24.5681 114.134L25.8806 116.039V116.037ZM21.4804 116.365C20.4755 116.481 19.589 116.556 18.7254 116.586L17.3923 114.722L20.0835 114.499L21.4827 116.367L21.4804 116.365ZM23.4743 116.741L24.9236 118.947C24.5088 118.99 24.1625 119.031 23.8184 119.063C23.2373 119.113 22.6539 119.156 22.0729 119.202C21.8837 119.218 21.7014 119.234 21.567 119.047C21.1021 118.404 20.6327 117.766 20.0812 117.014L23.4766 116.741H23.4743ZM26.7488 119.334L28.0546 121.228C26.9835 121.314 26.0493 121.399 25.1104 121.458C25.0466 121.458 24.9851 121.444 24.9258 121.419C24.8689 121.394 24.8165 121.355 24.7732 121.307C24.3858 120.777 24.0166 120.227 23.5814 119.592L26.7466 119.332L26.7488 119.334ZM27.4393 119.368C27.9475 119.138 28.4602 119.236 28.9433 119.168C29.4264 119.099 29.9163 119.088 30.4404 119.047L31.6322 120.938L28.7427 121.184L27.437 119.368H27.4393ZM31.0534 119.004C32.0446 118.919 32.9561 118.835 33.8699 118.767C33.9838 118.758 34.1456 118.805 34.214 118.887C34.6469 119.407 35.0708 119.938 35.3921 120.644C34.6424 120.708 33.9451 120.71 33.2729 120.84C32.4867 120.991 31.9968 120.747 31.68 120.009C31.5342 119.665 31.2881 119.368 31.0534 118.999V119.006V119.004ZM34.868 118.755C35.0526 118.707 35.1711 118.66 35.2941 118.65C35.9322 118.6 36.5748 118.594 37.2083 118.502C37.6344 118.445 37.8896 118.612 38.0878 118.942C38.3499 119.382 38.5983 119.829 38.9105 120.373L36.0324 120.599L34.868 118.755ZM38.4411 118.45C39.4232 118.274 40.3711 118.284 41.3601 118.163L42.6203 120.079L39.6898 120.314L38.4411 118.452V118.45ZM42.0802 118.122L45.2932 117.862C45.6692 118.466 46.0429 119.072 46.4804 119.776L43.2127 120.038C42.8459 119.407 42.4904 118.81 42.0802 118.117V118.124V118.122ZM45.9039 117.826C46.5192 117.773 47.0342 117.73 47.5515 117.689C48.0778 117.646 48.6065 117.605 49.1694 117.561C49.5909 118.129 49.878 118.762 50.2039 119.487L46.9886 119.735L45.9039 117.828V117.826ZM49.755 117.516C50.826 117.427 51.8127 117.34 52.8017 117.267C52.8974 117.26 53.0478 117.315 53.0888 117.388C53.4101 117.965 53.7132 118.548 54.0481 119.184L50.7827 119.443C50.4409 118.796 50.1128 118.183 49.7573 117.509V117.516H49.755ZM53.5309 117.247C54.6247 117.09 55.6774 117.046 56.7302 116.978L57.7397 118.901L54.6269 119.136C54.2646 118.505 53.9205 117.914 53.5286 117.242V117.249L53.5309 117.247ZM56.0215 116.531L54.8822 114.25L57.9904 114.004L59.2756 116.271L56.0215 116.531ZM56.7302 113.624L55.6797 111.748C55.8939 111.705 56.0329 111.659 56.1765 111.648C56.9672 111.584 57.7602 111.536 58.5509 111.466C58.7902 111.443 58.9452 111.513 59.0682 111.716C59.3804 112.238 59.704 112.753 60.0868 113.375L56.7325 113.621L56.7302 113.624ZM59.4989 111.397L62.7871 111.137C63.1266 111.789 63.4479 112.409 63.8034 113.09L60.5608 113.343C60.2121 112.703 59.8703 112.074 59.4989 111.393V111.4V111.397ZM62.876 110.657L59.2209 110.939L57.9653 109.016C58.0997 108.998 58.2182 108.975 58.3345 108.968C59.2756 108.911 60.2167 108.87 61.1555 108.802C61.5247 108.774 61.7845 108.834 61.9736 109.216C62.206 109.681 62.5296 110.107 62.876 110.652V110.659V110.657ZM62.2607 108.784C62.4567 108.761 62.5957 108.738 62.7324 108.727C63.277 108.69 63.8239 108.654 64.3708 108.626C64.9884 108.597 65.3689 108.852 65.5945 109.419C65.7153 109.718 65.8497 110.012 66.0138 110.392C65.1274 110.481 64.282 110.575 63.4206 110.577L62.263 108.784H62.2607ZM58.6694 110.967L55.3015 111.233C54.9072 110.559 54.5358 109.921 54.1233 109.214C54.6156 109.178 55.0394 109.141 55.4632 109.114C55.9919 109.08 56.5206 109.062 57.047 109.023C57.2953 109.005 57.4731 109.062 57.6144 109.296C57.9288 109.829 58.2729 110.349 58.6672 110.969L58.6694 110.967ZM54.7659 111.272L51.4162 111.529L50.1515 109.431L53.5719 109.226L54.7659 111.272ZM50.9331 111.552C50.4751 111.598 50.1082 111.639 49.7413 111.668C49.2332 111.712 48.725 111.744 48.2191 111.791C47.9958 111.812 47.8226 111.782 47.6973 111.561C47.3486 110.951 46.9795 110.351 46.5534 109.645L49.6752 109.456L50.9331 111.554V111.552ZM47.3031 111.798C47.1117 111.839 46.9886 111.883 46.8633 111.892C45.9996 111.958 45.1337 112.026 44.2678 112.072C44.1219 112.079 43.9032 112.026 43.8303 111.921C43.3905 111.286 42.9826 110.625 42.5132 109.893L45.9905 109.672C46.4258 110.374 46.8519 111.065 47.3054 111.798H47.3031ZM43.452 112.145L40.1706 112.42L38.6803 110.128L41.9731 109.918L43.452 112.145ZM39.6739 112.452L36.372 112.708L34.9637 110.36L38.1676 110.155L39.6761 112.45L39.6739 112.452ZM35.8501 112.746L32.6713 113.008L31.1286 110.604L34.5034 110.39C34.9546 111.178 35.3853 111.93 35.8524 112.746H35.8501ZM32.0264 112.723C32.0811 112.824 32.1289 112.929 32.1722 113.033C31.4499 113.095 30.7822 113.154 30.1123 113.211C29.7704 113.241 29.4355 113.264 29.0982 113.293C28.9182 113.309 28.7769 113.284 28.6721 113.099C28.2893 112.418 27.8905 111.748 27.5031 111.071C27.478 111.028 27.4826 110.967 27.4644 110.871C27.5737 110.846 27.6831 110.828 27.7925 110.814C28.6197 110.761 29.4491 110.727 30.2763 110.659C30.5543 110.636 30.7298 110.707 30.8802 110.951C31.2493 111.552 31.6458 112.136 32.0264 112.726V112.723ZM28.3553 113.339L25.0284 113.601L23.3284 111.131L26.8833 110.887L28.3553 113.339ZM23.9414 113.685L20.1564 113.988C20.104 113.571 19.9058 113.266 19.6392 112.986C19.2108 112.534 18.8097 112.058 18.3266 111.518C18.6547 111.482 18.8895 111.447 19.1219 111.431C20.0083 111.365 20.8947 111.315 21.7812 111.24C22.0364 111.217 22.1777 111.311 22.3577 111.491C22.9844 112.113 23.5358 112.778 23.9437 113.685H23.9414ZM19.5207 114.002C18.0121 114.2 16.5902 114.232 15.1273 114.389L13.3248 111.874C14.733 111.771 15.9932 111.678 17.251 111.586C17.6681 111.557 17.9142 111.867 18.1329 112.133C18.6023 112.705 19.0193 113.32 19.5207 114.004V114.002ZM14.4778 114.417C13.8808 114.474 13.4182 114.519 12.9533 114.558C12.3882 114.603 11.8208 114.635 11.258 114.692C11.1372 114.711 11.0119 114.697 10.8956 114.654C10.7794 114.61 10.6792 114.537 10.5971 114.442C10.171 113.954 9.73804 113.471 9.3347 112.965C9.19114 112.785 9.12505 112.543 8.97921 112.24C9.66056 112.179 10.2348 112.124 10.8113 112.074C11.0962 112.049 11.3787 112.038 11.659 112.013C12.4475 111.942 12.4634 111.926 12.9921 112.55C13.4797 113.125 13.9309 113.728 14.4755 114.414L14.4778 114.417ZM16.3555 114.82C16.9047 115.428 17.4288 116.009 18.0121 116.652C16.9092 116.741 15.8838 116.825 14.8606 116.907C14.316 116.951 13.7714 116.998 13.2268 117.023C13.0901 117.03 12.9078 116.996 12.8212 116.907C12.3518 116.417 11.9051 115.902 11.4106 115.351C11.9849 115.091 14.1269 114.875 16.3578 114.818L16.3555 114.82ZM13.5777 117.548C15.4258 117.34 17.2829 117.24 19.0968 117.087C19.8215 117.703 20.4595 118.418 20.9905 119.209C20.8537 119.25 20.758 119.298 20.6578 119.307C18.9829 119.439 17.308 119.569 15.6309 119.692C15.5169 119.701 15.3529 119.674 15.2822 119.598C14.6943 118.981 14.1223 118.35 13.5458 117.721C13.5572 117.661 13.5663 117.605 13.5754 117.548H13.5777ZM16.4102 120.145C18.5021 119.979 20.5962 119.817 22.6881 119.66C22.7451 119.655 22.8021 119.66 22.8704 119.66L24.2331 121.519C23.2464 121.599 22.3645 121.67 21.4804 121.74C20.3114 121.832 19.1424 121.914 17.9757 122.023C17.6658 122.053 17.4402 122.003 17.2283 121.754C16.8272 121.278 16.3965 120.827 15.9248 120.305C16.139 120.23 16.2689 120.154 16.4079 120.143L16.4102 120.145ZM18.4747 122.495C19.4683 122.41 20.4618 122.328 21.4599 122.26C21.5943 122.251 21.7903 122.281 21.8632 122.369C22.3554 122.969 22.8226 123.589 23.3809 124.311L19.8101 124.557L18.0554 122.62C18.2469 122.561 18.3585 122.504 18.4747 122.495ZM22.2779 122.235C22.4967 122.198 22.6653 122.16 22.8385 122.146C23.5882 122.082 24.3402 122.03 25.0899 121.964C25.3292 121.943 25.532 121.987 25.7052 122.164C26.2703 122.745 26.8377 123.322 27.4074 123.898L27.339 124.026L24.2468 124.256C24.0759 124.27 23.9278 124.279 23.7956 124.11C23.3193 123.495 22.8203 122.898 22.2779 122.233H22.2757L22.2779 122.235ZM26.2019 121.875L30.1533 121.563L32.1973 123.661C31.9307 123.689 31.7917 123.709 31.6504 123.718C30.5976 123.794 29.5426 123.86 28.4898 123.942C28.2619 123.96 28.0933 123.914 27.9338 123.743C27.3869 123.14 26.8309 122.547 26.2065 121.873H26.2019V121.875ZM30.8232 121.51L34.2664 121.237L35.98 123.356C35.841 123.397 35.743 123.443 35.6428 123.45C34.7951 123.513 33.9474 123.579 33.0997 123.62C32.9379 123.62 32.7807 123.563 32.6622 123.452C32.0651 122.839 31.4863 122.21 30.8278 121.506H30.8255L30.8232 121.51ZM34.8087 121.209C35.0412 121.184 35.1619 121.171 35.2827 121.159C37.9967 120.938 40.7107 120.72 43.4247 120.501L48.0072 120.134C48.5906 120.086 49.0668 120.257 49.4383 120.754C49.8348 121.285 50.2746 121.779 50.7668 122.376L36.6705 123.377L34.8087 121.209ZM49.4269 120.029C50.6619 119.936 51.7671 119.847 52.8723 119.776C53.0159 119.774 53.1572 119.824 53.2643 119.92C53.8795 120.514 54.4788 121.125 55.0804 121.734C55.1465 121.8 55.2035 121.873 55.3083 121.989C55.1784 122.028 55.1009 122.064 55.0189 122.071C54.0026 122.148 52.984 122.21 51.9677 122.301C51.6213 122.333 51.3752 122.269 51.1382 121.977C50.6255 121.344 50.0649 120.745 49.4291 120.029H49.4269ZM53.7132 119.696L58.1248 119.345L59.328 120.658C59.0728 120.993 58.8335 121.333 58.5623 121.645C58.4598 121.752 58.3231 121.818 58.1772 121.834C57.4617 121.898 56.7462 121.939 56.0603 121.987L53.7132 119.696ZM58.8358 119.33C59.3257 119.218 59.8088 119.197 60.4104 119.2L59.663 120.227L58.8381 119.33H58.8358ZM58.2547 118.851L57.2748 116.916L60.4218 116.666L61.1601 118.156C61.0302 118.518 60.8183 118.669 60.5015 118.689C59.7723 118.735 59.0409 118.794 58.257 118.851H58.2547ZM61.0598 116.613L62.3314 116.531C62.3473 116.572 62.3633 116.613 62.3792 116.657L61.5452 117.728L61.0576 116.613H61.0598ZM59.7245 116.23L58.5281 113.961L61.7184 113.719L63.0036 115.957C61.8711 116.107 60.8274 116.146 59.729 116.228H59.7268L59.7245 116.23ZM66.4035 111.4C66.3419 111.516 66.269 111.627 66.1847 111.732C66.0366 111.93 65.8566 112.108 65.7381 112.32C65.4122 112.903 64.9337 113.127 64.2341 112.992C63.931 112.441 63.6371 111.839 63.5163 111.14C63.6189 111.096 63.6827 111.049 63.7487 111.044C64.4415 110.992 65.1365 110.944 65.8315 110.898C65.9432 110.885 66.0571 110.885 66.1688 110.898C66.4445 110.948 66.5334 111.137 66.4035 111.4ZM66.4992 110.349C66.3852 110.142 66.285 109.946 66.1391 109.672C66.5675 109.782 66.7931 110.057 67.0484 110.322L66.5015 110.349H66.4992ZM48.7729 105.438L18.0896 107.079C18.0646 106.935 18.0486 106.826 18.0281 106.719C17.9757 106.425 17.7957 106.297 17.5063 106.309C17.1667 106.322 16.8249 106.325 16.4854 106.343C14.6168 106.441 12.7483 106.544 10.8797 106.642C10.531 106.66 10.4376 106.728 10.4125 107.07C10.4011 107.22 10.4125 107.373 10.4125 107.605C9.99781 107.63 9.62182 107.658 9.24583 107.674C7.52766 107.747 5.80721 107.824 4.08904 107.886C3.53986 107.906 2.99068 107.799 2.48936 107.571C1.92879 107.321 1.63256 106.904 1.57787 106.297C1.53685 105.839 1.48444 105.381 1.47076 104.921C1.37961 101.662 1.29302 98.4039 1.21099 95.1453C1.11072 91.2349 1.01274 87.3246 0.919309 83.4143C0.860062 80.8849 0.807651 78.3532 0.762076 75.8215C0.686878 71.795 0.611679 67.7685 0.534202 63.7419C0.525087 63.2064 0.515972 62.6687 0.534202 62.1286C0.547875 61.7253 0.611679 61.3402 0.907916 61.0166C1.14263 60.7614 1.38645 60.6064 1.73738 60.6018C1.99943 60.6018 2.26377 60.5449 2.52582 60.5061C4.27589 60.2418 6.03736 60.4104 7.79199 60.358C12.1398 60.2281 16.4899 60.1643 20.8401 60.0777C25.3975 59.9889 29.955 59.9023 34.5148 59.8202C37.7506 59.7587 40.9818 59.6812 44.2177 59.6334C50.4774 59.5377 56.7393 59.4534 62.999 59.3804C63.375 59.385 63.7465 59.4602 64.0951 59.6038C64.7035 59.8476 65.0499 60.3489 65.1251 61.0075C65.1889 61.5407 65.2231 62.0762 65.2299 62.6117C65.2915 68.6526 65.3325 74.6936 65.4008 80.7345C65.4578 85.7386 65.5467 90.745 65.6196 95.7491C65.6469 97.6861 65.6811 99.623 65.6925 101.56C65.6971 102.136 65.6287 102.706 65.6036 103.28C65.5809 103.83 65.296 104.203 64.7947 104.335C64.2318 104.488 63.653 104.623 63.0742 104.661C61.3014 104.78 59.5262 104.85 57.7511 104.937C57.6964 104.937 57.644 104.928 57.5916 104.914C57.5665 104.875 57.5346 104.848 57.5301 104.816C57.4549 104.062 57.4571 104.073 56.7097 104.117C54.5381 104.242 52.3687 104.36 50.1971 104.481C50.0467 104.49 49.894 104.504 49.7436 104.518C49.2089 104.568 48.8883 104.875 48.782 105.441L48.7729 105.438ZM53.5582 105.117H51.7717C51.5666 105.153 51.3592 105.199 51.1541 105.233L51.0972 105.242C51.0334 105.251 50.9673 105.261 50.9012 105.265C50.589 105.29 50.2746 105.27 49.9669 105.208L51.774 105.119H53.5582V105.117ZM49.9738 105.571L56.3611 105.231C56.4249 105.477 56.4796 105.687 56.5479 105.956L49.9738 106.329V105.573V105.571ZM55.7458 104.88C55.5909 104.917 55.4359 104.967 55.2832 104.996C55.2263 105.008 55.1693 105.014 55.1123 105.021C54.7933 105.044 54.4743 105.03 54.1575 104.98L55.7481 104.88L56.7302 104.823V104.951L55.7458 104.885V104.88ZM16.8864 107.569V108.408L11.798 108.633L11.6658 107.883C13.4182 107.658 15.1227 107.592 16.8864 107.567V107.569ZM15.902 125.017C15.8086 124.874 15.7357 124.71 15.6217 124.587C12.215 120.961 8.80831 117.34 5.40159 113.719C4.98458 113.275 4.59036 112.808 4.20981 112.334C3.6857 111.684 3.43732 110.941 3.51252 110.092C3.55353 109.627 3.64696 109.44 4.1255 109.33C4.64049 109.212 5.1646 109.132 5.69327 109.093C7.50487 108.964 9.31647 108.859 11.1281 108.747C11.1987 108.747 11.2716 108.752 11.3423 108.758C11.5793 109.305 11.5815 109.335 12.1786 109.301C13.8398 109.214 15.4987 109.103 17.1576 108.998C17.2556 108.984 17.3513 108.966 17.447 108.941C17.4789 108.761 17.504 108.601 17.5382 108.408C18.0121 108.376 18.4793 108.335 18.9487 108.31C22.1207 108.139 25.2927 107.968 28.4647 107.801C31.0329 107.662 33.601 107.517 36.1714 107.38C39.3434 107.211 42.5177 107.043 45.6897 106.879C46.804 106.822 47.9183 106.749 49.0326 106.683C49.2947 106.667 49.5271 106.651 49.771 106.856C49.9327 106.99 50.2358 106.997 50.4728 106.983C51.8514 106.904 53.2278 106.806 54.6042 106.708C55.2445 106.662 55.8848 106.607 56.5251 106.55C56.6345 106.541 56.8054 106.537 56.8396 106.473C57.0105 106.138 57.3113 106.211 57.5848 106.197C59.3417 106.111 61.0986 106.024 62.8555 105.946C63.252 105.931 63.6508 105.935 64.0473 105.965C64.2364 105.978 64.4187 106.07 64.6056 106.124L64.5896 106.268C64.1726 106.307 63.7579 106.354 63.3408 106.384C60.8707 106.559 58.3983 106.733 55.9281 106.904C52.6832 107.127 49.4383 107.352 46.1933 107.562C42.8914 107.776 39.5873 107.97 36.2854 108.173L26.8856 108.749C24.9988 108.866 23.1097 108.975 21.2229 109.096C19.867 109.18 18.5112 109.276 17.1531 109.408C17.504 109.408 17.8572 109.424 18.2081 109.408C21.5328 109.23 24.8552 109.043 28.1799 108.868C32.8467 108.617 37.5113 108.376 42.1759 108.141C45.6715 107.961 49.1648 107.769 52.6604 107.603C56.6277 107.416 60.595 107.25 64.5645 107.084C64.7514 107.084 64.936 107.122 65.1069 107.2C66.2189 107.674 67.1509 108.423 68.1125 109.246C67.9348 109.476 67.7821 109.67 67.5975 109.909C67.1486 109.592 66.7179 109.289 66.2918 108.986C66.1802 108.913 66.0731 108.834 65.9751 108.745C65.3826 108.168 64.6785 108.063 63.8809 108.111C60.7112 108.305 57.5369 108.449 54.3649 108.626C51.1382 108.806 47.9092 109 44.6825 109.203C41.2257 109.415 37.7734 109.633 34.3211 109.857C31.737 110.021 29.1506 110.171 26.5665 110.354C23.2099 110.591 19.8534 110.848 16.4991 111.106C14.5576 111.254 12.6184 111.42 10.6769 111.577C10.2257 111.614 9.76766 111.621 9.32103 111.673C8.75362 111.741 8.46878 112.167 8.66475 112.717C8.7878 113.038 8.96554 113.332 9.19342 113.587C10.4057 114.982 11.6248 116.372 12.8667 117.744C14.7968 119.874 16.7452 121.993 18.6866 124.119C18.8006 124.245 18.9031 124.377 19.0786 124.587L16.0046 124.844L15.9089 125.013L15.902 125.017ZM16.531 125.541C16.4694 125.464 16.4125 125.382 16.3601 125.298C16.7178 125.261 17.0118 125.225 17.3057 125.202C19.3042 125.049 21.3049 124.899 23.3034 124.751C24.6797 124.648 26.0538 124.511 27.4302 124.464C28.1958 124.438 28.9478 124.304 29.7089 124.268C30.4837 124.229 31.2539 124.145 32.0287 124.11C33.4757 124.049 34.9113 123.864 36.3583 123.787C37.8303 123.709 39.3001 123.573 40.7722 123.461C42.2238 123.352 43.6753 123.235 45.1292 123.13C46.902 123.001 48.6749 122.857 50.45 122.761C51.6122 122.698 52.7629 122.543 53.9228 122.479C55.0736 122.415 56.2243 122.303 57.3751 122.219C57.5916 122.203 57.8126 122.219 58.1385 122.219L55.0485 126.252C54.8776 126.12 54.7295 126.015 54.5905 125.895C53.9433 125.332 53.2962 124.773 52.6604 124.199C52.5578 124.101 52.4371 124.028 52.3026 123.983C52.1705 123.937 52.0292 123.921 51.8902 123.937C48.5518 124.174 45.2112 124.397 41.8728 124.628C40.3825 124.732 38.8922 124.846 37.4019 124.958C37.2948 124.967 37.1877 124.994 36.9827 125.031C37.0806 125.218 37.1308 125.373 37.2288 125.487C37.6708 126.013 38.1175 126.535 38.5755 127.043C39.4688 128.032 40.3871 129.003 41.269 130.003C41.6814 130.47 42.1372 130.669 42.7615 130.621C44.9674 130.45 47.1777 130.318 49.3858 130.17C50.0672 130.124 50.744 130.072 51.423 130.028C51.6213 130.015 51.8195 130.028 52.1386 130.028C51.619 130.7 51.1838 131.295 50.7075 131.854C50.5936 131.986 50.3406 132.031 50.1469 132.049C49.0919 132.143 48.0368 132.223 46.9795 132.296C44.7737 132.451 42.5656 132.61 40.3575 132.747C37.509 132.927 34.6583 133.095 31.8076 133.257C29.8434 133.369 27.8768 133.437 25.9148 133.565C24.7914 133.638 23.8548 133.253 23.0983 132.466C20.897 130.176 18.7208 127.857 16.5332 125.544L16.531 125.541ZM54.7204 126.631C54.6133 126.79 54.5244 126.931 54.4241 127.064C53.9137 127.729 53.3828 128.378 52.8974 129.062C52.6741 129.377 52.4075 129.497 52.0451 129.518C50.7622 129.595 49.4815 129.684 48.1986 129.768C46.428 129.885 44.6552 129.989 42.8846 130.131C42.3514 130.172 41.9503 130.049 41.5789 129.641C40.3711 128.321 39.1315 127.029 37.9078 125.724C37.7939 125.601 37.6936 125.462 37.5113 125.236C38.416 125.179 39.2021 125.124 39.9883 125.077C41.7817 124.972 43.5728 124.869 45.3639 124.769C47.515 124.646 49.6638 124.518 51.815 124.404C51.9859 124.395 52.2069 124.434 52.3323 124.541C53.1298 125.216 53.9069 125.913 54.7181 126.626L54.7204 126.631ZM47.4603 133.091C45.2363 133.253 43.0145 133.414 40.7904 133.565C37.6982 133.774 34.6082 133.98 31.516 134.178C29.3101 134.319 27.1043 134.454 24.8962 134.577C24.2718 134.613 23.6589 134.549 22.9866 134.201C23.6999 133.982 24.2696 133.884 24.8962 133.996C25.4454 134.093 26.0265 134.057 26.5893 134.025C31.042 133.77 35.4924 133.515 39.9427 133.232C42.9598 133.038 45.9723 132.797 48.9893 132.578C49.3585 132.551 49.7276 132.539 50.1105 132.521C50.0535 132.863 49.8461 132.909 49.6069 132.925C48.8914 132.975 48.1781 133.043 47.4603 133.093V133.091Z" fill="#303E47"/>
<path d="M9.21191 108.467C9.2461 108.46 9.28028 108.453 9.31218 108.446C9.278 108.455 9.24382 108.462 9.21191 108.467Z" fill="#303E47"/>
<path d="M9.36523 108.431C9.39755 108.422 9.42756 108.413 9.45988 108.403C9.42987 108.413 9.39755 108.422 9.36523 108.431Z" fill="#303E47"/>
<path d="M59.5567 102.175C60.5958 102.118 61.6349 102.066 62.674 102.002C63.1275 101.975 63.1708 101.94 63.2255 101.46C63.2733 101.061 63.2984 100.66 63.2984 100.256C63.271 96.9386 63.2391 93.6208 63.2004 90.3029C63.1343 84.7223 63.0659 79.1417 62.993 73.5587C62.9497 70.0495 62.9019 66.5402 62.854 63.031C62.8449 62.3337 62.7036 62.2038 62.0063 62.1992C61.8742 62.1992 61.742 62.1992 61.6098 62.2038C59.7185 62.238 57.8271 62.279 55.9358 62.3086C52.1143 62.3724 48.2929 62.4248 44.4737 62.4932C40.577 62.5615 36.6804 62.6367 32.786 62.7188V62.7689C31.8198 62.7689 30.8559 62.7575 29.8898 62.7689C26.164 62.8236 22.4383 62.8851 18.7103 62.9512C14.4171 63.0332 10.124 63.1335 5.83081 63.2269C5.0173 63.2452 4.20379 63.2543 3.39028 63.2771C2.80237 63.293 2.58361 63.5687 2.65881 64.1498C2.68159 64.3595 2.69071 64.5691 2.68615 64.781C2.69982 65.9341 2.69527 67.0826 2.72945 68.2333C2.81604 71.1843 2.93453 74.1353 3.01429 77.0885C3.11 80.7322 3.16696 84.3759 3.25584 88.0173C3.36066 92.1966 3.48371 96.3758 3.59993 100.555C3.63866 101.936 3.67968 103.315 3.72753 104.695C3.74121 105.106 3.80045 105.156 4.20151 105.135C5.61661 105.058 7.03399 104.983 8.44908 104.905C10.2812 104.803 12.1133 104.695 13.9454 104.597C17.0992 104.429 20.2552 104.262 23.409 104.098C25.9589 103.962 28.5066 103.811 31.0565 103.677C34.2672 103.504 37.478 103.346 40.6887 103.176C42.5026 103.08 44.3142 102.966 46.1281 102.87C48.6028 102.738 51.0775 102.613 53.5499 102.485C55.5529 102.383 57.5559 102.28 59.559 102.173L59.5567 102.175ZM33.1233 63.3523L62.2274 62.8282C62.2433 63.0879 62.2707 63.3272 62.2729 63.5665C62.3253 67.7092 62.3778 71.852 62.4279 75.9924C62.5031 82.4162 62.5783 88.84 62.6489 95.266C62.6672 96.9546 62.6899 98.6408 62.7013 100.329C62.7013 100.669 62.6558 101.011 62.6307 101.359C62.4826 101.394 62.3755 101.432 62.2661 101.439C61.17 101.496 60.0762 101.542 58.9802 101.612C58.5996 101.637 58.3581 101.51 58.137 101.184C56.3209 98.5155 54.5093 95.8448 52.9119 93.0351C50.9544 89.592 48.7213 86.3311 46.5405 83.036C44.2982 79.643 42.0423 76.259 39.8273 72.8478C38.3484 70.5713 36.7465 68.3883 35.0762 66.2554C34.5361 65.5649 34.0234 64.8517 33.5016 64.1453C33.3466 63.9333 33.2053 63.7123 33.0572 63.4958L33.1233 63.3545V63.3523ZM47.215 102.246C46.7798 102.271 46.3331 102.223 45.9139 102.314C45.1801 102.471 44.7859 102.102 44.3734 101.562C42.163 98.6636 40.1145 95.6466 38.1023 92.6045C36.1244 89.6079 34.2011 86.5772 32.2346 83.5761C30.0994 80.3198 27.9186 77.0953 25.8062 73.8231C24.4094 71.6583 23.0991 69.4365 21.7501 67.2398C21.1098 66.1984 20.4694 65.1593 19.8291 64.1179C19.7516 63.9926 19.6924 63.8536 19.5967 63.6667C19.7767 63.6348 19.9157 63.5938 20.0502 63.5893C20.6563 63.571 21.2624 63.5847 21.8663 63.546C22.2195 63.5232 22.4155 63.6667 22.6001 63.9538C23.5571 65.451 24.5005 66.9549 25.5055 68.4179C27.2646 70.986 28.8598 73.6613 30.4458 76.3411C31.3185 77.8177 32.3348 79.2077 33.2851 80.6411C35.6869 84.2711 38.059 87.9194 40.495 91.5243C42.7396 94.8445 45.0548 98.1144 47.3381 101.41C47.4976 101.64 47.6571 101.874 47.8553 102.166C47.5842 102.2 47.3996 102.237 47.215 102.248V102.246ZM51.4854 101.571C50.8496 100.689 50.1888 99.8281 49.5553 98.9462C48.817 97.9253 48.0878 96.8976 47.3677 95.8653C46.4721 94.5824 45.5903 93.2904 44.6993 92.0051C43.4505 90.2004 42.2018 88.3956 40.9576 86.5886C40.6317 86.1169 40.3264 85.6338 39.9914 85.1666C38.8748 83.5966 37.7149 82.0562 36.6417 80.461C35.1901 78.3099 33.7818 76.1269 32.3873 73.937C30.5324 71.0225 28.7094 68.0852 26.8795 65.1547C26.5674 64.6557 26.2871 64.1361 25.9247 63.5118C26.2324 63.489 26.417 63.4662 26.5993 63.4639C28.4724 63.432 30.3455 63.4138 32.2163 63.3659C32.5855 63.3568 32.8088 63.489 33.0071 63.7921C34.2034 65.6105 35.3519 67.4563 36.4343 69.3499C37.6078 71.4076 38.8999 73.3947 40.0529 75.4615C41.108 77.3528 42.3978 79.0824 43.5827 80.8803C43.9974 81.5115 44.5626 82.0402 45.0457 82.6258C45.2895 82.9198 45.5174 83.2252 45.7316 83.5419C48.1972 87.2221 50.6468 90.9113 53.1215 94.5847C54.646 96.8475 56.2092 99.0875 57.7519 101.337C57.7929 101.398 57.8226 101.466 57.8841 101.583C57.7405 101.624 57.6266 101.678 57.5104 101.685C55.774 101.779 54.0353 101.858 52.2989 101.963C51.932 101.984 51.6905 101.863 51.4808 101.574L51.4854 101.571Z" fill="#303E47"/>
<path d="M33.0062 61.8778C33.3662 61.8619 33.6055 61.6385 33.6009 61.3286C33.5964 61.0324 33.3047 60.7908 32.9811 60.8091C32.6712 60.8273 32.4251 61.078 32.4433 61.3537C32.4638 61.6408 32.7305 61.8915 33.0062 61.8778Z" fill="#303E47"/>
<path d="M16.4011 109.508V109.47H15.1934V109.508H16.4011Z" fill="#303E47"/>
<path d="M14.2159 109.581H13.2588V109.622H14.2045L14.2159 109.581Z" fill="#303E47"/>
<path d="M9.69207 109.829H9.30469V109.85H9.69207V109.829Z" fill="#303E47"/>
<path d="M11.8018 109.731V109.711H11.3369V109.731H11.8018Z" fill="#303E47"/>
<path d="M93.6389 69.4089L93.6299 69.3999C93.6299 69.3999 93.6366 69.4066 93.6389 69.4089Z" fill="#303E47"/>
<path d="M109.99 66.2896H98.1544C97.6052 66.2896 97.0765 66.5129 96.6869 66.9094C96.2972 67.3036 96.0785 67.8391 96.0762 68.3974V96.0476C96.0762 96.6059 96.2972 97.1414 96.6869 97.5356C97.0765 97.9299 97.6029 98.1532 98.1544 98.1555H109.99C110.539 98.1555 111.068 97.9321 111.458 97.5356C111.847 97.1414 112.066 96.6059 112.068 96.0476V68.3974C112.068 67.8391 111.847 67.3036 111.458 66.9094C111.068 66.5151 110.542 66.2918 109.99 66.2896ZM111.458 95.9656C111.458 96.3803 111.294 96.7791 111.004 97.0731C110.715 97.367 110.323 97.5311 109.915 97.5334H98.2296C97.8194 97.5334 97.4275 97.367 97.1381 97.0731C96.8487 96.7791 96.6869 96.3826 96.6846 95.9656V68.4771C96.6846 68.0624 96.8487 67.6636 97.1381 67.372C97.4275 67.078 97.8194 66.9139 98.2273 66.9116H109.913C110.321 66.9116 110.715 67.078 111.002 67.372C111.291 67.6659 111.453 68.0624 111.455 68.4771V95.9656H111.458Z" fill="#303E47"/>
<path d="M104.073 68.001C104.125 68.001 104.175 67.9919 104.221 67.9714C104.267 67.9509 104.31 67.9235 104.346 67.8871C104.381 67.8506 104.41 67.8073 104.431 67.7595C104.449 67.7116 104.46 67.6615 104.46 67.6091C104.46 67.5042 104.419 67.404 104.346 67.3311C104.273 67.2581 104.175 67.2148 104.073 67.2148C104.023 67.2148 103.973 67.224 103.925 67.2445C103.877 67.265 103.836 67.2923 103.799 67.3288C103.763 67.3652 103.736 67.4085 103.715 67.4564C103.695 67.5042 103.686 67.5544 103.686 67.6068C103.686 67.7116 103.727 67.8119 103.799 67.8848C103.872 67.9577 103.97 68.001 104.073 68.001Z" fill="#303E47"/>
<path d="M101.262 68.365C101.098 68.365 100.938 68.3171 100.804 68.2237C100.667 68.1302 100.562 68.0004 100.501 67.8454L100.421 67.6494C100.384 67.5606 100.323 67.4831 100.245 67.4307C100.166 67.376 100.072 67.3486 99.9789 67.3486H99.7441L111.035 84.3845V81.1373L102.57 68.365H101.264H101.262Z" fill="#303E47"/>
<path d="M104.274 68.3657L111.028 78.5585V77.0773L105.254 68.3657H104.271H104.274Z" fill="#303E47"/>
<path d="M98.392 67.3486C98.0547 67.3486 97.7311 67.4854 97.4919 67.7269C97.2526 67.9685 97.1182 68.2989 97.1182 68.6407V95.801C97.1182 96.1428 97.2526 96.4732 97.4919 96.7148C97.7311 96.9563 98.0547 97.093 98.392 97.093H109.756C110.093 97.093 110.417 96.9563 110.656 96.7148C110.895 96.4732 111.03 96.1451 111.03 95.801V85.2094L99.1918 67.3486H98.3943H98.392Z" fill="#303E47"/>
<path d="M109.756 67.1758H108.188C108.056 67.1758 107.926 67.2168 107.817 67.2943C107.707 67.3718 107.625 67.4789 107.577 67.6065L107.52 67.7614C107.472 67.889 107.39 67.9984 107.281 68.0736C107.172 68.1511 107.042 68.1921 106.907 68.1921H101.258C101.128 68.1921 101.001 68.1534 100.894 68.0804C100.787 68.0075 100.702 67.9027 100.654 67.7819L100.575 67.586C100.527 67.4652 100.443 67.3604 100.335 67.2874C100.228 67.2145 100.103 67.1758 99.9731 67.1758H98.3939C98.0111 67.1758 97.6442 67.3307 97.3731 67.6065C97.1019 67.8822 96.9492 68.2536 96.9492 68.641V95.8013C96.9492 96.1887 97.1019 96.5624 97.3708 96.8359C97.6397 97.1116 98.0065 97.2665 98.3894 97.2665H109.753C110.136 97.2665 110.503 97.1116 110.774 96.8381C111.046 96.5624 111.198 96.191 111.198 95.8036V68.641C111.198 68.2536 111.046 67.8799 110.774 67.6065C110.505 67.3307 110.136 67.1781 109.753 67.1758H109.756ZM111.114 77.2045V78.6857L111.03 78.5581V81.1376L111.114 81.2652V84.5124L111.03 84.3848V85.212L111.114 85.3396V95.8036C111.114 96.1682 110.97 96.5191 110.715 96.7766C110.46 97.0341 110.116 97.18 109.756 97.1822H98.3917C98.0316 97.1822 97.6875 97.0364 97.4323 96.7766C97.1771 96.5191 97.0335 96.1682 97.0335 95.8036V68.641C97.0335 68.2764 97.1771 67.9255 97.4323 67.668C97.6875 67.4105 98.0316 67.2647 98.3917 67.2624H99.13L99.1869 67.349H99.7338L99.6769 67.2624H99.9685C100.08 67.2624 100.19 67.2966 100.283 67.3604C100.376 67.4242 100.449 67.513 100.49 67.6179L100.57 67.8138C100.625 67.9506 100.721 68.069 100.841 68.1511C100.962 68.2331 101.106 68.2787 101.251 68.2787H102.5L102.557 68.3653H104.266L104.209 68.2787H105.191L105.248 68.3653H106.903C107.071 68.3653 107.235 68.3129 107.372 68.2149C107.511 68.1169 107.616 67.9802 107.675 67.8207L107.732 67.6657C107.766 67.5723 107.828 67.4925 107.908 67.4356C107.987 67.3786 108.083 67.349 108.181 67.349H109.747C110.084 67.349 110.407 67.4857 110.647 67.7272C110.886 67.9688 111.018 68.2992 111.018 68.641V77.0769L111.107 77.2045H111.114Z" fill="#303E47"/>
<path d="M100.415 67.6545L100.495 67.8504C100.557 68.0031 100.661 68.1353 100.798 68.2287C100.935 68.3221 101.094 68.37 101.256 68.37H102.562L102.505 68.2834H101.256C101.11 68.2834 100.967 68.2378 100.846 68.1558C100.725 68.0738 100.63 67.9553 100.575 67.8185L100.495 67.6226C100.452 67.5178 100.379 67.4289 100.288 67.3651C100.194 67.3013 100.085 67.2671 99.9733 67.2671H99.6816L99.7386 67.3537H99.9733C100.069 67.3537 100.16 67.3833 100.24 67.4357C100.32 67.4904 100.379 67.5656 100.415 67.6545Z" fill="#303E47"/>
<path d="M111.114 84.5145V81.2673L111.027 81.1396V84.3846L111.114 84.5122V84.5145Z" fill="#303E47"/>
<path d="M105.197 68.2808H104.217L104.274 68.3674H105.254L105.197 68.2808Z" fill="#303E47"/>
<path d="M111.114 78.6884V77.2072L111.027 77.0796V78.5608L111.114 78.6884Z" fill="#303E47"/>
<path d="M109.756 97.0955H98.3943C98.057 97.0955 97.7334 96.9588 97.4942 96.7172C97.2549 96.4757 97.1205 96.1475 97.1205 95.8034V68.6408C97.1205 68.299 97.2549 67.9686 97.4942 67.7271C97.7334 67.4855 98.057 67.3488 98.3943 67.3488H99.1895L99.1326 67.2622H98.3943C98.0342 67.2622 97.6901 67.408 97.4349 67.6678C97.1797 67.9253 97.0361 68.2762 97.0361 68.6408V95.8012C97.0361 96.1658 97.182 96.5167 97.4349 96.7742C97.6901 97.0317 98.0342 97.1775 98.3943 97.1798H109.756C110.116 97.1798 110.46 97.0339 110.715 96.7742C110.971 96.5167 111.114 96.1658 111.114 95.8012V85.3395L111.028 85.2118V95.8034C111.028 96.1452 110.893 96.4734 110.654 96.7149C110.415 96.9565 110.091 97.0932 109.754 97.0932L109.756 97.0955Z" fill="#303E47"/>
<path d="M148.432 119.122C148.056 118.915 147.636 118.789 147.231 118.623C147.274 118.532 147.34 118.393 147.413 118.24L146.752 118.046C146.827 117.864 146.887 117.723 146.989 117.475C146.754 117.568 146.565 117.582 146.504 117.68C146.228 118.117 146.002 118.584 145.736 119.026C145.086 120.106 144.423 121.18 143.765 122.258L143.651 122.192L146.515 117.288L146.018 117.146C146.107 116.971 146.185 116.814 146.271 116.64C146.141 116.543 146.025 116.456 145.879 116.347C146.041 116.059 146.194 115.784 146.351 115.51C146.538 115.187 146.406 115.025 146.082 114.97C145.934 114.954 145.784 114.947 145.633 114.947C144.423 114.877 143.197 114.904 142.003 114.717C139.581 114.337 137.282 113.466 134.969 112.657C132.747 111.88 130.514 111.115 128.253 110.465C124.498 109.387 120.631 108.943 116.748 108.74C115.173 108.658 113.574 108.861 111.999 109.05C109.989 109.292 108 109.683 106.147 110.581C105.678 110.811 105.204 111.033 104.796 111.226C104.468 110.77 104.206 110.276 103.825 109.9C102.13 108.236 100.193 106.97 97.9027 106.288C93.7235 105.046 89.4805 105.078 85.2284 105.723C81.8923 106.233 78.5744 106.878 75.2429 107.432C73.6296 107.699 72.0025 108 70.3641 107.829C69.6554 107.756 69.2544 108.002 68.8533 108.519C62.6871 116.481 56.514 124.436 50.3363 132.384C47.2782 136.317 44.2042 140.239 41.1461 144.172C41.0436 144.304 40.9661 144.576 41.0322 144.687C41.0983 144.799 41.3535 144.849 41.5312 144.863C41.709 144.876 41.9049 144.817 42.1647 144.778C41.8229 145.437 41.5198 146.025 41.2168 146.613L41.3148 146.702L42.9281 146.098L42.9919 146.184C42.5498 146.902 42.151 147.65 41.6588 148.329C41.0459 149.174 40.3531 149.96 39.7082 150.778C39.633 150.874 39.5556 151.056 39.5943 151.134C39.633 151.191 39.6855 151.239 39.7447 151.275C39.8039 151.309 39.87 151.332 39.9407 151.337C40.7041 151.371 41.4674 151.407 42.2308 151.387C46.7154 151.259 51.2022 151.093 55.6913 150.983C60.2989 150.874 64.9088 150.828 69.5073 151.252C72.0458 151.485 74.5798 151.776 77.116 152.034C77.492 152.073 77.6652 152.182 77.5034 152.61C77.3804 152.939 77.4351 153.228 77.8658 153.337C79.7001 153.798 81.53 154.274 83.3621 154.741C84.1414 154.939 84.4285 154.803 84.6313 154.035C84.7179 153.702 84.9093 153.629 85.1691 153.613C85.3628 153.604 85.5588 153.624 85.7479 153.67C91.5382 154.948 97.3148 156.3 103.007 157.984C108.032 159.469 113.038 161.014 118.045 162.569C119.651 163.065 121.219 163.685 122.814 164.214C123.614 164.492 123.796 164.403 124.193 163.701C128.707 155.766 133.221 147.83 137.733 139.89C141.42 133.385 145.093 126.872 148.755 120.353C149.131 119.683 149.095 119.491 148.427 119.124L148.432 119.122ZM104.919 111.684C108.706 109.51 112.815 108.765 117.103 109.004C119.45 109.139 121.809 109.346 124.124 109.743C127.87 110.385 131.512 111.463 135.051 112.894C137.352 113.824 139.713 114.606 142.17 114.977C143.32 115.15 144.496 115.109 145.665 115.166C145.8 115.173 145.934 115.178 146.068 115.193C146.109 115.198 146.146 115.237 146.223 115.282C145.964 115.729 145.713 116.171 145.453 116.613C138.576 128.346 131.694 140.077 124.81 151.808C123.689 153.718 122.465 155.564 121.31 157.45C121.089 157.808 120.909 157.915 120.492 157.726C116.689 155.99 112.856 154.322 109.073 152.544C103.894 150.115 98.5089 148.493 92.8211 147.896C89.3301 147.529 85.9006 147.611 82.5508 148.798C82.2455 148.907 81.9219 148.964 81.514 149.072C81.6371 148.857 81.7054 148.725 81.7829 148.604C89.1341 136.846 96.4853 125.086 103.837 113.325C104.101 112.901 104.317 112.448 104.575 112.021C104.661 111.882 104.778 111.769 104.917 111.687L104.919 111.684ZM92.4611 148.326C91.1143 148.326 89.8907 148.29 88.6715 148.335C86.6389 148.413 84.645 148.725 82.7719 149.591C82.462 149.735 82.2045 149.751 82.0131 149.4C85.3742 148.142 88.806 147.738 92.4611 148.326ZM41.8958 144.457C41.7409 144.482 41.5836 144.494 41.3444 144.521C41.4583 144.345 41.5153 144.243 41.5882 144.152C50.8171 132.223 60.0437 120.293 69.2703 108.364C69.4458 108.136 69.6213 107.968 69.9426 108.015C71.5696 108.264 73.1784 108.038 74.7781 107.774C78.3306 107.186 81.8695 106.502 85.4289 105.969C89.6377 105.336 93.8352 105.336 97.9597 106.621C100.134 107.3 101.998 108.505 103.572 110.135C104.652 111.251 104.566 111.431 103.809 112.773C102.957 114.291 101.993 115.747 101.066 117.224C94.9814 126.92 88.8949 136.616 82.8106 146.31C82.2728 147.169 81.7647 148.048 81.195 148.994C81.1175 148.885 81.0446 148.773 80.9785 148.657C80.1764 147.005 78.8707 145.877 77.3143 145.002C75.0561 143.73 72.5996 143.051 70.1044 142.491C65.8932 141.543 61.6457 141.451 57.3913 142.08C52.2185 142.839 47.0595 143.664 41.8958 144.457ZM42.1807 146.118C42.0417 146.164 41.9049 146.216 41.6429 146.31C41.8867 145.783 42.0508 145.357 42.2787 144.968C42.3607 144.829 42.5749 144.715 42.7435 144.685C45.9702 144.147 49.1924 143.555 52.4327 143.11C55.5842 142.677 58.7471 142.217 61.9146 142.089C67.142 141.882 72.1962 142.851 76.9292 145.211C78.5084 145.998 79.8255 147.116 80.6185 148.762C80.6618 148.853 80.7028 148.946 80.7461 149.04L80.6526 149.156C80.5478 149.078 80.4248 149.017 80.3427 148.921C80.1673 148.721 80.0351 148.472 79.8437 148.292C78.5562 147.084 77.0317 146.26 75.4093 145.642C72.2874 144.453 69.1222 143.407 65.777 143.072C62.6939 142.762 59.613 142.8 56.5231 143.035C53.0343 143.299 49.6253 143.969 46.2391 144.783C44.8605 145.12 43.532 145.669 42.1784 146.121L42.1807 146.118ZM73.3561 150.876C71.5195 150.699 69.6782 150.582 67.837 150.434C62.9605 150.045 58.0863 150.266 53.2098 150.446C51.2136 150.519 49.2197 150.619 47.2258 150.687C45.1567 150.758 43.0876 150.803 41.0185 150.854C40.8431 150.858 40.6653 150.828 40.3896 150.806C41.2236 149.716 42.0075 148.689 42.7937 147.663L42.8757 147.716L42.5635 148.383C43.0147 148.335 43.4066 148.358 43.7553 148.244C45.7241 147.604 47.6861 146.941 49.6413 146.262C52.6401 145.216 55.7096 144.425 58.8383 143.958C60.8025 143.664 62.8078 143.655 64.7995 143.568C59.8569 143.495 58.4851 143.582 52.5581 145.186C50.3431 145.786 48.2034 146.64 46.0226 147.353C45.2387 147.611 44.4321 147.802 43.6391 148.012C43.4408 148.064 43.2335 148.073 43.0306 148.103L42.96 147.971C43.1355 147.848 43.295 147.666 43.4887 147.615C44.1541 147.442 44.8491 147.367 45.5031 147.155C47.5904 146.485 49.6595 145.761 51.7423 145.077C54.0597 144.316 56.4433 143.86 58.8611 143.573C59.0661 143.548 59.2758 143.55 59.4718 143.434C58.4691 143.555 57.4642 143.657 56.4661 143.803C54.1122 144.149 51.8539 144.867 49.5957 145.606C47.7431 146.212 45.8631 146.74 43.9854 147.267C43.5661 147.383 43.1036 147.353 42.5726 147.397C42.8985 146.866 43.1628 146.417 43.4522 145.979C43.5092 145.893 43.6505 145.852 43.7621 145.815C47.4582 144.61 51.2318 143.787 55.1057 143.454C56.555 143.329 58.0065 143.156 59.4581 143.119C61.0897 143.081 62.7281 143.11 64.3574 143.215C69.0493 143.516 73.4701 144.849 77.6379 147.028C78.4263 147.44 79.1145 148.064 79.8164 148.629C80.0032 148.778 80.0852 149.062 80.149 149.345C78.677 148.126 77.1343 147.062 75.4298 146.248C73.7253 145.432 71.982 144.776 70.1226 144.432C73.7162 145.412 76.9998 146.982 79.7411 149.657L79.495 149.928C78.4651 149.165 77.5034 148.361 76.4552 147.695C74.6391 146.542 72.6292 145.811 70.5715 145.232C69.1473 144.833 67.7117 144.471 66.2738 144.113C65.9798 144.04 65.6654 144.058 65.3577 144.047C63.0015 143.967 60.6453 143.947 58.3005 144.273C55.2356 144.696 52.3347 145.751 49.4202 146.743C47.9003 147.262 46.3872 147.807 44.8491 148.26C44.0971 148.484 43.2927 148.529 42.4792 148.659C42.682 149.099 41.9596 149.536 42.625 150.124C43.2312 150.056 43.9968 149.951 44.7648 149.883C45.4643 149.826 46.173 149.844 46.868 149.769C51.0905 149.293 55.3199 148.912 59.572 148.917C62.0627 148.921 64.5534 149.044 67.0417 149.129C69.7306 149.22 72.3854 149.616 75.0219 150.147C75.448 150.234 75.865 150.382 76.2957 150.434C77.05 150.528 77.5399 151.04 78.0412 151.432C76.5076 151.252 74.9376 151.034 73.363 150.881L73.3561 150.876ZM73.641 146.93C74.3132 147.301 75.0219 147.629 75.6166 148.105C76.6945 148.971 77.7062 149.924 78.7385 150.851C78.9276 151.024 79.0689 151.232 78.7522 151.428C76.7651 149.555 74.7689 147.725 72.1962 146.72C72.6907 146.991 73.2012 147.239 73.6729 147.54C74.1787 147.866 74.6596 148.233 75.1358 148.604C75.6052 148.964 76.0519 149.352 76.4734 149.769C73.919 148.071 71.1389 146.87 68.2176 146.002L69.0584 146.337C66.3809 145.724 63.6829 145.312 60.9393 145.243H64.9134C61.1102 144.938 57.3502 145.163 53.6655 146.269C55.8987 145.364 58.2184 144.897 60.6157 144.737C62.9901 144.578 65.3486 144.587 67.6935 145.061C67.0531 144.938 66.4174 144.794 65.7748 144.694C65.1071 144.592 64.4349 144.464 63.7649 144.464C61.076 144.471 58.3711 144.459 55.7711 145.25C53.9207 145.811 52.0978 146.487 50.3021 147.21C47.8046 148.212 45.2137 148.823 42.6091 149.418L42.5248 149.304C42.6866 149.156 42.837 148.898 43.0124 148.878C45.9178 148.545 48.5247 147.219 51.2615 146.337C53.6336 145.574 55.9944 144.746 58.4782 144.437C60.9621 144.124 63.4801 143.958 65.9798 144.238C67.1785 144.375 68.3475 144.797 69.5256 145.104C70.2365 145.291 70.9384 145.503 71.6425 145.713C71.72 145.735 71.7838 145.813 71.8499 145.872H71.8749L71.9046 145.886H71.9091C72.0094 145.886 72.1074 145.9 72.2031 145.927C74.1856 146.693 76.1202 147.545 77.7814 148.928C78.187 149.265 78.5676 149.632 78.9709 149.974C79.2239 150.19 79.2717 150.409 79.037 150.689C78.9869 150.669 78.9413 150.639 78.898 150.605C77.2505 148.753 75.2406 147.424 73.0075 146.421C72.636 146.255 72.2737 146.066 71.9046 145.888C71.8909 145.888 71.8749 145.888 71.8613 145.884L71.8476 145.872L71.5696 145.847C72.3056 146.244 72.9801 146.576 73.6364 146.939H73.6387L73.641 146.93ZM49.9443 147.802C47.6246 148.705 45.2615 149.805 42.5931 149.835L49.9443 147.802ZM83.7449 153.321C83.4213 154.142 83.4259 154.155 82.5577 153.918C81.4593 153.618 80.3678 153.299 79.274 152.984C79.1213 152.941 78.9732 152.879 78.6907 152.784C79.0074 152.537 79.233 152.364 79.454 152.184C79.5566 152.1 79.6523 152.009 79.7411 151.909C80.3086 151.266 80.876 150.619 81.4365 149.985C81.9196 150.22 82.1042 150.555 82.0655 151.102C82.045 151.389 81.9698 151.674 81.9675 151.961C81.9629 152.332 81.9675 152.697 82.5167 152.702C82.8585 152.702 83.1889 152.841 83.5284 152.909C83.7768 152.961 83.8429 153.068 83.7403 153.324H83.7426L83.7449 153.321ZM148.277 120.077C140.577 133.706 132.875 147.333 125.172 160.96C124.71 161.778 124.209 162.573 123.76 163.4C123.582 163.726 123.352 163.822 123.026 163.751C122.732 163.696 122.44 163.624 122.155 163.53C110.78 159.508 99.1788 156.304 87.4296 153.629C86.6594 153.456 85.9302 153.103 85.1714 152.863C84.6404 152.695 84.0935 152.581 83.5512 152.433C83.476 152.412 83.3507 152.335 83.3552 152.296C83.3644 152.209 83.4282 152.07 83.492 152.057C83.6948 152.013 83.9135 151.977 84.1163 152.004C85.8368 152.262 87.5618 152.494 89.2731 152.811C90.7634 153.087 92.2492 153.406 93.7098 153.798C96.5058 154.552 99.2928 155.345 102.068 156.177C104.048 156.771 105.997 157.466 107.961 158.114C107.991 158.127 108.025 158.132 108.057 158.125C108.091 158.12 108.121 158.107 108.146 158.084C107.521 157.845 106.901 157.601 106.277 157.366C104.09 156.537 101.902 155.709 99.7143 154.885C97.7204 154.135 95.7265 153.387 93.7235 152.663C93.2381 152.49 92.7186 152.417 92.2218 152.266C93.9332 152.405 95.5465 152.968 97.1895 153.422C96.3144 153.128 95.4508 152.793 94.5621 152.549C93.6643 152.305 92.755 152.114 91.8367 151.972C90.9047 151.829 89.9636 151.747 89.0179 151.688C88.0905 151.628 87.1585 151.626 86.2265 151.617C85.2853 151.605 84.3419 151.617 83.5421 151.617C85.5861 151.186 87.8011 151.143 90.0206 151.334C92.2104 151.523 94.4094 151.688 96.4922 152.506C95.207 151.925 93.8716 151.571 92.4793 151.391C90.1071 151.081 87.735 150.835 85.3423 151.072C84.6701 151.138 84.0047 151.271 83.3347 151.35C83.2048 151.366 83.0658 151.284 82.9473 151.186C87.8375 150.072 92.6115 150.569 97.3239 152.061C96.3577 151.492 92.6411 150.662 90.49 150.425C88.1269 150.163 85.7935 150.457 83.4509 150.655C86.2561 149.921 89.084 149.582 91.9894 149.887C95.1637 150.222 98.0691 151.382 100.94 152.672C104.226 154.151 107.451 155.782 110.878 156.92C112.945 157.603 115.027 158.237 117.106 158.893C117.258 158.936 117.406 158.991 117.55 159.059C112.612 158.12 107.872 156.569 103.365 154.29L103.317 154.417C103.741 154.611 104.162 154.807 104.584 154.999C105.022 155.197 105.466 155.384 105.899 155.589C109.8 157.432 113.952 158.449 118.113 159.453C119.353 159.754 120.588 160.078 121.823 160.395C122.456 160.556 122.504 160.538 122.823 159.971C125.548 155.115 128.258 150.254 130.999 145.407C132.758 142.297 134.563 139.205 136.341 136.101C136.83 135.244 137.293 134.369 137.769 133.503C137.927 133.173 138.063 132.831 138.246 132.514C138.544 131.992 138.87 131.484 139.184 130.971C139.102 131.131 139.02 131.291 138.943 131.45C139.023 131.291 139.105 131.131 139.184 130.971C139.287 130.798 139.389 130.625 139.492 130.452C139.595 130.279 139.697 130.106 139.797 129.932C140.203 129.235 140.613 128.538 141.012 127.836C141.253 127.414 141.479 126.986 141.714 126.56C141.775 126.476 141.839 126.391 141.903 126.309C141.839 126.394 141.775 126.476 141.714 126.56C141.753 126.435 141.791 126.307 141.83 126.182C141.869 126.056 141.907 125.929 141.946 125.803C141.734 126.159 141.518 126.514 141.306 126.87C141.092 127.225 140.88 127.583 140.675 127.943C134.675 138.532 128.677 149.124 122.684 159.716C122.452 160.126 122.34 160.262 122.092 160.192C121.934 160.137 121.782 160.062 121.64 159.973C121.672 159.982 121.702 159.989 121.732 159.996C121.761 160.003 121.788 160.007 121.818 160.012C121.871 160.021 121.927 160.023 121.982 160.023C122.032 160.023 122.082 160.019 122.13 160.007C122.176 159.998 122.221 159.982 122.262 159.962C122.283 159.95 122.303 159.939 122.324 159.927C122.363 159.902 122.399 159.868 122.431 159.832C122.525 159.72 122.588 159.586 122.618 159.442C122.636 159.399 122.659 159.36 122.684 159.324C126.512 152.506 130.338 145.688 134.164 138.87C134.214 138.778 134.258 138.685 134.294 138.587C134.333 138.489 134.369 138.391 134.408 138.295C134.34 138.398 134.269 138.5 134.203 138.603C134.18 138.637 134.16 138.674 134.139 138.708C130.227 145.56 126.319 152.419 122.415 159.285C122.176 159.706 121.957 159.782 121.531 159.613C120.863 159.346 120.177 159.123 119.489 158.907C116.183 157.874 112.874 156.847 109.565 155.823C109.52 155.817 109.474 155.817 109.429 155.823C109.948 156.101 110.49 156.334 111.049 156.516C114.139 157.496 117.238 158.453 120.326 159.428C120.572 159.513 120.813 159.611 121.048 159.725L121.262 159.823C121.333 159.857 121.406 159.886 121.476 159.918C120.738 159.702 120 159.476 119.261 159.262C118.819 159.132 118.375 159.007 117.928 158.891C111.828 157.277 105.992 154.946 100.305 152.214C99.1264 151.649 97.9209 151.157 96.7542 150.537L100.71 152.027L100.737 151.959C99.949 151.621 99.1788 151.227 98.3676 150.961C96.4147 150.32 94.4732 149.587 92.4725 149.174C89.9454 148.655 87.3909 148.953 84.882 149.546C84.1482 149.719 83.4099 149.883 82.6671 150.015C83.8907 149.436 85.1395 148.967 86.4953 148.796C88.6761 148.52 90.8705 148.276 93.0467 148.604C95.4873 148.969 97.9027 149.527 100.327 150.004C100.384 150.015 100.441 150.022 100.498 150.033C100.505 149.994 100.514 149.953 100.523 149.912L94.2203 148.527L94.2317 148.456C95.0976 148.602 95.9658 148.75 96.834 148.892C101.521 149.653 105.846 151.485 110.128 153.472C113.498 155.035 116.901 156.525 120.291 158.038C121.087 158.394 121.144 158.376 121.579 157.635C126.227 149.782 130.869 141.928 135.509 134.073C138.877 128.349 142.204 122.597 145.551 116.859C145.617 116.743 145.697 116.638 145.77 116.527L145.911 116.581C145.87 116.72 145.854 116.875 145.781 116.996C145.2 117.99 144.608 118.978 144.022 119.97C143.961 120.056 143.933 120.163 143.947 120.268L145.572 117.727C145.638 117.625 145.686 117.497 145.777 117.431C145.886 117.356 146.032 117.336 146.162 117.292C146.205 117.349 146.248 117.408 146.294 117.465L135.379 135.978L135.465 136.028C136.11 134.918 136.753 133.804 137.405 132.699C137.482 132.569 137.619 132.478 137.728 132.371C139.134 130.039 140.54 127.708 141.948 125.379C142.06 125.19 142.258 125.054 142.416 124.892C143.699 122.825 144.979 120.758 146.262 118.691C146.376 118.511 146.495 118.34 146.629 118.138L147.192 118.34C146.376 119.541 145.588 120.699 144.804 121.859C144.756 121.934 144.713 122.011 144.674 122.094C144.635 122.173 144.599 122.258 144.558 122.335C145.266 121.337 145.975 120.339 146.681 119.339C146.795 119.179 146.905 119.017 147.01 118.862C147.479 119.015 147.509 119.102 147.276 119.491C144.444 124.279 141.572 129.044 138.792 133.863C133.57 142.914 128.379 151.986 123.215 161.074C123.06 161.343 122.914 161.454 122.584 161.393C120.002 160.923 117.413 160.493 114.834 160.009C114.107 159.873 113.407 159.602 112.687 159.41L114 160.016H114.032L114.159 160.055H114.164C114.699 160.164 115.233 160.276 115.77 160.374C117.921 160.768 120.07 161.16 122.224 161.548C122.399 161.58 122.575 161.614 122.757 161.65C122.7 162.09 122.411 162.031 122.126 162.01C120.467 161.896 118.89 161.39 117.299 160.973C117.163 160.937 117.026 160.9 116.889 160.862C115.975 160.609 115.073 160.324 114.164 160.055L114.029 160.028L114.009 160.019H113.776C113.772 160.044 113.767 160.071 113.763 160.096C114.964 160.445 116.16 160.805 117.363 161.14C118.908 161.568 120.428 162.11 122.039 162.261C122.415 162.295 122.682 162.288 122.948 161.905C126.496 156.853 129.194 151.289 132.307 145.977C137.336 137.391 142.261 128.743 147.231 120.122C147.374 119.874 147.531 119.635 147.705 119.357L148.4 119.753C148.361 119.858 148.315 119.961 148.265 120.061L148.277 120.077ZM86.2515 149.669C88.8812 149.247 91.4881 149.044 94.0722 149.842C92.7664 149.705 91.4607 149.484 90.1482 149.452C88.8516 149.425 87.5504 149.589 86.2538 149.669H86.2515Z" fill="#303E47"/>
<path d="M143.709 124.75C143.652 124.828 143.598 124.908 143.55 124.987C142.292 127.04 141.018 129.084 139.785 131.151C137.008 135.811 134.225 140.469 131.489 145.154C129.424 148.686 127.426 152.257 125.404 155.812C125.354 155.901 125.363 156.021 125.343 156.129L125.479 156.174L143.709 124.748V124.75Z" fill="#303E47"/>
<path d="M143.785 124.621L143.71 124.751C143.742 124.705 143.774 124.662 143.806 124.616L143.787 124.621H143.785Z" fill="#303E47"/>
<path d="M122.51 160.96C122.913 161.008 123.164 160.985 123.175 160.566C122.952 160.607 122.722 160.705 122.512 160.675C120.701 160.424 118.88 160.231 117.089 159.864C115.428 159.522 113.803 158.991 112.272 158.574C112.219 158.547 112.272 158.581 112.324 158.601C112.689 158.738 113.053 158.875 113.422 159.005C116.373 160.035 119.42 160.602 122.512 160.96H122.51Z" fill="#303E47"/>
<path d="M129.767 144.77C127.08 149.379 124.393 153.989 121.709 158.604C121.52 158.927 121.351 159.028 121 158.873C119.733 158.319 118.416 157.868 117.192 157.232C113.961 155.555 110.728 153.891 107.38 152.463C107.205 152.387 107.029 152.319 106.852 152.246C106.972 152.399 107.123 152.465 107.269 152.535C109.789 153.775 112.305 155.026 114.832 156.257C116.805 157.216 118.785 158.162 120.772 159.091C121.506 159.438 121.54 159.395 121.932 158.706C124.165 154.796 126.399 150.886 128.632 146.975C129.094 146.166 129.557 145.357 130.017 144.549L129.928 144.503C129.876 144.594 129.819 144.683 129.764 144.772L129.767 144.77Z" fill="#303E47"/>
<path d="M59.9212 143.452H62.5987V143.429H59.9189V143.452H59.9212Z" fill="#303E47"/>
</g>
</g>
<defs>
<clipPath id="clip0_2002_1509">
<rect width="154" height="154" fill="white" transform="translate(0 23)"/>
</clipPath>
</defs>
</svg>
