<svg width="200" height="200" viewBox="0 0 200 200" fill="none" xmlns="http://www.w3.org/2000/svg">
<rect width="200" height="200" fill="white"/>
<mask id="mask0_412_1781" style="mask-type:luminance" maskUnits="userSpaceOnUse" x="0" y="0" width="129" height="200">
<path d="M128.242 0H0V200H128.242V0Z" fill="white"/>
</mask>
<g mask="url(#mask0_412_1781)">
<path d="M127.546 82.3987V162.444C127.546 163.734 127.218 164.062 125.932 164.058L2.17472 163.634C1.9569 163.634 1.73555 163.634 1.51773 163.619C0.889247 163.566 0.521429 163.216 0.432156 162.591C0.414301 162.43 0.403567 162.266 0.410709 162.102C0.271443 114.755 0.1357 67.4044 0.00357578 20.0576C-0.0142788 14.0549 0.0392571 8.06288 0.0642535 2.06373C0.0713953 0.735352 0.749926 0.039023 2.08545 0.039023C20.8685 0.0283103 39.6514 -0.0252531 58.4345 0.0283107C80.3385 0.0890163 102.243 0.246138 124.147 0.363978C124.768 0.363978 125.386 0.349692 126.011 0.353263C126.978 0.360405 127.31 0.80677 127.285 1.75663C127.232 3.75278 127.25 5.75249 127.25 7.75935V82.4058L127.55 82.3987H127.546ZM1.80333 1.94946V2.7315C1.80333 15.1083 1.80683 27.4851 1.81397 39.8619C1.82825 49.1856 1.8819 58.5092 1.89975 67.8329C1.89975 68.365 2.06407 68.5328 2.58186 68.5007C3.18177 68.465 3.78885 68.49 4.38876 68.5007C4.87798 68.5007 5.11723 68.7364 5.10294 69.2399C5.08866 69.7969 4.91725 69.9683 4.29234 69.9719H1.91754C2.06752 100.553 2.22107 131.127 2.37105 161.691L125.6 162.127V161.42C125.586 146.172 125.568 130.924 125.55 115.673C125.529 100.878 125.5 86.0839 125.468 71.2896C125.468 71.0217 125.518 70.7789 125.193 70.5575C125.036 70.4468 125.057 69.7041 125.161 69.6648C125.575 69.5005 125.464 69.2077 125.464 68.947C125.443 46.9002 125.421 24.8533 125.396 2.80648C125.396 2.61723 125.371 2.4244 125.357 2.19229C84.1594 2.12087 43.0224 1.5888 1.79618 1.94589L1.80333 1.94946Z" fill="#303E47"/>
<path d="M128.243 185.184C128.268 186.123 128.007 187.041 127.5 187.83C127.007 188.626 126.457 189.191 125.365 189.266C123.829 189.376 122.308 189.755 120.783 190.019L105.975 192.59L90.6267 195.258C85.0811 196.222 79.5319 197.186 73.9862 198.15C70.5189 198.75 67.055 199.346 63.5877 199.936C63.1734 200 62.7521 200.011 62.3378 199.971C57.9385 199.621 53.5392 199.189 49.1148 199.361C48.2578 199.393 47.4007 199.443 46.5437 199.457C46.0687 199.468 45.4867 199.489 45.3367 198.95C45.1868 198.411 45.6653 198.118 46.0795 197.872C49.9718 195.547 53.8677 193.226 57.7671 190.908C59.499 189.226 61.7844 189.155 63.9662 188.794C69.2333 187.923 74.504 187.059 79.7747 186.213C84.7918 185.395 89.8125 184.584 94.8332 183.774C99.8682 182.959 104.907 182.142 109.942 181.327C114.041 180.66 118.148 180.024 122.237 179.278C123.597 179.031 124.757 179.256 125.836 180.035C127.1 180.945 127.732 182.259 128.078 183.727C128.186 184.202 128.193 184.702 128.246 185.184H128.243ZM63.6449 198.939C63.8163 198.929 63.9055 198.929 63.9948 198.911C74.5076 197.036 85.0167 195.158 95.5259 193.279L124.847 188.044C126.047 187.827 126.929 186.555 126.732 185.306C126.593 185.295 126.454 185.295 126.314 185.306C122.676 185.888 119.04 186.473 115.402 187.062L90.7695 191.044C82.1993 192.426 73.629 193.808 65.0553 195.19C64.7053 195.247 64.5982 195.39 64.5946 195.718C64.5839 196.865 64.2125 197.897 63.6412 198.95L63.6449 198.939ZM126.582 183.327L64.309 193.511C64.3626 193.729 64.4055 193.926 64.4555 194.119C64.634 194.829 64.6517 194.836 65.3766 194.718C67.5727 194.365 69.7689 194.011 71.965 193.661C80.6424 192.262 89.3197 190.858 97.997 189.458C107.339 187.952 116.684 186.448 126.029 184.948C126.739 184.841 126.879 184.623 126.729 183.916C126.693 183.741 126.639 183.57 126.579 183.331L126.582 183.327ZM62.5129 196.386C61.763 193.572 61.7093 193.047 59.7596 190.93C59.3846 190.523 59.1062 190.583 58.7348 190.801C55.4924 192.697 52.2536 194.593 49.0184 196.49C48.9541 196.536 48.8898 196.59 48.8327 196.643C49.829 197.097 49.9682 197.854 49.6611 198.782C50.2289 198.836 50.736 198.918 51.2431 198.929C54.6747 198.993 58.1063 199.032 61.5344 199.107C62.0379 199.118 62.3378 198.907 62.5199 198.496C62.7734 197.936 63.0449 197.372 63.2091 196.782C63.5626 195.522 63.5484 194.254 62.9556 193.065C62.5021 192.151 61.8487 191.394 60.906 190.908C62.6772 192.34 63.3413 194.094 62.5092 196.39L62.5129 196.386ZM63.4483 191.944C63.7197 192.565 64.1983 192.662 64.6947 192.583C67.0372 192.222 69.3726 191.837 71.708 191.455C77.4108 190.53 83.1135 189.605 88.8127 188.676C94.444 187.759 100.072 186.837 105.7 185.913C111.399 184.981 117.098 184.049 122.804 183.12C123.943 182.934 125.082 182.742 126.236 182.552C126.012 181.979 125.626 181.727 125.079 181.799C124.879 181.827 124.686 181.867 124.486 181.899C120.044 182.613 115.602 183.327 111.16 184.041C106.632 184.777 102.1 185.516 97.5721 186.266C92.8085 187.048 88.0485 187.837 83.2849 188.626C78.3999 189.437 73.5112 190.251 68.6262 191.069C66.9193 191.355 65.216 191.647 63.4449 191.955L63.452 191.947L63.4483 191.944ZM97.7185 184.391L67.4585 189.244C77.5999 187.991 87.6663 186.262 97.7149 184.391H97.7185Z" fill="#303E47"/>
<path d="M95.8681 50.2319C91.8865 50.3426 88.6657 48.9535 85.8803 46.4182C84.0163 44.7184 82.7379 42.6651 82.288 40.1976C82.0701 38.9978 82.1022 37.748 82.1344 36.5231C82.2058 34.2735 82.7057 32.0559 83.6056 29.9919C84.8697 27.0388 86.8694 24.6463 89.3726 22.6573C90.8474 21.4932 92.4829 20.5397 94.2291 19.8327C96.3824 18.9471 98.6642 18.4186 100.985 18.265C101.721 18.215 102.457 18.1543 103.192 18.1436C103.578 18.1365 103.963 18.1972 104.331 18.315C104.545 18.3865 104.827 18.615 104.849 18.8007C104.877 19.0506 104.763 19.4363 104.574 19.5649C104.181 19.8255 103.746 20.0184 103.285 20.1326C102.353 20.3826 101.382 20.5076 100.46 20.7861C97.6285 21.6467 95.3682 23.2536 94.1041 25.9997C93.8148 26.6317 93.7898 27.3887 93.6649 28.0922C93.597 28.4814 93.8185 28.6029 94.1684 28.5279C94.4255 28.4743 94.6826 28.4029 94.9361 28.3386C96.7502 27.8887 98.5535 27.3887 100.453 27.5851C102.696 27.8065 104.803 28.7457 106.459 30.2669C107.809 31.4774 108.823 32.9129 109.395 34.6306C109.784 35.8054 109.898 37.0302 109.873 38.2658C109.823 40.7404 109.188 43.0258 107.659 44.9969C106.095 47.0181 104.07 48.425 101.649 49.2892C99.7961 49.9641 97.8321 50.2855 95.8609 50.2355L95.8681 50.2319ZM99.6462 44.1506H99.6141C99.5926 43.715 99.5927 43.2793 99.5462 42.8401C99.2391 40.1869 98.7785 37.5659 97.9465 35.0269C97.6251 34.1056 97.193 33.2236 96.6538 32.4094C96.4252 32.0488 95.9073 31.7631 95.4681 31.6596C94.6325 31.4596 93.8113 32.338 93.6863 33.2308C93.4685 34.852 93.7506 36.4589 94.0791 38.0336C94.4791 39.9334 94.9969 41.8081 95.5361 43.6757C95.8325 44.7006 96.2859 45.6718 97.0893 46.4396C97.5678 46.8967 98.1 46.9931 98.6927 46.7824C99.2462 46.586 99.514 46.1361 99.5747 45.5826C99.6247 45.1005 99.6248 44.6256 99.6427 44.1506H99.6462Z" fill="#303E47"/>
<path d="M63.3877 26.9209C60.8273 26.9209 58.2706 26.9066 55.7174 26.928C54.6032 26.9352 53.5035 27.0673 52.4857 27.5887C51.9858 27.8458 51.5894 28.1672 51.3501 28.7064C51.0859 29.2599 50.786 29.7919 50.4539 30.3061C50.3289 30.5097 50.1503 30.7418 49.9432 30.8275C49.6397 30.9525 49.2575 31.0632 48.9575 30.9846C48.7826 30.9382 48.6291 30.5275 48.6041 30.2669C48.5863 29.9526 48.6363 29.6419 48.7506 29.3491C49.2184 28.01 49.7004 26.6781 50.2039 25.3533C50.8716 23.6071 51.5645 21.8609 52.2465 20.1147C52.4608 19.5684 52.9107 19.3291 53.4463 19.3148C54.7318 19.2756 56.021 19.2541 57.3065 19.2863C58.4849 19.3184 59.6597 19.5041 60.8345 19.4898C63.3556 19.4577 65.866 19.3149 68.3835 19.2649C70.4832 19.2256 72.5864 19.2363 74.6861 19.2649C75.4467 19.272 75.9609 19.9183 75.7823 20.6825C75.5502 21.6645 75.3038 22.6715 74.8967 23.5892C73.6255 26.4567 72.2615 29.2813 70.9581 32.1344C70.1439 33.9199 69.2939 35.6911 68.619 37.5301C67.8442 39.6369 67.2407 41.8081 67.2728 44.0935C67.3049 46.2539 67.2908 48.4143 67.3337 50.5747C67.3515 51.446 66.9622 52.153 65.9374 52.003C64.584 51.8031 63.2199 51.6388 61.8843 51.3317C60.5845 51.0246 59.3061 50.6354 58.0562 50.1676C57.3456 49.9069 56.6816 49.5391 56.0853 49.0749C54.4855 47.8358 54.4675 46.6859 54.996 44.8898C55.7816 42.2223 57.3529 39.9583 59.0633 37.8122C60.8488 35.5732 62.7521 33.4271 64.5983 31.2381C65.4017 30.2847 66.2123 29.3348 66.9943 28.3636C67.5728 27.6458 67.3336 27.0816 66.398 27.028C65.3946 26.9673 64.3875 27.0137 63.3805 27.0137L63.3877 26.9245V26.9209Z" fill="#303E47"/>
<path d="M44.0828 93.4938C44.1506 98.1503 44.2221 102.803 44.2864 107.449C44.3043 108.624 44.0221 108.906 42.8615 108.927L17.2402 109.374C16.9867 109.374 16.7296 109.392 16.4725 109.374C15.8833 109.327 15.5547 108.984 15.5083 108.392C15.5011 108.281 15.5083 108.174 15.5083 108.063C15.444 98.8288 15.3797 89.598 15.3154 80.3636V79.8172C15.3226 78.7209 15.6977 78.3496 16.8046 78.346C21.2969 78.3246 25.789 78.3139 30.2741 78.2746C34.3449 78.2424 38.4122 78.1746 42.483 78.1246C43.6186 78.1103 43.8649 78.3531 43.8828 79.4851C43.9542 84.1559 44.0293 88.8266 44.1007 93.4974H44.0756L44.0828 93.4938ZM17.126 107.72L42.5974 107.231C42.501 98.0253 42.4081 88.8981 42.3153 79.7208L16.7403 80.1493C16.8689 89.3516 16.9974 98.5003 17.126 107.717V107.72Z" fill="#303E47"/>
<path d="M30.9282 44.3042C30.9568 44.0186 30.9926 43.84 30.9926 43.6579C30.9926 39.0157 30.9996 34.3771 30.9817 29.7385C30.9817 29.2492 31.139 29.0636 31.6175 29.0921C31.9853 29.1136 32.3566 29.1028 32.728 29.0921C33.0386 29.0921 33.1815 29.235 33.1672 29.5421C33.16 29.7527 33.1672 29.9634 33.1672 30.1741V49.3678C33.16 49.5321 33.1422 49.6963 33.1137 49.857L32.9707 49.9177L19.162 34.1771L19.0085 34.2735C18.9978 34.3878 18.9763 34.5021 18.9763 34.6163C18.9763 39.3085 18.9799 44.0007 18.9871 48.6929C18.9871 49.1178 18.8299 49.2607 18.4406 49.2464C18.0478 49.2321 17.6302 49.2464 17.2231 49.2392C16.8946 49.2321 16.7373 49.1071 16.7373 48.7215C16.7516 42.1831 16.7588 35.6448 16.7588 29.1064C16.7588 28.9243 16.8766 28.7386 16.9373 28.5601C17.0837 28.66 17.2658 28.7386 17.3765 28.8672C18.7835 30.4669 20.1833 32.0667 21.5795 33.6665C23.8077 36.2268 26.0325 38.7907 28.2572 41.3547C29.0535 42.2688 29.8498 43.1865 30.6461 44.1007C30.7354 44.1757 30.8318 44.2435 30.9354 44.3042H30.9282Z" fill="#303E47"/>
<path d="M111.116 97.0005C110.638 97.1791 110.538 96.8505 110.477 96.5827C110.113 94.9472 108.92 94.2902 107.417 94.0617C107.027 94.001 106.595 94.1259 106.199 94.2295C105.91 94.3045 105.803 94.4687 105.863 94.8687C105.913 95.1865 105.581 95.6114 105.317 95.9007C105.195 96.0328 104.838 95.9542 104.585 95.9578C104.399 95.9578 104.206 95.9007 104.024 95.9292C102.639 96.1471 101.26 96.3863 99.8749 96.5827C99.5999 96.622 99.2964 96.5399 99.0142 96.4827C98.4286 96.3649 98.5571 95.8293 98.4357 95.3258C98.0072 95.5329 97.6145 95.7007 97.2431 95.9078C96.179 96.5077 95.122 97.1148 94.065 97.7326C93.6901 97.9504 93.3151 98.0718 92.958 97.7433C92.5795 97.3933 92.6974 96.9969 92.9116 96.6006C93.183 96.0971 93.44 95.59 93.7043 95.0829L93.5864 94.9722C92.4687 95.8043 91.3475 96.6291 90.2369 97.4719C89.4692 98.0539 88.7408 98.6967 87.9481 99.2466C87.6231 99.4645 87.2373 99.5716 86.8445 99.5502C86.2553 99.4966 85.9662 98.8824 86.2161 98.2361C86.8303 96.6684 87.3302 95.0222 88.1765 93.5796C89.737 90.9192 91.4903 88.3625 93.2187 85.7985C93.8971 84.788 94.797 83.9881 96.029 83.656C96.8682 83.4275 97.3431 83.8453 97.1967 84.7094C97.1681 84.8844 97.1074 85.0558 97.0502 85.2701C97.0181 85.1915 97.0039 85.1594 96.9967 85.1344L96.7789 84.2738C96.504 84.3845 96.179 84.438 95.9612 84.6202C95.5041 85.0022 95.0255 85.3986 94.6934 85.8842C92.4509 89.1802 90.3619 92.569 88.6978 96.1971C88.6407 96.3292 88.5908 96.4649 88.5444 96.6042C88.5372 96.6327 88.5621 96.6684 88.5871 96.7541C89.037 96.4256 89.4549 96.0757 89.9013 95.7864C91.5367 94.733 93.1901 93.6974 94.8327 92.6619C95.1898 92.4369 95.579 92.3012 95.9432 92.6297C96.336 92.9832 96.1755 93.3832 95.9826 93.776C95.6791 94.3937 95.3862 95.0151 95.0256 95.765C95.5255 95.5614 95.9005 95.3758 96.3111 95.2543C96.9325 95.0615 97.5681 94.9008 98.2073 94.7758C98.6108 94.7009 98.9321 94.9044 99.0285 95.3222C99.1071 95.6579 99.2999 95.7828 99.6177 95.7257C101.103 95.4615 102.592 95.1972 104.071 94.9115C104.164 94.8865 104.249 94.8437 104.321 94.7866C104.396 94.7258 104.456 94.6544 104.499 94.5687C105.006 93.3618 105.899 92.7761 107.195 93.0154C107.995 93.1761 108.77 93.4475 109.495 93.8153C110.438 94.2759 110.991 95.0651 111.009 96.1649C111.03 96.4435 111.066 96.722 111.112 97.0005H111.116Z" fill="#303E47"/>
<path d="M61.6765 130.935C60.2695 131.292 58.8627 131.66 57.4486 132.002C56.5558 132.224 55.6203 132.174 54.7561 131.863C53.717 131.492 53.2313 130.492 53.6777 129.499C54.7418 127.125 56.5772 125.582 59.0197 124.739C59.6697 124.514 60.3232 124.521 60.8552 125.068C60.9552 125.168 61.0944 125.303 61.0908 125.418C61.0658 126.15 61.1303 126.907 60.7196 127.56C60.7196 127.042 60.741 126.525 60.7196 126.01C60.691 125.475 60.3588 125.193 59.8161 125.232C59.5804 125.246 59.3446 125.3 59.1268 125.386C57.0342 126.232 55.4025 127.578 54.4633 129.663C54.1455 130.374 54.4205 130.895 55.1847 131.11C56.1702 131.388 57.1486 131.231 58.0984 130.97C59.5018 130.588 60.891 130.138 62.2908 129.746C62.5407 129.674 62.8977 129.656 63.0763 129.788C63.2012 129.881 63.1192 130.267 63.1157 130.521C63.0907 130.628 63.0549 130.728 63.0049 130.828C64.2369 130.392 65.1653 129.681 66.0223 128.721C65.6438 128.631 65.3081 128.603 65.026 128.467C64.7474 128.332 64.4012 128.121 64.344 127.874C64.2762 127.6 64.4296 127.221 64.6011 126.953C64.751 126.728 65.0475 126.582 65.3046 126.453C67.0115 125.596 68.8112 125.014 70.7217 124.857C71.4537 124.778 72.1893 124.928 72.8285 125.293C73.7569 125.839 74.0926 126.632 73.7998 127.682C73.7106 128.01 73.582 128.324 73.4499 128.714C74.0819 128.385 74.6568 128.082 75.2317 127.803C75.4888 127.671 75.7674 127.578 76.0531 127.528C76.2424 127.5 76.5351 127.55 76.628 127.678C76.7244 127.807 76.6602 128.085 76.5887 128.267C76.4923 128.517 76.3208 128.735 76.1244 129.064C76.3422 128.996 76.4638 128.964 76.5887 128.921C77.3243 128.656 78.0599 128.389 78.792 128.121C78.8812 128.099 78.9633 128.06 79.0418 128.01C80.3631 126.914 82.0486 126.896 83.6056 126.525C84.2519 126.371 84.8267 127.189 84.7018 127.949C84.6696 128.142 84.6055 128.332 84.5412 128.578L85.9158 128.924C85.3016 128.967 84.8125 129.042 84.3304 129.021C83.8126 128.999 83.6591 128.756 83.7484 128.257C83.8983 127.414 83.8769 127.385 83.0485 127.603C82.0665 127.864 81.0916 128.149 79.9632 128.46L80.6559 128.889C80.1095 129.339 79.4883 129.303 78.8349 128.774C77.985 129.242 77.1243 129.713 76.2637 130.185C76.0709 130.288 75.8709 130.46 75.678 130.456C75.3424 130.456 74.9282 130.431 74.7032 130.238C74.5639 130.117 74.7032 129.663 74.7389 129.367C74.7497 129.271 74.8354 129.181 74.8033 128.978C74.0355 129.499 73.2606 130.006 72.5143 130.553C72.2036 130.781 71.9215 131.038 71.5537 130.735C71.1859 130.431 71.3716 130.085 71.5323 129.746C71.8608 129.056 72.2108 128.378 72.475 127.664C72.8036 126.792 72.5321 126.375 71.6001 126.3C71.0395 126.253 70.4718 126.289 69.9219 126.414C68.9042 126.657 67.9043 126.989 66.9473 127.271C67.1758 127.671 67.4935 127.978 67.4935 128.285C67.4828 128.714 67.34 129.131 67.0829 129.474C66.2187 130.563 65.076 131.403 63.7761 131.906C63.5548 131.992 63.3262 132.052 63.0906 132.088C62.1586 132.238 61.8051 131.938 61.6836 130.949L61.6765 130.935Z" fill="#303E47"/>
<path d="M78.553 95.9436C76.8639 96.3686 75.1677 96.8042 73.4679 97.2113C73.0644 97.3148 72.6467 97.372 72.2289 97.3863C71.729 97.3934 71.561 97.0363 71.8395 96.6114C72.0788 96.2471 72.3574 95.9079 72.5645 95.5258C72.8288 95.033 72.6681 94.7795 72.1039 94.8509C71.0183 94.9902 69.9434 95.1794 68.8614 95.3544L68.8079 95.3651C67.2117 95.6579 66.8653 95.2937 67.2617 93.7368C67.2795 93.6689 67.2866 93.6011 67.3081 93.4797C67.1795 93.4868 67.051 93.5047 66.926 93.5368C65.1084 94.301 63.3086 95.0937 61.8338 96.4507C61.4696 96.7864 61.2375 96.7614 60.6733 96.3757C60.2019 96.7399 59.7448 97.1649 59.2235 97.4791C58.4664 97.9362 57.6987 98.4147 56.8703 98.7075C55.8847 99.061 54.9563 98.6111 54.5028 97.6612C53.735 96.0472 53.7458 94.3581 54.1529 92.6584C55.0384 88.9803 56.981 86.0022 60.1127 83.8275C60.9411 83.2526 61.8267 82.7776 62.8516 82.6705C64.612 82.4848 65.8404 83.7846 65.4797 85.5201C64.9048 88.359 63.4122 90.9336 61.2303 92.8476C61.1197 92.9476 60.9197 92.9405 60.7591 92.9869C60.809 92.8191 60.8054 92.6048 60.909 92.487C62.5909 90.5587 63.9942 88.4697 64.5941 85.9486C64.7048 85.4237 64.6943 84.8845 64.5657 84.3631C64.3943 83.6454 63.8335 83.3133 63.1051 83.4918C62.4623 83.6489 61.7911 83.8561 61.2412 84.2167C57.6917 86.57 55.6455 89.8802 55.2313 94.1046C55.1456 94.9866 55.4741 95.9186 55.6776 96.8113C55.7955 97.3184 56.2346 97.4398 56.6774 97.247C57.1809 97.0363 57.6559 96.7721 58.1023 96.4578C59.1629 95.6901 60.1949 94.8723 61.234 94.0796C61.3804 93.9689 61.5125 93.8118 61.6732 93.7654C62.0018 93.6725 62.3981 93.5154 62.6695 93.6261C62.8874 93.7154 62.9693 94.151 63.1443 94.4974L67.658 93.2262C67.7294 93.7618 67.7794 94.151 67.8437 94.6331C68.9185 94.5224 69.9649 94.4153 71.0111 94.3046C71.3754 94.2617 71.7395 94.2403 72.1074 94.2367C73.0251 94.251 73.4537 94.8581 73.1751 95.7329C73.093 95.9865 72.9823 96.2329 72.8466 96.5757C74.3214 96.3186 75.7176 96.0757 77.1209 95.8365C77.7673 95.7258 78.4172 95.6294 79.0635 95.508C79.4563 95.4365 79.6456 95.5651 79.5956 96.0079C80.0527 95.8722 80.4349 95.8329 80.717 96.3507C80.8134 96.5293 81.2347 96.5471 81.5133 96.6042C81.7061 96.6435 81.9095 96.6292 82.1059 96.6685C81.4489 96.8399 80.7918 97.1542 80.1419 96.5757C80.0526 96.4971 79.8028 96.5757 79.6314 96.6078C79.31 96.6757 78.9992 96.8113 78.6778 96.8328C78.4993 96.8435 78.3101 96.6899 78.1244 96.6149C78.2244 96.465 78.3172 96.315 78.4208 96.1722C78.4708 96.1222 78.5279 96.0829 78.5922 96.0507C78.5743 96.0115 78.56 95.9793 78.5422 95.9436H78.553Z" fill="#303E47"/>
<path d="M47.0933 149.764C47.5254 149.746 47.9611 149.75 48.3932 149.779C48.5931 149.8 48.7751 149.975 48.9644 150.078C48.793 150.2 48.6359 150.386 48.4502 150.436C48.0038 150.553 47.5397 150.607 47.1005 150.814C48.2717 150.932 49.4501 151 50.607 151.185C51.1784 151.278 51.7497 151.535 52.2603 151.825C52.7531 152.103 52.7711 152.571 52.3962 153.014C52.1783 153.246 51.9462 153.464 51.7069 153.667C52.0069 153.621 52.2176 153.592 52.4282 153.56C52.6175 153.542 52.7996 153.478 52.9567 153.374C51.6426 153.989 50.3429 154.61 49.0252 155.206C48.9038 155.26 48.7145 155.167 48.5538 155.142C48.6288 154.981 48.6645 154.746 48.7895 154.674C49.5644 154.239 50.3679 153.842 51.1535 153.417C51.4427 153.26 51.7141 153.074 51.9641 152.864C52.2819 152.596 52.3283 152.278 51.882 152.121C51.357 151.921 50.8142 151.782 50.2571 151.703C48.4609 151.514 46.6647 151.318 44.865 151.25C44.0258 151.218 43.1724 151.443 42.3333 151.593C39.5694 152.082 36.8055 152.585 34.0452 153.103C33.6559 153.182 33.2846 153.332 32.949 153.546C31.8277 154.26 30.7384 155.024 29.6136 155.735C29.4351 155.842 29.1422 155.785 28.8994 155.803C28.9994 155.585 29.0387 155.281 29.2101 155.156C30.1386 154.481 31.0955 153.849 32.0454 153.203C32.1883 153.107 32.3241 152.992 32.4276 152.917C31.8313 152.653 31.2205 152.46 30.692 152.139C29.8457 151.618 29.6493 151.096 29.9243 150.143C30.06 149.632 30.2886 149.154 30.5993 148.725C32.4061 146.343 34.7165 144.665 37.6839 144.04C38.3802 143.911 39.098 143.929 39.7907 144.09C40.9013 144.333 41.3728 145.226 40.9978 146.304C40.7871 146.865 40.4871 147.386 40.1086 147.847C38.7766 149.518 37.034 150.725 35.3021 151.942C35.145 152.053 34.9915 152.175 34.838 152.289C34.8523 152.335 34.8664 152.382 34.8807 152.425L43.808 151.064C43.5295 150.885 43.3546 150.793 43.201 150.675C42.4333 150.082 42.3797 149.271 43.1189 148.647C43.551 148.282 44.0151 147.961 44.5079 147.682C45.9434 146.879 47.511 146.343 49.1358 146.1C49.3715 146.061 49.6323 146.193 49.8822 146.247C49.7608 146.486 49.6929 146.793 49.5072 146.95C48.9215 147.468 48.2575 147.897 47.6933 148.432C47.3719 148.736 47.1897 149.179 46.9468 149.561L47.1111 149.764H47.0933ZM38.5123 144.594C38.2838 144.611 38.0517 144.64 37.8267 144.679C34.9485 145.301 32.7346 146.918 31.0099 149.246C30.8135 149.529 30.6598 149.839 30.5599 150.171C30.3206 150.91 30.4421 151.321 31.1312 151.664C31.674 151.935 32.2847 152.082 32.8846 152.21C33.156 152.26 33.4381 152.21 33.6738 152.064C34.6593 151.389 35.6735 150.725 36.5877 149.95C37.7054 149 38.7624 147.975 39.7872 146.925C40.2336 146.465 40.5549 145.808 40.205 145.179C39.8765 144.601 39.1836 144.629 38.5123 144.59V144.594ZM46.6112 150.471C45.8292 148.672 47.2575 147.975 48.2645 146.961C46.504 147.465 44.9365 148.068 43.626 149.189C43.2403 149.518 43.276 149.928 43.7688 150.136C44.6865 150.528 45.6507 150.775 46.6077 150.475H46.6149L46.6112 150.471Z" fill="#303E47"/>
<path d="M35.4232 33.5168C35.3661 31.1171 37.3873 28.9139 40.269 29.1531C42.2116 29.3138 44.3005 31.0993 44.1433 33.7846C44.0255 35.7843 42.4329 38.1268 39.3226 37.8911C37.1729 37.7233 35.3661 35.8093 35.4232 33.5168ZM42.3758 33.5168C42.3758 32.017 41.2367 30.8386 39.7798 30.8421C38.3228 30.8421 37.198 32.0206 37.1909 33.5882C37.1909 35.0058 38.3442 36.2057 39.7369 36.2057C41.226 36.2164 42.3686 35.0451 42.3722 33.5168H42.3758Z" fill="#303E47"/>
<path d="M62.3379 140.441L63.4913 139.916C64.2841 139.552 65.0733 139.177 65.8768 138.823C66.141 138.705 66.4231 138.627 66.7123 138.594C67.3693 138.534 67.6978 138.937 67.5621 139.576C67.5407 139.676 67.5122 139.776 67.4694 139.955C68.1657 139.816 68.7978 139.662 69.4405 139.566C70.5511 139.394 71.6652 139.227 72.7829 139.116C73.5328 139.041 74.1184 138.741 74.4933 138.105C74.5933 137.934 74.5219 137.67 74.554 137.452C74.5897 137.305 74.6326 137.163 74.6933 137.027C74.8183 137.102 74.9968 137.145 75.0611 137.255C75.2896 137.634 75.3182 137.995 75.0433 138.412C74.3969 139.387 73.5185 139.726 72.3722 139.637C71.9009 139.601 71.3938 139.723 70.9367 139.869C69.4655 140.337 68.012 140.869 66.5372 141.333C66.3194 141.405 65.9303 141.341 65.8089 141.191C65.6697 141.016 65.7338 140.673 65.716 140.405C65.7231 140.326 65.7375 140.251 65.7589 140.176C65.0911 140.484 64.4876 140.758 63.8876 141.041C63.1306 141.398 62.3736 141.758 61.6166 142.115C61.2809 142.273 60.8846 142.355 60.6846 142.005C60.5489 141.773 60.5524 141.373 60.6524 141.108C60.8988 140.469 61.2595 139.873 61.5273 139.241C61.6094 139.048 61.5559 138.794 61.5631 138.569C61.3202 138.591 61.031 138.534 60.8489 138.644C59.7955 139.298 58.767 139.987 57.7386 140.669C57.4637 140.848 57.2207 141.101 56.9244 141.216C56.7172 141.294 56.4388 141.194 56.1924 141.176C56.2352 140.933 56.1924 140.601 56.3388 140.466C57.1244 139.737 57.9063 138.984 58.7919 138.387C59.474 137.937 60.231 137.609 61.0238 137.416C62.1557 137.13 62.9485 137.973 62.7199 139.102C62.6342 139.523 62.4844 139.926 62.3344 140.444L62.3379 140.441Z" fill="#303E47"/>
<path d="M100.253 138.848C99.7643 138.987 99.3321 139.066 98.9465 139.234C98.0323 139.641 97.1468 140.105 96.2362 140.523C96.0184 140.626 95.7183 140.751 95.5184 140.687C95.2612 140.605 94.9291 140.359 94.8791 140.141C94.8256 139.884 94.9577 139.42 95.1613 139.302C96.7932 138.348 98.4215 137.352 100.378 137.202C101.614 137.106 102.214 137.823 101.946 139.034C101.907 139.205 101.867 139.38 101.814 139.616C102.378 139.391 102.874 139.18 103.382 138.995C104.728 138.516 104.881 138.573 105.645 139.773C105.513 139.848 105.388 139.966 105.246 139.991C103.828 140.244 102.671 141.069 101.442 141.723C101.003 141.951 100.586 142.18 100.121 141.848C99.6571 141.516 99.6642 140.998 99.7714 140.512C99.8892 139.987 100.068 139.473 100.253 138.845V138.848Z" fill="#303E47"/>
<path d="M22.7223 129.885C23.2829 129.45 23.7078 129.092 24.1721 128.771C24.7577 128.368 25.0255 128.453 25.579 128.882C25.8468 129.089 26.2682 129.128 26.6253 129.182C26.9253 129.228 27.2394 129.192 27.5001 129.192C26.7145 129.617 26.0396 129.567 25.254 129.11C25.0897 129.014 24.6755 129.128 24.5077 129.285C23.6578 130.078 22.8472 130.921 22.0259 131.742C21.9366 131.831 21.8687 131.981 21.7652 132.01C21.5581 132.071 21.2724 132.163 21.1331 132.071C20.9974 131.978 20.9154 131.642 20.9725 131.471C21.1368 130.992 21.3975 130.549 21.5975 130.082C22.2152 128.65 22.8472 127.221 23.4293 125.775C23.6114 125.322 23.7936 124.807 23.3758 124.35C21.6617 124.882 18.2872 128.853 18.2729 130.417C19.2121 129.653 20.0369 128.864 20.6833 127.775C20.7011 127.971 20.7833 128.193 20.719 128.364C20.3155 129.542 19.5299 130.557 18.4872 131.239C18.2694 131.381 17.8158 131.371 17.5837 131.239C17.3908 131.128 17.2445 130.714 17.2838 130.464C17.3445 129.942 17.4979 129.439 17.7336 128.971C18.662 127.257 19.9226 125.736 21.4367 124.504C21.9223 124.111 22.5259 123.857 23.0793 123.554C23.3972 123.379 23.6578 123.472 23.9077 123.732C24.4862 124.336 24.5185 125.064 24.2828 125.771C23.8721 127.011 23.3722 128.218 22.9079 129.439C22.8722 129.55 22.8293 129.642 22.7257 129.896L22.7223 129.885Z" fill="#303E47"/>
<path d="M47.0294 139.684C46.3545 139.901 45.7369 140.119 45.1048 140.283C44.4156 140.458 43.7442 140.501 43.1907 139.873C43.0586 139.726 42.6872 139.723 42.4373 139.762C41.591 139.887 40.7518 140.048 39.909 140.212C39.3484 140.323 38.9057 140.233 38.6343 139.666C38.5736 139.537 38.3629 139.38 38.2415 139.398C37.6951 139.466 37.1237 139.437 36.7167 139.958C36.5953 140.116 36.1952 140.208 36.006 140.13C35.8953 140.066 35.799 139.973 35.7312 139.866C35.6633 139.759 35.6169 139.634 35.6062 139.505C35.6062 139.169 35.7847 138.83 35.8954 138.462C35.4491 138.612 34.9562 138.769 34.4705 138.941C33.7314 139.201 33.0029 139.498 32.2602 139.737C31.7638 139.912 31.2497 140.033 30.7247 140.101C29.9498 140.18 29.682 139.858 29.7534 139.094C29.7891 138.805 29.8106 138.512 29.8106 138.223C29.7963 137.666 29.6284 137.555 29.1356 137.809C28.4214 138.169 27.7251 138.573 27.0217 138.955C26.8681 139.037 26.7109 139.112 26.5502 139.191C26.5288 139.141 26.511 139.091 26.4932 139.041C27.4323 138.494 28.3572 137.927 29.3213 137.43C29.657 137.255 29.9783 137.473 30.0461 137.866C30.1175 138.241 30.1498 138.623 30.1462 139.005C30.1355 139.423 30.3283 139.584 30.7033 139.523C31.4032 139.412 32.103 139.28 32.7958 139.13C33.3136 139.019 33.8099 138.83 34.3312 138.727C35.5775 138.48 36.8238 138.234 38.0772 138.044C38.695 137.952 39.2699 138.105 39.6627 138.684C39.7234 138.752 39.7948 138.801 39.877 138.837C39.9591 138.873 40.0484 138.887 40.1376 138.884C40.809 138.837 41.4767 138.737 42.148 138.677C42.8515 138.612 43.5336 138.619 44.0442 139.255C44.137 139.369 44.412 139.412 44.587 139.384C45.9332 139.166 47.2723 138.923 48.6186 138.705C48.7543 138.684 48.9078 138.769 49.0578 138.805C49.0149 138.944 49.0185 139.134 48.9256 139.219C48.6007 139.512 48.2615 139.787 47.9044 140.041C47.4866 140.323 47.2224 140.116 47.0331 139.687L47.0294 139.684Z" fill="#303E47"/>
<path d="M104.236 127.9C105.857 127.489 107.421 127.332 108.678 128.742C108.588 128.71 108.506 128.685 108.428 128.653C108.328 128.61 108.231 128.557 108.131 128.51C107.86 128.382 107.567 128.31 107.267 128.303C106.967 128.296 106.671 128.353 106.396 128.471C105.707 128.739 104.964 128.882 104.243 129.064C103.711 129.196 103.207 129.139 102.871 128.653C102.536 128.171 102.739 127.717 103.029 127.293C103.089 127.203 103.146 127.114 103.246 126.957C103.075 126.982 102.964 126.989 102.861 127.018C102.489 127.11 102.122 127.203 101.75 127.307C100.554 127.646 99.3184 127.896 98.3006 128.682C98.1935 128.749 98.0793 128.807 97.9578 128.849C97.3508 129.128 96.933 129.089 96.7295 128.739C96.5116 128.353 96.708 127.85 97.3186 127.564C97.9793 127.257 98.6613 127.007 99.3648 126.814C100.89 126.393 102.422 126 103.968 125.654C104.243 125.593 104.743 125.739 104.85 125.943C104.982 126.193 104.875 126.621 104.764 126.935C104.653 127.232 104.41 127.475 104.225 127.739C104.232 127.785 104.235 127.846 104.239 127.896L104.236 127.9Z" fill="#303E47"/>
<path d="M39.8262 40.28C40.9011 40.28 41.976 40.2907 43.0508 40.28C43.4829 40.2729 43.6292 40.4229 43.6221 40.8657C43.6042 42.394 43.6221 42.394 42.0723 42.394C40.2583 42.394 38.4407 42.3833 36.6267 42.4047C36.1268 42.4119 35.9482 42.2405 35.9482 41.737C35.9554 40.2872 35.9375 40.2872 37.3909 40.2872H39.8227L39.8262 40.28Z" fill="#303E47"/>
<path d="M96.6646 107.481C95.6254 107.181 94.697 107.238 93.7864 107.36C92.1616 107.577 90.5476 107.867 88.9264 108.117C88.7086 108.149 88.4872 108.152 88.2766 108.174C87.8123 108.217 87.4944 108.027 87.373 107.574C87.2623 107.16 86.9802 107.013 86.591 107.095C85.4197 107.349 84.2485 107.606 83.0844 107.899C82.7916 107.97 82.5096 108.149 82.3239 107.802C82.1239 107.427 82.3916 107.181 82.7059 107.11C84.0843 106.799 85.4662 106.492 86.8588 106.267C87.3445 106.188 87.7909 106.503 87.9266 107.031C88.048 107.495 88.3479 107.556 88.7479 107.517C90.2726 107.37 91.7974 107.227 93.3222 107.092C94.4863 106.981 95.6468 106.874 96.761 107.381C96.8717 107.431 97.0682 107.338 97.211 107.27C98.0252 106.91 98.8321 106.531 99.6463 106.167C99.9855 106.013 100.353 105.938 100.543 106.349C100.728 106.763 100.457 106.974 100.096 107.127C98.9893 107.595 97.9037 108.099 96.7824 108.538C96.5932 108.613 96.3076 108.442 96.0647 108.384C96.1505 108.156 96.2253 107.92 96.3289 107.699C96.361 107.631 96.4682 107.602 96.6611 107.477L96.6646 107.481Z" fill="#303E47"/>
<path d="M71.6682 107.888C71.6682 107.609 71.6112 107.32 71.6791 107.056C72.0004 105.785 71.804 105.556 70.5114 105.863C69.4151 106.124 68.3365 106.449 67.251 106.749L67.394 106.949C67.3011 107.067 67.2297 107.252 67.1118 107.292C66.8547 107.377 66.5655 107.456 66.3084 107.409C65.3978 107.252 64.6051 107.681 63.7624 107.852C63.5445 107.895 63.3409 107.974 63.1266 108.016C62.3018 108.188 62.0162 107.966 61.9698 107.127C61.909 106.006 61.7876 105.913 60.7056 106.242C59.9736 106.46 59.2593 106.745 58.5237 106.959C57.8559 107.152 57.4846 106.924 57.2882 106.235C57.0703 106.317 56.8596 106.452 56.6418 106.46C56.4454 106.47 56.242 106.345 56.042 106.281C56.1384 106.092 56.1849 105.813 56.3384 105.724C56.7991 105.467 57.2811 105.249 57.7811 105.074C57.9739 105.003 58.2988 104.995 58.4166 105.106C58.5345 105.22 58.4774 105.524 58.4667 105.742C58.4667 105.842 58.388 105.942 58.2987 106.149C58.5701 106.092 58.7665 106.06 58.9557 106.01C59.5557 105.856 60.1485 105.674 60.752 105.542C62.0018 105.27 62.4982 105.653 62.5661 106.906C62.5732 107.067 62.5981 107.224 62.6231 107.484C63.6229 107.331 64.5942 107.188 65.5548 107.031C65.769 106.999 65.9763 106.927 66.1656 106.82C67.6654 105.949 69.3364 105.649 71.0147 105.403C71.8361 105.278 72.2111 105.688 72.0968 106.506C72.0326 106.967 71.9075 107.42 71.8076 107.877L71.6682 107.888Z" fill="#303E47"/>
<path d="M69.7575 152.596V152.857C68.9755 152.821 68.2221 152.807 67.4758 152.732C67.2972 152.714 67.1366 152.486 66.9688 152.353C67.1116 152.175 67.2258 151.878 67.3972 151.839C67.815 151.746 68.2649 151.789 68.697 151.743C72.1251 151.396 75.5495 151.025 78.9812 150.707C79.7311 150.636 80.499 150.75 81.2596 150.779L81.2737 150.993L69.7611 152.593L69.7575 152.596Z" fill="#303E47"/>
<path d="M19.2079 139.719C19.8721 139.584 20.4933 139.448 21.1182 139.334C21.8752 139.194 22.1217 139.326 22.4003 140.048C22.5288 140.383 22.6966 140.451 23.0215 140.298C23.7428 139.937 24.4928 139.634 25.2641 139.391C24.9678 139.591 24.6821 139.805 24.3786 139.991C23.9572 140.244 23.5287 140.48 23.1001 140.726C22.5931 141.015 22.2966 140.891 22.1359 140.323C21.9038 139.501 21.8503 139.451 21.0254 139.723C20.3541 139.941 19.7112 140.255 19.0435 140.494C18.7614 140.594 18.4507 140.605 18.1793 140.655C17.8865 140.901 17.5795 141.183 17.251 141.44C16.8047 141.787 16.2904 141.63 16.2476 141.073C16.2154 140.687 16.3047 140.208 16.5225 139.901C17.0225 139.212 17.5758 138.562 18.1793 137.955C18.5828 137.537 19.2399 137.855 19.3006 138.502C19.3328 138.884 19.2472 139.276 19.2079 139.723V139.719Z" fill="#303E47"/>
<path d="M107.421 107.12C106.817 106.692 106.799 106.303 107.381 106.017C108.149 105.642 108.938 105.306 109.802 105.813C109.942 105.896 110.159 105.863 110.338 105.849C111.934 105.731 113.53 105.563 115.13 105.503C115.648 105.481 116.176 105.738 116.701 105.86C117.141 105.963 117.587 106.056 118.051 106.295C117.491 106.328 116.923 106.442 116.376 106.37C115.766 106.292 115.184 106.224 114.555 106.292C113.109 106.449 111.648 106.492 110.195 106.549C109.884 106.56 109.56 106.46 109.256 106.36C108.713 106.178 107.717 106.56 107.428 107.12H107.421Z" fill="#303E47"/>
<path d="M112.184 128.214C112.299 128.296 112.409 128.382 112.513 128.475C112.924 128.875 112.852 129.321 112.334 129.557C111.97 129.721 111.595 129.864 111.228 130.017C110.524 130.31 110.517 130.307 110.228 129.66L111.349 129.096C111.21 129.021 111.131 128.971 111.049 128.928C110.478 128.643 110.392 128.021 110.899 127.618C111.481 127.161 112.145 126.939 112.891 127.121C113.295 127.221 113.688 127.368 114.088 127.489C114.745 127.689 115.413 127.882 115.941 128.035C114.855 128.775 113.545 128.385 112.231 128.035C112.213 128.1 112.199 128.157 112.188 128.214H112.184Z" fill="#303E47"/>
<path d="M90.6835 139.341C90.1514 139.466 89.623 139.634 89.0803 139.698C88.641 139.748 88.1911 139.698 88.1054 139.084C88.0947 138.998 87.7446 138.895 87.559 138.905C86.8126 138.937 86.07 139.03 85.3236 139.055C84.888 139.066 84.4524 139.037 84.0203 138.962C83.931 138.941 83.8452 138.898 83.7737 138.841C83.7023 138.78 83.6453 138.709 83.606 138.623C83.4882 138.245 83.231 138.248 82.9596 138.33C82.4026 138.498 81.8634 138.723 81.2992 138.877C80.8957 138.977 80.4815 139.034 80.0637 139.052C79.8994 139.062 79.7245 138.941 79.5566 138.88V138.73C79.6852 138.655 79.8208 138.595 79.9601 138.552C80.835 138.38 81.7135 138.223 82.5919 138.059C83.0311 137.973 83.4275 137.998 83.8417 138.255C84.0881 138.409 84.4702 138.387 84.788 138.373C85.7343 138.334 86.6805 138.255 87.6268 138.202C88.1374 138.173 88.4731 138.42 88.8552 138.762C89.1765 139.048 89.7301 139.07 90.1908 139.187C90.3443 139.216 90.5049 139.227 90.6621 139.227C90.6692 139.266 90.6765 139.309 90.6872 139.348L90.6835 139.341Z" fill="#303E47"/>
<path d="M47.7574 129.778C47.0825 130.035 46.4111 130.296 45.7362 130.549C44.9006 130.864 44.0723 131.196 43.2224 131.471C42.8225 131.592 42.4082 131.656 41.9904 131.66C41.5261 131.674 41.1262 131.574 41.1941 130.924C41.2369 130.503 40.8797 130.606 40.6476 130.689C39.8584 130.967 39.0837 131.285 38.2909 131.556C38.0624 131.635 37.791 131.599 37.541 131.617C37.5803 131.367 37.6124 131.114 37.6624 130.867C37.6909 130.714 37.7445 130.567 37.7874 130.417C37.0518 130.182 35.7913 130.614 35.2843 131.21C35.1878 131.324 34.9879 131.356 34.8379 131.428C34.8593 131.249 34.8235 131.031 34.9164 130.899C35.3699 130.264 37.041 129.721 37.7588 129.999C37.9302 130.067 38.0588 130.353 38.1267 130.564C38.1731 130.714 38.0838 130.903 38.0374 131.167C38.6445 130.949 39.1837 130.753 39.7265 130.564C40.0014 130.467 40.2727 130.371 40.5583 130.296C41.3154 130.089 41.5903 130.271 41.7189 131.156C42.0938 131.128 42.4938 131.156 42.8616 131.064C44.2864 130.681 45.6969 130.26 47.111 129.849L47.7216 129.671L47.7645 129.782L47.7574 129.778Z" fill="#303E47"/>
<path d="M111.588 155.274C111.181 155.364 110.767 155.428 110.374 155.553C109.952 155.688 109.652 155.663 109.588 155.089C108.985 155.264 108.413 155.431 107.842 155.596C107.617 155.667 107.388 155.724 107.156 155.774C106.635 155.867 106.389 155.578 106.549 155.081C106.628 154.846 106.717 154.61 106.842 154.264C106.628 154.307 106.414 154.367 106.207 154.442C105.61 154.717 105.032 155.028 104.428 155.281C104.214 155.371 103.91 155.399 103.718 155.31C103.607 155.256 103.618 154.903 103.621 154.689C103.628 154.46 103.693 154.235 103.803 154.035L104.011 154.942L105.889 154.278C105.974 154.246 106.064 154.224 106.149 154.199C107.074 153.907 107.121 153.942 107.089 154.91V155.231C107.842 155.071 108.549 154.924 109.256 154.764C109.585 154.689 109.86 154.685 110.01 155.078C110.045 155.174 110.263 155.253 110.399 155.256C110.799 155.256 111.195 155.221 111.595 155.199V155.281L111.588 155.274Z" fill="#303E47"/>
<path d="M112.591 139.934L114.037 140.316C113.22 140.68 112.413 141.08 111.531 140.398C111.406 140.301 111.113 140.448 110.916 140.398C110.681 140.344 110.467 140.205 110.245 140.101C110.377 139.912 110.463 139.652 110.645 139.548C111.113 139.273 111.606 139.037 112.116 138.852C112.352 138.766 112.73 138.723 112.895 138.852C113.213 139.094 112.973 139.398 112.777 139.648C112.713 139.741 112.652 139.837 112.595 139.937L112.591 139.934Z" fill="#303E47"/>
<path d="M9.46693 68.5081C9.46693 68.958 9.53476 69.233 9.44548 69.4472C9.35621 69.6615 9.11707 69.9472 8.93495 69.9579C8.3029 69.9793 7.66726 69.9579 7.03878 69.8972C6.57813 69.865 6.61731 69.4508 6.67087 69.1973C6.72087 68.9402 6.94593 68.5581 7.12805 68.5438C7.87437 68.4652 8.63499 68.5117 9.46344 68.5117L9.46693 68.5081Z" fill="#303E47"/>
<path d="M80.3066 69.1723C81.2494 69.1723 82.1494 69.1473 83.0457 69.1973C83.1778 69.2044 83.3813 69.5543 83.392 69.7508C83.3991 69.9472 83.217 70.3114 83.0955 70.3221C82.3278 70.3828 81.5351 70.4471 80.771 70.3507C80.246 70.29 80.3745 69.715 80.3066 69.1723Z" fill="#303E47"/>
<path d="M51.8923 70.2077C50.9532 70.2077 50.1284 70.2184 49.2999 70.2077C48.8964 70.2006 48.8605 69.8614 48.8605 69.5757C48.8605 69.29 48.8392 68.9472 49.2677 68.9365C49.9926 68.9222 50.7175 68.9186 51.4388 68.9436C51.5495 68.9436 51.721 69.1186 51.7567 69.24C51.8352 69.4864 51.8353 69.7578 51.8888 70.2006L51.8923 70.2077Z" fill="#303E47"/>
<path d="M87.6948 70.4473C87.4591 70.4473 87.2199 70.4294 86.9843 70.4473C86.5379 70.4901 86.3487 70.2759 86.3273 69.8616C86.3058 69.4474 86.4485 69.201 86.8913 69.2082C87.5484 69.2117 88.2018 69.2224 88.8553 69.2367C89.2374 69.2439 89.2769 69.5438 89.2947 69.8081C89.3126 70.0759 89.2661 70.383 88.9019 70.408C88.5055 70.433 88.1055 70.4151 87.7056 70.4151L87.6984 70.4473H87.6948Z" fill="#303E47"/>
<path d="M63.9162 69.0473C64.6982 69.0473 65.4517 69.0223 66.2087 69.0723C66.3301 69.0794 66.5302 69.4115 66.5231 69.5829C66.5159 69.8007 66.3516 70.1971 66.2195 70.2114C65.5589 70.2828 64.8911 70.2971 64.2269 70.2507C63.8948 70.2292 63.827 69.8971 63.9199 69.0473H63.9162Z" fill="#303E47"/>
<path d="M58.8634 68.9794C59.624 68.9794 60.3203 68.9687 61.0202 68.9794C61.4237 68.9865 61.513 69.2829 61.5201 69.615C61.5273 69.9507 61.4558 70.2399 61.0309 70.2435C60.4524 70.2435 59.8669 70.2685 59.292 70.2256C59.142 70.2149 58.9348 70.0078 58.8848 69.8435C58.8134 69.6221 58.8669 69.3579 58.8669 68.9794H58.8634Z" fill="#303E47"/>
<path d="M115.548 69.4795H117.944C118.319 69.4795 118.369 69.7402 118.347 70.033C118.326 70.3258 118.287 70.6436 117.894 70.6543C117.262 70.6686 116.622 70.6757 115.99 70.6365C115.576 70.6186 115.465 70.3115 115.544 69.4795H115.548Z" fill="#303E47"/>
<path d="M93.2114 70.4647C92.9579 70.4647 92.7008 70.4469 92.4437 70.4647C92.0938 70.4933 91.958 70.2933 91.8795 70.0077C91.7438 69.5042 91.8723 69.2899 92.3865 69.2649C92.9864 69.2364 93.5936 69.2578 94.1899 69.2649C94.6077 69.2649 94.6292 69.6006 94.6506 69.8755C94.672 70.1505 94.6326 70.4398 94.247 70.4505C93.9006 70.4576 93.5578 70.4505 93.2114 70.4505V70.4647Z" fill="#303E47"/>
<path d="M32.8707 70.1185H32.4315C31.7673 70.1185 31.446 69.615 31.7245 69.0079C31.7531 68.9579 31.7959 68.9151 31.8424 68.8829C31.8924 68.8508 31.9458 68.8294 32.003 68.8186C32.4886 68.7794 32.9743 68.7508 33.4599 68.7579C33.9456 68.7615 34.0884 69.0972 34.0562 69.5221C34.0205 69.9471 33.8384 70.197 33.3563 70.1256C33.1921 70.1149 33.0315 70.1149 32.8673 70.1256V70.1185H32.8707Z" fill="#303E47"/>
<path d="M40.1944 68.8436C40.8229 68.8436 41.4334 68.8329 42.0441 68.8436C42.4547 68.8543 42.5904 69.1043 42.5511 69.4935C42.5118 69.8792 42.4226 70.172 41.9548 70.1541C41.7013 70.1434 41.4442 70.147 41.1871 70.147C40.1872 70.147 40.0837 70.0363 40.1908 68.8436H40.1944Z" fill="#303E47"/>
<path d="M54.2278 68.9653C54.8313 68.9653 55.4562 68.9403 56.074 68.9725C56.531 68.9975 56.5918 69.3438 56.5561 69.7188C56.5239 70.0723 56.3668 70.283 55.9632 70.2437C55.6954 70.2187 55.417 70.2366 55.1492 70.2366C54.21 70.2366 54.0886 70.0902 54.2278 68.9653Z" fill="#303E47"/>
<path d="M105.374 69.3865C106.038 69.3865 106.688 69.3722 107.331 69.3936C107.749 69.4079 107.795 69.7436 107.77 70.0543C107.741 70.3649 107.641 70.6113 107.234 70.572C106.909 70.5506 106.581 70.5471 106.256 70.5613C105.417 70.5613 105.292 70.4185 105.377 69.3865H105.374Z" fill="#303E47"/>
<path d="M19.9832 70.0326C19.4511 70.0112 18.9582 70.154 18.9011 69.4863C18.8547 68.9506 19.0511 68.6792 19.5938 68.6257C19.7938 68.6114 19.9938 68.6078 20.1938 68.6185C20.9044 68.6185 21.1509 68.9042 20.9723 69.6005C20.9366 69.6898 20.883 69.7719 20.8116 69.8398C20.7402 69.9076 20.658 69.9576 20.5687 69.9933C20.3544 70.0612 20.1082 70.029 19.9832 70.0362V70.0326Z" fill="#303E47"/>
<path d="M44.3076 68.9081C44.9754 68.9081 45.5683 68.8974 46.1611 68.9081C46.5824 68.9188 46.568 69.2759 46.568 69.5437C46.568 69.8151 46.5073 70.1508 46.1145 70.1686C45.7539 70.1865 45.3753 70.2365 45.0289 70.1615C44.829 70.1186 44.6291 69.8865 44.5113 69.6901C44.3934 69.4937 44.3897 69.2473 44.3076 68.9045V68.9081Z" fill="#303E47"/>
<path d="M117.927 95.8218C116.152 96.6502 114.345 97.2073 112.377 96.8609L112.32 96.6574C112.577 96.5788 112.831 96.461 113.092 96.4253C114.698 96.211 116.305 96.0217 117.923 95.8218H117.927Z" fill="#303E47"/>
<path d="M110.224 69.4367C110.956 69.4367 111.62 69.4295 112.284 69.4367C112.698 69.4438 112.709 69.7795 112.702 70.058C112.695 70.3401 112.598 70.6044 112.227 70.5901C111.756 70.5794 111.277 70.6222 110.809 70.5651C110.17 70.4901 110.402 69.9188 110.224 69.4331V69.4367Z" fill="#303E47"/>
<path d="M15.0088 69.8647C15.1373 69.4112 15.1552 68.772 15.3802 68.6863C15.7873 68.5328 16.3407 68.6506 16.7871 68.797C16.8907 68.8292 16.9407 69.5612 16.7693 69.7683C16.3301 70.3111 15.7194 69.9397 15.0088 69.8647Z" fill="#303E47"/>
<path d="M13.0666 68.7294C13.113 69.1829 13.2844 69.7399 12.7773 69.9399C12.4309 70.0756 11.8811 70.0006 11.5704 69.7971C11.3954 69.6792 11.3597 68.9543 11.5346 68.7829C11.9524 68.3723 12.538 68.5365 13.0629 68.7329L13.0666 68.7294Z" fill="#303E47"/>
<path d="M36.859 68.7612C37.2268 68.8719 37.791 68.647 37.8053 69.3504C37.816 69.8968 37.5946 70.1253 37.0447 70.1289C36.1698 70.136 36.0163 70.0111 35.9877 69.3647C35.9556 68.6755 36.4912 68.8684 36.859 68.7612Z" fill="#303E47"/>
<path d="M68.7012 69.2293C69.4404 69.0436 70.026 68.865 70.4652 69.3007C70.608 69.4435 70.526 70.1184 70.4082 70.1613C70.0118 70.3041 69.501 70.4005 69.1332 70.2577C68.9047 70.172 68.8547 69.6256 68.7012 69.2293Z" fill="#303E47"/>
<path d="M23.3969 70.0615C22.7899 70.0615 22.5971 69.8937 22.6006 69.3759C22.6006 68.8617 22.8184 68.6224 23.2969 68.6295C23.9075 68.6367 24.1467 68.8474 24.1324 69.358C24.1181 69.8687 23.9075 70.0686 23.3933 70.0615H23.3969Z" fill="#303E47"/>
<path d="M121.583 69.4794C121.933 69.4329 122.308 69.4615 122.304 70.0507C122.304 70.5685 122.172 70.6613 121.411 70.6721C120.997 70.6721 120.583 70.7185 120.597 70.1078C120.608 69.5865 120.747 69.4829 121.583 69.4829V69.4794Z" fill="#303E47"/>
<path d="M101.382 69.3934C101.75 69.3719 102.11 69.3505 102.467 69.3291C102.864 69.3077 103.003 69.5255 103.014 69.8897C103.028 70.254 102.914 70.4896 102.528 70.5218C101.707 70.5896 101.25 70.6718 101.382 69.3898V69.3934Z" fill="#303E47"/>
<path d="M90.1265 128.735C90.1836 128.61 90.2551 128.278 90.3551 128.267C90.5551 128.246 90.7729 128.403 90.98 128.492C91.1228 128.553 91.2657 128.621 91.3193 128.646C90.9122 129.01 90.5015 129.421 90.0409 129.77C89.8873 129.888 89.6124 129.845 89.3945 129.881C89.4195 129.653 89.3695 129.378 89.4838 129.206C89.6195 129.006 89.8909 128.896 90.123 128.735H90.1265Z" fill="#303E47"/>
<path d="M98.1259 69.2614C98.4258 69.2328 98.6043 69.4935 98.6043 69.9149C98.6043 70.3363 98.3615 70.5327 97.7937 70.5291C97.3545 70.5291 97.1367 70.322 97.1367 69.8756C97.151 69.3185 97.5509 69.2935 98.1222 69.2614H98.1259Z" fill="#303E47"/>
<path d="M77.0709 69.1255C77.5744 69.0612 77.7031 69.3362 77.7209 69.7647C77.7423 70.2753 77.428 70.361 77.0245 70.3753C76.5139 70.3968 76.3925 70.1075 76.3604 69.6647C76.3175 69.0755 76.7495 69.1791 77.0709 69.1219V69.1255Z" fill="#303E47"/>
<path d="M102.296 153.046L101.614 154.767L102.153 154.707C102.164 154.757 102.174 154.807 102.185 154.853C101.846 154.928 101.4 155.167 101.185 155.039C100.76 154.778 101.178 154.392 101.303 154.089C101.482 153.653 101.621 153.164 102.11 152.95L102.296 153.043V153.046Z" fill="#303E47"/>
<path d="M73.4963 70.5042C72.9607 70.2435 72.7571 69.8293 72.9392 69.2187C73.2928 69.1687 73.6998 68.9294 73.9891 69.3544C74.2355 69.7079 74.0462 70.0864 73.4963 70.5007V70.5042Z" fill="#303E47"/>
<path d="M31.0455 68.8293L29.5385 69.9612C29.4278 69.572 29.3314 69.247 29.21 68.8328L31.0455 68.8257V68.8293Z" fill="#303E47"/>
<path d="M27.3037 68.8472C27.0859 69.2828 26.9144 69.6328 26.6752 70.1149L25.9824 68.8472H27.3037Z" fill="#303E47"/>
<path d="M59.4454 152.917C58.999 153.135 58.667 153.307 58.3206 153.446C58.2171 153.489 58.0742 153.425 57.9492 153.407C57.9992 153.307 58.0207 153.171 58.1028 153.11C58.4064 152.878 58.7456 152.696 59.1063 152.564C59.0491 152.671 58.9884 152.789 58.9063 152.946L59.4454 152.914V152.917Z" fill="#303E47"/>
<path d="M113.377 154.942L114.538 155.288C114.373 155.617 114.106 155.628 113.82 155.506C113.57 155.41 113.231 155.338 113.377 154.942Z" fill="#303E47"/>
<path d="M27.7854 129.375L28.6173 130.164L27.7031 130.099C27.7317 129.853 27.7569 129.607 27.7854 129.375Z" fill="#303E47"/>
<path d="M32.8128 130.588L30.8096 130.478L30.8204 130.306L32.8128 130.456V130.585V130.588Z" fill="#303E47"/>
<path d="M60.2596 197.054L57.5957 191.797C58.9134 191.64 60.281 194.376 60.2596 197.054Z" fill="#303E47"/>
<path d="M61.5168 196.744L58.7637 191.001C61.0491 192.341 61.449 194.483 61.5168 196.744Z" fill="#303E47"/>
<path d="M58.8811 196.947L56.3672 192.801L56.5208 192.612C56.7708 192.726 57.0529 192.801 57.2636 192.969C58.2741 193.772 58.5026 194.976 58.8205 196.126C58.8776 196.39 58.924 196.658 58.949 196.925L58.8776 196.947H58.8811Z" fill="#303E47"/>
<path d="M57.4097 197.104C56.7134 195.808 56.0848 194.647 55.4277 193.422C56.5454 193.551 57.5204 195.608 57.4097 197.104Z" fill="#303E47"/>
<path d="M55.985 197.368L54.3174 194.336C55.2315 194.154 56.1492 195.768 55.985 197.368Z" fill="#303E47"/>
<path d="M54.7962 197.439C54.2391 196.525 53.65 195.804 53.5 194.818C54.282 194.915 54.8319 196.004 54.7962 197.439Z" fill="#303E47"/>
<path d="M53.1964 197.518L52.168 195.437C52.9607 195.59 53.3892 196.44 53.3535 197.458L53.1929 197.522L53.1964 197.518Z" fill="#303E47"/>
<path d="M51.1604 196.254C51.8853 196.35 52.0351 196.897 52.0066 197.95C51.6173 197.389 51.0747 197.015 51.1604 196.254Z" fill="#303E47"/>
<path d="M33.2523 93.4687C33.3702 93.3973 33.4845 93.3151 33.5916 93.2259C35.4128 91.4511 39.023 92.4545 39.7051 95.2827C39.9586 96.3468 39.6872 97.2253 39.2587 98.1073C38.8445 98.9572 38.1161 99.6142 37.2269 99.9428C34.6951 100.907 31.8133 99.8713 30.8706 97.0432C30.2706 95.3148 30.2029 93.4508 30.6671 91.6832C31.0527 90.2227 31.6954 88.8765 33.1488 88.1623C33.638 87.9195 34.1702 87.7695 34.713 87.7159C35.7842 87.6195 36.8625 87.6302 37.8195 88.2623C38.6587 88.8122 39.2729 89.6478 39.5443 90.612C39.5765 90.7227 39.3943 90.9833 39.2622 91.0262C38.6909 91.2119 38.1124 91.3654 37.5268 91.4904C37.4518 91.494 37.3804 91.4833 37.3125 91.4511C37.2447 91.4226 37.184 91.3797 37.1376 91.3226C37.0234 91.1333 36.9341 90.9298 36.8698 90.7191C36.6234 90.0513 36.1591 89.6371 35.4449 89.5728C34.7022 89.5085 34.1559 89.8942 33.7916 90.4905C33.2703 91.3511 33.2452 92.3438 33.1488 93.3187C33.1488 93.358 33.1988 93.4008 33.2417 93.4723L33.2523 93.4687ZM33.3416 96.2897C33.363 96.4933 33.3702 96.7004 33.4059 96.9003C33.5702 97.8645 34.613 98.518 35.545 98.2537C36.7413 97.9181 37.3411 96.3361 36.6804 95.2506C36.5733 95.0613 36.4341 94.8899 36.2698 94.7435C35.6949 94.2686 35.0272 94.1436 34.3702 94.5043C33.6917 94.8756 33.3059 95.4755 33.3488 96.2897H33.3453H33.3416Z" fill="#303E47"/>
<path d="M24.5605 87.9017C25.796 87.9017 27.0352 87.9124 28.2707 87.8945C28.685 87.8945 28.7635 88.0624 28.8313 88.4516C29.0491 89.7228 28.3707 90.6156 27.7351 91.5833C26.6067 93.2973 25.8103 95.1614 25.6103 97.2325C25.5318 98.0324 25.4568 98.8323 25.4069 99.6321C25.389 99.9178 25.2675 100.029 24.9997 100.029H22.5751C22.268 100.029 22.1644 99.8892 22.1716 99.5929C22.2251 97.9038 22.6251 96.2433 23.3464 94.715C24.0142 93.2581 24.8212 91.9011 25.9425 90.7441C26.1175 90.562 26.046 90.4263 25.8032 90.3906C25.6782 90.3799 25.5496 90.3763 25.4246 90.3835C23.857 90.3835 22.2859 90.3906 20.7111 90.3835C20.0648 90.3835 20.0111 90.2799 20.1647 89.6514C20.254 89.2658 20.3003 88.8765 20.3075 88.4802C20.3146 88.0624 20.4575 87.891 20.9003 87.8981C22.1216 87.9195 23.3393 87.9017 24.5605 87.9017Z" fill="#303E47"/>
</g>
</svg>
