<svg width="200" height="200" viewBox="0 0 200 200" fill="none" xmlns="http://www.w3.org/2000/svg">
<rect width="200" height="200" fill="white"/>
<mask id="mask0_412_1860" style="mask-type:luminance" maskUnits="userSpaceOnUse" x="0" y="0" width="136" height="200">
<path d="M135.88 0H0V200H135.88V0Z" fill="white"/>
</mask>
<g mask="url(#mask0_412_1860)">
<path d="M65.1021 102.082C64.9604 102.256 64.8318 102.441 64.7197 102.639L65.1021 102.082Z" fill="#303E47"/>
<path d="M30.8515 146.078C30.7757 145.768 30.7197 145.459 30.657 145.146L30.4395 145.172C30.4592 145.531 30.4328 145.904 30.5087 146.25C30.9965 148.475 31.5074 150.696 32.0183 152.915C32.516 155.064 33.0764 157.2 33.5082 159.362C33.8048 160.894 34.362 162.361 35.1596 163.703C36.2111 165.463 37.6944 166.811 39.382 167.955C39.7907 168.232 40.2158 168.485 40.6311 168.749L40.6873 168.667C40.562 168.581 40.4432 168.486 40.3279 168.387C39.283 167.381 37.9711 166.534 37.2526 165.334C35.377 162.206 34.2564 158.782 34.0982 155.097C34.085 154.83 34.0389 154.563 34.006 154.299L33.8312 154.315C33.9301 155.878 34.029 157.443 34.118 158.844C33.6796 157.974 33.9697 156.738 33.2512 155.785C32.4535 152.552 31.6524 149.315 30.8515 146.075V146.078ZM36.3199 164.342C35.7793 163.884 35.0706 162.427 34.9222 161.392L36.3199 164.342Z" fill="#303E47"/>
<path d="M47.4975 106.792C46.6241 103.549 46.7395 100.427 48.5788 97.5596C46.3868 98.4363 45.6187 104.623 47.4975 106.792Z" fill="#303E47"/>
<path d="M82.2158 118.694L85.0175 112.768C83.6793 114.676 82.6476 116.552 82.2158 118.694Z" fill="#303E47"/>
<path d="M80.4189 117.01C81.3023 115.458 82.1988 113.882 83.0987 112.303C81.9154 113.721 80.9562 115.27 80.4189 117.01Z" fill="#303E47"/>
<path d="M89.0844 121.459C88.6987 121.928 88.4154 122.419 88.4879 123.009L88.679 123.042C88.8141 122.514 88.9492 121.987 89.0844 121.459Z" fill="#303E47"/>
<path d="M47.8398 101.149L48.5288 98.8975L48.4002 98.8579L47.708 101.109L47.8398 101.149Z" fill="#303E47"/>
<path d="M89.4541 92.9844C87.3874 94.9027 86.481 97.4276 85.7295 100.015C86.9161 97.6319 87.7961 95.1071 89.4541 92.9844Z" fill="#303E47"/>
<path d="M85.3203 97.5725L85.4819 97.6549L88.0002 92.7041L87.8122 92.6118C86.9816 94.2665 86.1509 95.9211 85.3203 97.5758V97.5725Z" fill="#303E47"/>
<path d="M79.5162 80.6896C79.2097 80.1556 78.9032 79.6183 78.5966 79.0811C78.1483 78.2999 78.1779 77.5088 78.5306 76.7079C78.9459 75.7718 79.3613 74.8356 79.7733 73.8896C78.7712 74.6906 78.4911 75.9398 77.9538 77.0935C77.8351 76.8463 77.7463 76.6617 77.6606 76.487L77.5518 76.5167C77.6605 78.2076 77.7659 79.8985 77.878 81.5861L78.0462 81.5796V79.1833C78.2703 79.5063 78.379 79.8491 78.5636 80.1523C79.058 80.9632 79.4767 81.8465 80.4161 82.2717L79.5162 80.6896Z" fill="#303E47"/>
<path d="M95.5853 84.9185C95.3974 83.2341 95.5062 81.5333 95.9117 79.8853C95.2722 81.53 95.0315 83.1979 95.5853 84.9185Z" fill="#303E47"/>
<path d="M133.411 4.85542L42.2666 0.000200453C41.5777 -0.0360571 40.8985 0.201266 40.3843 0.662726C39.8701 1.12419 39.5603 1.76693 39.5241 2.45583L36.8608 52.0825C36.841 52.422 36.8904 52.7648 37.0058 53.0846C37.1212 53.4076 37.296 53.7009 37.5234 53.9547C37.7508 54.2085 38.0276 54.4162 38.3374 54.5612C38.6473 54.7096 38.9803 54.792 39.3231 54.8117L79.391 56.9443C79.1965 62.4258 79.0052 67.8315 78.8108 73.28C78.5702 73.2438 78.3955 73.2174 78.2208 73.1877C77.1792 73.0064 76.141 72.69 75.0994 72.6834C72.6273 72.6537 70.3036 73.2965 68.1347 74.5161C65.5835 75.9532 63.2365 77.6804 60.949 79.4899C58.2923 81.5863 55.5697 83.5772 52.4482 84.978C51.3045 85.4889 50.2399 86.1877 49.1621 86.8371C47.8568 87.6215 46.8679 88.7323 46.011 89.975C45.8857 90.153 45.6384 90.2749 45.4241 90.3639C44.666 90.6738 43.8354 90.8583 43.1432 91.277C42.161 91.8703 41.2743 92.6185 40.3613 93.3173C39.7944 93.7425 39.3066 94.26 38.9176 94.85C37.9156 96.3596 37.4805 97.9846 37.1872 99.7184C36.785 102.125 36.7455 104.534 36.7422 106.963C36.7422 109.435 36.6335 111.917 36.4159 114.38C36.2412 116.374 35.8028 118.348 35.5193 120.336C35.0051 123.942 34.5436 127.554 34.0162 131.157C33.4559 134.954 32.5956 138.669 30.7695 142.094C29.9257 143.676 29.0984 145.264 28.248 146.873C27.9448 146.764 27.7207 146.708 27.5097 146.619C26.1649 146.042 24.3718 146.425 23.4258 147.559C21.814 149.49 20.2516 151.468 18.6332 153.393C17.9575 154.2 17.1861 154.929 16.3489 155.806C16.194 154.784 16.0622 153.904 15.9271 153.024C15.8611 152.648 15.894 152.265 16.0193 151.906C16.1445 151.547 16.3621 151.227 16.6489 150.977C17.1961 150.489 17.9046 150.186 18.5474 149.803C18.5804 149.79 18.6199 149.787 18.6562 149.793C19.2627 149.869 19.8759 149.919 20.4725 150.037C20.7394 150.09 21.036 150.278 21.1217 149.909C21.1547 149.774 20.8779 149.437 20.6933 149.395C19.7341 149.167 18.7617 148.89 17.7893 148.854C16.517 148.801 15.3997 149.306 14.5526 150.308C13.7747 151.23 13.0363 152.183 12.2089 153.06C9.57201 155.865 6.86592 158.611 4.26197 161.445C2.85452 162.978 1.59545 164.646 0.283584 166.261C0.145146 166.429 0.092292 166.666 0 166.874C0.0758113 166.927 0.15168 166.979 0.224196 167.035C2.90725 165.008 4.95093 162.322 7.30108 159.959C9.68419 157.566 11.9717 155.09 14.3284 152.625C14.3482 154.675 15.1623 156.491 16.0193 158.284C16.3983 159.075 16.8861 159.82 17.3179 160.578C17.7497 161.34 18.175 162.144 18.6892 162.869C19.1441 163.509 19.2792 164.306 19.9878 164.85C20.5746 165.305 20.8614 166.122 21.3361 166.739C22.2557 167.942 23.1555 169.168 24.1674 170.292C25.3573 171.624 26.6659 172.86 27.9316 174.129C28.1425 174.336 28.4293 174.468 28.6468 174.669C29.3819 175.375 30.0147 176.222 30.8453 176.785C33.2647 178.44 35.7567 179.989 38.2222 181.575C40.8196 183.243 43.6145 184.449 46.6404 185.092C48.2193 185.425 49.7091 186.295 51.4462 185.863C50.6123 186.865 49.7685 187.818 48.8917 188.737C46.6701 191.068 44.3859 193.345 42.2236 195.728C41.304 196.744 40.5986 197.957 39.8405 199.11C39.7713 199.239 39.7417 199.381 39.7483 199.526V200C39.8109 199.961 39.8801 199.924 39.9493 199.888C40.157 199.779 40.3745 199.671 40.5063 199.506C42.8367 196.519 45.533 193.866 48.1765 191.17C49.5971 189.72 50.9914 188.23 52.2802 186.661C53.1471 185.609 53.9974 184.492 54.0831 183.012C54.1919 181.14 53.8261 179.409 52.7318 177.86C52.6593 177.781 52.5703 177.722 52.4714 177.685C52.0034 177.451 51.7759 176.947 51.9902 176.499C52.7813 174.818 52.702 173.127 51.9274 171.502C51.3341 170.259 50.5761 169.096 49.8707 167.912C49.7158 167.655 49.6927 167.497 49.9003 167.266C50.342 166.768 50.7508 166.241 51.1662 165.724C53.7998 162.444 56.7431 159.411 59.1097 155.918C59.9338 154.701 60.7743 153.475 61.394 152.153C62.0862 150.667 62.8015 149.151 62.9169 147.466C63.0059 146.21 63.0256 144.955 63.1179 143.702C63.1574 143.415 63.286 143.148 63.4903 142.941C64.5319 141.876 65.6823 140.907 66.648 139.776C68.2928 137.848 69.2981 135.511 70.521 133.319C71.7637 131.084 72.6404 128.668 73.1183 126.16C73.2469 125.501 73.3459 124.838 73.4579 124.176C73.1547 124.766 72.9931 125.385 72.7953 125.992C71.6417 129.522 69.898 132.789 68.2301 136.095C67.0402 138.438 65.4714 140.574 63.5893 142.413C63.4871 142.512 63.3718 142.601 63.1905 142.756C63.2795 140.574 63.3817 138.511 63.4443 136.447C63.4772 135.336 63.4344 134.226 63.4443 133.112C63.4443 132.594 63.5101 132.08 63.5167 131.559C63.5299 130.666 63.5629 129.769 63.4937 128.883C63.4706 128.612 63.4639 128.461 63.6419 128.246C64.0012 127.808 64.377 127.36 64.6176 126.856C64.8417 126.387 64.644 126.219 64.1067 126.295C64.0804 126.918 63.6881 127.34 63.3025 127.765C62.2807 128.883 61.2458 129.984 59.8185 130.616C59.7625 130.653 59.7097 130.696 59.6635 130.742L59.7393 130.91C60.3228 130.669 60.9391 130.478 61.4796 130.168C62.0202 129.858 62.4652 129.413 63.0585 128.949C62.9234 129.848 62.8014 130.639 62.6861 131.431C62.6235 131.783 62.5773 132.136 62.5509 132.492C62.3894 136.635 62.2345 140.782 62.0829 144.925C62.0829 144.997 62.0664 145.067 62.0697 145.139C62.1784 148.992 60.5964 152.219 58.4275 155.278C55.9851 158.716 53.0746 161.768 50.4541 165.061C48.1963 167.899 45.7307 170.585 43.9475 173.773C43.898 173.829 43.8421 173.882 43.7795 173.928C43.196 173.549 42.5565 173.189 41.983 172.741C40.0778 171.261 38.1497 169.808 36.3269 168.229C35.1766 167.233 34.1778 166.057 33.1692 164.909C32.8429 164.547 32.6516 164.046 32.4934 163.575C31.9528 161.94 31.4419 160.295 30.9211 158.65C30.8981 158.568 30.8981 158.479 30.9211 158.393C31.8671 161.086 33.2516 163.604 35.0183 165.846C34.1514 164.586 33.9635 163.064 33.5844 161.627C32.945 159.217 32.2989 156.801 32.1078 154.293C31.6826 155.588 31.9134 156.893 32.1672 158.175C32.4243 159.458 32.7901 160.746 33.0868 162.035C31.9694 159.952 31.3859 157.678 30.7497 155.423C30.1004 153.146 29.5237 150.851 28.9106 148.547C28.5184 148.755 28.5348 149.035 28.6238 149.381C29.283 151.952 29.9224 154.533 30.5717 157.107C30.608 157.226 30.6147 157.351 30.5817 157.473C30.4894 157.266 30.3971 157.058 30.3081 156.847L30.1763 156.89C30.7564 159.224 31.2573 161.58 32.3286 163.776C31.0431 161.861 30.3872 159.669 29.5797 157.556C28.7721 155.443 28.1887 153.221 27.5031 151.043L27.2196 151.303C27.6711 153.001 28.0568 154.721 28.594 156.389C29.0654 157.856 29.7049 159.27 30.2719 160.704C30.3609 160.931 30.4598 161.152 30.5587 161.376L30.4399 161.445C30.2092 161.158 29.9586 160.888 29.7543 160.582C28.7852 159.131 27.8261 157.674 26.8735 156.214C26.745 156.02 26.6493 155.806 26.5405 155.598C25.934 154.441 25.6275 153.3 26.6229 152.173C26.7086 152.074 26.7878 151.965 26.8537 151.85C26.8966 151.774 26.9428 151.695 26.9823 151.616C27.045 151.497 27.1076 151.376 27.1735 151.26C27.5394 150.519 27.8986 149.78 28.2612 149.039C28.6238 148.297 28.9897 147.559 29.3654 146.827C30.0675 145.452 30.8124 144.098 31.5375 142.736C31.5936 142.628 31.6563 142.529 31.7815 142.318C31.9134 143.089 32.0122 143.752 32.1474 144.404C32.3946 145.581 32.6352 146.761 32.9384 147.924C33.4229 149.849 33.8021 151.801 34.0756 153.768C34.514 156.732 35.4831 159.57 37.1938 162.075C37.8893 163.103 38.6738 164.066 39.5407 164.956C40.223 165.645 41.0997 166.142 41.8908 166.732L42.016 166.594C41.9468 166.538 41.8776 166.485 41.8084 166.432C41.7392 166.376 41.637 166.297 41.548 166.238C39.6922 165.022 38.5254 163.242 37.53 161.327C35.7995 158.007 35.0545 154.375 34.1745 150.792C33.4658 147.918 32.856 145.017 32.2364 142.123C32.1638 141.784 32.2364 141.378 32.365 141.045C32.6583 140.248 33.0142 139.476 33.3734 138.649C33.5811 139.921 33.7262 141.144 33.9833 142.344C34.6326 145.363 35.348 148.366 35.9907 151.385C36.1292 152.031 36.0664 152.734 36.0103 153.413C35.4335 152.318 35.4468 151.128 35.3117 149.961C35.0183 150.746 34.9622 151.603 35.1567 152.417C35.9774 155.591 36.6861 158.818 38.2946 161.725C38.6605 162.388 39.1747 162.968 39.6197 163.588L39.7285 163.512C39.1813 162.46 38.6374 161.412 38.0902 160.361L38.199 160.301L38.588 160.72C37.6025 158.192 36.2477 155.779 36.3796 152.935C36.5312 153.551 36.6498 154.177 36.8476 154.78C37.075 155.515 37.3552 156.231 37.6848 156.926C38.344 158.241 39.0198 159.55 39.7779 160.809C40.7305 162.391 42.105 163.584 43.6344 164.603C43.7762 164.705 43.9409 164.771 44.1123 164.797C43.6805 164.408 43.2322 164.023 42.8004 163.624C41.3007 162.246 40.1899 160.592 39.1747 158.831C37.6848 156.241 36.9465 153.449 36.3598 150.575C35.7895 147.799 35.0941 145.05 34.5107 142.278C34.214 140.877 34.0163 139.45 33.835 138.026C33.7724 137.525 33.858 136.994 33.9503 136.49C34.0887 135.755 34.2932 135.03 34.5009 134.186C34.8272 135.959 35.1072 137.627 35.4467 139.279C36.251 143.237 37.0916 147.186 37.8958 151.145C37.9815 151.567 37.909 152.022 37.8562 152.467C37.1344 150.657 36.7587 148.768 36.3829 146.85C36.35 147.061 36.3302 147.272 36.3203 147.486C36.3533 149.335 36.7454 151.115 37.3058 152.872C38.0639 155.255 38.822 157.632 40.0943 159.804C40.4338 160.371 40.8162 160.911 41.2381 161.422C39.6626 158.403 38.5485 155.252 38.064 151.877C39.6 156.178 41.637 160.11 45.7835 162.516C45.6583 162.411 45.5296 162.289 45.4044 162.177C42.662 159.777 40.4766 156.999 39.3263 153.492C39.2703 153.324 39.234 153.146 39.1879 152.974L39.1945 152.981H39.1879C39.2769 153.129 39.3791 153.271 39.4549 153.429C39.8867 154.335 40.2756 155.268 40.7667 156.142C41.1194 156.765 41.6139 157.305 42.049 157.882C39.7021 153.452 38.1793 148.636 37.5498 143.669C37.497 143.956 37.4771 144.249 37.4936 144.543C37.6024 147.239 38.1792 149.84 39.0593 152.381C39.1153 152.582 39.1615 152.786 39.1945 152.994C38.8088 151.807 38.3211 150.644 38.0508 149.434C36.907 144.282 35.8192 139.117 34.7315 133.952C34.6689 133.563 34.6722 133.168 34.7381 132.782C34.86 131.852 35.0315 130.93 35.2491 130.017C35.348 130.679 35.4336 131.342 35.5489 132.001C36.1224 135.287 36.6203 138.593 37.3092 141.856C37.741 143.906 38.4991 145.881 39.0396 147.911C39.3297 149.015 39.3659 150.192 39.6757 151.29C40.4074 153.867 41.2315 156.419 43.0114 158.525C43.1037 158.63 43.1993 158.739 43.2949 158.848C43.3113 158.868 43.3477 158.868 43.4202 158.897C41.7524 156.148 40.5822 153.235 39.7483 150.186L39.8867 150.123C40.2888 150.996 40.658 151.886 41.0964 152.74C41.5314 153.627 42.0259 154.48 42.573 155.301C43.1465 156.109 43.7761 156.873 44.4551 157.589C45.1209 158.311 45.856 158.967 46.5614 159.652L46.6702 159.55C46.6174 159.477 46.5712 159.402 46.5152 159.332C45.4802 158.113 44.4222 156.91 43.4102 155.674C42.1116 154.078 41.3206 152.206 40.6119 150.294C40.1373 149.015 39.5439 147.779 39.1187 146.484C38.7198 145.278 38.5023 144.015 38.143 142.792C36.8575 138.333 36.0731 133.768 35.4073 129.189C35.2754 128.276 35.516 127.304 35.5885 126.361C35.5951 126.13 35.6577 125.906 35.7697 125.705C35.839 126.16 35.9181 126.615 35.9741 127.073C36.5707 132.09 37.4904 137.044 38.9176 141.896C38.9341 141.939 38.9572 141.978 38.9869 142.014C39.066 142.417 39.1517 142.819 39.2176 143.224C39.6857 146.082 40.4075 148.87 41.515 151.553C41.871 152.417 42.4643 153.113 43.1828 153.792C42.7906 152.905 42.3917 152.107 42.0852 151.273C41.4853 149.655 40.9216 148.037 40.4667 146.385C40.4008 146.148 40.3382 145.914 40.2789 145.676C40.2492 145.558 40.2196 145.439 40.1899 145.32C40.1339 145.083 40.0778 144.846 40.0251 144.605C39.9987 144.487 39.9757 144.365 39.9493 144.246C39.8504 143.768 39.7648 143.287 39.6923 142.802C39.656 142.562 39.623 142.318 39.5933 142.074C39.5504 141.708 39.5142 141.339 39.4845 140.97C39.4647 140.722 39.4516 140.475 39.4417 140.228C39.4417 140.132 39.4352 140.037 39.4319 139.941C39.5011 140.208 39.5669 140.472 39.6361 140.739C39.8536 141.609 40.0778 142.476 40.3085 143.346C40.9842 145.878 41.6139 148.422 42.3654 150.931C42.9521 152.885 43.9904 154.635 45.2989 156.214C44.7386 155.077 44.1783 153.943 43.6147 152.806C44.943 154.747 46.6272 156.274 48.6181 157.493C46.3833 155.344 43.9805 153.324 43.1432 150.192C44.4518 151.115 45.4374 152.368 46.2812 153.752L45.0121 151.043L45.1473 150.947C46.4954 153.043 48.539 154.306 50.5794 155.568C49.5279 154.635 48.3874 153.782 47.4414 152.75C46.3306 151.534 45.21 150.261 44.4387 148.831C43.8289 147.7 43.7333 146.293 43.4168 145.007C43.3575 144.767 43.3344 144.516 43.2949 144.269L43.1498 144.279L43.285 146.642L43.1828 146.669C42.995 145.914 42.784 145.159 42.6192 144.404C41.9567 141.352 41.2809 138.303 40.6711 135.238C40.4536 134.16 40.447 133.042 40.2393 131.965C39.969 130.537 39.5735 129.136 39.2703 127.716C38.5583 124.344 37.8628 120.969 37.1838 117.587C37.0948 117.145 37.1904 116.661 37.2464 116.202C37.3222 115.527 37.4575 114.861 37.652 114.208C38.0244 115.952 38.3969 117.699 38.7726 119.442C39.2934 121.865 39.8439 124.281 40.3317 126.71C40.5624 127.867 40.5492 129.084 40.8557 130.214C41.3172 131.922 41.2579 133.665 41.4854 135.393C42.0754 139.816 43.1696 144.101 45.1539 148.119C45.5923 149.009 46.1955 149.82 46.7196 150.664L46.8942 150.571L45.1737 145.199C46.2087 146.659 47.0822 148.119 48.1864 149.381C49.2906 150.64 50.7837 151.514 52.3526 152.2C52.2373 152.114 52.1253 152.028 52.0066 151.946C51.8912 151.863 51.7429 151.758 51.6044 151.672C48.3973 149.671 46.3965 146.688 44.9693 143.313C44.3266 141.787 44.0365 140.113 43.5883 138.507C43.018 136.467 42.3851 134.44 41.8874 132.383C41.4457 130.56 41.1655 128.701 40.7964 126.862C40.6612 126.196 40.424 125.55 40.3251 124.881C40.1537 123.734 40.0614 122.574 40.0515 121.414C40.6184 123.668 41.0633 125.942 42.039 128.078C41.538 126.061 41.08 124.034 40.5229 122.033C40.0614 120.379 39.8669 118.698 39.8241 116.984C40.0878 118.19 40.3482 119.396 40.6185 120.603C40.7174 121.114 40.8491 121.618 41.0074 122.112C41.6666 123.945 42.0192 125.853 42.306 127.769C42.4741 128.919 42.4215 130.099 42.583 131.253C43.0609 134.684 43.9838 137.996 45.4605 141.144C45.5759 141.408 45.6615 141.682 45.7241 141.962C46.1461 143.719 47.0228 145.251 48.0314 146.731L46.5152 143.27L46.624 143.214L47.0064 143.692C46.3439 142.15 45.5989 140.64 45.5231 138.91C46.9372 142.542 49.2971 145.38 52.6823 147.348C52.4318 147.147 52.1747 146.949 51.9242 146.741C51.6638 146.527 51.4101 146.29 51.153 146.065C47.6426 142.98 45.5594 139.124 44.6727 134.545C44.1124 131.661 43.2981 128.83 42.6158 125.962C42.4675 125.352 42.2335 124.72 42.2796 124.113C42.484 121.493 41.1985 119.139 41.0074 116.604C40.9282 115.54 40.9942 114.462 40.9942 113.262C41.1952 114.528 41.3205 115.685 41.5776 116.815C41.838 117.966 42.2533 119.08 42.5434 120.23C42.7741 121.13 42.9488 122.05 43.0938 122.969C43.4762 125.435 43.809 127.904 44.1947 130.369C44.5441 132.7 45.2364 134.964 46.2516 137.093C46.7031 138.026 47.0196 139.025 47.4514 139.971C48.0117 141.184 48.8622 142.239 49.9235 143.053C48.7105 141.629 47.7249 140.03 46.9998 138.306L47.125 138.198L48.1468 139.378C45.5297 135.597 44.8869 131.213 44.1255 126.859C44.1552 126.915 44.1947 126.968 44.2211 127.024C44.2573 127.106 44.2838 127.192 44.3135 127.277C45.2034 129.74 46.034 132.228 46.9998 134.661C48.5325 138.521 51.4132 140.726 55.5598 141.25C55.863 141.273 56.1696 141.27 56.4728 141.243C51.199 140.587 47.5239 136.596 47.069 133.27C47.7019 134.918 48.7006 136.401 49.9927 137.608C47.7513 134.938 46.6503 131.714 45.5461 128.507C44.4419 125.3 43.2718 122.112 43.163 118.642C43.2257 118.744 43.2916 118.846 43.3542 118.948L43.5388 118.895C43.0642 116.631 42.6192 114.366 42.105 112.115C41.8512 110.998 41.7392 109.877 41.937 108.737C42.7214 110.009 42.9224 111.552 43.2058 113.061C43.5618 114.947 43.8057 116.852 44.0925 118.75C44.4518 121.124 44.6957 123.53 45.1901 125.877C45.7439 128.504 46.7657 130.956 48.8719 132.808C48.5555 132.317 48.2227 131.839 47.9326 131.328C47.6327 130.804 47.3755 130.257 47.1612 129.693C49.1752 133.425 51.845 136.404 56.0608 137.72C55.0489 137.103 54.004 136.566 53.0745 135.877C52.112 135.182 51.2188 134.394 50.4146 133.52C49.6301 132.647 48.9775 131.638 48.3512 130.636C47.725 129.634 47.2141 128.57 47.013 127.462L49.5015 131.885L49.7059 131.777C47.959 129.041 46.6009 126.144 45.945 122.94C45.9285 123.072 45.912 123.203 45.8988 123.335C44.9627 119.742 43.9904 116.16 43.7037 112.563C43.5685 112.441 43.4432 112.382 43.4234 112.3C43.1169 110.952 42.7939 109.603 42.55 108.249C42.4709 107.817 42.6127 107.339 42.6654 106.772C43.4334 108.687 44.1024 110.497 44.2903 112.445C44.2903 112.517 44.3035 112.59 44.3233 112.659C45.1177 114.917 45.1737 117.307 45.5923 119.63C45.7637 120.58 46.0373 121.516 46.2944 122.449C46.5778 123.484 46.8779 124.519 47.2042 125.54C47.9986 128.042 49.6994 129.829 51.8188 131.269C53.068 132.119 54.459 132.66 55.9324 132.996C56.1038 133.036 56.2784 133.056 56.4564 133.062C51.6309 131.259 49.2213 128.682 48.3775 127.034L50.2761 129.051C49.5642 127.838 48.8589 126.678 48.193 125.504C47.2998 123.925 47.0789 122.139 46.6768 120.415C45.9022 117.106 45.2924 113.77 45.2067 110.358C45.1968 110.273 45.1803 110.19 45.1605 110.108H44.9759C44.9067 111.215 44.8375 112.326 44.7683 113.42C44.6233 112.25 44.4882 111.06 44.3201 109.874C44.1355 108.578 43.8981 107.286 43.7333 105.984C43.6739 105.526 43.7563 105.045 43.8585 104.57C44.1024 105.961 44.3166 107.339 45.3219 108.44C43.8387 105.262 44.1321 102.059 45.1045 98.8284C43.4334 101.749 42.9751 104.857 43.6443 108.156C43.2322 106.805 42.8368 105.47 43.1268 104.053C43.3839 102.787 43.6377 101.518 43.8849 100.252C43.8948 100.186 43.8981 100.117 43.8981 100.048L43.7465 99.9689C43.5718 100.305 43.3245 100.628 43.2322 100.987C42.9059 102.237 42.6258 103.499 42.3654 104.761C42.25 105.319 42.2105 105.889 42.138 106.452L41.9896 106.439C42.0819 105.094 42.1742 103.753 42.2698 102.319C41.7556 103.206 41.5579 104.102 41.4986 105.035C41.3964 106.703 41.304 108.367 41.159 110.035C40.7272 108.503 40.7173 106.947 40.981 105.378L40.8557 105.332L40.3811 106.143C40.1174 104.432 39.8405 102.823 39.6427 101.205C39.5933 100.799 39.7318 100.348 39.8603 99.9425C40.4668 98.067 41.1029 96.2014 41.7292 94.3325C41.8017 94.1116 41.9303 93.9007 41.9798 93.6798C42.1874 92.724 42.8763 92.2197 43.8487 91.7615C41.8182 94.3292 41.1787 97.2627 40.6645 100.229L40.8261 100.308C41.1393 99.7678 41.4491 99.2305 41.782 98.6537C41.7952 98.8152 41.8083 98.9603 41.8182 99.102L41.96 99.1613C42.4874 97.8923 43.0312 96.6266 43.5388 95.3477C44.0465 94.0688 44.5243 92.78 45.0187 91.4813L44.6627 91.5538L44.6199 91.4088L45.6945 91.1088C44.6002 92.8954 44.7782 94.8697 44.4915 96.6299C44.8046 95.3675 45.1407 94.0029 45.4868 92.635C45.4769 91.9691 45.9318 91.2539 46.4196 91.1649L45.889 92.0515C46.0933 91.7813 46.3142 91.5209 46.5482 91.2803C46.6438 91.1913 46.8515 91.2209 47.0064 91.1978C46.9932 91.3495 47.0361 91.5505 46.957 91.6461C45.7934 93.0371 45.1802 94.5896 45.5 96.2706C45.7472 95.8388 46.0407 95.2818 46.3802 94.7478C46.7131 94.2138 47.092 93.7062 47.5106 93.2382C47.4183 93.6106 47.303 93.9765 47.2404 94.3523C47.1778 94.728 47.1646 95.1071 47.1316 95.4927L47.303 95.5257C47.4118 95.1466 47.5501 94.7709 47.6292 94.3852C47.7051 93.8842 47.9656 93.4326 48.3578 93.1129C49.139 92.4899 49.8938 91.834 50.6684 91.1978C50.7277 91.1484 50.8266 91.155 51.0178 91.1056C50.4146 91.8208 49.9103 92.48 49.3401 93.0766C49.0171 93.3964 48.7665 93.782 48.6083 94.2039C48.4006 94.7643 48.0314 95.262 47.7314 95.7861L47.8402 95.8718L49.2049 94.2534C49.1752 94.7775 49.1488 95.2587 49.1191 95.7399L49.2081 95.7498C49.4158 95.2917 49.6203 94.8335 49.8279 94.372C49.818 94.2501 49.7718 94.1149 49.8047 94.0062C50.075 93.103 50.5134 92.3284 51.4462 91.9296C51.7429 91.7977 52.0001 91.5967 52.2044 91.3462L51.0706 91.7516C51.2518 91.3033 51.5584 91.1056 51.9836 91.0957C52.3495 91.0858 52.7153 91.0957 53.1735 91.0957C52.7779 91.4879 52.4153 91.8571 52.0428 92.2164C51.7 92.546 51.3573 92.8756 51.0112 93.2019L49.9761 94.1842L51.7396 92.9679C51.4891 93.9864 50.9816 94.8005 50.3223 95.5455L50.8365 95.1532C50.3949 95.8619 50.7276 96.6628 50.5332 97.3715L49.7685 97.1111C49.6334 97.4012 49.5608 97.6715 49.3993 97.8758C48.8587 98.5548 48.4994 99.2668 48.4665 100.17C48.4335 101.024 48.2128 101.871 48.1666 102.728C48.1304 103.281 48.2061 103.839 48.3907 104.366C48.5753 104.89 48.8653 105.375 49.2411 105.783C48.483 104.043 48.4567 102.276 49.0237 100.483V101.983C49.1522 100.806 49.5049 99.6656 50.0619 98.6241C49.8609 99.7843 49.6829 100.819 49.5049 101.851L49.6465 101.881C49.7092 101.676 49.7719 101.469 49.8345 101.264H49.8279L49.8345 101.248C50.0059 100.397 50.1773 99.5503 50.3421 98.6999C50.3784 98.5054 50.3883 98.3043 50.4113 98.1066L50.2695 97.9846L49.3895 98.5186L49.3037 98.4592C49.5575 98.2153 49.7817 97.9187 50.0783 97.7572C50.1772 97.7044 50.4673 98.0077 50.6321 98.1263L51.3408 98.0011C50.8002 99.1679 50.3157 100.209 49.8311 101.248V101.261L50.2233 100.938C50.3123 102.777 49.8904 104.692 51.3704 106.284C50.787 104.359 50.118 102.523 51.4892 100.826C51.6078 102.27 51.733 103.759 51.855 105.249L51.8912 105.243C51.9209 104.603 51.9539 103.964 51.9868 103.301L52.9031 105.497L53.0449 105.434C52.4614 102.51 52.4515 102.312 52.9361 101.587L53.1009 102.566C53.292 101.798 53.101 100.918 53.8789 100.269C53.3713 101.706 53.312 103.087 53.8855 104.468V102.919L53.9645 102.909C53.9876 103.09 54.0107 103.268 54.0305 103.42C54.1755 102.899 54.3238 102.368 54.4721 101.834L54.6567 101.871V105.731H54.894C54.894 104.976 54.8412 104.221 54.9072 103.479C54.9929 102.715 55.1413 101.956 55.3489 101.215C55.3885 102.154 55.0226 103.104 55.5138 104.033C55.3456 103.034 55.7807 102.276 56.4498 101.551C56.5124 102.365 56.5718 103.13 56.6344 103.898H56.7728C56.8552 102.303 56.6443 100.618 58.2429 99.3294C57.1255 101.93 56.5883 104.452 57.3398 107.115C57.3398 106.614 57.3266 106.113 57.3398 105.612C57.353 105.111 57.4254 104.61 57.4254 104.109C57.4254 103.384 57.8275 102.876 58.2857 102.312C58.3516 103.001 58.411 103.631 58.4769 104.333L59.3043 103.209C59.4032 103.502 59.4756 103.717 59.5481 103.934C59.5185 103.077 59.792 102.385 60.3392 101.947C60.27 103.024 60.1843 104.188 60.1316 105.355C60.1184 105.628 60.2239 105.909 60.28 106.218C60.3459 106.159 60.3888 106.139 60.3822 106.126C60.1943 104.953 60.616 103.997 61.3906 103.136C61.9246 102.543 62.3961 101.894 62.9433 101.294C62.35 103.008 62.0038 104.705 62.8575 106.571C62.8575 106.33 62.8773 106.228 62.8575 106.133C62.5806 105.048 62.9333 104.122 63.5661 103.258C64.433 102.072 65.29 100.885 66.1536 99.6986L66.3448 99.814C66.1273 100.308 65.9756 100.839 65.6954 101.287C65.5834 101.462 65.4614 101.63 65.3296 101.788L65.5998 101.983C65.4482 102.415 65.3329 102.866 65.1352 103.278C64.7924 104.007 64.3836 104.709 64.0309 105.434C63.9255 105.681 63.8859 105.955 63.9221 106.222L65.1022 104.112C65.211 105.032 65.3098 105.816 65.4054 106.601L65.59 106.588C65.59 105.869 65.5537 105.147 65.6064 104.432C65.6262 104.241 65.6659 104.053 65.7318 103.872C65.7648 103.779 65.7944 103.687 65.8274 103.595C65.8604 103.502 65.8899 103.41 65.9196 103.318L65.8504 103.265C65.8109 103.232 65.7745 103.202 65.7778 103.199C65.9954 102.853 66.18 102.471 66.4568 102.174C67.126 101.459 67.838 100.78 68.5335 100.088L68.6521 100.17C68.5434 100.338 68.4248 100.496 68.2995 100.651C67.6568 101.35 67.0008 102.036 66.3646 102.738C66.302 102.81 66.2459 102.889 66.203 102.975C66.1536 103.061 66.1108 103.146 66.0614 103.229L67.9665 101.116L68.2335 101.33C67.3501 102.774 66.2657 104.112 65.8866 105.813L67.3139 103.694C67.2611 104.794 67.0008 105.882 67.6403 107.026C67.3898 105.187 68.8201 104.313 69.5552 103.09L69.2553 106.179L69.4234 106.208L71.0418 103.901C70.9858 104.682 70.9331 105.371 70.8968 106.057C70.8968 106.116 70.999 106.179 71.1572 106.367C71.4242 104.297 71.7339 102.355 73.6886 101.099L72.3307 103.621L72.6603 103.443L71.5989 105.945L71.7967 106.04C71.9384 105.793 72.0834 105.549 72.2285 105.302L72.3999 105.342C72.3405 105.8 72.2779 106.261 72.2153 106.752L73.6623 104.976L73.837 105.012C73.804 105.569 73.771 106.123 73.7282 106.835L74.8884 105.23C74.9741 105.668 75.0401 106.007 75.106 106.307C75.7487 105.401 76.4046 104.475 77.0539 103.545L77.2253 103.644L76.2761 105.763L76.3255 105.793L76.7771 105.108L76.8859 105.164L76.2959 106.261L76.7871 105.981C76.8398 106.156 76.8958 106.311 76.9617 106.541C77.255 105.256 77.4561 104.939 78.6032 104.003C78.5076 104.376 78.4317 104.755 78.3724 105.134C78.3394 105.51 78.3593 105.892 78.4285 106.265C78.4681 106.129 78.5108 105.998 78.5438 105.859C78.7218 105.164 78.9624 104.521 79.4008 103.918C80.3896 102.56 80.8083 101.383 80.9764 99.9623C81.4775 100.285 81.6488 100.625 81.4511 101.136C81.1742 101.854 80.8446 102.553 80.5182 103.252C80.4688 103.354 80.3006 103.403 80.3006 103.407C79.9282 104.168 79.5854 104.87 79.2196 105.632L80.06 104.702C80.1556 105.206 80.2447 105.665 80.3304 106.119C80.3469 105.173 80.2974 104.241 80.8281 103.354C81.2434 102.659 81.4774 101.854 81.7807 101.119C82.5388 101.848 82.6311 102.197 82.1367 103.14C81.6423 104.082 81.0752 105.009 80.5347 105.935C80.4753 106.007 80.4062 106.07 80.3304 106.119V106.143L80.3172 106.133C80.3469 106.265 80.3831 106.317 80.416 106.324C80.4259 106.324 80.4391 106.324 80.449 106.317C80.4589 106.314 80.4688 106.304 80.4754 106.297C80.4886 106.284 80.5017 106.268 80.5116 106.251C80.5347 106.208 80.5578 106.166 80.5776 106.123C81.2039 105.081 81.8202 104.033 82.4267 102.978C82.5058 102.813 82.5718 102.645 82.6245 102.471C83.1849 103.011 83.4254 103.548 83.0035 104.287C82.5157 105.141 82.0938 106.03 81.5829 107.033C82.5585 106.03 83.0102 104.883 83.4618 103.661C83.7024 103.954 83.8703 104.185 84.0714 104.386C84.2955 104.61 84.3153 104.831 84.1802 105.108C83.7484 105.948 83.3727 106.818 83.0529 107.708L84.556 105.035C84.7571 105.256 85.0405 105.503 85.2383 105.806C85.3174 105.928 85.268 106.185 85.1988 106.347C84.9252 106.98 84.6219 107.603 84.4406 108.288L85.6569 106.133C85.8118 106.344 85.9833 106.545 86.1679 106.729C86.4052 106.937 86.3953 107.125 86.2635 107.388C85.924 108.035 85.647 108.71 85.4427 109.409L86.6161 107.313C87.1017 107.765 87.2204 108.313 86.9721 108.954C86.8633 109.238 86.7314 109.518 86.6127 109.798C86.5039 110.058 86.3953 110.319 86.2865 110.579L86.4349 110.648C86.8238 109.867 87.2093 109.086 87.595 108.308C88.3531 108.73 88.4817 109.096 88.0598 109.95C87.6675 110.737 87.2688 111.519 86.9161 112.333C87.6973 111.519 88.1719 110.51 88.6466 109.498C89.319 110.016 89.3354 110.098 88.953 110.81C88.6069 111.456 88.2576 112.105 87.9181 112.761C87.8687 112.89 87.8324 113.022 87.8093 113.157L88.0334 113.259C88.5575 112.385 89.0816 111.512 89.5958 110.652C90.2023 111.317 90.2024 111.344 89.8134 112.194C89.5234 112.827 89.2464 113.47 88.93 114.179C87.0281 112.87 85.1757 111.598 83.3266 110.322C82.9178 110.042 82.5091 109.758 82.1169 109.452C81.3027 108.819 80.3238 108.76 79.358 108.641C77.733 108.44 76.1114 108.18 74.4798 108.044C73.2503 107.946 72.0077 107.992 70.7716 107.992C69.9805 107.992 69.1761 108.107 68.3949 108.008C67.8346 107.936 67.3139 108.133 66.77 108.061C66.5888 108.025 66.4108 107.979 66.2328 107.919C66.1142 107.952 65.8932 108.077 65.6756 108.067C63.0717 107.975 60.5041 108.361 57.9233 108.575C56.4367 108.687 54.9467 108.717 53.4569 108.667C52.9493 108.654 52.4581 108.206 51.9472 108.18C51.2715 108.147 50.876 107.708 50.3618 107.431C50.2728 107.385 50.0222 107.501 49.9365 107.609C48.9609 108.845 48.6873 110.315 48.5753 111.828C48.4731 113.088 48.6808 114.353 49.1851 115.51C49.5477 116.351 49.93 117.185 50.2497 118.038C50.7903 119.551 51.6902 120.909 52.8768 121.997C52.6824 121.882 52.4945 121.75 52.3198 121.608C49.4818 118.941 48.2194 115.579 47.926 111.779C47.8535 110.836 47.8172 109.946 48.6149 109.254C48.6215 109.248 48.5984 109.205 48.5819 109.159L47.8238 109.666C47.8601 109.089 47.8864 108.638 47.916 108.186L47.8073 108.163L46.7394 110.299C46.4691 108.822 46.2285 107.494 45.9615 106.04L46.502 106.551C45.0847 103.707 45.3648 101.01 46.558 98.2714C45.7768 98.6372 44.7321 101.366 44.6431 103.1L44.9989 102.49C45.0484 102.662 45.0913 102.757 45.1077 102.86C45.4439 104.801 45.7868 106.749 46.1066 108.697C46.1461 108.944 46.123 109.198 46.0406 109.432C45.7307 110.306 45.7374 111.196 45.8527 112.095C46.1791 114.548 46.5351 116.99 47.1218 119.403C47.7118 121.835 48.2655 124.261 49.4521 126.49C49.7455 127.043 50.0882 127.567 50.408 128.108L50.4409 128.075L48.0677 122.462L48.2556 122.353C49.9861 125.56 52.5637 127.818 55.8796 129.255C55.5994 129.041 55.3094 128.84 55.0127 128.645C53.2987 127.528 51.7331 126.233 50.4245 124.654C49.5906 123.648 48.7006 122.663 48.3116 121.367C48.0249 120.421 47.7117 119.482 47.4974 118.52C47.237 117.343 47.0657 116.146 46.8482 114.96L47.0426 114.891C48.0644 118.384 48.8291 121.997 51.4792 124.743C49.986 122.294 48.8028 119.713 48.015 116.901L48.4237 117.063C47.481 115.507 47.4777 113.763 47.4118 112.033C47.6722 113.239 47.9293 114.449 48.1963 115.655C48.305 116.156 48.4468 116.647 48.5721 117.145C48.7171 117.392 48.8819 117.63 49.0039 117.887C49.9037 119.828 51.2222 121.44 52.857 122.811C54.1129 123.856 55.573 124.631 57.1452 125.085C55.6092 124.205 54.014 123.418 52.8702 122C52.7747 121.799 52.6625 121.605 52.5372 121.42C51.2287 119.706 50.5465 117.709 49.9103 115.685C50.6519 117.58 51.7496 119.225 53.3021 120.563C52.0693 118.978 50.8794 117.369 50.1773 115.378L50.4838 115.556C49.9267 113.134 49.3005 110.721 49.9861 108.229L50.1475 108.189C50.2069 108.328 50.342 108.489 50.3124 108.605C49.841 110.437 50.3586 112.194 50.6717 113.981C50.9387 115.53 51.8747 116.69 52.7284 117.906C53.269 118.684 53.9249 119.38 54.5907 120.072C53.0284 117.748 51.4528 115.444 51.0968 112.57C52.1779 116.572 54.3699 119.789 57.9429 122.175C57.844 122.013 57.8145 121.918 57.7518 121.868C54.3305 119.337 52.3197 115.893 51.2584 111.848C51.176 111.479 51.1628 111.1 51.2222 110.727C51.4133 112.422 52.1252 113.921 52.8471 115.434C53.5788 116.967 54.4424 118.338 56.0114 119.146C54.3996 117.669 53.4042 115.83 52.7482 113.783C52.2934 112.366 51.9835 110.945 52.4416 109.452C52.5768 109.007 52.7516 108.954 53.1175 109.099C52.511 111.548 53.3909 115.863 54.8181 117.274C54.7489 117.066 54.6996 116.914 54.6501 116.763C54.6732 116.75 54.6963 116.733 54.7193 116.72L55.54 117.761L55.6786 117.712C54.5216 116.479 54.5579 114.97 54.6073 113.45C54.8611 114.258 55.1182 115.065 55.372 115.873L55.527 115.837C55.1446 114.36 54.9501 112.877 55.4182 111.354C55.4907 113.997 56.2026 116.377 58.3089 118.325C56.8685 116.318 56.7596 114.099 56.6838 111.875C56.7629 112.349 56.8354 112.827 56.9244 113.302C57.0167 113.776 57.1321 114.274 57.2408 114.752L57.376 114.732C57.3497 114.264 57.3232 113.799 57.2903 113.196C57.5638 113.974 57.7946 114.624 58.0253 115.276C57.8869 113.991 57.5672 112.712 58.1737 111.43C58.2297 112.903 58.2857 114.376 58.3417 115.853H58.4275V114.35C58.9615 115.629 59.2944 116.98 60.2206 118.061C59.4822 116.555 59.1493 114.933 58.7999 113.315C58.5824 112.326 58.7274 111.406 59.1723 110.371C59.4558 111.957 58.6186 113.49 59.5481 114.943C59.5053 114.337 59.4658 113.786 59.4295 113.239L59.502 113.216C59.7656 113.905 60.0295 114.591 60.2932 115.276C60.1086 113.625 60.0064 111.993 60.547 110.375C60.547 112.613 61.0347 114.745 61.862 116.812C61.6742 115.635 61.3216 114.469 61.872 113.239C62.0467 113.753 62.2082 114.221 62.3697 114.693H62.5411C61.6379 112.732 62.3037 110.975 63.1343 109.238C62.719 111.083 62.3499 112.926 62.7487 114.907C62.8278 113.71 62.9004 112.593 62.9729 111.472L63.0289 111.482C63.3915 112.975 63.7573 114.469 64.1232 115.958L64.2683 115.925C64.242 115.767 64.2023 115.609 64.1891 115.451C64.1891 115.408 64.2024 115.368 64.2287 115.339C64.2551 115.306 64.2913 115.286 64.3342 115.279C64.2386 114.518 64.0737 113.757 64.0671 112.995C64.0606 112.26 64.2221 111.522 64.3111 110.784L64.4924 110.793C64.7165 111.973 64.9439 113.153 65.1714 114.33L65.3132 114.307C65.211 113.49 65.0956 112.675 65.0132 111.855C64.9637 111.393 64.9704 110.922 64.9144 110.461C64.8056 109.534 65.3988 108.99 65.936 108.394C65.88 110.53 65.3066 112.61 65.7878 114.729C65.8339 114.205 65.8833 113.681 65.9294 113.157L66.0118 113.137C66.2558 113.987 66.4964 114.838 66.7371 115.688L66.8821 115.662C66.4107 114.03 66.8822 112.494 67.3107 110.952C67.5908 112.412 67.5479 113.935 68.3423 115.266C68.016 114.327 67.9599 113.368 68.0687 112.395C68.1775 111.42 68.4214 110.461 69.0773 109.646L68.2533 112.221L68.3555 112.26C68.4939 112.01 68.6291 111.756 68.7675 111.505H68.9389C68.0391 112.979 68.8828 114.212 69.2784 115.316C69.3509 114.04 69.4004 112.58 69.5422 111.133C69.5817 110.721 69.8914 110.332 70.076 109.933L70.2112 109.959V114.001C70.32 113.799 70.3497 113.747 70.4024 113.651L70.7912 114.465C70.521 112.748 70.5408 111.093 71.4967 109.452C71.1802 113.335 71.266 114.953 71.7604 115.306C71.8297 114.366 71.9021 113.404 71.9779 112.438H72.1559L72.2417 112.962C72.2252 111.703 72.5383 110.579 73.4315 109.646C73.2667 110.312 73.0854 110.962 72.9469 111.621C72.7294 112.613 72.8679 113.602 73.1909 114.541C73.2997 114.848 73.7578 115.032 74.1138 115.319C73.1876 113.328 73.9786 111.697 74.9444 110.091C74.5126 111.594 74.1731 113.111 74.394 114.693C74.4302 115.049 74.5192 115.398 74.6544 115.728C74.7038 115.144 74.7566 114.561 74.8192 113.826C75.1159 114.281 75.3301 114.607 75.541 114.937C75.1521 113.114 75.6267 111.499 76.5991 109.989C76.398 110.579 76.1804 111.166 75.9959 111.762C75.8245 112.306 75.5641 112.863 75.5706 113.411C75.5871 114.057 75.8509 114.706 76.1014 115.352C76.4376 113.374 76.543 111.35 78.1516 109.861C77.812 110.655 77.5022 111.459 77.1297 112.234C76.7572 113.008 76.5265 113.823 76.7375 114.686C76.7803 114.818 76.8298 114.947 76.8825 115.072C76.9221 114.831 76.9484 114.683 76.9913 114.419L77.1859 115.009C78.0165 111.921 78.2867 111.294 79.114 110.553C78.8009 111.377 78.4845 112.148 78.2109 112.936C77.944 113.717 77.7197 114.515 77.5417 115.322L77.7889 114.937C77.8054 115.167 77.8153 115.326 77.8219 115.405L80.9896 109.656L81.5731 109.976C80.1063 112.28 78.4845 114.475 78.1581 117.26C79.0646 114.739 80.4391 112.471 81.9257 110.263C81.0918 111.878 80.2611 113.496 79.4272 115.118L79.6052 115.214C80.3963 113.595 81.0358 111.894 82.3015 110.507L83.0529 111.034C81.0291 112.919 79.325 116.492 79.6744 118.187C80.1622 116.192 81.0391 114.436 82.0411 112.738C82.1136 112.613 82.1893 112.491 82.2651 112.369C83.0793 111.103 83.3661 111.064 84.5098 112.095C83.4452 112.844 82.8255 113.928 82.2289 115.039C81.6356 116.15 81.2237 117.297 81.161 118.401C81.8664 117.017 82.608 115.5 83.409 114.02C83.7056 113.473 84.1473 113.008 84.523 112.504C84.701 112.263 84.8758 112.273 85.1098 112.451C85.4658 112.722 85.8482 112.962 86.2635 113.246C84.566 114.973 83.4122 116.964 83.0958 119.373C83.9561 117.237 85.0175 115.23 86.5205 113.427L87.0611 113.76C85.3636 115.26 84.1869 117.03 83.821 119.271L83.9858 118.839C84.0418 118.688 84.0945 118.536 84.1604 118.388C84.7801 116.855 85.6339 115.474 86.8073 114.297C86.9655 114.139 87.183 114.04 87.3741 113.915L87.4665 114.05L85.9503 116.463L86.1053 116.565C86.3558 116.199 86.5897 115.823 86.8633 115.474C87.1336 115.121 87.4401 114.798 87.7829 114.511C87.2654 115.266 86.7018 116.001 86.2503 116.799C85.7987 117.597 85.4723 118.487 85.0108 119.344C85.0965 118.843 85.1428 118.332 85.2812 117.847C85.4427 117.353 85.6371 116.868 85.8679 116.4C86.0854 115.916 86.3425 115.444 86.6161 114.897C85.5745 115.711 84.0187 119.644 84.3978 120.56C84.5362 120.062 84.6515 119.64 84.7932 119.136L85.2251 120.323C85.7195 118.134 86.9885 116.354 88.2542 114.554C88.386 114.617 88.4487 114.64 88.508 114.676C88.564 114.713 88.6498 114.778 88.7058 114.821C86.9852 116.453 85.6734 118.282 85.4229 120.682L85.5547 120.744C85.6008 120.576 85.6404 120.405 85.6965 120.237C86.2799 118.414 87.2885 116.756 88.6366 115.398C88.7915 115.243 89.0387 115.184 89.2958 115.158C88.1685 115.843 87.6609 116.957 87.1599 118.058C86.6721 119.133 86.0987 120.194 86.2701 121.453C86.3393 121.173 86.4084 120.893 86.4875 120.58L86.9721 121.278C87.3182 120.501 87.628 119.795 87.9478 119.093L88.0796 119.146L87.1961 121.865L87.2885 121.898L87.628 121.252C87.7697 121.684 87.8951 122.056 87.9939 122.36C88.6334 121.206 89.2992 120.006 89.965 118.806L90.1166 118.876C89.9387 120.415 88.9794 121.849 89.3486 123.464L89.5232 123.49L89.7902 120.731C90.0869 121.061 90.3441 121.308 90.5485 121.595C90.6407 121.73 90.6571 121.941 90.6439 122.116C90.6208 122.597 90.5517 123.078 90.5353 123.559C90.5353 123.655 90.5616 123.751 90.6045 123.84C90.6473 123.925 90.7066 124.004 90.7791 124.067C90.8285 123.381 90.8813 122.696 90.9307 122.004C91.6987 122.218 91.7252 122.287 91.6757 123.006C91.6362 123.576 91.6657 124.156 91.6657 124.733H91.8437C91.9426 124.209 92.0415 123.685 92.1404 123.164L92.269 123.203L92.0514 122.811L92.1667 122.712C92.5425 123.045 93.0931 123.312 93.248 123.727C93.4062 124.143 93.1622 124.697 93.093 125.194L93.3106 125.234L93.6138 124.008L96.1023 124.687C95.9936 124.786 95.8683 124.901 95.7431 125.01C95.6178 125.118 95.3838 125.224 95.3509 125.366C95.1992 126.071 94.6027 126.107 94.0852 126.256C92.2262 126.78 90.3703 126.608 88.5344 126.14C85.0042 125.24 81.5564 124.116 78.2834 122.485C77.0671 121.868 75.9333 121.107 74.9016 120.22C74.6412 120.006 74.1699 119.927 73.8073 119.953C71.9912 120.089 70.2738 120.616 68.6323 121.391C67.5908 121.882 66.5756 122.419 65.5274 122.9C64.9868 123.147 64.4066 123.286 63.8693 123.53C63.4639 123.724 63.0883 123.978 62.7587 124.285C63.6915 124.588 64.5286 124.357 65.412 124.146C64.9901 124.476 64.5781 124.822 64.1397 125.135C63.7046 125.455 63.253 125.748 62.7817 126.015C62.3037 126.275 61.7895 126.47 61.2852 126.694C61.6775 127.152 62.3532 127.047 64.0507 126.285C64.7001 125.807 65.356 125.333 65.9988 124.848C66.424 124.525 66.7436 124.156 66.4832 123.543C67.4754 123.085 68.4247 122.6 69.407 122.211C70.3892 121.822 71.4506 121.542 72.4559 121.166C73.0591 120.942 73.6755 120.655 74.282 120.929C75.2741 121.381 76.22 121.938 77.1759 122.468C77.2484 122.508 77.2748 122.683 77.2715 122.801C77.2254 123.751 77.1463 124.697 77.1133 125.646C77.0144 128.484 76.9288 131.318 76.8497 134.156C76.8299 134.819 77.0968 135.126 77.7165 135.139C80.4556 135.224 83.1948 135.297 85.9339 135.363C86.5766 135.379 86.86 135.099 86.8863 134.46C86.9325 133.438 86.9655 132.41 87.0083 131.391C87.0215 131.075 87.0479 130.761 87.0677 130.452C89.4508 130.458 89.9749 130.069 91.1187 127.508C91.9526 127.426 92.7534 127.373 93.5478 127.258C95.1596 127.024 96.5276 126.361 97.2956 124.848C97.5922 124.265 97.7373 123.602 97.968 122.983C98.436 121.73 98.0307 120.768 96.9759 120.046C96.1618 119.485 95.5322 118.77 94.9389 117.989C94.6027 117.544 94.0984 117.214 93.6402 116.881C93.3073 116.641 92.8985 116.506 92.5656 116.265C92.3843 116.127 92.2623 115.925 92.2228 115.701C91.9887 113.437 91.4779 111.278 89.8727 109.528C89.398 109.01 88.9234 108.496 88.4554 107.972C88.34 107.84 88.1654 107.679 88.1654 107.534C88.1654 106.723 88.2213 105.915 88.251 105.187C89.6914 105.744 91.0724 106.373 92.5096 106.805C95.6607 107.761 98.6438 109.089 101.591 110.54C102.886 111.169 104.214 111.726 105.569 112.207C107.266 112.821 108.938 112.606 110.543 111.799C112.728 110.701 113.631 107.843 112.23 106.04C110.922 104.356 109.524 102.721 107.576 101.689C105.256 100.463 102.968 99.1712 100.648 97.9483C97.6548 96.3728 94.6423 94.8335 91.6263 93.2942C90.6506 92.7998 89.6486 92.3614 88.6828 91.9098C88.7553 90.3112 88.8279 88.7455 88.907 87.0546C90.0969 87.1831 91.2142 87.2326 92.3019 87.437C95.0246 87.9544 97.7373 87.9215 100.453 87.4699C103.496 86.9656 105.45 84.2957 104.979 81.7742C104.778 80.6963 104.517 79.7438 103.301 79.4141C103.225 79.3944 103.166 79.3054 103.093 79.2625C102.322 78.7483 101.614 78.0759 100.77 77.7628C99.5501 77.3079 98.2416 77.0739 96.9594 76.8069C96.0265 76.6124 95.0707 76.5366 94.128 76.3751C93.1886 76.2136 92.2361 76.0191 91.2901 75.8345C90.6407 75.7093 90.0012 75.5774 89.3584 75.4522C89.3782 75.1984 89.4013 75.0204 89.4078 74.8424C89.6518 69.206 89.8957 63.5729 90.1397 57.9365C90.1462 57.7684 90.1529 57.6398 90.1661 57.5409L130.468 59.6867C131.157 59.723 131.836 59.4857 132.35 59.0242C132.864 58.5627 133.174 57.92 133.21 57.2311L135.87 7.6077C135.887 7.2649 135.834 6.9254 135.719 6.60237C135.603 6.27935 135.422 5.98599 135.191 5.73219C134.961 5.47839 134.68 5.27403 134.371 5.129C134.061 4.98397 133.721 4.90156 133.378 4.88838L133.411 4.85542ZM51.611 176.987C52.9361 178.773 53.5293 180.738 53.1569 182.897C52.9789 183.925 52.1055 184.739 50.9914 184.601C49.3565 184.403 47.7446 184.017 46.0636 183.697C47.7479 181.519 49.3433 179.449 50.9584 177.395C51.1034 177.207 51.3737 177.125 51.611 176.983V176.987ZM45.5692 174.28C46.436 172.23 47.4283 170.253 48.9907 168.476C49.9268 170.124 50.6749 171.759 50.6552 173.634C50.6453 174.65 49.729 175.586 48.6677 175.483C47.6656 175.385 46.6866 175.025 45.7043 174.742C45.6219 174.712 45.5132 174.392 45.5659 174.274L45.5692 174.28ZM26.4945 165.186C30.0412 169.333 33.9174 173.104 38.6342 175.935C37.2498 174.748 35.8192 173.598 34.4909 172.352C33.1395 171.086 31.8211 169.778 30.5949 168.393C29.3654 167.009 28.2184 165.559 27.457 163.842C31.2409 168.525 35.45 172.698 40.9876 175.312C36.2938 171.742 31.5903 168.183 28.6304 162.909C30.0972 164.415 31.564 165.918 33.0308 167.424L33.1592 167.306C32.5165 166.515 31.8737 165.724 31.2309 164.933L31.3397 164.837C31.7122 165.216 32.088 165.592 32.4572 165.977C36.5246 170.2 41.0997 173.737 46.4296 176.251C47.0097 176.538 47.6095 176.782 48.2259 176.983C48.8192 177.165 49.4422 177.24 50.0421 177.362C49.7257 177.89 49.518 177.972 47.9358 178.16L48.9807 178.615L47.9226 179.37L48.3907 179.511C47.949 180.53 47.224 180.494 45.4671 180.395L47.2502 181.008C46.8843 181.44 46.3834 181.466 45.9022 181.4C45.0155 181.278 44.1387 181.1 43.252 180.975L46.7526 182.161C45.744 183.025 44.6859 182.725 43.6476 182.593C42.1809 182.409 40.8326 181.858 39.4845 181.298C34.6655 179.291 30.6443 176.189 27.1965 172.336C25.7495 170.717 24.4772 168.947 23.1258 167.243C23.0632 167.161 23.0203 167.062 23.0104 166.96C27.3151 172.744 32.4473 177.53 39.2275 180.326C37.7936 179.373 36.3302 178.463 34.9359 177.455C33.5416 176.446 32.1507 175.398 30.8619 174.257C29.5467 173.11 28.3106 171.874 27.1636 170.559C26.0495 169.264 25.1199 167.807 24.1904 166.363C26.1516 168.842 28.2645 171.172 30.6839 173.219L27.9316 170.071C27.9645 170.038 27.9974 170.002 28.0304 169.969C31.788 174.195 35.9675 177.844 41.4128 179.772C35.2556 176.624 29.9719 172.428 25.8353 166.864C25.3507 166.211 24.9684 165.476 24.6058 164.735C28.2481 169.171 32.2826 173.156 37.2268 176.153C33.0637 173.071 29.3753 169.521 26.4977 165.183V165.19L26.4945 165.186ZM25.3309 152.361L25.0507 152.328C24.8035 151.296 24.4443 150.278 24.3454 149.23C24.2465 148.182 25.6209 147.272 26.6295 147.555C26.9559 147.644 27.2592 147.796 27.7108 147.974C26.8867 149.484 26.1088 150.921 25.3309 152.358V152.364V152.361ZM39.2373 140.389C39.1911 140.864 39.1945 141.345 39.1583 141.823C39.1583 141.889 39.0494 141.945 38.9901 142.008C38.6901 140.505 38.3606 139.008 38.0936 137.502C37.3454 133.283 36.5872 129.064 35.9181 124.832C35.8028 124.093 36.0731 123.296 36.2511 122.534C36.5544 124.245 36.841 125.956 37.164 127.663C37.8562 131.309 38.5715 134.954 39.2637 138.6C39.3428 139.018 39.3625 139.45 39.4087 139.872L39.4253 139.859C39.4253 139.859 39.4187 139.879 39.4121 139.888C39.3461 140.043 39.2505 140.208 39.2373 140.383V140.393V140.389ZM41.716 143.283C42.1346 145.208 42.7346 147.087 43.7037 148.834C44.0959 149.543 44.3101 150.354 44.6067 151.115L44.4815 151.191C44.264 150.901 44.0234 150.624 43.8256 150.317C42.4841 148.254 41.7687 145.947 41.2282 143.574C40.6085 140.788 40.2328 137.957 40.1075 135.106C40.6085 137.647 41.1063 140.472 41.7194 143.27V143.28L41.716 143.283ZM38.2452 125.445C38.7363 127.689 39.3363 129.908 39.8571 132.146C39.9461 132.531 39.89 132.95 39.8867 133.355C39.8867 133.659 39.8273 133.965 39.8339 134.269C39.8735 135.973 39.9262 137.68 39.9691 139.384C39.9856 139.539 39.9427 139.697 39.8471 139.823C39.7251 139.15 39.6097 138.471 39.4779 137.799C39.1878 136.289 38.8714 134.786 38.5979 133.276C37.8958 129.394 37.1608 125.511 36.5543 121.605C36.3928 120.56 36.6466 119.449 36.7125 118.368L36.8608 118.384C37.3189 120.725 37.7343 123.091 38.2452 125.435V125.445ZM41.8182 133.876C43.0971 138.695 44.3727 143.511 45.6516 148.33C43.7398 143.672 42.2698 138.896 41.6468 133.893L41.8182 133.876ZM42.9158 130.577C43.2586 131.826 43.5717 133.059 43.9409 134.265C44.2804 135.379 44.699 136.47 45.0517 137.581C45.1836 138.036 45.266 138.504 45.2989 138.975C44.6891 138.326 42.84 131.678 42.9158 130.564V130.574V130.577ZM41.6634 112.646L41.7326 112.639C42.1149 114.277 42.5203 115.909 42.8598 117.557C42.9356 117.93 42.761 118.351 42.5962 118.744C42.2171 117.241 41.7951 115.748 41.4886 114.228C41.393 113.724 41.6007 113.163 41.67 112.636V112.646H41.6634ZM40.9249 110.612L41.0337 110.599C41.0799 111.354 41.1228 112.109 41.1689 112.863L40.9283 112.886V110.612H40.9249ZM40.8161 118.216C41.0864 119.911 41.805 121.529 41.6106 123.309C41.2875 121.625 40.9645 119.937 40.6349 118.249L40.8161 118.22V118.216ZM38.2386 102.985C38.4562 104.29 38.6705 105.595 38.8814 106.901C39.0166 107.735 39.1748 108.562 39.2671 109.399C39.3033 109.722 39.1847 110.055 39.1352 110.385L38.9473 110.378C38.9077 110.256 38.8582 110.134 38.8319 110.009C38.5055 108.608 38.1991 107.211 37.8794 105.813C37.6553 104.831 37.8529 103.895 38.2418 102.972V102.982L38.2386 102.985ZM39.3197 120.204C38.7923 117.679 38.2517 115.157 37.7474 112.629C37.6683 112.237 37.7739 111.809 37.7772 111.4V106.993L37.9782 106.97C38.2221 108.76 38.5056 110.546 38.7001 112.346C38.9604 114.752 39.1517 117.165 39.3759 119.571C39.3956 119.782 39.4153 119.993 39.4351 120.201H39.3231L39.3197 120.204ZM40.2097 116.074C40.0251 114.271 39.0198 112.587 39.4615 110.695C39.7944 112.465 40.4503 114.198 40.2097 116.064V116.074ZM39.7351 97.5627C39.1286 99.2569 38.977 100.964 39.3561 102.734C39.6428 104.05 39.9131 105.378 40.0449 106.713C40.1899 108.344 40.2361 109.983 40.1801 111.617C40.1208 111.304 40.0547 110.991 39.9987 110.675C39.4977 107.972 38.9704 105.276 38.5254 102.566C38.4232 101.953 38.5682 101.287 38.6869 100.661C38.9736 99.1086 39.3033 97.566 39.6231 96.0234C39.8769 94.8005 39.9295 94.728 40.981 93.8084C40.5623 95.0774 40.1767 96.3233 39.7383 97.5495V97.5594L39.7351 97.5627ZM47.916 91.9626C47.303 92.8987 46.6932 93.8315 46.0834 94.761C46.0076 94.8994 45.9187 95.028 45.8099 95.1466C46.044 93.8875 46.4987 92.7273 47.326 91.7022L47.916 91.9626C47.7941 91.8142 47.6689 91.6659 47.4414 91.389L48.4699 91.0825L48.5357 91.2242C48.328 91.4714 48.1237 91.7153 47.916 91.9658V91.9626ZM48.1336 92.8031C48.4138 91.8043 48.8325 91.3297 49.5675 91.2407C49.6796 91.2275 49.7916 91.2209 49.9037 91.2242L48.1336 92.8031ZM49.3829 90.4298C49.1258 89.7574 49.5378 88.3005 50.1509 87.4468C49.907 88.3961 49.6531 89.3784 49.3861 90.42V90.4298H49.3829ZM46.558 113.088C46.4624 112.201 46.3702 111.311 46.2746 110.424L46.4988 110.401C46.5977 111.281 46.6965 112.165 46.7954 113.045L46.558 113.088ZM50.6848 110.833L50.5398 110.82C50.5727 110.088 50.6057 109.36 50.642 108.562L51.1958 108.671L50.6848 110.83V110.833ZM53.9547 111.07C53.7569 110.072 53.9117 109.257 54.2545 109.172C54.1622 109.752 54.0667 110.352 53.9579 111.057V111.067L53.9547 111.07ZM55.0885 110.714L54.9797 110.681C55.0127 110.312 55.0621 109.943 55.0687 109.571C55.0786 109.102 55.3225 109.05 55.7774 109.182L55.0885 110.711V110.714ZM56.1004 111.39L55.9192 111.374C55.9719 110.625 56.0279 109.877 56.084 109.083L56.7234 109.023C56.5125 109.824 56.3048 110.602 56.1004 111.38V111.39ZM57.198 111.126C57.198 110.625 57.1914 110.078 57.198 109.528C57.2046 109.037 57.442 108.803 57.9397 108.911L57.198 111.126ZM58.6747 110.879L58.4275 110.81C58.5462 110.322 58.6747 109.841 58.7835 109.35C58.8132 109.215 58.7835 109.07 58.7835 108.77L59.502 108.651L58.6713 110.879H58.6747ZM61.5028 113.704H61.3346C61.2423 112.458 61.1172 111.209 61.0842 109.959C61.0743 109.587 61.3346 109.205 61.473 108.826C61.3742 108.796 60.9918 109.165 61.005 108.578L59.6998 110.843C59.5251 109.086 60.336 108.206 61.7302 108.414C61.6544 110.177 61.5786 111.937 61.5028 113.691V113.701V113.704ZM62.073 109.788C62.1884 109.294 62.2049 108.832 62.4159 108.493C62.5345 108.298 62.9729 108.295 63.2597 108.209L62.073 109.785V109.788ZM63.8661 111.406C63.2728 110.283 63.6486 108.822 64.5715 108.305L64.7495 108.361C64.4661 109.337 64.1793 110.319 63.8661 111.406ZM66.4832 112.329C66.0844 111.07 66.6052 109.983 67.2809 108.931L67.4523 108.971C67.126 110.095 66.7997 111.225 66.4832 112.323V112.329ZM66.2656 109.646C66.2953 109.132 66.3184 108.737 66.3414 108.292H67.4655L66.2656 109.646ZM67.7919 111.535C67.7194 110.418 67.561 109.274 68.5597 108.397L67.9171 108.73C67.9995 108.196 68.0391 108.183 69.3312 108.321C68.4346 109.248 68.039 110.355 67.7885 111.528L67.7919 111.535ZM69.575 109.119L69.4794 109.06C69.631 108.832 69.7828 108.608 69.9344 108.381L69.809 108.302L70.3792 108.272C70.3924 108.311 70.4057 108.351 70.4222 108.387L69.575 109.119ZM70.4518 110.365C70.6397 109.772 70.4749 109.162 71.0418 108.809C71.0682 108.793 71.1077 108.776 71.1143 108.753C71.2109 108.428 71.411 108.275 71.7143 108.295C71.767 108.302 71.8163 108.315 71.8691 108.331C71.4109 108.981 70.9628 109.627 70.4486 110.358L70.4518 110.365ZM71.9581 111.255L71.7967 111.222C71.7835 109.62 72.034 108.667 72.5449 108.499C72.3438 109.429 72.146 110.339 71.9581 111.248V111.255ZM72.6701 109.745C72.9503 108.196 73.2997 108.176 74.2128 108.526L72.6701 109.745ZM73.715 110.688C74.0413 109.956 74.3215 109.29 74.6544 108.654C74.7005 108.562 75.0169 108.585 75.2048 108.598C75.4059 108.621 75.6038 108.654 75.7982 108.7L73.715 110.688ZM75.7124 110.147C75.808 109.178 76.2695 108.687 76.8397 108.924L75.7124 110.147ZM79.7172 110.493C79.9512 110.108 79.8722 109.449 80.6468 109.449L79.7172 110.493ZM86.8369 120.566C86.771 119.759 87.1863 119.185 87.7994 118.533C87.4335 119.301 87.1369 119.927 86.8369 120.563V120.566ZM86.5041 129.232C85.1197 128.622 84.3549 127.627 83.9066 126.282C83.8176 126.015 83.709 125.751 83.62 125.511L90.3045 127.436C89.9748 128.836 88.3631 130.049 86.5041 129.229V129.232ZM90.4297 115.662L88.907 116.71C89.2729 116.235 89.5991 115.708 90.4297 115.659V115.662ZM88.0466 121.714C88.0927 119.436 89.421 117.824 90.8911 116.288C90.9768 116.202 91.1681 116.216 91.4087 116.163C89.8958 117.883 88.5575 119.548 88.0466 121.71V121.714ZM91.0559 118.846C91.079 118.816 91.1022 118.79 91.1253 118.76C91.1879 118.681 91.257 118.602 91.3427 118.52C91.3988 118.464 91.4581 118.404 91.5207 118.345L91.1253 119.264L91.2109 119.317C91.4054 119.044 91.5999 118.77 91.8207 118.454L92.381 118.826L91.4185 120.712L91.4087 120.725C91.4087 120.725 91.4086 120.715 91.4185 120.708C90.6736 120.065 90.545 119.525 91.0559 118.846ZM92.1075 121.453C91.8274 121.156 91.6229 120.936 91.4185 120.718C91.4152 120.725 91.4119 120.728 91.4053 120.735L91.4153 120.718C91.5373 120.566 91.656 120.412 91.7779 120.257C91.8999 120.105 92.0317 119.94 92.1635 119.789C92.2822 119.68 92.4139 119.588 92.559 119.515L92.5426 119.499H92.5656C92.5821 119.357 92.5953 119.215 92.6184 118.994L93.4326 119.535C93.3963 119.591 93.3534 119.644 93.304 119.686C93.0205 119.917 92.8095 119.452 92.5656 119.492V119.515L92.8986 119.808L92.9216 119.831L93.07 119.96L93.1622 120.039L92.1107 121.456L92.1075 121.453ZM92.8788 118.757L93.1292 118.272L93.9962 118.612L93.6302 119.192L92.882 118.757H92.8788ZM92.892 122.172L92.2855 121.608L93.4588 120.141L93.9632 120.454L92.892 122.172ZM93.5512 122.61L93.0996 122.373C93.6599 121.278 94.2335 120.672 94.5532 120.85C94.2104 121.45 93.8907 122.007 93.5512 122.603V122.61ZM93.8774 122.768C94.362 122.106 94.83 121.466 95.3937 120.695C95.4365 120.886 95.5321 121.051 95.4827 121.137C95.1201 121.766 94.7312 122.383 94.3422 123.022C94.1873 122.933 94.0521 122.861 93.8774 122.765V122.772V122.768ZM94.5598 123.213L96.1287 121.127C96.1946 121.315 96.32 121.486 96.2771 121.568C95.9277 122.247 95.5454 122.907 95.1433 123.625L94.5598 123.213ZM97.111 122.567C96.8835 122.861 96.7023 123.207 96.4221 123.431C96.1881 123.619 95.8419 123.668 95.5453 123.78C95.5156 123.727 95.4827 123.671 95.4531 123.622L96.8275 121.687C97.3384 121.849 97.444 122.132 97.1077 122.561V122.567H97.111ZM97.233 120.88L97.6746 121.892C97.1077 121.601 96.9595 121.262 97.2297 120.873V120.88H97.233ZM96.9066 120.606C96.7813 120.794 96.6661 120.959 96.5573 121.124C96.2563 120.957 96.2276 120.647 96.4715 120.194L96.9066 120.606ZM96.2573 120.013L95.8321 120.636C95.252 120.365 95.7431 120.046 95.7233 119.653L96.2573 120.013ZM94.9323 119.159L95.5553 119.564L94.9323 120.013V119.159ZM94.8531 119.1L94.4543 119.703L93.9336 119.36C94.0325 119.146 94.1181 118.958 94.2202 118.734L94.8531 119.1ZM93.1622 117.231C93.5544 117.438 93.9204 117.696 94.2434 117.995C93.7951 117.844 93.3534 117.636 92.892 117.557C92.4305 117.481 91.9657 117.541 91.4383 117.541C92.2063 116.815 92.3349 116.786 93.1556 117.224V117.231H93.1622ZM91.8141 115.682C91.1186 115.616 91.0099 115.375 91.5373 114.511C91.6296 114.923 91.7185 115.289 91.8107 115.675V115.682H91.8141ZM91.2933 113.945C91.1153 114.403 90.967 114.785 90.7989 115.21L90.2451 114.917L90.9241 113.216L91.2933 113.945ZM89.9716 114.742L89.1442 114.241C89.5694 113.486 89.9782 112.764 90.4265 111.97C91.0923 113.041 89.9847 113.724 89.9682 114.736V114.742H89.9716ZM84.9812 79.9118L84.8328 79.9547C84.4834 79.134 84.0747 78.3363 83.8176 77.4859C83.7352 77.2189 84.0352 76.8267 84.1868 76.5069C84.6922 75.428 85.5163 75.0116 86.6589 75.2577C86.7446 75.2775 86.8304 75.2973 86.9523 75.3236L85.8415 77.2651L85.5515 76.9058C85.891 78.0396 85.0241 78.8999 84.9812 79.9118ZM82.5651 79.7438C82.2157 78.7154 81.6487 77.7826 81.6619 76.8596C81.6751 76.0719 82.3509 75.2907 82.7563 74.5227C82.786 74.4633 83.02 74.4831 83.1486 74.5062C83.7122 74.615 84.2725 74.7435 84.8526 74.8688L83.5606 76.7904L83.2342 75.7719L83.0694 75.762C83.3825 77.1068 83.0464 78.3561 82.5651 79.747V79.7438ZM75.4816 73.0295C75.9794 73.0559 76.4706 73.168 77.1233 73.2734L76.0651 75.4522L75.9728 75.439V73.5635L75.419 73.2965C75.2905 75.4456 75.1587 77.6046 75.0302 79.7668L74.8224 79.8097C74.7005 79.3021 74.5093 78.8011 74.4764 78.2902C74.4171 77.3606 74.4863 76.4212 74.4336 75.4851C74.3907 74.6974 74.605 73.992 74.9676 73.3295C75.0236 73.2438 75.0993 73.1712 75.1916 73.1185C75.2806 73.0658 75.3828 73.0328 75.485 73.0262L75.4816 73.0295ZM73.3129 73.1053L74.9082 72.957C74.7533 73.2504 74.6544 73.4415 74.5358 73.6558L74.328 73.2701C74.1698 73.9689 74.0315 74.5886 73.8963 75.205L73.8238 75.1984V73.4481L73.6754 73.3822C73.5996 73.5371 73.4645 73.692 73.4579 73.847C73.4447 74.582 73.4743 75.3137 73.4743 76.0488C73.4743 76.4147 73.4348 76.7805 73.4117 77.1431L73.3161 77.1365V73.1053H73.3129ZM72.7063 73.2701L72.8019 73.3558L72.1855 74.3974L72.0405 74.3249L72.4065 73.5767L72.0011 73.4943L72.7097 73.2701H72.7063ZM71.2429 74.9314L71.4308 74.9611L71.1704 76.5036L71.0188 76.4641C71.0946 75.9532 71.167 75.4423 71.2429 74.9314ZM69.618 75.7653L69.8156 75.8016C69.7299 76.2696 69.6443 76.741 69.5586 77.209L69.3542 77.1728L69.618 75.7653ZM64.9144 79.4801C64.7463 80.1755 64.5747 80.871 64.3902 81.6357C64.2221 80.8546 64.4002 79.9976 64.9144 79.4801ZM62.1818 80.4491C62.5543 81.1875 62.1323 81.6687 62.04 82.1928C61.9445 82.7169 61.8423 83.2377 61.7236 83.7585C61.6676 82.6378 61.8225 81.5171 62.1851 80.4557V80.4491H62.1818ZM60.003 84.2661C59.9832 86.2141 60.6226 87.9413 61.6444 89.6058H61.6676L61.6444 89.619V89.6091C60.2535 89.8102 60.2205 89.7838 59.7756 88.439C59.3009 86.9953 59.3636 85.4164 60.0064 84.2727V84.2661H60.003ZM61.4468 92.1702C61.9412 90.7693 63.2169 89.8332 64.8451 89.9849C63.9596 90.22 62.8268 90.9506 61.4468 92.1768V92.1702ZM65.033 92.3021L63.2729 94.6489C63.319 93.9336 64.0145 92.9481 65.033 92.3119V92.3021ZM60.6326 94.3984C60.6919 94.461 60.7809 94.5401 60.771 94.5599C60.4546 95.0906 60.1217 95.6147 59.7954 96.1388L59.6635 96.0827L60.3064 94.672C60.3064 94.1677 60.3558 93.693 60.9194 93.4557C61.0381 93.4063 61.1139 93.2513 61.2194 93.159C61.7039 92.7207 62.195 92.2889 62.6829 91.8505L62.8411 92.012C62.0961 92.8031 61.3511 93.5908 60.6062 94.3753C60.6128 94.3852 60.6227 94.3984 60.6326 94.4083V94.4017V94.3984ZM60.0096 91.5868C59.5316 92.1999 59.0011 92.7899 58.5825 93.4458C58.1771 94.0853 57.8803 94.7972 57.4947 95.4532C57.5375 93.8084 58.7504 92.0087 60.0096 91.5901V91.5835V91.5868ZM59.4393 91.3099C59.9338 90.4595 60.6689 90.3936 61.5786 90.3771L59.4393 91.3099ZM61.3874 90.9309L58.9317 93.5183C59.6107 92.5262 60.1974 91.4451 61.3906 90.9374V90.9309H61.3874ZM58.3813 86.1482L58.6153 86.5272C58.6582 85.6208 58.4736 84.7308 58.9911 83.9266C58.6285 85.9932 58.8296 87.938 60.181 89.6618C59.6767 89.8761 59.3241 89.7838 59.1197 89.2993C58.8165 88.5939 58.4836 87.8984 58.2463 87.17C58.154 86.8799 58.266 86.5107 58.3847 86.1515V86.1449L58.3813 86.1482ZM58.0945 87.994C58.4307 88.5741 58.7671 89.1542 59.1593 89.8267C58.9022 89.8267 58.678 89.8893 58.5231 89.8102C58.322 89.7113 58.055 89.5234 58.0253 89.3355C57.966 88.8873 57.9923 88.4357 58.1011 87.9973V87.9907L58.0945 87.994ZM58.7867 91.1088L56.163 93.6436C56.2685 92.3713 57.2145 91.4714 58.7867 91.1154V91.1088ZM57.9595 89.4509C57.0794 88.7093 56.842 86.9623 57.4551 85.7361C57.6364 87.0216 57.7914 88.1984 57.9595 89.4575V89.4509ZM57.0728 83.9068L57.264 83.9529L56.8552 85.2483L56.674 85.1923C56.8091 84.7671 56.9442 84.3419 57.076 83.9167V83.9101L57.0728 83.9068ZM54.9369 88.1193L55.5598 89.3059L55.6258 89.2762C55.4214 88.7191 55.2203 88.1654 55.016 87.6116L55.161 87.5721C55.2269 87.7863 55.2929 88.0039 55.3984 88.3533C55.4775 88.0698 55.5203 87.9116 55.55 87.8094C55.728 88.4555 55.9192 89.1477 56.1104 89.8398L56.3772 89.8003C56.1399 88.4785 56.051 87.1634 56.5026 85.8515C56.5323 86.1317 56.5783 86.4118 56.5948 86.692C56.6179 86.9788 56.6179 87.2688 56.5948 87.5556C56.5058 88.35 56.9376 88.8839 57.4617 89.3784C57.6133 89.5234 57.788 89.6421 58.0319 89.8365C57.165 89.9156 56.4004 89.9915 55.6324 90.0409C55.5631 90.0409 55.4972 90.031 55.4346 90.0046C55.3719 89.9783 55.316 89.9387 55.2731 89.886C54.9567 89.385 54.7358 88.8543 54.9401 88.1225V88.116L54.9369 88.1193ZM55.4214 90.9408L53.8557 91.8867C54.2776 91.4121 54.5248 90.6408 55.4214 90.9473V90.9408ZM53.7271 85.7394L53.1306 87.1832C52.9032 86.4514 53.3152 86.0987 53.7305 85.746V85.7394H53.7271ZM50.8992 90.242C51.0442 89.8102 51.1826 89.4146 51.3474 88.9301C51.4199 89.4245 51.476 89.8168 51.5386 90.242H50.8992ZM51.8814 90.2519V89.1608L51.9902 89.1279C52.1748 89.4641 52.3626 89.8036 52.59 90.2189L51.8814 90.2519ZM52.7054 89.2366C52.4088 88.6203 52.3132 88.0072 52.7054 87.404V89.2366ZM52.9921 90.1002C53.203 89.0949 53.4108 88.0962 53.6185 87.1007L53.8063 87.1271C53.6777 88.116 53.2493 89.1378 54.1327 90.031C54.1656 89.6487 54.1985 89.2696 54.2413 88.7884L54.8347 90.1035H52.9921V90.1002ZM54.8215 92.0252C54.571 92.3416 54.36 92.7009 54.0633 92.9613C53.2063 93.7095 52.3131 94.4149 51.3342 95.2191C52.122 93.637 53.536 92.9052 54.8215 92.0252ZM50.8365 97.5264C50.675 95.5718 52.0758 94.8566 53.4569 94.1116L51.6934 97.1045L51.822 97.1869C52.0198 96.9727 52.2209 96.7551 52.501 96.4453L52.3296 97.856L50.8332 97.5264H50.8365ZM51.7758 99.6096C51.5385 100.025 51.2979 100.44 51.054 100.872C51.0177 100.163 51.6604 98.7493 52.2438 98.2846C52.4548 98.8877 52.0065 99.2108 51.7758 99.6129V99.6096ZM52.1516 100.839L52.0296 100.767L52.6362 99.0855L52.7713 99.1317C52.5669 99.7019 52.3593 100.272 52.1516 100.842V100.839ZM54.7095 100.997L54.4985 100.931C54.7556 100.167 55.0127 99.4019 55.2731 98.6372L55.8928 98.6702L54.7127 100.994L54.7095 100.997ZM57.498 99.2998C57.2739 99.5503 57.0794 99.8304 56.9212 100.127C56.5125 100.819 56.1202 101.518 55.6884 102.2C55.7774 101.165 55.9686 100.167 56.585 99.2965C56.9575 98.7658 57.0629 98.7394 58.1375 99.0097C57.9199 99.102 57.653 99.1448 57.498 99.2998ZM57.8045 102.484L57.6232 102.368C57.9496 101.366 58.2726 100.364 58.5989 99.3591C58.7011 99.0361 58.8889 98.9108 59.2383 98.9438C59.5877 98.9767 59.9504 98.9504 60.4646 98.9504L59.3999 99.9194C59.4527 99.6689 59.4822 99.5404 59.5086 99.4118L59.3867 99.3525L57.8045 102.481V102.484ZM58.7637 103.855L58.5693 103.789C58.4737 102.408 58.7572 101.159 59.9635 100.18L58.7669 103.855H58.7637ZM60.1382 101.281L60.003 101.218C60.3029 100.552 60.5865 99.8799 60.9194 99.2338C60.9853 99.1053 61.2523 99.0822 61.4962 98.98C61.4237 100.048 60.7381 100.641 60.1382 101.284V101.281ZM60.9918 102.998C60.9457 103.054 60.8501 103.071 60.626 103.176C60.9787 102.148 60.8798 101.109 61.6972 100.387C62.0236 100.104 62.3598 99.837 62.6565 99.5239C63.0092 99.1547 63.4079 99.0855 63.9649 99.2569C63.7672 99.5733 63.6156 99.8898 63.3947 100.153C62.6102 101.116 61.7961 102.055 60.9852 102.998H60.9918ZM61.6412 99.7942C61.6643 99.0394 61.7006 99.0196 62.6499 99.1481L61.6412 99.7942ZM62.9399 103.473C62.9168 101.422 64.0672 99.0493 66.47 99.2833C64.8549 100.295 63.9025 101.858 62.9499 103.473H62.9399ZM67.2348 100.579C66.8327 100.984 66.4669 101.422 66.0812 101.851C66.0812 101.195 67.5511 99.659 68.6488 99.2734C68.1082 99.7777 67.66 100.16 67.2447 100.579H67.2348ZM66.5129 100.351C66.6315 99.3162 66.9118 99.0855 67.7985 99.3261L66.5129 100.351ZM70.5178 99.2338L70.6002 99.3426L68.6751 100.938L68.5533 100.8L70.5178 99.2371V99.2338ZM68.9619 100.058C68.9619 99.5239 69.3015 99.2932 70.0662 99.3426L68.9619 100.058ZM68.8367 102.817L68.8993 102.863L67.7095 104.656L67.6007 104.603C67.716 104.316 67.8346 104.026 67.9533 103.74C67.983 103.598 67.9962 103.446 68.0127 103.298C68.0226 103.209 68.0324 103.117 68.0423 103.028C68.0489 102.968 68.0587 102.912 68.0719 102.853C68.0983 102.691 68.1576 102.537 68.2499 102.401C68.9586 101.439 69.7826 100.569 70.5638 99.6557L70.7518 99.7876C70.5936 100.094 70.4188 100.391 70.2276 100.678C69.6046 101.511 68.9553 102.326 68.3257 103.153C68.2301 103.301 68.1445 103.456 68.0687 103.614L68.8334 102.813L68.8367 102.817ZM69.73 105.002C69.7893 102.995 71.2033 101.818 72.2053 100.414L72.3569 100.5C71.5032 101.98 70.6363 103.459 69.7398 105.002H69.73ZM71.055 100.18L72.1097 99.1152L72.2615 99.2701L71.1638 100.298L71.055 100.183V100.18ZM73.4645 100.374L73.3557 100.266L74.249 99.2899L74.5192 99.5667L73.4645 100.374ZM75.551 99.7283L75.7124 99.8898L74.3346 101.366L74.2194 101.264L75.5542 99.7283H75.551ZM72.6371 105.615C72.8942 104.293 73.415 103.094 74.4104 102.121C74.206 103.489 73.5931 104.63 72.6405 105.618H72.6371V105.615ZM74.2622 105.279C74.2721 104.323 74.6214 103.542 75.4948 103.015L74.2622 105.279ZM75.5608 104.821C75.8344 103.535 76.8594 102.771 77.6307 101.828C77.522 103.225 76.1573 103.756 75.564 104.821H75.5576H75.5608ZM76.3189 99.4415C76.3947 98.7889 76.6155 98.5878 77.3275 98.5779L76.3189 99.4415ZM77.8087 98.9504L77.9933 99.0888L77.2847 100.058L77.0771 99.9194L77.8055 98.9504H77.8087ZM77.3539 104.775C77.5813 103.865 77.7989 103.117 78.3922 102.434C79.1503 101.554 79.4074 100.368 79.7634 99.2668C79.7832 99.2009 79.8062 99.1349 79.8326 99.0624C80.2446 99.1053 80.3963 99.2866 80.215 99.6689C79.9513 100.226 79.9644 100.912 79.3612 101.327C79.1865 101.446 79.1898 101.821 79.114 102.075C78.8042 103.104 78.3526 104.043 77.3605 104.775H77.3539ZM78.3856 100.45L79.157 98.7163L79.2954 98.7724C79.2822 99.4382 78.88 99.959 78.6196 100.539L78.3823 100.45H78.3856ZM79.1536 103.153L80.6138 99.4843C81.0061 100.114 80.1524 102.523 79.157 103.15L79.1536 103.153ZM111.802 107.25C111.861 107.979 110.872 109.231 110.121 109.406L111.528 106.752C111.65 106.963 111.795 107.098 111.805 107.247H111.802V107.25ZM109.874 109.363C109.814 109.472 109.31 109.337 108.921 109.31C109.881 107.838 110.531 107.105 110.869 107.112C110.543 107.893 110.256 108.654 109.877 109.363H109.874ZM105.523 107.263L105.529 107.247C105.163 107.356 104.791 107 104.771 106.578C104.768 106.515 104.771 106.452 104.784 106.39L104.768 106.406V106.396C104.412 106.601 104.478 106.251 104.511 106.136C104.719 105.427 104.959 104.729 105.187 104.026L105.487 104.076C105.487 104.26 105.536 104.465 105.477 104.626C105.259 105.223 105.005 105.813 104.768 106.396L105.958 104.557L106.551 104.939L105.523 107.247L106.564 105.787L106.963 105.23L107.395 105.437L106.314 107.665L106.4 107.718L107.853 105.701L108.295 105.915C107.995 106.604 107.708 107.27 107.418 107.932L107.527 107.998C107.688 107.784 107.853 107.573 108.008 107.359C108.176 107.125 108.321 106.874 108.499 106.653C108.648 106.469 108.707 106.03 109.148 106.403L107.797 108.829C107.135 108.473 106.452 108.127 105.793 107.735C105.777 107.725 105.76 107.712 105.747 107.698C105.638 107.596 105.602 107.392 105.529 107.247L105.513 107.267L105.523 107.263ZM107.352 104.336C107.435 104.135 107.504 103.961 107.593 103.746L108.265 103.941L107.896 104.62L107.352 104.336ZM108.502 104.138L109.063 104.445C108.961 104.659 108.868 104.85 108.773 105.052C108.097 104.913 108.325 104.544 108.512 104.138H108.502ZM109.425 106.739C109.462 106.677 109.63 106.696 109.739 106.677C109.739 106.785 109.781 106.911 109.739 107C109.432 107.721 109.112 108.437 108.763 109.218L108.113 108.931C108.565 108.183 108.987 107.451 109.429 106.736L109.425 106.739ZM109.458 104.702L109.959 105.038C109.851 105.23 109.762 105.394 109.669 105.556C109.34 105.472 109.271 105.188 109.462 104.702H109.458ZM108.628 102.919L110.856 104.913L110.803 104.976C110.098 104.531 109.376 104.106 108.697 103.624C108.549 103.516 108.542 103.219 108.469 103.008L108.631 102.916L108.628 102.919ZM107.042 102.016C108.084 102.395 108.384 102.695 108.324 103.311L106.851 102.797C106.91 102.556 106.976 102.289 107.042 102.016ZM107.201 103.842L107.016 104.175L106.116 103.753C106.426 103.637 106.601 103.512 106.765 103.532C106.93 103.552 107.042 103.726 107.197 103.842H107.201ZM104.966 100.806L103.885 102.042C103.97 101.182 104.372 100.697 104.966 100.806ZM103.519 100.035L104.069 100.289L103.173 100.954C103.318 100.569 103.41 100.322 103.519 100.035ZM104.27 100.401L104.379 100.496L102.998 101.996C103.248 101.31 103.733 100.832 104.273 100.401H104.27ZM101.169 99.4019C101.241 99.1976 101.294 99.0493 101.36 98.8614L102.042 99.2108L101.047 100.074L100.921 99.9491L101.587 99.3162L101.172 99.4019H101.169ZM100.457 98.5318L98.5778 100.259C98.9437 99.5107 99.7084 99.0295 100.354 98.4362L100.457 98.535V98.5318ZM98.1196 101.782L99.7018 99.748C99.8139 100.374 99.3919 100.546 98.1196 101.782ZM100.315 98.2351L99.1612 98.7361C99.181 98.5977 99.1974 98.4922 99.2271 98.3043L97.2692 100.615L97.1209 100.473C97.7999 99.6491 98.4493 98.802 99.1678 98.0143C99.5667 97.5726 99.8303 98.1956 100.318 98.2351H100.315ZM99.1348 97.7077C97.6186 98.8647 96.6167 100.341 95.7399 101.986C95.8454 100.434 98.113 97.533 99.1348 97.7077ZM97.2792 96.7518L95.8223 98.4724L95.6969 98.3538L96.9033 96.5343L97.2792 96.7518ZM88.7718 92.5196C88.4389 93.136 88.1059 93.7524 87.773 94.3687L87.8521 94.4149L88.986 92.5822L90.6011 93.3173L88.5642 96.1783L88.729 95.8322C89.1047 95.0444 89.4376 94.3457 89.7672 93.6502C88.9827 94.4248 87.5884 97.7473 87.1895 99.6656C87.1236 99.959 87.0875 100.262 87.0809 100.562C87.6709 99.2965 88.1916 98.1197 88.7684 96.9694C89.2496 96.0069 89.7572 95.0543 90.3275 94.1413C90.8384 93.3239 90.8845 93.3502 91.8107 93.96C91.524 94.405 91.2504 94.8632 90.9439 95.2916C89.7902 96.8903 88.7784 98.5581 88.3664 100.519C88.3532 100.589 88.3465 100.658 88.3366 100.747C88.386 100.714 88.4191 100.704 88.4356 100.684C89.6255 98.9866 90.5187 97.1243 91.4185 95.2686C91.6196 94.8599 91.9459 94.5138 92.2228 94.1149L93.0996 94.5467C91.7416 96.8046 90.11 98.8614 89.4046 101.396L89.5858 101.492C90.3143 100.167 91.0297 98.835 91.7713 97.5133C92.2954 96.5804 92.8524 95.6641 93.416 94.7082L93.94 94.9851C93.0402 96.5673 92.1602 98.1132 91.2801 99.6623L91.3593 99.6986C92.068 98.6471 92.7865 97.6055 93.482 96.5442C93.6765 96.2475 93.7917 95.8981 93.9466 95.5751C94.1642 95.1301 94.4444 95.1137 94.8565 95.5224C92.915 97.3155 91.4384 99.4052 90.8517 102.187C91.623 100.711 92.3251 99.369 93.0272 98.0275L93.1656 98.0967L92.0745 100.447L92.1931 100.503C92.4667 99.9952 92.7338 99.4811 93.014 98.9767C93.5743 97.9813 94.1411 96.9859 94.7147 95.997C95.0113 95.4828 95.1201 95.4894 95.7859 95.9871C94.2433 97.5759 92.9942 99.3393 92.4437 101.495C93.1755 100.269 93.8907 99.013 94.662 97.8C95.0147 97.2397 95.4564 96.7354 95.8849 96.2278C95.9014 96.2146 95.9211 96.2014 95.9409 96.1948C95.9607 96.1882 95.9837 96.1849 96.0035 96.1882C96.02 96.1882 96.0398 96.1882 96.0563 96.1882L96.1749 96.1948H96.2869C96.2803 96.2278 96.2771 96.2607 96.2771 96.2937C96.2837 96.3893 96.2607 96.4849 96.2145 96.5673C95.4564 97.51 94.5895 98.3867 93.9336 99.3921C93.4392 100.14 93.1589 101.043 92.8524 101.9C92.7436 102.207 92.8358 102.586 92.8754 102.926C93.1457 100.842 94.4807 99.3031 95.4663 97.5957L95.6541 97.6847C95.3278 98.3538 95.0642 99.0591 94.6686 99.6788C94.0753 100.602 93.5941 101.538 93.5216 102.655C93.8347 101.894 94.1445 101.139 94.4576 100.384L94.5796 100.43C94.2368 101.508 93.8907 102.586 93.5446 103.657L93.6896 103.71C93.7621 103.555 93.8379 103.4 93.95 103.169C94.0291 103.44 94.0917 103.644 94.151 103.848C94.1576 103.005 94.3818 102.174 94.807 101.442C95.4201 100.345 96.0727 99.2701 96.6857 98.1725C96.8769 97.8297 97.3682 97.6715 97.3121 97.1573C97.3121 97.1144 97.6549 96.9529 97.8 96.9925C98.0703 97.065 98.3109 97.243 98.535 97.3649L96.8869 98.7262L97.0682 98.1955C96.0134 99.9425 95.2487 101.802 94.8697 103.812L95.4827 102.276L95.5553 102.299C95.4432 102.797 95.3311 103.295 95.2191 103.792L95.3377 103.839C95.4596 103.601 95.5816 103.367 95.7035 103.133L95.7991 103.143V105.002C96.1353 103.954 96.4418 103.005 96.7484 102.055L96.877 102.095L96.3957 104.712L96.4815 104.732L97.1736 103.357C96.9132 104.181 96.8011 104.976 97.4142 105.74C97.6976 104.31 98.3437 103.044 99.2535 101.887C98.8612 103.146 98.469 104.405 98.08 105.661L98.235 105.777C98.2449 105.681 98.2514 105.582 98.2712 105.371L98.5744 105.902C98.6964 105.384 98.8019 104.926 98.9106 104.465L99.0194 104.485V106.373C99.4348 104.831 99.715 103.252 100.968 102.072C100.849 102.378 100.707 102.675 100.615 102.988C100.374 103.825 100.104 104.663 99.9523 105.516C99.8864 105.885 100.084 106.301 100.249 106.703C100.496 104.633 101.459 102.912 102.728 101.317C102.662 101.518 102.576 101.709 102.477 101.897C101.709 103.084 101.215 104.399 100.852 105.754C100.806 105.922 101.017 106.159 101.083 106.304C101.732 104.933 102.24 103.446 103.4 102.293C103.225 102.715 103.051 103.136 102.876 103.558C102.487 104.501 102.088 105.437 101.719 106.386C101.653 106.607 101.66 106.845 101.739 107.062L101.897 106.752C101.986 107.003 102.065 107.23 102.098 107.323C102.256 106.617 102.217 105.668 102.655 105.068C103.608 103.766 104.257 102.187 105.734 101.304C105.773 101.281 105.829 101.287 106.067 101.254C104.409 102.813 103.074 104.419 102.563 106.538L103.047 105.655C102.817 106.479 102.761 107.267 103.357 107.995C103.496 107.105 103.627 106.232 103.763 105.361L103.703 105.345C103.529 105.925 103.357 106.505 103.182 107.082H103.09C103.12 106.802 103.117 106.508 103.189 106.238C103.677 104.481 104.643 103.001 105.955 101.752C106.024 101.696 106.103 101.66 106.189 101.64C106.274 101.62 106.363 101.624 106.449 101.643C106.574 101.693 106.683 101.91 106.709 102.065C106.746 102.286 106.699 102.52 106.69 102.744C105.16 102.853 104.366 103.641 104.227 105.147C104.227 105.256 104.214 105.365 104.188 105.47C103.838 106.505 104.435 107.138 105.163 107.688C105.691 108.084 106.271 108.414 106.805 108.803C106.937 108.924 107.019 109.086 107.039 109.264C107.079 109.524 107.049 109.798 107.118 110.078C107.177 109.762 107.24 109.445 107.313 109.07L108.179 109.491C108.114 109.752 108.051 109.999 107.988 110.246L108.097 110.289L108.413 109.594L109.333 110.012C109.277 110.266 109.224 110.487 109.172 110.721C109.211 110.721 109.251 110.721 109.29 110.721C109.369 110.2 109.669 110.075 110.187 110.052C110.813 110.022 111.248 109.564 111.561 109.03C111.851 108.539 112.128 108.041 112.494 107.405C112.534 108.209 112.431 108.842 112.148 109.439C111.743 110.289 111.067 110.859 110.213 111.235C108.881 111.822 107.507 112.023 106.11 111.542C104.748 111.077 103.403 110.573 102.072 110.032C98.9569 108.76 95.8485 107.468 92.7502 106.159C89.7803 104.913 86.8171 103.651 83.8638 102.372C83.5902 102.253 83.3463 101.993 83.1618 101.745C82.8486 101.327 82.5716 100.885 82.3277 100.424C81.7278 99.2734 80.7984 98.4823 79.569 98.1593C78.8043 97.9648 78.0066 97.9154 77.2221 98.0143C74.2358 98.3768 71.2626 98.8251 68.2367 98.7427C64.7428 98.6471 61.2457 98.5944 57.7551 98.4428C56.0345 98.367 54.3237 98.1197 52.5867 97.9417C52.8734 95.5026 54.4556 93.9798 56.018 92.4306C55.1379 94.0193 54.8149 95.7333 54.6995 97.6088C55.1841 95.8289 56.5948 94.7808 57.5145 93.3832C57.053 94.6786 56.664 95.9707 56.9244 97.3748C57.0497 96.2409 58.1045 95.7564 58.6649 94.9258L58.4703 95.3675L58.5197 95.4136L59.6339 94.372C59.5087 95.4729 59.3866 96.5277 59.2679 97.5759C60.593 95.7169 61.806 93.8479 63.4673 92.3251C63.2926 93.4722 62.2247 94.0193 61.7764 94.9983L62.7653 94.1083C62.5148 95.3938 62.2808 96.6167 62.0434 97.8396L62.1851 97.8692C62.3235 97.3979 62.4092 96.9002 62.6169 96.4684C62.8377 96.0036 63.1673 95.585 63.4705 95.1631C63.7771 94.7412 64.1101 94.3391 64.4331 93.9304C64.7561 93.5183 65.0725 93.1129 65.3922 92.7075L65.5504 92.8163L64.3968 94.5929L65.0462 94.0523C64.9374 94.9258 64.8451 95.7333 64.7528 96.4948C65.2142 95.9278 65.6856 95.3312 66.1734 94.7478C66.6514 94.1479 67.182 93.5941 67.7555 93.0865L66.9283 94.3555L66.9909 94.4083L67.2283 94.2105C67.1426 95.1499 67.0535 96.1256 66.9678 97.1012L67.1359 97.1474C67.3897 94.7016 68.5433 92.8327 70.6396 91.567C69.4695 92.9448 68.4742 94.4412 67.5117 95.9641L67.6271 96.0531L69.1762 94.3193C69.0179 95.2554 68.8565 96.2179 68.6949 97.1803L68.8663 97.2232C69.1696 95.7267 69.8849 94.4544 70.9232 93.3502C70.5804 94.3028 69.8421 95.1137 69.9344 96.2212L72.3933 92.2955L72.5779 92.4042L70.6694 95.5323L70.7846 95.6213L71.5132 94.7742C71.3847 95.6509 71.2627 96.4486 71.144 97.2463L71.2923 97.266C71.3582 97.032 71.4242 96.7947 71.4934 96.5607H71.4802L71.4868 96.5508C71.3913 95.9707 71.8559 95.707 72.1855 95.3839C72.4327 95.14 72.736 94.9522 73.0887 94.6819C72.7987 95.5817 72.0076 95.9542 71.4868 96.5541L73.4645 95.1961C73.5304 95.7564 73.593 96.3233 73.659 96.8903L73.7941 96.9035C73.8271 96.0695 73.6952 95.1565 74.7236 94.8005C74.5555 95.3411 74.3874 95.8883 74.216 96.4354L74.3248 96.475L74.9742 95.3971L75.6234 95.4433C75.5048 95.8026 75.373 96.1981 75.2378 96.6035L77.4791 94.7148V96.1223L77.8845 95.5883L78.0033 95.6279C78.0264 96.03 78.0462 96.4321 78.0791 96.9991C78.3131 95.8883 78.3626 94.8665 79.3712 94.1743C79.213 94.6588 79.0779 95.0609 78.9098 95.5751L79.2064 95.3246C79.2525 95.5389 79.2954 95.7333 79.3416 95.9575C79.5921 95.1895 79.8327 94.4478 80.0766 93.7128L80.2216 93.7589C80.0931 94.5171 79.9612 95.2719 79.8294 96.03C80.6864 94.1248 81.0819 92.0384 82.4959 90.4101C82.7563 90.1068 82.9837 90.0211 83.3298 90.2914C81.8729 91.5176 81.3455 93.2612 80.7193 94.9521L81.4147 93.7886L81.5367 93.8249C81.3389 94.784 81.1412 95.7399 80.9435 96.6991L81.0357 96.7354C81.2236 96.3794 81.4147 96.0234 81.5993 95.6674C82.3409 94.2336 83.043 92.78 83.8308 91.3692C84.3516 90.4364 84.1638 90.4859 85.2086 90.9671C83.8902 92.7207 82.7398 94.5533 82.4925 96.8046C82.9573 95.7663 83.3991 94.7181 83.8902 93.6963C84.2 93.0668 84.5428 92.4537 84.9218 91.8637C85.4921 90.9506 85.6635 90.9342 86.5469 91.5934C84.8428 93.4063 83.9231 95.5949 83.3924 97.9714C84.4735 95.852 85.1855 93.5447 86.7973 91.6725C86.9555 91.7351 87.0874 91.7813 87.2093 91.8406C87.328 91.9098 87.4468 91.9889 87.5555 92.0746C85.9998 93.9567 84.9483 96.0432 84.5758 98.4296L84.7472 98.5054C84.8164 98.3142 84.8757 98.1164 84.9548 97.9286C85.591 96.4453 86.2271 94.962 86.8797 93.4854C87.0083 93.2283 87.1632 92.9844 87.3478 92.7602C87.8916 92.0581 87.895 92.0614 88.7784 92.5163L88.7718 92.5196ZM66.8326 92.7272L65.1748 95.4334C65.2736 93.9996 65.9954 93.1129 66.8326 92.7272ZM66.292 91.7483L67.3041 90.5617L67.4259 90.6705L66.4305 91.8637L66.292 91.7483ZM78.3493 88.1588C78.3559 88.5016 78.257 88.6994 77.8779 88.7093C76.0123 88.7851 74.15 88.8708 72.2745 88.8807C74.0577 87.3183 76.1509 86.4942 78.3461 86.1053C78.3461 86.8107 78.3329 87.4864 78.3461 88.1621L78.3493 88.1588ZM78.1318 93.9205L78.3362 93.9897L77.9307 95.2389L77.7263 95.1697L78.1318 93.9172V93.9205ZM75.8245 95.6377C75.9233 94.372 76.9485 94.0127 77.5879 93.3403L77.7659 93.4854L75.8245 95.6377ZM75.8048 92.8492L74.4632 93.9732C74.4137 93.9139 74.3644 93.8578 74.315 93.8018L75.6794 92.7009C75.7223 92.7503 75.7653 92.7998 75.8048 92.8492ZM73.2699 93.2118C72.8678 93.7523 72.4658 94.2896 72.0011 94.9159C72.0999 94.0193 72.6372 93.581 73.2733 93.2118H73.2699ZM80.2842 91.277C80.393 90.5914 81.1511 89.7475 81.5895 89.8464L80.2842 91.277ZM81.8399 90.1859C81.9388 90.0376 82.1926 89.9882 82.3739 89.8926C82.4036 89.942 82.43 89.9882 82.4597 90.0376L80.6632 92.4306L80.5215 92.3317C80.9598 91.6132 81.3785 90.8847 81.8433 90.1826L81.8399 90.1859ZM79.4008 91.0232L79.3514 90.9803C79.6349 90.5551 79.8985 90.1134 80.2182 89.7179C80.3138 89.6025 80.5742 89.619 80.8017 89.5663L79.4008 91.0232ZM79.5756 93.0733L79.747 93.1854L79.0186 94.283L78.8406 94.1611L79.5756 93.0733ZM83.5638 90.5287C83.6462 90.4298 83.877 90.4562 84.1044 90.4101C83.6199 91.1649 83.1815 91.7944 82.7925 92.4537C82.4036 93.1129 82.0542 93.8051 81.6125 94.6258C81.8762 93.1096 82.5486 91.6923 83.5638 90.532V90.5287ZM92.5656 86.8173L90.7857 86.3492L90.7923 86.3624L90.7759 86.3459C90.4496 86.3789 90.1266 86.4679 89.8134 86.4613C89.7673 86.4613 89.7211 86.4613 89.6782 86.4547C87.9972 86.2701 86.3227 86.0658 84.645 85.8284C83.5968 85.6801 82.5651 85.3604 81.5137 85.2879C80.6534 85.2318 79.7832 85.4362 78.9164 85.5219C78.7746 85.5516 78.6296 85.5647 78.4845 85.5581C76.3289 85.2648 74.5457 86.1086 72.9075 87.3809C72.6834 87.5325 72.4724 87.7006 72.2779 87.8852C71.7703 88.4324 71.1044 88.5741 70.4122 88.7389C68.5334 89.1707 66.6019 88.9532 64.7166 89.2465L64.7232 89.2531H64.7132L62.7915 89.5069C61.9609 89.6157 61.5885 89.408 61.1666 88.5741L61.4928 88.6104C60.5732 86.7283 60.7645 84.8528 61.3842 82.9674C61.4073 83.1948 61.4138 83.4255 61.4566 83.6464C61.6049 84.3814 61.7533 85.1165 61.9247 85.8482C61.9477 85.9471 61.9741 86.046 62.0005 86.1416C62.2477 87.0546 62.7685 87.872 63.4903 88.4851C63.8628 88.795 64.2781 89.0554 64.7198 89.2564C64.6506 89.2037 64.5846 89.1476 64.522 89.0916C63.5134 88.2346 62.808 87.1733 62.5213 85.8548C62.4026 85.2978 62.2312 84.7209 62.6169 84.0452L63.0487 85.6867C62.6894 83.4354 62.8971 81.2732 64.0507 79.2493C63.9255 79.7405 63.797 80.2283 63.6783 80.7194C63.5069 81.4347 63.3157 82.1466 63.1839 82.8685C63.0191 83.765 63.2035 84.688 63.7045 85.4494C63.9221 85.7889 64.2616 86.0493 64.5484 86.3459L64.6934 86.2371C64.5879 85.6208 64.4825 85.0044 64.3803 84.3847C64.9835 85.8416 65.936 86.8766 67.4885 87.3117C66.348 86.5832 65.5306 85.5845 65.145 84.3023C64.7593 83.0201 64.766 81.7478 65.3758 80.6205C65.534 81.4545 65.6296 82.3807 65.8966 83.2574C66.1537 84.1046 66.5657 84.9187 67.3963 85.4131C66.6382 84.3089 66.4437 83.086 66.592 81.8137C66.6876 80.8513 66.869 79.8987 67.1327 78.9659C67.4128 78.0298 67.8643 77.1431 68.2401 76.2334L68.4577 76.3026C68.4017 76.4872 68.3357 76.6718 68.2929 76.8596C67.9666 78.3462 67.5479 79.8196 67.3435 81.3193C67.1655 82.6048 67.3336 83.9068 68.0357 85.067C68.4675 85.7988 69.1663 86.3393 69.9838 86.5767C68.6752 85.5384 68.1049 84.154 67.9829 82.44L68.3027 82.9146C67.983 81.4413 68.0621 79.9086 68.5367 78.4747C68.5367 79.2032 68.5071 79.9382 68.5433 80.6667C68.6027 81.8533 69.0773 82.8949 69.8256 83.8046C70.0069 84.0189 70.2969 84.1573 70.5342 84.3287L70.7584 84.1771C69.3872 82.7993 69.2256 81.2006 69.809 79.4306C69.8716 79.6976 69.9277 79.9316 69.9838 80.169C70.0464 80.4261 70.109 80.6799 70.1716 80.9337L70.3694 80.9238V80.6864C70.3562 80.4557 70.3562 80.2217 70.3694 79.991V76.2037L70.676 76.2202C70.6035 77.2156 70.5902 78.2209 70.4452 79.2065C70.4057 79.4735 70.3826 79.7339 70.3694 79.991V80.6864C70.4188 81.8467 70.8078 82.9641 71.4868 83.9068C71.8395 84.4342 72.2318 84.9352 72.6603 85.4065C72.3801 84.8396 72.09 84.2727 71.8197 83.6991C71.1703 82.3279 70.7485 80.9172 71.0056 79.3779C71.0386 79.1504 71.1045 78.9296 71.2 78.7219L71.3121 80.2579L71.3879 80.2678L71.5132 79.9283C71.7967 81.0721 71.9911 82.1928 73.2205 82.7795C71.6417 80.1722 71.4704 77.532 72.3307 74.7995L72.5349 74.7864C72.5349 75.6104 72.5151 76.4377 72.5349 77.2618C72.5778 78.6132 72.7559 79.9283 73.3327 81.1842C73.5437 81.6423 73.5535 82.1895 73.7183 82.6938C73.6953 82.3938 73.6722 82.0972 73.6425 81.705L74.4104 82.5686L74.5622 82.5356C72.924 80.5942 73.7084 78.478 73.926 76.3982H74.0808C74.0544 76.8563 74.0182 77.3112 74.005 77.7694C73.9918 78.2704 73.9852 78.7747 73.9984 79.279C74.005 79.7635 74.0643 80.2448 74.1764 80.7194C74.2357 80.4195 74.2919 80.1162 74.3644 79.7372C75.1324 81.4083 75.864 82.9905 76.5167 84.4078C76.2794 83.0729 76.0156 81.583 75.7486 80.0931L75.9333 80.0404C76.5002 81.0952 76.8727 82.2917 78.0725 82.9542C77.6243 82.1137 77.2485 81.2962 76.7739 80.5381C75.5378 78.5571 76.0618 76.6256 76.9287 74.6875V79.5493L77.0507 79.5559C77.1232 78.8835 77.2352 78.2176 77.2583 77.5419C77.3045 76.2861 77.3011 75.0303 77.3143 73.7744C77.3143 73.4415 77.4396 73.2471 77.8021 73.3492C78.2339 73.4679 78.6461 73.6393 79.0812 73.7283C79.6415 73.8437 80.215 73.8766 80.7786 73.9821C81.339 74.0843 81.8927 74.2293 82.5025 74.3644L81.3587 76.029C81.2862 75.9037 81.2137 75.7785 81.1841 75.7192C80.9632 76.7443 80.7325 77.8122 80.4984 78.8835L80.3006 78.8999L79.4568 75.9763H79.4008C79.4008 76.3092 79.358 76.6553 79.4108 76.9783C79.5064 77.5419 79.5689 78.1418 79.8128 78.6494C80.3468 79.7536 80.2908 80.9501 80.4984 82.1005C80.5017 82.117 80.5017 82.1335 80.4984 82.1499C80.4853 82.1928 80.472 82.2356 80.4522 82.2752L80.4259 82.262C80.4259 82.262 80.4391 82.2851 80.4456 82.2917L80.4622 82.2752C80.5809 82.7169 80.7029 83.1619 80.8314 83.6299V81.1018L82.2223 82.7202L82.3311 82.6444C82.0575 82.1664 81.8399 81.6456 81.4971 81.2204C80.5874 80.103 80.9303 78.9527 81.3621 77.7661C81.6225 79.2131 82.641 80.3997 82.6937 81.9324C82.7168 82.5685 82.9969 83.1981 83.1618 83.8277L83.2903 83.7947C83.2046 83.1487 83.1189 82.4993 83.0167 81.7148L84.556 83.3794L84.6746 83.2838C84.3681 82.8256 84.0979 82.3411 83.7518 81.9126C82.8486 80.7952 83.0695 79.6119 83.4914 78.3693C83.9232 79.2757 84.3747 80.1393 84.7372 81.0391C84.8625 81.349 84.7373 81.7511 84.7702 82.1038C84.8263 82.6444 84.9219 83.1717 85.001 83.7057L85.1625 83.6826V81.8698L86.5469 83.2706L86.9951 83.7222C86.7578 83.3102 86.5237 82.8982 86.2897 82.4861C86.0524 82.0741 85.8152 81.6654 85.5647 81.2666C85.4493 81.0985 85.3734 80.9073 85.3405 80.7029C85.3108 80.5019 85.3272 80.2942 85.3899 80.0997C85.5118 79.6152 85.6635 79.1373 85.8415 78.6725C86.1777 79.869 87.0941 80.8512 86.9721 82.1895C86.926 82.7136 87.0017 83.2476 87.0215 83.7749C87.1402 83.9496 87.2589 84.1276 87.4105 84.3485C87.3776 83.943 87.3413 83.5937 87.3281 83.2344C87.3018 82.8553 87.3313 82.4763 87.4137 82.1038L88.7486 83.9134L88.8014 83.8804C88.4026 83.0696 87.9906 82.262 87.6115 81.4413C87.5192 81.2336 87.4928 81.0062 87.5324 80.782C87.7169 79.9547 87.9576 79.1373 88.251 78.3429C88.5773 79.5295 89.5035 80.4854 89.2694 81.8665C88.9794 83.5838 89.787 85.0143 90.7759 86.3459C90.5385 85.7955 90.288 85.2516 90.0704 84.6946C89.6288 83.5739 89.5496 82.6905 89.8034 81.639C90.1298 82.1203 90.4198 82.5521 90.7099 82.9872L90.8747 82.9575C89.7969 81.6357 89.6189 80.2415 90.5781 78.6297C90.6308 78.9395 90.6671 79.2559 90.6869 79.5691C90.6869 80.3997 90.6605 81.2303 90.6737 82.0642C90.6737 82.2554 90.8187 82.4433 90.8945 82.6312L91.0395 82.6081V80.3898L91.2373 80.3667C91.3527 80.7161 91.4615 81.0655 91.5867 81.4116C91.6955 81.705 91.8635 81.9851 91.9129 82.2884C91.9986 82.6839 92.0152 83.0926 91.9657 83.4981C91.768 84.6451 91.8801 85.7098 92.6448 86.6525L92.5722 86.814L92.5656 86.8173ZM64.4726 85.9141C63.7145 85.4032 63.3354 83.8903 63.7045 82.7861C63.7935 83.3267 63.853 83.8738 63.9815 84.4045C64.1101 84.9352 64.3078 85.4197 64.4693 85.9141H64.4726ZM92.4272 79.3845C92.3217 80.0635 92.2162 80.7392 92.1107 81.4182C91.8438 80.6864 92.1305 80.0338 92.4272 79.3845ZM99.0228 87.1568C98.5811 85.9504 98.5019 84.9319 98.7656 84.0189L100.064 84.2858C100.282 85.1362 100.48 85.9108 100.701 86.7876L99.0228 87.1601V87.1568ZM101.02 86.6821C100.813 85.8976 100.618 85.1725 100.397 84.3353L101.749 84.444C101.89 84.9945 102.025 85.5153 102.18 86.1284L101.02 86.6821ZM102.352 85.9504C102.266 85.4461 102.187 84.9681 102.105 84.4737L103.512 84.2727C103.733 84.9484 103.499 85.2978 102.352 85.9504ZM103.776 80.6205C104.119 81.0919 103.604 83.086 103.074 83.2344C103.305 82.3741 103.542 81.4808 103.772 80.6205H103.776ZM102.269 81.4742C102.161 82.0115 102.055 82.5455 101.943 83.0827L102.098 83.152L103.054 81.1908C102.945 81.8895 102.827 82.4499 102.767 83.0168C102.728 83.3761 102.533 83.4816 102.233 83.4684C101.426 83.4387 100.618 83.4025 99.8139 83.3398C99.7315 83.3333 99.6655 83.1091 99.5963 82.9872L99.5864 83.0069C99.2404 83.6002 98.8711 83.0069 98.4624 83.1157L99.5435 80.2019L100.229 80.3107C100.002 81.2501 99.7974 82.1269 99.5798 83.0069C99.7381 82.6312 99.8929 82.2521 100.051 81.8764C100.209 81.5006 100.368 81.1215 100.532 80.7458C100.592 80.6073 100.74 80.5085 100.846 80.3898L101.03 80.4986C100.879 81.3358 100.727 82.1697 100.575 83.0069L100.654 83.0333C100.967 82.2093 101.277 81.3885 101.591 80.5678L101.765 80.6008C101.65 81.3325 101.534 82.0609 101.422 82.7894L101.508 82.8322L102.21 81.4577L102.266 81.4742H102.269ZM97.4966 79.8031L98.2284 79.9316C98.0636 80.67 97.9021 81.3753 97.7472 82.0873L97.8954 82.1236C98.113 81.4314 98.324 80.7392 98.5448 80.014L99.092 80.0898L98.3174 83.0795L96.8011 82.206C97.3351 81.4545 97.8955 80.8018 97.4934 79.7998L97.4966 79.8031ZM96.7385 81.8236C96.3793 81.0622 96.7715 80.3931 96.9363 79.5262C97.1308 79.7339 97.3615 79.8789 97.3384 79.9712C97.19 80.604 96.989 81.227 96.7319 81.8236H96.7353H96.7385ZM98.4854 78.9823C98.5382 78.8901 98.5943 78.8044 98.6602 78.7219C98.8876 78.834 99.1052 78.9725 99.326 79.1043L99.1414 79.3713L98.4854 78.9823ZM99.5798 78.8736C100.158 78.9241 100.395 79.1482 100.292 79.546C99.8632 79.5163 99.4546 79.4768 99.5732 78.8703H99.5765L99.5798 78.8736ZM101.94 80.0602L101.244 79.4273L101.057 79.5526L100.839 79.6976L100.773 79.5592C100.707 79.4207 100.635 79.2724 100.549 79.0977C101.729 79.2823 101.923 79.3944 101.937 80.0668H101.94V80.0602ZM100.002 77.9243C100.592 78.1385 101.126 78.511 101.683 78.8142C101.663 78.8604 101.643 78.9065 101.623 78.9527L98.5316 78.2803C98.9997 77.5947 99.0096 77.5551 99.9985 77.9276H100.002V77.9243ZM98.703 77.5749C98.3954 78.1089 97.9768 78.2956 97.4472 78.1352C97.8229 77.8254 98.0241 77.1991 98.6932 77.5782H98.703V77.5749ZM97.8 77.4529C97.5396 77.71 97.2791 77.9539 97.0352 78.2077C96.9363 78.3066 96.8639 78.4253 96.8177 78.5571C96.587 79.3515 96.2936 80.1393 96.1749 80.9534C96.1024 81.4544 96.2969 81.995 96.3727 82.5191C96.4156 82.8059 96.5375 83.1091 96.4815 83.3827C96.264 84.4836 96.465 85.512 96.8605 86.4646C96.788 85.3867 96.7155 84.2661 96.6331 83.0498L98.4722 83.9727C98.1789 85.0341 98.2349 86.102 98.904 87.1766C97.8855 87.1766 96.989 87.193 96.0891 87.1601C95.9507 87.1601 95.7628 86.9557 95.6903 86.8041C95.219 85.8054 94.9158 84.7539 94.9191 83.6398C94.9191 83.4651 94.9025 83.2871 94.8663 83.1157C94.6817 84.5166 94.8564 85.8614 95.7233 87.1568C94.7476 87.0315 93.8544 86.9557 92.9842 86.7744C92.7666 86.7283 92.6117 86.3327 92.47 86.0756C91.9294 85.0901 92.2261 84.0683 92.381 83.0399C92.6183 83.4981 92.8557 83.9529 93.093 84.4078L93.2282 84.3814C92.625 83.0663 91.9526 81.7511 92.8558 80.4722C92.9316 81.3688 93.0205 82.3873 93.1062 83.3992H93.2182C93.2775 83.0168 93.3403 82.6378 93.4194 82.1433C93.5809 82.7894 93.7094 83.3135 93.7918 83.6365C93.95 82.7399 94.1346 81.6951 94.3192 80.6436L94.4016 80.67V84.3023H94.4477C94.563 83.2871 94.6356 82.262 94.8103 81.2567C95.0113 80.0964 95.1959 78.9164 96.0397 77.977C96.5012 77.4628 96.9594 77.0343 97.7868 77.4661H97.7966L97.8 77.4529ZM96.2211 77.1826L94.5169 79.3317C94.5169 79.3317 94.5038 79.3614 94.4972 79.3779C94.4906 79.3878 94.484 79.3944 94.4774 79.4043L93.7688 81.7214C93.782 81.3061 93.8412 80.8908 93.9466 80.4887C94.0521 80.0997 94.2335 79.7339 94.4774 79.4108L94.4872 79.3779L94.5169 79.3416C94.7212 78.8999 94.919 78.4517 95.1333 78.0133C95.2651 77.7397 95.4004 77.4727 95.5487 77.209C95.6113 77.097 96.0332 77.1892 96.2145 77.1892H96.2243L96.2211 77.1826ZM95.1399 77.153L94.8367 77.5518C94.7674 77.0871 94.4938 77.1101 94.296 77.3606C93.9071 77.8452 93.5809 78.3792 93.2348 78.8966C93.1689 79.012 93.1094 79.1307 93.06 79.2559L92.9678 79.2197C93.1655 78.7088 93.337 78.188 93.5644 77.6903C93.983 76.7542 94.128 76.7179 95.1333 77.153H95.1399ZM93.6006 76.6652L93.6962 76.8431C92.6645 77.832 91.936 78.9922 91.6855 80.4689C91.0131 79.5987 91.4911 78.8802 91.8603 78.2209C92.1603 77.687 92.6184 77.2387 93.0502 76.7871C93.1557 76.675 93.4062 76.7047 93.5974 76.6684H93.604L93.6006 76.6652ZM91.3097 77.0047C91.7613 76.2103 91.824 76.1938 92.6646 76.5432L90.9735 78.8933C90.6637 78.5374 90.5879 78.1715 90.8813 77.7529C91.0494 77.5189 91.1614 77.2519 91.3031 77.0047H91.3097ZM91.2175 76.207C90.5813 77.4826 89.9583 78.7318 89.3386 79.9712C89.0749 79.3911 88.7553 78.7187 88.4718 78.0298C88.4223 77.9111 88.4982 77.7133 88.5642 77.5782C88.8246 77.0541 89.1046 76.5399 89.3782 76.0191C88.1455 77.1629 87.6248 78.6956 87.0677 80.3338C86.7249 79.5163 86.4183 78.7912 86.1151 78.0693C86.0953 78.0199 86.0558 77.9539 86.0723 77.9177C86.4381 77.1068 86.8105 76.296 87.1961 75.4884C87.2192 75.439 87.3577 75.4126 87.4335 75.4291C88.719 75.6895 90.0013 75.9598 91.2077 76.2103H91.2143L91.2175 76.207ZM119.376 35.0415C119.189 37.5927 118.401 39.9165 116.72 41.8711C114.993 43.8718 112.824 45.2134 110.279 45.9682C108.328 46.5615 106.281 46.7856 104.247 46.6241C100.133 46.5153 96.8868 44.9101 94.151 42.1348C92.3184 40.2758 91.1154 38.0871 90.7891 35.5095C90.6309 34.2603 90.7362 32.9682 90.8351 31.7058C91.0329 29.3853 91.6757 27.1274 92.7206 25.0443C94.1873 22.0646 96.3826 19.7045 99.0788 17.7862C100.668 16.6655 102.408 15.7722 104.247 15.1361C106.518 14.3417 108.901 13.9198 111.308 13.8901C112.066 13.877 112.83 13.8539 113.592 13.8901C113.991 13.9066 114.383 13.9857 114.755 14.1275C114.973 14.2132 115.25 14.4637 115.263 14.6581C115.279 14.9185 115.138 15.3042 114.937 15.436C114.515 15.6865 114.05 15.8612 113.569 15.9535C112.593 16.1579 111.584 16.237 110.615 16.4776C107.646 17.2094 105.223 18.7421 103.772 21.5108C103.44 22.147 103.374 22.9282 103.206 23.6467C103.113 24.0456 103.334 24.1873 103.7 24.128C103.97 24.0884 104.237 24.0258 104.504 23.9763C106.4 23.6105 108.292 23.1919 110.243 23.5017C112.544 23.8544 114.67 24.9421 116.295 26.6001C117.616 27.9251 118.592 29.4611 119.083 31.2707C119.419 32.5035 119.472 33.7692 119.376 35.0448V35.0415ZM75.0696 38.7101C74.9806 40.9416 74.8522 43.1731 74.7764 45.4078C74.7467 46.3143 74.305 47.0197 73.2601 46.8087C71.8725 46.5252 70.4749 46.2813 69.1169 45.8924C67.7919 45.5034 66.4932 45.0321 65.2242 44.4816C64.5089 44.1685 63.8431 43.7499 63.2531 43.239C61.6709 41.8744 61.7138 40.6845 62.3598 38.8551C63.319 36.1424 65.0659 33.8944 66.9513 31.7684C68.9158 29.5534 70.9989 27.4439 73.0293 25.2849C73.9127 24.3455 74.8027 23.4094 75.663 22.4469C76.2992 21.735 76.0849 21.1417 75.1224 21.0329C74.0907 20.9175 73.0459 20.9076 72.0077 20.8549L72.0143 20.7692C69.374 20.6275 66.7337 20.4725 64.0935 20.3539C62.9432 20.3011 61.7994 20.3769 60.7216 20.8582C60.1942 21.0955 59.7658 21.4086 59.4889 21.9492C59.1857 22.5063 58.8494 23.0402 58.4769 23.5544C58.3352 23.7588 58.1407 23.9862 57.9199 24.062C57.5936 24.1774 57.2013 24.2664 56.898 24.1708C56.72 24.1148 56.585 23.6797 56.5718 23.4094C56.5718 23.0864 56.641 22.7634 56.7728 22.4667C57.3299 21.112 57.9001 19.7606 58.4967 18.419C59.2812 16.649 60.0953 14.8922 60.893 13.1287C61.1435 12.575 61.6215 12.3541 62.1752 12.3673C63.5036 12.397 64.8352 12.4464 66.1602 12.5519C67.3732 12.6475 68.5763 12.9046 69.7926 12.954C72.3899 13.0628 74.9972 13.0496 77.5979 13.1386C79.7635 13.2111 81.9356 13.3397 84.1012 13.4814C84.8857 13.5309 85.3833 14.2362 85.1559 15.0042C84.8592 16.0096 84.5527 17.0314 84.0814 17.9576C82.6113 20.8483 81.0489 23.6896 79.5458 26.5638C78.6064 28.3602 77.6308 30.1467 76.8331 32.009C75.9201 34.1482 75.1719 36.3533 75.0862 38.7167L75.0796 38.7101H75.0696Z" fill="#303E47"/>
<path d="M108.45 39.198C108.282 36.4424 107.946 33.7066 107.234 31.04C106.954 30.0676 106.555 29.1348 106.044 28.2614C105.826 27.8757 105.309 27.5527 104.861 27.4208C104.01 27.1703 103.11 28.0339 102.932 28.947C102.606 30.6082 102.824 32.2827 103.074 33.9274C103.381 35.9117 103.812 37.8762 104.264 39.8341C104.515 40.912 104.93 41.9338 105.714 42.7743C106.182 43.2753 106.726 43.4005 107.349 43.2193C107.933 43.0479 108.233 42.5963 108.325 42.0228C108.404 41.5415 108.427 41.0537 108.473 40.5626H108.443C108.453 40.1077 108.48 39.6528 108.453 39.2013L108.45 39.198Z" fill="#303E47"/>
</g>
</svg>
