<svg width="200" height="200" viewBox="0 0 200 200" fill="none" xmlns="http://www.w3.org/2000/svg">
<rect width="200" height="200" fill="white"/>
<mask id="mask0_412_1881" style="mask-type:luminance" maskUnits="userSpaceOnUse" x="0" y="8" width="200" height="184">
<path d="M200 8H0V191.703H200V8Z" fill="white"/>
</mask>
<g mask="url(#mask0_412_1881)">
<path d="M73.3075 41.8731L73.2773 41.853V41.9065L73.3075 41.8731Z" fill="#303E47"/>
<path d="M199.963 115.034C199.702 107.871 199.418 100.709 199.114 93.5492C199.041 91.7485 198.937 89.9511 198.436 88.1971C198.062 86.8875 197.401 85.8185 196.231 85.0768C194.775 84.1514 193.164 83.7906 191.45 83.7872H189.73C189.71 83.4398 189.69 83.109 189.67 82.7816C189.479 79.8751 189.66 76.9452 189.149 74.062C189.028 73.3738 189.028 72.6655 188.925 71.9706C188.885 71.6432 188.781 71.3292 188.611 71.0485C188.106 70.2969 187.472 69.6253 187.051 68.8336C186.626 68.0418 186.042 67.828 185.193 67.8146C172.518 67.6075 159.849 67.3803 147.181 67.1364C133.741 66.8792 120.297 66.6587 106.857 66.3112C96.6037 66.0439 86.3506 65.6531 76.1042 65.2121C73.4014 65.0951 70.7055 64.6675 68.0261 64.2599C66.3156 63.9994 64.6184 63.565 62.9346 63.1274C61.508 62.7566 60.1049 62.2888 58.9022 61.3835C57.1917 60.1006 55.735 58.5872 54.6459 56.7497C52.5545 53.2218 52.6681 49.5969 55.3274 46.3029C56.9277 44.3184 58.959 42.9487 61.2676 41.9598C62.1462 41.5822 63.0482 41.2649 63.9703 40.904C64.0928 42.8373 64.3488 43.9565 64.7386 44.2616C64.3043 43.0756 64.2809 41.933 64.4112 40.7403L65.948 40.296C66.1852 41.2615 66.0249 42.1903 66.5862 43.1291V40.0455L67.7956 39.7214C67.9593 40.7804 67.6486 41.8529 68.3669 42.8417V41.5254C68.3669 40.9909 68.33 40.453 68.3568 39.9152C68.3768 39.4909 68.6576 39.4708 68.985 39.5744C68.9248 40.8506 68.9915 41.2181 69.506 42.1736V40.8439C69.506 40.453 69.4527 40.0388 69.4928 39.6445C69.5061 39.5143 69.7366 39.4073 69.9805 39.1869C70.1142 40.3896 69.9503 41.4453 70.5283 42.3373L70.7489 42.3106C70.6854 41.2916 70.6219 40.2726 70.5551 39.1902L71.2299 39.0632C71.28 40.1757 71.0094 41.3217 72.0651 42.3106C71.9649 41.8261 71.8714 41.5121 71.8346 41.188C71.7678 40.6268 71.711 40.0588 71.6909 39.4909C71.6742 38.9563 71.9715 38.7926 72.5896 38.9563C72.6397 39.5243 72.7634 40.1156 72.7234 40.7003C72.6866 41.2381 72.8669 41.5822 73.2778 41.8495C73.2511 40.8439 73.2244 39.8383 73.1943 38.7425L74.5809 38.5421C74.5809 39.1401 74.5575 39.6345 74.5876 40.1256C74.6176 40.59 74.6076 41.0945 75.1655 41.3851V38.4986L76.3983 38.3349C76.6923 39.1869 76.1977 40.1858 77.1131 40.9508V38.2681L78.6901 38.1311C78.7903 39.0165 78.8737 39.7548 78.9573 40.4965H79.1878C79.2279 40.1156 79.2814 39.7381 79.3015 39.3539C79.3215 38.973 79.3015 38.5621 79.3015 38.0977L80.8115 37.9775C80.8917 38.9396 80.9619 39.7882 81.0354 40.6435L80.0564 41.0644C81.0954 41.4052 82.1846 41.5589 83.277 41.5221L81.8839 42.5878C81.7403 42.3106 81.6567 42.1468 81.5598 41.9631C81.3794 42.4375 81.336 42.9353 81.0654 43.1792C80.5041 43.6836 79.8192 44.0478 79.1878 44.4687L79.1945 44.4587V44.442C79.1945 44.442 79.1911 44.4587 79.1878 44.4654C79.0174 44.6592 78.8738 44.8763 78.6767 45.0333C77.915 45.638 77.1365 46.216 76.3614 46.794C76.1576 46.9243 75.9473 47.0445 75.7301 47.1481C75.6867 46.4131 75.6765 45.7817 75.603 45.157C75.4594 43.9275 75.4428 43.9275 74.9985 43.3161C75.1622 44.893 75.2991 46.3029 75.4528 47.7561C75.7201 47.6559 75.994 47.5557 76.268 47.4488C77.7646 46.8608 79.2681 46.2962 80.7481 45.6714C81.3661 45.4242 81.9507 45.1002 82.4852 44.7059C94.3386 35.5487 106.189 26.3847 118.035 17.2141C120.317 15.4535 122.656 13.7697 125.008 12.1059C127.132 10.5959 129.444 9.81409 132.11 10.3587C133.31 10.6025 134.339 11.0402 135.167 11.9389C137.967 14.9657 140.76 17.9958 143.259 21.2832C143.476 21.5705 143.713 21.8445 143.97 22.1652L145.534 21.5806C143.94 19.5026 142.457 17.5181 140.917 15.5804C139.54 13.8498 138.154 12.126 136.667 10.4923C136.032 9.78737 135.214 9.1192 134.342 8.79848C131.686 7.82295 128.953 7.60913 126.347 8.9722C124.957 9.70719 123.631 10.5591 122.385 11.5179C114.497 17.5348 106.633 23.5784 98.7853 29.6454C96.7006 31.259 94.4723 32.7023 92.6515 34.66C91.9332 35.4351 90.9878 36.0064 90.1158 36.6311C88.1615 38.0276 86.1902 39.4007 84.2258 40.7804C84.1623 40.8072 84.0923 40.8205 84.0255 40.8205L83.7247 40.5733V37.8037C84.443 37.767 85.041 37.7536 85.6357 37.6935C85.8829 37.6668 86.1736 37.5933 86.354 37.4396C87.1391 36.7647 87.8874 36.0465 88.6524 35.3482C88.9364 35.091 89.2237 34.8404 89.6413 34.4696C89.4242 34.4428 89.2038 34.4261 88.9833 34.4195C85.5722 34.5965 82.1612 34.4796 78.7468 34.8504C75.0485 35.2513 71.3468 35.5988 67.6953 36.3237C64.8689 36.885 62.0727 37.5766 59.41 38.7158C56.5369 39.9419 53.9042 41.6658 51.6324 43.8106C50.4865 44.8863 49.648 46.2294 49.354 47.7595C49.0734 49.2261 48.9966 50.7529 48.9966 52.2529C48.9966 59.1852 49.0634 66.1208 49.0968 73.0531C49.2137 94.8588 49.334 116.668 49.4576 138.474C49.4643 139.877 49.6146 141.28 49.7082 142.683C49.7449 143.241 49.8083 143.789 49.8718 144.4C49.5611 144.43 49.3341 144.46 49.1069 144.474C45.8596 144.654 42.6323 145.035 39.4685 145.773C34.6376 146.903 29.9571 148.536 25.2999 150.227C23.429 150.908 21.7586 151.974 20.1516 153.133C19.4935 153.608 18.9189 154.162 18.6182 154.944C18.087 156.33 18.5915 157.714 18.6316 159.097C18.6316 159.217 18.7485 159.334 18.8053 159.457C19.3833 160.697 20.4391 161.298 21.7186 161.502C23.3356 161.763 24.9659 161.93 26.5929 162.147C26.8 162.187 27.0037 162.237 27.2075 162.297C27.124 162.788 26.7867 162.701 26.5628 162.665C25.9381 162.564 25.3267 162.688 24.712 162.708C21.8355 162.805 18.9689 163.086 16.1292 163.547C11.736 164.242 7.65028 165.745 3.92189 168.177C3.21698 168.628 2.56206 169.153 1.97073 169.747C0.871587 170.85 0.200109 172.31 0.083179 173.863C0.0297254 174.531 -0.00368966 175.2 -0.00703051 175.868C-0.0203939 177.435 0.126564 178.961 1.28918 180.171C2.29144 181.213 3.3505 182.199 4.64341 182.87C8.54218 184.885 12.6481 186.305 17.0179 186.829C21.4212 187.35 25.8779 187.22 30.241 186.438C34.3937 185.71 38.3526 184.377 41.9373 182.092C43.4941 181.1 44.7303 179.81 45.462 178.079C45.5088 177.979 45.5622 177.886 45.629 177.802H49.6648C51.5791 177.802 53.49 177.842 55.4043 177.789C57.4455 177.732 59.4902 177.642 61.5248 177.455C63.8935 177.237 66.2454 176.86 68.6107 176.629C72.7968 176.229 76.8961 175.443 80.8517 173.983C81.1523 173.87 81.463 173.766 81.9742 173.583C81.7102 173.897 81.5798 174.037 81.4696 174.184C80.8114 175.119 80.4474 176.162 80.6445 177.304C80.7414 177.896 80.7447 178.497 80.6579 179.088C80.5109 180.234 80.7012 181.367 81.1088 182.426C81.5631 183.632 82.4152 184.644 83.5244 185.302C85.5055 186.488 87.4832 187.691 89.5278 188.76C91.5724 189.829 93.7807 190.594 96.0892 190.908C98.3109 191.209 100.546 191.403 102.784 191.573C106.984 191.894 111.126 191.663 115.266 190.704C119.696 189.679 123.718 187.975 127.106 184.901C128.439 183.695 129.468 182.329 129.511 180.441C129.541 179.072 129.558 177.699 129.531 176.325C129.498 174.668 128.779 173.305 127.66 172.116C126.685 171.077 125.606 170.185 124.309 169.6C123.364 169.179 122.395 168.809 121.406 168.494C117.544 167.235 113.612 166.273 109.56 165.879C106.653 165.598 103.736 165.605 100.82 165.748C98.4778 165.865 96.2028 166.31 93.8508 167.065C94.3553 166.41 94.8231 165.859 95.234 165.257C95.4144 164.997 95.5981 164.652 95.578 164.365C95.4978 163.303 95.3375 162.25 95.1872 161.191C95.1471 160.907 95.0268 160.633 94.9165 160.253C95.3341 160.233 95.6583 160.202 95.979 160.206C97.8565 160.233 99.7341 160.283 101.615 160.296C114.457 160.393 127.296 160.486 140.138 160.577C154.1 160.694 168.085 160.794 182.066 160.523C183.506 160.496 184.946 160.433 186.386 160.336C186.984 160.283 187.578 160.166 188.153 159.985C189.352 159.635 190.104 158.823 190.331 157.597C190.468 156.908 190.538 156.207 190.545 155.505C190.505 147.096 190.451 138.691 190.388 130.282V129.43C191.811 129.056 193.161 128.775 194.457 128.347C197.193 127.442 199.118 125.732 199.609 122.758C199.779 121.769 199.889 120.77 199.936 119.768C199.993 118.198 200.016 116.618 199.96 115.048L199.963 115.034ZM81.6166 37.9173H83.0899C83.1534 38.7726 83.2136 39.5844 83.277 40.4597H81.6166V37.9173ZM197.39 91.7084L197.541 91.7652C197.407 92.0558 197.274 92.3465 197.137 92.6371L196.98 92.5636C197.116 92.2796 197.253 91.9957 197.39 91.7084ZM192.693 85.7984C192.74 85.7717 192.857 85.8786 193.174 86.0523C192.9 86.1392 192.81 86.196 192.73 86.1859C192.64 86.1592 192.556 86.1158 192.479 86.059C192.546 85.9688 192.6 85.8452 192.693 85.7951V85.7984ZM191.056 84.3318C191.835 84.5255 191.601 85.1235 191.668 85.5378C191.721 85.8619 191.524 86.0323 191.056 85.8786V84.3284V84.3318ZM189.924 84.2984C190.231 84.8429 190.208 85.3808 190.024 85.922C189.693 85.2906 189.683 85.1403 189.92 84.2984H189.924ZM193.943 87.8096C194.758 88.6081 194.888 89.8575 194.093 90.6827C193.652 91.1337 193.118 91.4812 192.523 91.695C191.751 91.9656 190.913 92.0458 189.9 92.2496C189.84 90.215 189.79 88.4243 189.737 86.647C191.404 86.4198 192.787 86.6837 193.936 87.8096H193.943ZM49.2071 146.415C49.3607 146.244 49.5679 146.131 49.7917 146.097C50.3129 146.054 50.8407 146.084 51.3652 146.084C51.3886 146.148 51.4086 146.211 51.4287 146.271L49.2338 148.429L49.2973 147.708C48.5322 148.797 47.864 149.836 47.1057 150.805C46.3272 151.8 45.4587 152.729 44.4999 153.831C44.5366 153.507 44.5199 153.36 44.57 153.24C45.6357 150.641 47.3394 148.469 49.2036 146.411L49.2071 146.415ZM58.0703 151.937C57.4188 150.567 57.4255 150.227 58.1371 149.716C58.1004 150.457 58.8722 151.176 58.0737 151.937H58.0703ZM66.5126 164.185L67.0372 163.958C67.1207 164.048 67.1808 164.085 67.2008 164.141C67.4013 164.739 67.5817 165.341 67.7922 165.935C67.9559 166.4 67.7454 166.537 67.241 166.547L66.5126 164.185ZM66.8234 166.717L65.9581 167.065C65.7577 166.293 65.5672 165.655 65.4236 165.017C65.3233 164.556 65.3467 164.549 66.0717 164.345C66.3189 165.107 66.5628 165.882 66.8234 166.717ZM67.6618 163.834L68.3101 163.507C68.5807 164.325 68.8312 165.07 69.1218 165.942L68.3 166.243L67.6618 163.831V163.834ZM68.9414 163.353L69.5763 163.089C69.8269 163.907 70.0573 164.663 70.3045 165.468L69.506 165.795C69.3156 164.957 69.1352 164.191 68.9414 163.353ZM69.9104 162.942L71.1531 162.384C71.6876 163.112 71.6876 163.948 71.8513 164.83L70.6587 165.367C70.4148 164.562 70.1808 163.797 69.9169 162.935H69.9136L69.9104 162.942ZM71.6007 162.2L73.0842 161.485L74.0095 163.75L72.3224 164.642C72.0752 163.797 71.8547 163.042 71.6041 162.197H71.6007V162.2ZM73.485 161.282L75.1153 160.47L75.7869 162.835L74.2835 163.64C73.9929 162.768 73.749 162.053 73.4884 161.282H73.485ZM75.396 160.336L76.7591 159.651L77.1198 161.238L77.2635 161.218C77.19 160.66 77.1165 160.106 77.0397 159.514L78.0119 158.906C78.2525 159.651 78.4695 160.326 78.7335 161.135L76.1544 162.655C75.8972 161.853 75.6732 161.161 75.3993 160.329H75.3926L75.396 160.336ZM78.3927 158.682L79.4184 157.887C79.5187 158.966 80.0497 159.885 79.1176 160.734C78.6599 160.116 78.6968 159.367 78.3961 158.679L78.3927 158.682ZM77.915 157.149C77.4039 157.53 76.8659 157.871 76.3047 158.168C72.4126 160.202 68.4571 162.11 64.1707 163.169C62.8344 163.5 61.5582 164.028 60.2085 164.292C60.0081 164.332 59.6974 164.482 59.8043 164.091C59.3065 164.315 58.8555 164.619 58.3577 164.726C53.7106 165.722 49.0534 166.677 44.403 167.666C43.7916 167.796 43.3606 167.666 42.8661 167.265C42.071 166.617 41.1623 166.112 40.2068 165.484C40.424 165.431 40.6445 165.394 40.8683 165.371C48.275 164.99 55.3409 163.149 62.1796 160.353C64.124 159.558 65.8746 158.469 67.2744 156.878C67.4715 156.661 67.6019 156.391 67.6553 156.103C67.7422 155.448 67.7487 154.784 67.7922 154.069C68.006 154.009 68.2198 153.968 68.4403 153.942C71.0929 153.821 73.7356 153.908 76.3348 154.51C76.8259 154.617 77.3003 154.787 77.748 155.011C78.7569 155.525 78.8271 156.477 77.915 157.146H77.9084L77.915 157.149ZM65.2198 167.258L64.879 167.312L64.2877 164.796C64.4815 164.796 64.702 164.773 64.7053 164.796C64.8957 165.608 65.056 166.433 65.2231 167.255H65.2164L65.2198 167.258ZM64.2141 167.559C63.7887 167.479 63.614 166.842 63.6897 165.648C63.9002 166.396 64.0438 166.921 64.2176 167.559H64.2141ZM62.9045 167.058C62.9948 167.298 63.0815 167.542 63.1717 167.783L62.8745 167.833C62.8545 167.589 62.831 167.349 62.8143 167.128L62.9045 167.058ZM62.674 166.353C62.6006 166.193 62.5137 166.039 62.4569 165.872C62.4168 165.755 62.4168 165.621 62.5571 165.448C62.6439 165.732 62.7307 166.016 62.8176 166.3L62.674 166.353ZM54.5358 166.891C54.8365 167.081 55.0402 167.141 55.0535 167.232C55.1003 167.582 55.127 167.93 55.1371 168.281L55.0102 168.307L54.5358 166.888V166.891ZM54.6761 169.687C54.1716 169.103 53.931 168.2 53.9477 167.208L54.1816 167.161C54.3353 167.953 54.4922 168.752 54.6726 169.68V169.687H54.6761ZM53.7707 169.734L53.2193 169.814C53.0891 168.979 52.9689 168.221 52.8319 167.355C53.3564 167.566 53.5869 168.194 53.7673 169.727V169.734H53.7707ZM52.5947 169.894L51.7662 170.172L51.305 167.639L52.3474 167.445C52.4343 168.317 52.5078 169.069 52.5913 169.888V169.894H52.5947ZM50.9843 170.275L49.8217 170.422C49.6213 169.63 49.4409 168.899 49.2237 168.037L50.6336 167.746C50.7606 168.672 50.8607 169.42 50.9776 170.268L50.9843 170.275ZM49.1736 170.549L47.3428 170.836C47.2226 170.018 47.1123 169.276 46.9887 168.428L48.6625 168.117L49.1736 170.546V170.549ZM38.9706 164.726C38.7401 164.746 38.4829 164.783 38.2757 164.709C37.3804 164.382 36.4951 164.014 35.6231 163.61C36.4516 163.61 37.2802 163.039 38.0854 163.61C38.7669 162.905 39.6422 163.243 40.3872 163.046C40.5476 163.423 40.6845 163.74 40.8215 164.061L40.9451 164.034V163.005L42.5821 162.721L42.8996 164.181C42.3483 164.295 41.8472 164.429 41.3394 164.495C40.5476 164.596 39.7624 164.656 38.9706 164.723V164.726ZM43.3372 162.574L44.1858 162.431C44.2694 162.935 44.3428 163.38 44.4263 163.884L43.6211 164.064L43.3372 162.571V162.574ZM45.0243 162.364L45.2781 162.307L45.4786 163.313L45.3316 163.35C45.2281 163.019 45.1246 162.688 45.021 162.357V162.364H45.0243ZM46.1034 161.876C46.5243 162.414 46.3807 162.932 46.3807 163.386C46.2437 162.909 45.8496 162.518 46.1001 161.873L46.1034 161.876ZM47.2928 161.773C47.6836 162.244 47.8072 162.745 47.5166 163.306C47.2627 162.835 47.1825 162.291 47.2928 161.769V161.773ZM48.4653 161.499C48.8762 161.916 49.0099 162.344 48.9531 163.049C48.4887 162.554 48.3551 162.133 48.4621 161.492L48.4653 161.499ZM49.5612 161.252L49.7783 161.178C50.206 161.592 50.2695 162.14 50.2928 162.701L50.0556 162.745L49.5612 161.252ZM52.2171 160.674L52.3809 160.627C52.4343 160.851 52.4878 161.071 52.5412 161.292L52.421 161.325C52.3508 161.101 52.2806 160.884 52.2104 160.667L52.2171 160.674ZM53.5769 160.269L53.7908 160.189L53.921 160.664L53.8107 160.71C53.7305 160.557 53.6503 160.406 53.5735 160.259V160.269H53.5769ZM54.9867 159.818L55.6048 159.571L56.283 161.024L55.1973 161.402C55.1238 160.831 55.0602 160.343 54.9901 159.808V159.818H54.9867ZM58.0068 160.43L57.0246 160.834C56.9244 160.239 56.8309 159.738 56.744 159.237C57.2318 159.112 57.6527 159.506 58.0068 160.42V160.43ZM57.9934 158.806L59.1327 158.215L60.0147 159.785L58.6249 160.239C58.3977 159.715 58.2039 159.27 57.9934 158.793V158.803V158.806ZM65.2999 156.945C65.0393 155.963 64.7353 155.034 65.9213 154.53C66.4758 155.769 66.3524 156.29 65.2966 156.935V156.945H65.2999ZM65.0627 157.216L63.5527 158.221L63.0582 157.476C63.0849 157.8 63.1051 158.064 63.1318 158.435L60.3186 159.671C60.195 159 60.0948 158.465 59.9779 157.837C60.8599 157.49 61.6451 157.216 62.3935 156.868C63.1418 156.524 63.8534 156.11 64.6652 155.682C64.7921 156.167 64.9125 156.631 65.0595 157.202V157.212L65.0627 157.216ZM64.281 153.745C63.5627 154.346 62.791 154.877 61.9759 155.335C58.7219 157.209 55.1971 158.372 51.5422 159.13C45.9363 160.293 40.3104 161.342 34.7212 162.578C32.7334 163.019 30.8022 162.815 28.8378 162.698C28.7576 162.691 28.6775 162.611 28.6006 162.568L28.584 162.367C28.7911 162.314 29.0016 162.214 29.2088 162.21C34.2501 162.1 39.0842 160.861 43.8783 159.461C47.3495 158.445 50.7974 157.353 54.0981 155.853C55.6917 155.128 57.145 154.179 58.5448 153.137C59.3499 152.529 59.7774 151.767 59.8175 150.701C60.6327 150.631 61.3844 150.932 62.1328 151.152C62.7709 151.353 63.3922 151.606 63.9936 151.9C64.9624 152.338 65.0961 153.03 64.2776 153.735V153.741L64.281 153.745ZM33.6354 156.902C33.8359 155.696 34.6978 154.556 36.1611 153.494C35.6065 154.764 34.5541 155.669 33.632 156.892V156.902H33.6354ZM36.2446 158.395C36.3114 158.813 36.3781 159.23 36.4449 159.648L36.2278 159.678C36.0173 159.274 36.1177 158.829 36.2446 158.382V158.392V158.395ZM34.808 159.965L34.5408 160.032L34.4138 159.327L34.5908 159.287C34.6643 159.514 34.7378 159.741 34.808 159.969V159.965ZM32.2022 156.875C32.0919 156.992 31.8814 157.019 31.5774 156.938L35.6499 150.701L35.8303 150.828C34.8681 152.99 33.8458 155.118 32.2054 156.878L32.2022 156.875ZM42.1043 157.957C42.6689 157.523 41.6133 156.825 42.4785 156.421C42.6389 156.775 42.7792 157.092 42.9997 157.593V156.153C43.5977 156.648 43.414 157.353 43.9385 157.864L40.6812 158.756C40.7747 158.034 40.8416 157.52 40.9184 156.932L41.5499 156.685C41.7436 157.119 41.924 157.53 42.1078 157.957H42.1043ZM41.8572 154.703C42.0343 154.503 42.2079 154.309 42.4384 154.052C42.6522 154.693 42.268 154.71 41.8605 154.703H41.8572ZM43.7581 156.036L45.001 155.629L45.5254 157.383L44.4196 157.744C44.1991 157.162 44.002 156.658 43.7648 156.04L43.7581 156.036ZM42.679 154.426C43.1334 153.18 43.9886 152.118 45.1178 151.413C44.7135 152.281 44.3361 153.16 43.9085 154.019C43.7281 154.386 43.4542 154.439 42.6825 154.426H42.679ZM42.8327 152.729C42.2581 153.24 41.7335 153.801 41.1856 154.339C41.2658 154.379 41.4229 154.45 41.4229 154.453C41.286 154.78 41.1924 155.171 40.6879 155.021L39.9295 155.195L43.9152 150.29L44.0989 150.39C43.708 151.186 43.5644 152.084 42.8361 152.729H42.8327ZM40.3271 158.946C40.003 158.856 39.7156 158.836 39.7023 158.763C39.6021 158.258 39.2212 157.757 39.7491 157.039L40.3305 158.946H40.3271ZM39.1778 154.974C39.6088 153.805 40.15 152.709 41.2926 152.027C40.875 153.217 39.9695 154.055 39.1811 154.974H39.1778ZM39.2881 159.027L38.9706 159.073C38.8905 158.562 38.8104 158.051 38.7302 157.54C39.3382 157.944 39.1978 158.512 39.2914 159.027H39.2881ZM38.4261 155.375L38.2558 155.305L38.68 154.219L38.9039 154.329C38.7469 154.68 38.5898 155.027 38.4328 155.375H38.4261ZM36.7924 155.108C37.6243 153.006 38.9506 151.212 40.3404 149.462C39.5219 151.57 38.2324 153.384 36.7958 155.108H36.7924ZM37.3537 157.673C38.0319 158.659 38.0988 159.026 37.6377 159.548C37.4273 158.886 37.1265 158.388 37.357 157.673H37.3537ZM37.2368 156.04C37.4205 155.756 37.5474 155.559 37.6911 155.335C37.7612 155.428 37.8215 155.475 37.8182 155.515C37.8014 155.796 37.7012 156.013 37.2402 156.046L37.2368 156.04ZM53.0424 154.807L49.6814 156.1C49.5612 155.395 49.4677 154.82 49.3508 154.149L52.3241 153L53.0424 154.807ZM52.7851 152.829L55.4176 151.566C55.6849 152.108 55.9322 152.615 56.1827 153.123H56.176C55.3475 153.818 54.3721 154.222 53.2562 154.67C53.0992 154.039 52.9521 153.474 52.7851 152.826V152.829ZM49.4175 156.17L45.9864 157.269C45.8662 156.631 45.766 156.08 45.6424 155.412L48.7895 154.339L49.4175 156.167V156.17ZM57.6026 152.281L56.1928 153.117C56.1093 152.515 56.029 151.9 55.9388 151.236L57.0714 150.501C57.2585 151.112 57.4155 151.64 57.6026 152.281ZM56.47 148.8C55.4811 149.478 54.4722 150.153 53.3998 150.684C52.1436 151.306 50.8141 151.777 49.5111 152.301C49.2773 152.398 49.02 152.415 48.7795 152.348C49.5145 151.536 50.2661 150.738 50.9744 149.899C51.245 149.582 51.4221 149.181 51.6426 148.82C50.677 149.883 49.6815 150.922 48.7594 152.021C48.2416 152.639 47.6535 153.056 46.8717 153.247C46.3973 153.364 45.9396 153.548 45.3817 153.738C46.1301 152.485 46.7549 151.927 47.2761 152.101C48.2516 150.073 49.9955 148.616 51.3585 146.869C51.8831 146.194 52.4577 145.954 53.2562 146.191C53.5034 146.264 53.7506 146.348 53.9978 146.428C55.2506 146.281 56.313 146.762 57.3587 147.357C57.3587 148.075 56.9211 148.486 56.4734 148.797L56.47 148.8ZM48.7327 146.148C48.3084 146.612 48.1914 147.367 47.3562 147.3C47.2059 147.287 47.0222 147.761 46.8384 147.998C46.1937 148.834 45.5421 149.665 44.894 150.497L44.6702 150.354C45.345 149.034 46.0165 147.714 46.7381 146.301L48.7293 146.151L48.7327 146.148ZM44.8072 146.485C45.2916 146.462 45.7759 146.408 46.3706 146.355C45.8327 147.604 45.011 148.416 43.8049 149.208L44.5098 147.628C43.2236 148.75 42.7993 150.581 41.0854 151.339C41.3226 150.915 41.5298 150.471 41.8004 150.07C42.492 149.047 43.2203 148.048 43.9152 147.026C44.139 146.692 44.3996 146.498 44.8072 146.488V146.485ZM42.6857 146.852C42.6456 147.531 41.9708 148.72 40.9853 149.726C41.8004 147.617 42.1145 147.1 42.6825 146.849L42.6857 146.852ZM41.4629 147.17L38.9974 149.996C39.0575 149.007 39.6623 148.199 40.2202 147.407C40.4073 147.136 40.9719 147.13 41.4596 147.166L41.4629 147.17ZM39.7057 147.551L37.0497 150.337L36.9327 150.273C37.2234 149.679 37.5108 149.084 37.7981 148.489C38.2625 147.521 38.3993 147.447 39.7023 147.551H39.7057ZM36.014 148.383C36.1877 148.038 36.3849 148.002 37.6043 147.911C37.0597 148.667 36.7557 149.395 35.9505 149.762C35.5964 149.923 35.3693 150.364 34.9784 150.611C35.3192 149.866 35.6465 149.114 36.0107 148.383H36.014ZM32.73 153.22C33.2412 151.81 33.8726 150.464 34.9717 149.395C34.327 150.724 33.8024 152.131 32.7266 153.217L32.73 153.22ZM34.0028 148.67L34.1665 148.894L31.2133 152.462L30.9895 152.325C31.5073 151.336 31.945 150.29 32.5764 149.381C32.8403 149.004 33.5151 148.897 34.0062 148.67H34.0028ZM20.5793 158.188C20.9023 158.408 21.085 158.921 21.1273 159.725C20.5861 159.247 20.6093 158.743 20.5759 158.185L20.5793 158.188ZM21.5749 158.455C21.9869 158.538 22.2097 159.058 22.2431 160.015C21.6718 159.735 21.6684 159.728 21.5749 158.455ZM20.5558 156.173C20.0447 155.873 20.0014 155.495 20.4457 155.111C21.2943 154.369 22.2197 153.715 23.1318 153.046C23.1919 153.003 23.3856 153.137 23.546 153.203C23.9268 152.585 24.4514 152.094 25.4102 151.874L22.4502 156.928C21.7587 156.661 21.1071 156.497 20.5558 156.17V156.173ZM23.4858 160.146C22.7742 160.025 22.6574 159.818 22.6307 158.642C23.4959 158.726 23.5627 158.839 23.4825 160.142L23.4858 160.146ZM23.0815 156.888C23.0949 156.771 23.0816 156.701 23.1083 156.654C24.0972 155.068 25.0761 153.474 26.0917 151.907C26.3089 151.57 26.663 151.319 27.0605 151.115C26.0282 153.143 24.3143 154.747 23.6595 157.025L23.085 156.888H23.0815ZM24.1874 160.223L23.967 158.953L24.1673 158.92C24.2475 159.341 24.3244 159.765 24.4012 160.189L24.1874 160.226V160.223ZM25.9948 154.526C26.0817 154.326 26.1552 154.122 26.2521 153.925C26.6797 153.06 27.1207 152.201 27.5349 151.333C27.7086 150.968 27.869 150.621 28.497 150.688C27.6919 152.054 26.9303 153.334 26.1686 154.613L25.9914 154.526H25.9948ZM26.7632 157.242C26.7164 157.313 26.5294 157.296 26.1753 157.366C27.0172 155.95 27.7589 154.72 28.4838 153.481C29.0551 152.498 29.6597 151.53 30.1508 150.507C30.4682 149.849 30.926 149.579 31.7211 149.528C30.034 152.148 28.4035 154.7 26.7565 157.239L26.7632 157.246V157.242ZM21.4981 163.817C21.5983 163.837 21.6383 164.111 21.7085 164.268C21.9323 164.088 22.1362 163.791 22.3801 163.754C23.1619 163.637 23.957 163.617 24.8857 163.547C23.6663 165.758 22.7976 168.013 20.7496 169.46L21.8555 168.879L21.9858 168.945C21.7386 169.35 21.5681 169.831 21.2374 170.145C20.0514 171.271 18.8154 172.343 17.5926 173.429C17.5559 173.462 17.4923 173.459 17.3654 173.492C17.5091 172.904 17.8231 172.37 18.2708 171.959C18.508 171.715 18.7319 171.458 18.9423 171.191C19.694 170.76 20.3655 170.245 20.7731 169.457L18.949 171.184L18.9724 171.157H18.4678C19.1727 169.27 20.9034 168.294 21.8589 166.684L19.9112 168.494L19.8108 168.414L21.4914 164.719C20.8633 165.818 20.135 166.871 19.6306 168.023C18.7252 170.085 16.9745 171.408 15.5413 173.115C15.5146 172.941 15.4778 172.868 15.5012 172.828C16.8509 170.145 18.2039 167.459 19.5603 164.776C19.9411 164.001 20.6461 163.64 21.4981 163.821V163.827V163.817ZM15.7852 173.816C16.2729 173.175 16.7842 172.554 17.2853 171.926L17.4856 172.086L16.4367 173.432C16.4935 173.532 16.6271 173.676 16.5971 173.733C16.3699 174.174 16.1861 174.675 15.8486 175.016C14.97 175.891 14.0312 176.71 13.0456 177.465C13.5735 176.051 14.833 175.24 15.7951 174.184C15.7818 174.05 15.7218 173.883 15.7819 173.806V173.813L15.7852 173.816ZM17.1616 174.548C18.3109 173.542 19.4033 172.47 20.5526 171.394C20.2085 172.794 17.6795 175.664 15.7217 176.85C16.0424 175.834 16.4801 175.133 17.1616 174.541V174.548ZM12.5313 172.026C12.6682 171.755 12.8352 171.505 13.0357 171.277C14.8163 169.423 16.6071 167.576 18.4011 165.735C18.4813 165.795 18.5581 165.852 18.6383 165.909C18.1338 166.72 17.7162 167.592 17.1215 168.331C14.8531 171.14 12.5311 173.91 10.226 176.693C10.1358 176.817 10.0089 176.903 9.86186 176.947C9.92533 176.763 9.9988 176.583 10.0857 176.406C10.8908 174.939 11.7027 173.482 12.5246 172.026L12.5313 172.032V172.026ZM11.3953 172.103C12.187 170.963 12.9755 169.821 13.7673 168.682C13.2161 169.978 12.6046 171.234 11.3886 172.096L11.3953 172.103ZM17.3354 164.278C18.0537 164.218 18.762 164.088 19.5404 163.978C19.2397 164.639 15.1104 168.715 14.0981 169.366C14.2919 168.989 14.4154 168.732 14.5524 168.478C15.1872 167.302 15.8386 166.132 16.4467 164.947C16.6438 164.552 16.8609 164.312 17.332 164.272V164.278H17.3354ZM10.9008 165.822C12.6046 165.361 14.3219 164.953 16.0357 164.536C16.0892 164.522 16.156 164.572 16.3364 164.636C15.8921 165.251 15.4844 165.852 15.0434 166.42C12.9688 169.086 10.8775 171.738 8.80283 174.401C8.39191 174.929 8.01776 175.48 7.49324 176.208C7.66029 175.303 8.0545 174.749 8.40529 174.187C8.79617 173.566 9.24706 172.981 9.69808 172.397C11.0277 170.673 12.2873 168.905 13.3229 166.988C13.5134 166.637 13.7707 166.326 13.9378 165.915C13.6137 166.203 13.3062 166.513 12.9621 166.774C12.7149 166.964 12.4142 167.088 12.1469 167.252C12.0133 167.325 11.893 167.415 11.7861 167.522C10.8807 168.498 9.98885 169.493 9.06677 170.459C8.47878 171.08 7.85072 171.665 7.24268 172.27L7.11234 172.176C7.21257 171.982 7.29947 171.785 7.40304 171.595C8.35852 169.871 9.3072 168.144 10.2827 166.433C10.4331 166.183 10.6536 165.882 10.9008 165.815V165.822ZM11.539 168.628L12.0434 168.017L12.1905 168.107L11.6426 168.712L11.539 168.628ZM3.33725 176.275C4.7237 173.983 6.28722 171.815 7.9376 169.564C7.64695 171.06 4.96089 174.979 3.33056 176.269V176.275H3.33725ZM0.490835 176.957L0.226894 175.4L0.433903 175.36L0.73471 176.91L0.487409 176.954L0.490835 176.957ZM1.42295 172.367C1.94078 171.297 2.59214 170.355 3.5777 169.674C4.53652 169.016 5.51873 168.398 6.58446 167.703C6.63123 167.94 6.65129 168.057 6.67467 168.17C6.19359 168.575 5.78942 169.036 5.66915 169.687C6.01326 169.176 6.35732 168.661 6.70142 168.147C7.51659 167.014 8.77609 166.647 10.1191 166.326C9.20037 167.399 8.27821 168.471 7.35948 169.54C6.93185 170.041 6.50771 170.546 6.08676 171.047L5.92298 171.652L2.48866 176.823L1.87726 175.955C2.17793 175.3 2.43173 174.739 2.68229 174.177L1.69015 175.417C1.11218 174.394 0.898431 173.432 1.42295 172.357V172.367ZM1.97073 179.77C1.60769 179.387 1.60769 179.027 1.97073 178.691V179.77ZM2.94623 179.185C2.846 179.583 2.81607 180 2.74591 180.488C2.2548 179.964 2.21465 179.71 2.35163 178.266C2.81935 178.41 3.08996 178.617 2.94297 179.175V179.185H2.94623ZM3.66464 181.236C2.99647 180.872 2.97977 180.348 3.66464 179.078V181.236ZM3.07657 177.311L4.38616 175.921C4.46634 176.165 4.51308 176.315 4.60997 176.626C5.74252 173.947 7.9576 172.323 9.88861 170.222C9.65141 171.301 6.1936 176.432 4.51649 178.297L3.07331 177.311H3.07657ZM4.73704 181.791H4.53656V179.83L4.78043 179.803C5.21475 180.468 4.75366 181.123 4.73362 181.781V181.791H4.73704ZM5.11109 178.674L6.85183 176.315C6.86519 177.511 6.28054 178.206 5.76605 178.995L5.11109 178.674ZM6.13015 181.704V180.675C6.68807 181.049 6.44077 181.387 6.12673 181.697V181.704H6.13015ZM6.08007 179.255C7.56007 177.151 9.24045 175.35 11.0245 173.603L7.57677 180.067L6.08007 179.255ZM8.08116 180.194L15.3475 171.307L15.4478 171.354C15.3376 171.608 15.2339 171.859 15.117 172.113C15.0335 172.293 14.9165 172.46 14.8397 172.647C13.6203 175.52 11.6024 177.845 9.62793 180.194C9.13348 180.775 9.12024 180.765 8.07789 180.187V180.197L8.08116 180.194ZM10.6804 180.779C10.5702 180.882 10.4532 180.976 10.3295 181.066C10.2895 180.996 10.246 180.929 10.2059 180.866L10.6436 180.605C10.6536 180.655 10.7004 180.749 10.677 180.769V180.779H10.6804ZM10.9977 181.13C11.716 178.951 13.6737 177.886 15.2105 176.432C15.1871 176.773 15.097 177.111 14.9433 177.415C14.7896 177.722 14.5724 177.993 14.3118 178.213C13.5301 178.895 12.7651 179.596 12.0101 180.304C11.7662 180.535 11.4121 180.769 11.7729 181.363L14.0079 179.078L14.1314 179.158C14.0412 179.346 13.9778 179.563 13.8508 179.72C13.5869 180.064 13.2896 180.385 13.0056 180.712C12.4644 181.327 11.7951 181.463 10.9977 181.12V181.13ZM12.6849 181.591L13.5034 180.695C13.5167 181.32 13.5034 181.718 12.6783 181.584L12.6849 181.594V181.591ZM14.6726 185.122L14.6059 185.145V183.385H14.6726V185.122ZM14.9934 184.003V183.097C15.4344 183.505 15.2038 183.749 14.9934 183.996V184.006V184.003ZM15.6181 181.988L14.5023 181.858L16.2863 180.341L15.6181 181.991V181.988ZM16.4132 179.015C15.6649 179.723 15.0335 180.558 14.3453 181.33C14.1983 181.494 14.0246 181.631 13.7507 181.898C13.6939 180.942 13.9945 180.218 14.4622 179.666C15.7986 178.093 17.2251 176.596 18.6182 175.069L18.7585 175.226C18.1004 176.553 17.5358 177.932 16.41 179.001V179.015H16.4132ZM18.5548 177.705C20.282 176.028 21.9591 174.301 23.6629 172.597C23.9001 172.35 24.1708 172.139 24.4681 171.972C24.0338 173.021 23.8033 174.137 22.938 174.992C21.0604 176.85 19.2362 178.764 17.3887 180.652C17.1682 180.876 16.9312 181.086 16.7006 181.307C17.1717 180.007 17.529 178.691 18.5513 177.699V177.705H18.5548ZM30.8157 167.88C30.7623 168.1 30.6987 168.317 30.6252 168.535C29.8201 170.365 28.6207 171.865 27.1942 173.282C24.5114 175.945 21.9891 178.768 19.4066 181.534C18.6248 182.369 18.2941 182.446 16.9845 181.985C19.2563 179.609 21.6784 177.425 23.9168 175.053C26.1551 172.681 28.4136 170.362 30.8123 167.873V167.883L30.8157 167.88ZM17.3554 185.827L16.8643 185.803C16.9879 185.008 17.1047 184.253 17.2217 183.498L17.3554 183.485V185.827ZM17.8598 185.937V183.411C18.6349 183.612 18.1103 184.173 18.2172 184.524C18.3509 184.962 18.4279 185.419 18.5448 185.934H17.8598V185.937ZM18.7719 186.001C18.8287 185.152 18.8821 184.367 18.9389 183.512L19.5303 183.441C19.6606 184.283 19.7842 185.092 19.9245 185.997H18.7719V186.001ZM20.5558 186.037V183.558H21.4847C21.5281 184.374 21.5716 185.152 21.6217 186.037H20.5593H20.5558ZM20.2386 182.316C19.978 182.269 19.7107 182.255 19.4334 182.225C19.7942 181.504 27.0472 174.04 28.3701 173.045C27.8657 174.227 27.5584 175.31 26.7165 176.198C25.0628 177.942 23.4658 179.74 21.9256 181.591C21.4379 182.182 20.9669 182.449 20.2386 182.319V182.316ZM22.1427 185.994V183.568H22.978C23.0481 184.364 23.1184 185.139 23.1952 185.994H22.1395H22.1427ZM21.7687 182.239C25.7243 177.565 30.0105 173.375 34.5941 169.46C33.9794 170.633 33.3781 171.812 32.7333 172.968C32.5763 173.245 32.2856 173.456 32.0384 173.679C30.1575 175.39 28.2498 177.06 26.4023 178.801C25.36 179.783 24.4012 180.859 23.429 181.918C22.988 182.399 22.5003 182.463 21.772 182.239H21.7687ZM23.8332 186.011C23.7764 185.162 23.733 184.4 23.6729 183.532L24.6184 183.475C24.7787 184.273 24.9324 185.035 25.1061 185.91L23.8332 186.014V186.011ZM26.7064 185.77L25.4503 185.854C25.3668 185.035 25.29 184.293 25.2064 183.461L26.7064 183.378V185.77ZM27.1976 185.717C26.7566 184.116 27.3079 182.974 29.2355 183.147L29.4559 185.403L27.1976 185.717ZM29.7132 185.342C29.6731 184.517 29.6363 183.796 29.6029 183.081L34.9182 181.811C35.0519 182.302 35.1722 182.74 35.2924 183.181L35.4694 183.147C35.4093 182.67 35.3491 182.195 35.2757 181.637L38.5765 180.385C38.6935 181.123 38.797 181.771 38.9106 182.493C35.9473 183.796 32.9538 184.858 29.7132 185.346V185.342ZM40.8582 181.4C40.3303 181.731 39.7791 182.028 39.1377 182.392C39.0308 181.607 38.944 180.969 38.8504 180.271L41.0252 179.165C41.0586 179.89 41.1021 180.445 41.0988 180.996C41.0888 181.076 41.0654 181.153 41.022 181.223C40.9819 181.293 40.925 181.353 40.8582 181.4ZM43.5677 179.152C43.1735 179.506 42.8494 179.937 42.4619 180.291C42.1545 180.568 41.7904 180.785 41.2492 181.173C41.2492 180.415 41.2091 179.89 41.2659 179.379C41.2926 179.158 41.4797 178.911 41.6701 178.764C42.1645 178.377 42.6958 178.036 43.3506 177.582C43.374 177.986 43.3873 178.243 43.4007 178.504C43.7515 178.069 43.3906 177.324 44.0287 176.987C44.4764 178.136 44.4062 178.39 43.571 179.148L43.5677 179.152ZM44.864 177.418C44.4597 176.977 44.4597 176.643 44.864 176.312V177.418ZM44.7002 174.642C43.7881 175.844 42.669 176.873 41.3928 177.678C38.8504 179.275 36.0841 180.324 33.1742 181.026C32.2355 181.253 31.3 181.497 30.3546 181.731C30.1508 181.768 29.9437 181.791 29.7332 181.804C29.6597 181.34 30.0173 181.206 30.2244 180.983C30.3948 180.902 30.5985 180.859 30.7288 180.739C34.0496 177.638 37.3805 174.551 40.6646 171.414C41.4998 170.609 42.1746 169.647 42.9263 168.755L40.4673 170.93C39.8326 171.054 39.4017 171.444 39.071 171.969C38.8471 172.086 38.6332 172.22 38.4294 172.373C35.2623 175.113 32.1688 177.929 29.4026 181.076C28.7745 181.794 28.0929 182.149 27.1775 182.169C26.82 182.179 26.4658 182.199 25.8444 182.229C30.2143 177.692 34.8347 173.763 39.0876 169.433C38.8671 169.604 38.6365 169.761 38.4294 169.938C36.4416 171.678 34.4639 173.432 32.4694 175.169C32.2823 175.333 32.0384 175.43 31.8213 175.554C31.7578 175.58 31.6709 175.587 31.6408 175.634C30.4682 177.361 28.7511 178.574 27.3981 180.127C26.9604 180.632 26.4491 181.086 26.0883 181.637C25.7676 182.122 25.3902 182.302 24.8456 182.292C24.4881 182.285 24.1306 182.329 23.7264 182.262C26.2253 179.526 28.9849 177.104 31.8079 174.458V175.413C32.5061 173.723 33.7723 172.497 35.1287 171.344C35.4494 171.097 35.6999 170.773 35.867 170.405L33.6287 172.263C33.7122 171.936 33.7188 171.758 33.799 171.611C34.3369 170.603 34.8448 169.587 35.4528 168.631C35.7869 168.107 36.2913 167.686 36.7356 167.235C37.18 166.787 37.6511 166.356 38.1121 165.919C37.2903 166.477 36.2613 166.741 35.6833 167.656C35.543 167.876 35.3124 168.037 35.1153 168.221C32.927 170.245 30.7389 172.266 28.5473 174.291C28.4304 174.401 28.29 174.485 28.1329 174.528C28.5873 173.309 29.015 172.119 30.0239 171.197C31.3102 170.025 32.4928 168.742 33.7189 167.502C33.9094 167.315 34.0596 167.091 34.1665 166.847C32.7433 167.77 31.6041 169.036 30.2844 170.095C30.9326 168.117 31.955 166.393 33.4817 164.987C32.6231 165.334 32.0585 166.022 31.4237 166.66C30.0306 168.06 28.554 169.376 27.1207 170.743C26.2755 171.548 25.4502 172.373 24.5348 173.138C24.9391 172.146 25.1963 171.114 25.9681 170.295C27.3178 168.855 28.6208 167.369 29.9471 165.902L29.8101 165.755L26.8801 168.484L26.6997 168.384L27.8157 165.882L27.6251 165.795C27.0973 166.781 26.5928 167.78 26.0315 168.748C25.7275 169.3 25.3533 169.814 24.9257 170.278C23.2152 172.026 21.4646 173.736 19.7241 175.457C19.5904 175.594 19.4267 175.704 19.2497 175.781C19.7174 174.755 20.0748 173.71 20.8599 172.844C22.5905 170.943 24.2409 168.969 25.918 167.024C25.9514 166.988 25.9448 166.914 25.8112 166.724L21.9992 170.833L21.8153 170.669C21.8989 169.744 22.7809 169.36 23.2887 168.672H22.7576L25.2464 163.563C28.016 163.487 30.7121 163.553 33.3881 164.041C33.642 164.088 33.9494 164.088 33.9628 164.469C34.2835 164.168 34.6543 164.268 34.9951 164.375C35.9739 164.686 36.9428 165.017 37.9049 165.371C38.0486 165.424 38.1222 165.658 38.2291 165.812C38.4195 165.785 38.6399 165.681 38.7969 165.745C40.2001 166.296 41.5966 166.881 42.7325 167.913C42.9063 168.07 42.9663 168.347 43.0766 168.568C44.2425 169.203 45.0811 170.051 45.1212 171.488C45.1312 171.829 45.3851 172.163 45.4018 172.507C45.4486 173.309 45.178 174.02 44.6902 174.655L44.7002 174.642ZM39.0643 171.992L39.6522 171.879L38.2591 173.095C38.5297 172.727 38.7969 172.36 39.0675 171.989L39.0643 171.992ZM30.6153 180.491C30.7756 180.244 30.8958 179.957 31.0996 179.756C33.0506 177.849 35.0118 175.951 36.9829 174.067C37.1333 173.92 37.3872 173.873 37.5877 173.78C35.4996 175.781 33.4116 177.785 31.3236 179.787C31.083 180.014 30.8524 180.254 30.6185 180.488L30.6153 180.491ZM45.6256 170.973C45.2915 170.252 44.9742 169.574 44.6335 168.839L46.384 168.528L47.0489 170.873C46.7181 170.927 46.4609 170.983 46.2003 171.003C46.0099 171.003 45.8195 170.993 45.629 170.973H45.6256ZM46.0298 176.145V173.653C48.8495 174.478 51.6358 174.475 54.4555 174.371L54.833 176.072C54.1815 176.272 47.5366 176.325 46.0266 176.145H46.0298ZM55.1738 176.182C55.0836 175.621 55.0001 175.076 54.8932 174.388L56.293 174.277C56.4199 174.909 56.5402 175.507 56.6772 176.185H55.1738V176.182ZM57.5625 176.215C57.4088 176.202 57.2552 176.178 57.1049 176.148C57.0581 175.557 57.0114 174.972 56.9579 174.304L57.9401 174.161C57.9802 174.842 58.0169 175.453 58.0603 176.158C57.8966 176.185 57.7295 176.205 57.5625 176.215ZM58.6985 176.178V174.181C59.3165 174.147 59.1193 174.638 59.1895 174.936C59.273 175.286 59.3298 175.641 59.4133 176.075L58.695 176.178H58.6985ZM59.8242 175.206C59.8042 174.886 59.8008 174.561 59.8175 174.237L59.958 174.214C60.0047 174.809 60.0581 175.403 60.1149 176.135C59.6372 175.814 59.8543 175.47 59.8242 175.203V175.206ZM60.5692 174.054L60.8566 174.027C60.9034 174.652 60.9502 175.273 60.9969 175.898C60.5125 175.34 60.6494 174.678 60.5692 174.05V174.054ZM61.8488 175.774L61.6116 174.007C62.1328 174.538 61.9558 175.159 62.0594 175.744L61.8488 175.771V175.774ZM63.0181 175.721C62.9045 175.109 62.7909 174.498 62.6773 173.887L63.0148 173.836C63.0816 174.455 63.1485 175.073 63.2153 175.691L63.0181 175.721ZM64.0672 174.872C64.017 174.508 63.967 174.144 63.8835 173.563C64.4447 174.08 64.1574 174.505 64.2877 174.862L64.0704 174.869L64.0672 174.872ZM65.7076 175.627C65.5639 175.527 65.3233 175.44 65.2932 175.31C65.1696 174.795 65.1094 174.261 65.0092 173.613L65.6975 173.542C65.7643 174.224 65.8311 174.862 65.8979 175.497L65.7041 175.627H65.7076ZM67.291 175.393C66.6129 174.889 66.82 174.12 66.5093 173.472C66.6964 173.432 66.8501 173.372 66.8702 173.399C67.2911 173.99 67.3913 174.668 67.291 175.387V175.393ZM68.1897 174.257C68.2632 174.558 68.3401 174.849 68.467 175.357C67.9759 174.936 68.0995 174.592 68.1897 174.254V174.261V174.257ZM66.6229 171.849C63.8399 172.203 61.0471 172.49 58.2474 172.654C55.0068 172.848 51.7562 172.898 48.5089 172.968C47.7772 172.985 47.0422 172.838 46.3106 172.751C46.2003 172.737 46.1001 172.637 46.0099 172.58C46.1168 172.096 46.481 172.21 46.7482 172.163C50.5501 171.561 54.3653 171.013 58.1572 170.352C65.3768 169.082 72.2255 166.764 78.523 162.945C79.091 162.601 79.5955 162.154 80.1434 161.776C80.7948 161.328 81.0085 160.704 80.9484 159.949C80.9217 159.618 80.9151 159.287 80.8951 158.843C81.7436 158.769 82.5654 158.642 83.3839 158.642C85.7926 158.636 88.2015 158.662 90.6103 158.719C91.0981 158.733 91.5957 158.913 92.0567 159.1C93.3129 159.618 93.5 160.466 92.6681 161.522C90.8407 163.854 88.3752 165.347 85.8228 166.684C83.6179 167.823 81.2758 168.672 78.8537 169.206C76.9327 169.637 75.0586 170.285 73.1343 170.699C70.9761 171.164 68.8045 171.561 66.6263 171.839L66.6229 171.849ZM87.5835 167.278L91.7494 164.833C91.8931 165.448 92.0234 165.992 92.1771 166.644C91.0011 167.713 89.5879 168.471 88.0244 169.25C87.864 168.545 87.7304 167.943 87.58 167.275L87.5835 167.278ZM87.7505 169.4L84.7804 170.806L84.2292 168.658L87.1691 167.405L87.7471 169.4H87.7505ZM69.152 172.924C69.289 173.73 69.4059 174.398 69.5228 175.073C68.868 173.72 68.8513 173.603 69.152 172.924ZM70.2945 174.314C70.201 174.067 70.1308 173.813 70.0941 173.553C70.0607 173.302 69.7933 172.968 70.4247 172.771C70.5383 173.549 70.6387 174.244 70.7456 174.976C70.1108 174.952 70.3713 174.538 70.2911 174.314H70.2978H70.2945ZM71.7043 174.875C71.5172 174.197 71.3368 173.542 71.1397 172.831L71.8247 172.53L72.3358 174.742L71.701 174.872L71.7043 174.875ZM73.1509 174.658C72.907 173.917 72.6865 173.232 72.4225 172.42L73.6488 172.062C73.8492 172.894 74.0196 173.593 74.2134 174.398L73.1509 174.658ZM75.1254 174.231C74.8949 173.436 74.6776 172.687 74.4404 171.869L75.7634 171.508C75.9572 172.336 76.1344 173.091 76.3281 173.917L75.1287 174.231H75.1254ZM76.9829 173.75C76.9161 172.901 76.856 172.103 76.7825 171.207L78.1221 170.803C78.249 171.221 78.3694 171.585 78.4729 171.956C78.5765 172.326 78.6633 172.714 78.7902 173.222L76.9829 173.746V173.75ZM79.4184 173.011C79.1812 172.206 78.964 171.471 78.7134 170.639L80.8282 169.894C81.042 170.709 81.2324 171.441 81.4428 172.253L79.4184 173.015V173.011ZM81.2825 169.764L83.6312 168.879L84.3661 170.97L82.0143 172.036L81.2825 169.764ZM95.578 189.632L92.0168 188.653C91.98 188.015 91.9499 187.491 91.9165 186.963L91.7863 186.953V188.369C90.7172 188.563 90.5935 187.795 90.3563 187.163V187.932C90.0656 187.838 89.8051 187.795 89.588 187.678C87.667 186.665 85.7159 185.707 83.8483 184.597C82.5554 183.829 81.8272 182.586 81.7303 181.043C81.7002 180.585 81.65 180.127 81.5999 179.533C82.0309 180.037 82.3282 180.485 82.7224 180.822C83.4808 181.474 84.2493 182.132 85.0979 182.656C86.2839 183.391 87.5099 184.056 88.7694 184.647C89.6581 185.065 90.0891 185.707 90.2093 186.635C90.2494 186.826 90.3062 187.013 90.3764 187.193C90.343 186.635 90.313 186.077 90.2762 185.439L93.5135 186.578C93.6237 187.29 93.7272 187.968 93.8307 188.646L94.0413 188.626L93.9009 186.662L95.7785 187.166C95.7017 188.012 95.6416 188.763 95.5681 189.629H95.578V189.632ZM96.9879 189.863L96.0925 189.702C95.7751 188.426 96.0425 187.651 96.9879 187.287V189.863ZM98.037 190.113C97.8065 189.936 97.5325 189.829 97.5225 189.699C97.4623 189.071 97.4457 188.443 97.4724 187.811C97.4791 187.674 97.7363 187.551 98.037 187.273V190.11V190.113ZM98.9657 189.983L98.7285 189.996C98.6483 189.315 98.5514 188.633 98.4913 187.948C98.4612 187.614 98.675 187.567 98.9657 187.671V189.983ZM100.021 190.167C99.7608 189.351 99.6438 188.496 99.6772 187.638C99.8777 187.738 100.125 187.798 100.128 187.868C100.165 188.636 100.125 189.405 100.011 190.167H100.025H100.021ZM101.388 190.193C101.017 188.683 101.04 188.272 101.575 187.711C101.491 188.653 101.435 189.425 101.374 190.193H101.388ZM102.697 190.3C102.327 189.949 102.16 188.339 102.317 187.958C102.343 187.891 102.537 187.891 102.697 187.848V190.3ZM103.817 188.944L103.663 188.961C103.609 188.62 103.556 188.276 103.503 187.932L103.813 187.918V188.944H103.817ZM106.055 188.429L105.918 188.389C105.938 188.222 105.958 188.058 105.981 187.891L106.232 187.962L106.058 188.429H106.055ZM107.221 190.04H107.191V189.174L107.281 189.181C107.244 189.468 107.224 189.759 107.204 190.043H107.221V190.04ZM106.566 186.619C106.436 186.605 106.305 186.599 105.928 186.568L114.344 172.64L114.504 172.721C114.37 173.008 114.237 173.295 114.1 173.586C113.575 174.705 112.96 175.791 112.54 176.947C111.758 179.095 110.712 181.099 109.563 183.064C109.058 183.929 108.531 184.791 108.123 185.703C107.779 186.438 107.301 186.709 106.546 186.619H106.563H106.566ZM108.681 186.371L109.366 185.245C109.79 185.9 109.576 186.274 108.658 186.371H108.677H108.681ZM109.737 190.464C109.67 189.592 109.62 188.864 109.56 188.132C109.529 187.775 109.676 187.631 110.044 187.714C110.094 188.506 110.158 189.301 110.178 190.096C110.161 190.193 109.924 190.297 109.717 190.461H109.737V190.464ZM111.454 190.327C111.049 189.689 110.933 188.907 110.993 187.644L111.454 187.584V190.327ZM112.219 190.053V187.521L112.68 187.457C112.747 188.306 112.807 189.114 112.874 189.993L112.219 190.053ZM113.438 189.919V187.327L114.307 187.227C114.437 188.062 114.554 188.837 114.698 189.752L113.442 189.923L113.438 189.919ZM115.814 189.579H115.119V187.11L115.814 186.926V189.579ZM116.619 189.498C116.675 188.526 116.726 187.641 116.779 186.722L117.698 186.502C117.851 187.407 117.999 188.252 118.159 189.188L116.619 189.498ZM125.031 185.543C123.554 186.558 122.071 187.554 120.401 188.249C119.823 188.486 119.258 188.757 118.643 189.034C118.476 188.095 118.326 187.25 118.166 186.338L119.278 185.994C119.378 186.659 119.472 187.233 119.559 187.811H119.796C119.796 187.517 119.806 187.223 119.796 186.929C119.783 186.599 119.749 186.268 119.722 185.86L120.882 185.372C120.982 186.091 121.075 186.719 121.169 187.35L121.329 187.33V185.175L122.986 184.357C123.03 184.835 123.063 185.209 123.097 185.6C123.14 185.573 123.207 185.546 123.207 185.526C123.08 184.477 123.588 183.849 124.516 183.465C124.847 183.331 125.148 183.114 125.512 182.907C125.512 183.618 125.492 184.183 125.519 184.744C125.532 185.139 125.305 185.346 125.018 185.543H125.034H125.031ZM125.88 184.788C125.856 184.09 125.819 183.451 125.823 182.813C125.823 182.676 125.956 182.519 126.063 182.399C126.895 181.464 127.734 180.538 128.619 179.556C128.803 181.818 127.991 183.562 125.863 184.784H125.88V184.788ZM120.063 169.243C120.297 169.173 120.558 168.996 120.758 169.042C122.358 169.467 123.918 170.011 125.312 170.933C125.612 171.134 125.976 171.301 125.796 171.779C125.997 171.591 126.2 171.551 126.401 171.779C127.086 172.594 127.877 173.349 128.429 174.247C129.224 175.557 128.973 177.548 128.068 178.798C127.273 179.893 126.357 180.879 125.175 181.55C123.491 182.513 121.764 183.395 120.046 184.297C119.759 184.447 119.432 184.521 118.894 184.714L126.217 174.147L126.093 174.02C125.91 174.167 125.736 174.328 125.579 174.505C124.938 175.32 124.269 176.122 123.688 176.977C122.078 179.326 120.484 181.684 118.941 184.073C118.536 184.688 118.085 185.068 117.38 185.185C117.03 185.245 116.675 185.326 116.138 185.436C116.472 184.992 116.696 184.701 116.906 184.407C119.632 180.592 122.355 176.773 125.074 172.954C125.305 172.63 125.482 172.266 125.686 171.922C125.405 172.199 125.081 172.447 124.851 172.764C122.001 176.733 119.148 180.699 116.345 184.698C115.927 185.296 115.513 185.693 114.785 185.763C114.233 185.817 113.689 185.917 112.914 186.027C115.733 181.955 118.854 178.367 121.232 174.241C118.857 177.395 116.485 180.545 114.113 183.699L113.923 183.578C115.857 179.219 117.838 174.886 120.467 170.826C120.317 170.943 120.173 171.07 120.043 171.207C118.129 173.626 116.565 176.299 115.393 179.152C114.678 180.882 114.026 182.64 113.341 184.384C113.221 184.694 113.081 184.998 112.947 185.302C112.68 185.907 112.266 186.244 111.557 186.234C110.966 186.228 110.375 186.328 109.593 186.395C109.987 185.72 110.284 185.172 110.619 184.647C112.84 181.14 115.075 177.645 117.284 174.134C117.995 173.001 118.647 171.829 119.305 170.663C119.465 170.379 119.552 170.048 119.672 169.741C119.462 169.995 119.221 170.232 119.044 170.509C116.385 174.718 113.732 178.931 111.086 183.151C110.732 183.712 110.405 184.293 109.94 184.828C109.974 184.634 110.027 184.447 110.094 184.263C110.458 183.478 110.799 182.673 111.227 181.921C113.074 178.667 114.952 175.427 116.809 172.183C117.487 170.993 118.146 169.797 118.85 168.541C119.255 168.685 119.933 168.404 120.053 169.236H120.07L120.063 169.243ZM118.553 168.414L114.487 174.538L114.357 174.488C114.394 174.298 114.451 174.107 114.527 173.927C115.266 172.507 116.021 171.09 116.756 169.67C116.903 169.383 117.006 169.079 117.13 168.778L117.808 168.221L118.553 168.411V168.414ZM115.379 170.92C115.523 170.693 115.663 170.466 115.807 170.238L115.927 170.305C115.8 170.542 115.67 170.776 115.543 171.01L115.379 170.923V170.92ZM114.591 167.522C115.503 167.659 116.402 167.866 117.37 168.06L117.103 168.798C116.498 169.31 115.817 169.754 115.329 170.355C114.28 171.615 113.305 172.934 112.409 174.304C110.395 177.461 108.454 180.665 106.506 183.862C105.968 184.748 105.51 185.673 105.009 186.595H102.664L108.427 177.428L108.591 177.511L106.092 182.737L106.215 182.803C106.332 182.61 106.459 182.422 106.563 182.222C108.855 177.839 111.143 173.452 113.428 169.066C113.635 168.665 113.759 168.221 113.919 167.793C114.13 167.689 114.37 167.489 114.574 167.519H114.591V167.522ZM95.5145 167.379C96.1359 167.258 96.7774 167.242 97.3954 167.108C99.9679 166.55 102.58 166.604 105.19 166.57C105.41 166.57 105.631 166.734 105.851 166.824C106.065 166.747 106.279 166.6 106.486 166.607C108.838 166.67 111.183 166.837 113.498 167.295C113.812 167.359 113.986 167.462 113.903 167.8C113.729 167.98 113.525 168.134 113.412 168.344C111.808 171.294 109.677 173.897 107.899 176.733C105.871 179.964 103.91 183.238 101.876 186.568H100.87C104.481 180.765 108.049 175.069 111.187 169.129L110.949 168.979C110.325 169.864 109.673 170.733 109.082 171.642C108.37 172.737 107.729 173.877 107.027 174.976C106.77 175.38 106.65 175.915 106.038 176.025C105.908 176.048 105.808 176.335 105.738 176.516C104.752 178.874 103.382 181.023 102.076 183.204C101.441 184.263 100.84 185.339 100.175 186.495L98.5647 186.388C98.7718 186.021 98.9089 185.743 99.076 185.483C100.623 183.134 102.173 180.789 103.73 178.444C105.768 175.367 107.278 171.996 109.018 168.755C109.062 168.675 109.055 168.571 109.119 168.264C108.871 168.588 108.738 168.738 108.631 168.909C105.096 174.478 101.562 180.044 98.0269 185.613C97.8732 185.857 97.8097 186.274 97.1716 186.137C98.8554 183.137 100.616 180.274 102.327 177.384C104.037 174.495 105.517 171.468 107.121 168.515L106.947 168.414C106.777 168.682 106.603 168.945 106.442 169.219C104.602 172.333 102.771 175.45 100.92 178.554C100.379 179.459 99.8576 180.365 99.1694 181.2C98.5246 181.978 98.1438 182.977 97.6594 183.886C97.2985 184.567 96.9679 185.259 96.577 186.034L95.1671 185.773C95.2473 185.563 95.3342 185.359 95.4345 185.159C97.733 181.27 100.031 177.378 102.337 173.489C102.537 173.152 102.821 172.868 103.065 172.557C103.205 172.377 103.376 172.206 103.469 172.006C104.194 170.499 104.909 168.986 105.614 167.472C105.687 167.288 105.748 167.098 105.798 166.908C105.069 168.023 104.301 169.119 103.62 170.262C101.05 174.571 98.498 178.888 95.9623 183.218C95.5247 183.963 95.1504 184.748 94.686 185.633L93.0057 185.182C96.4534 179.593 100.112 174.254 102.731 168.317C100.172 172.38 97.8565 176.596 95.1103 180.558C95.3308 179.766 95.5513 178.975 95.7718 178.183C95.4778 178.878 95.1672 179.563 94.9066 180.268C94.7061 180.829 94.6593 181.454 94.4087 181.988C93.9276 183.01 93.3497 183.989 92.745 185.105L90.5201 184.267C90.7306 183.849 90.8841 183.495 91.0812 183.161C92.6381 180.555 94.2016 177.952 95.7584 175.343C95.9155 175.049 96.0591 174.749 96.1827 174.438C96.0057 174.625 95.8053 174.799 95.6716 175.016C93.9043 177.896 92.1437 180.779 90.3897 183.669C90.3229 183.779 90.2361 183.879 90.1092 184.053C87.7772 182.877 85.3416 181.898 83.4474 180.054C82.7424 179.366 82.2181 178.477 81.6668 177.638C81.4898 177.388 81.3795 177.101 81.3394 176.8C81.2993 176.499 81.3393 176.192 81.4428 175.904C81.7435 175.133 82.0476 174.351 82.4552 173.633C82.6323 173.322 83.0399 173.098 83.3873 172.928C85.1079 172.106 86.8718 171.371 88.5689 170.502C89.8785 169.834 91.1414 169.076 92.3541 168.241C93.3196 167.599 94.4221 167.596 95.4945 167.389H95.5113L95.5145 167.379ZM92.5112 166.29C91.9232 165.13 91.9532 164.145 93.0424 163.353C93.3297 163.142 93.5468 162.828 93.8007 162.564C93.8141 162.551 93.8609 162.564 93.8909 162.564C94.2351 164.305 93.8842 165.267 92.4944 166.29H92.5112ZM188.146 155.739C188.11 157.62 187.846 157.941 185.931 158.054C184.124 158.165 182.313 158.198 180.506 158.231C161.83 158.555 143.158 158.318 124.483 158.188C114.591 158.118 104.702 157.991 94.8129 157.927C93.8073 157.921 92.8586 157.864 91.8797 157.536C90.9744 157.236 89.9654 157.146 89.0066 157.166C86.7916 157.209 84.5899 157.359 82.3816 157.496C81.8204 157.53 81.2625 157.673 80.5776 157.79C80.4774 157.349 80.3438 156.995 80.3337 156.641C80.2936 155.141 79.4719 154.159 78.1589 153.684C77.0397 153.28 75.8336 153.096 74.6543 152.866C74.0663 152.752 73.4549 152.756 72.8035 152.702C72.6665 152.422 72.7032 152.004 72.1987 151.967C71.0929 151.894 70.0006 151.733 68.9014 151.647C68.6576 151.627 68.3969 151.753 67.9426 151.864C69.0918 152.635 70.2377 152.338 71.2834 152.652L67.4214 153.053C67.3445 152.943 67.2777 152.823 67.2209 152.702C66.8167 151.576 65.8846 150.995 64.889 150.531C63.1785 149.726 61.371 149.241 59.3431 149.198C59.2529 148.687 59.0826 148.172 59.0859 147.658C59.0859 146.692 58.6049 146.087 57.8231 145.646C56.7541 145.042 55.5715 144.805 54.3754 144.627C53.6805 144.527 52.9823 144.464 52.2606 144.38C51.5524 142.149 51.1882 139.823 51.1781 137.485C50.9777 114.44 50.7706 91.3943 50.5635 68.3491V67.0495C50.8641 67.4137 51.0112 67.6208 51.1882 67.7912C51.4989 68.0919 51.8029 68.4093 52.1571 68.6498C52.2539 68.6999 52.3608 68.7267 52.4711 68.73C52.5813 68.73 52.6882 68.71 52.7851 68.6632C53.0724 68.4961 53.0056 68.1888 52.8252 67.9583C52.3475 67.3536 51.9099 66.7021 51.3419 66.201C50.7539 65.6865 50.5133 65.1519 50.5233 64.3802C50.5534 62.369 50.5067 60.3612 50.4933 58.35C50.4933 58.0326 50.4933 57.7152 50.6871 57.3544C50.8441 57.6317 51.0111 57.9023 51.1514 58.1829C52.6414 61.2264 55.0102 63.3679 58.0303 64.8245C60.0883 65.8168 62.2631 66.4749 64.4647 67.0562C64.7821 67.1398 65.1028 67.2166 65.4035 67.2901C65.614 68.4494 64.9492 69.6153 65.6608 70.6844C66.0683 69.926 66.065 69.926 65.9614 69.1509C65.8946 68.5997 65.8612 68.0451 65.801 67.3736L69.3124 67.8046C69.3792 68.7734 69.4425 69.6988 69.506 70.6209L69.6063 70.6309C69.7132 69.7322 69.82 68.8336 69.937 67.8647L72.8837 68.1119C72.9238 69.7289 72.9638 71.3125 73.0039 72.896H73.2044C73.2645 71.3626 73.3246 69.8291 73.3881 68.2556H76.4216C76.6054 69.8559 76.0374 71.4261 76.4918 72.9428L76.7156 72.9495C76.8058 71.4394 76.896 69.9294 76.9862 68.3892H79.1912C79.2914 70.2668 78.8537 72.0575 79.2346 73.8382C79.2413 73.8749 79.3482 73.8916 79.552 73.9818V68.4995H81.6735V72.896C82.3918 71.4929 81.9474 69.9928 82.1679 68.5295H83.6513C83.845 70.2868 83.1333 72.0308 83.865 73.9117C84.5365 72.0742 83.9218 70.3336 84.1891 68.5997H85.5789C85.7226 70.3369 85.8696 72.0575 86.0099 73.778H86.0801V68.6799H88.1113C88.2283 70.3236 88.3417 71.9639 88.4586 73.601H88.5456V68.7434H90.7806V71.2924C90.7806 71.8303 90.7439 72.3648 90.764 72.9027C90.7807 73.2168 90.8775 73.5208 91.0445 73.7847C91.2951 72.1477 91.0912 70.524 91.0612 68.7801C92.0267 68.6966 92.9723 68.8068 94.048 68.8737C93.9979 69.7089 93.9644 70.5006 93.8942 71.2891C93.8241 72.0775 93.9277 72.7991 94.4756 73.5842C94.8397 71.974 94.4689 70.4773 94.6426 68.8737C95.6816 68.8302 96.7206 68.8469 97.7562 68.9304C98.0903 70.6309 97.4891 72.3982 98.2174 74.0386C98.6751 72.3749 97.9568 70.7044 98.234 69.0307H102.153C102.383 70.4338 101.906 71.8103 102.567 73.1132C103.115 71.8036 102.527 70.4973 102.691 69.2178C103.409 69.0006 105.885 69.0039 107.184 69.2278C107.244 69.6387 107.304 70.0597 107.365 70.4839C107.408 70.8982 107.508 71.3025 107.659 71.69C107.765 70.9082 107.869 70.1231 107.993 69.1977C111.524 69.2278 115.085 69.2746 118.69 69.4115V72.5118L118.924 72.5219C119.245 71.5664 119.241 70.5741 119.108 69.5351H126.137C126.16 71.5129 126.184 73.3938 126.21 75.2714L126.474 75.2781C126.745 74.3727 126.575 73.4339 126.601 72.5085C126.628 71.5864 126.608 70.6476 126.608 69.6755H134.673C134.766 70.3136 134.846 70.8615 134.947 71.563C135.01 70.9049 135.06 70.3871 135.117 69.7857C135.441 69.7657 135.732 69.7256 136.022 69.7289C143.095 69.8692 150.168 70.0162 157.24 70.1632C163.812 70.2935 170.38 70.4138 176.951 70.5307C179.53 70.5775 182.113 70.6009 184.692 70.6209C185.918 70.6309 186.934 71.5029 187.037 72.7557C187.161 74.2558 187.261 75.7625 187.298 77.2692C187.425 81.923 187.522 86.5802 187.622 91.234C187.629 91.4946 187.592 91.7585 187.565 92.1159C187.004 92.1594 186.479 92.2262 185.955 92.2329C178.144 92.3632 170.333 92.4734 162.522 92.6137C156.826 92.714 151.126 92.8242 145.43 92.9879C142.751 93.0648 140.075 93.2685 137.399 93.4356C136.734 93.4757 136.076 93.5859 135.284 93.6828C135.164 92.6772 135.234 91.685 135.211 90.6994C135.187 89.6938 135.184 88.6882 135.177 87.6793C135.171 86.6737 135.177 85.6681 135.06 84.6592C135.06 87.402 135.03 90.1448 135.08 92.8877C135.094 93.6928 134.83 94.1038 134.085 94.3744C132.785 94.8387 131.746 95.6673 131.054 96.89C130.527 97.8221 130.4 98.8745 130.35 99.9001C130.102 105.523 129.889 111.149 130.243 116.775C130.37 118.779 130.58 120.777 130.757 122.778C130.924 124.622 131.813 126.046 133.256 127.185C135.08 128.625 137.168 129.33 139.447 129.523C140.579 129.624 141.719 129.704 142.854 129.697C156.736 129.614 170.614 129.52 184.495 129.417C185.661 129.41 186.827 129.417 188.076 129.417V130.903C188.1 138.911 188.123 146.916 188.15 154.921C188.163 155.195 188.156 155.462 188.15 155.729L188.146 155.739ZM198.817 120.269C199.241 123.664 197.297 126.751 194.02 127.8C191.845 128.494 189.63 128.956 187.301 128.628C186.312 128.488 185.297 128.528 184.288 128.528C178.054 128.478 171.82 128.434 165.586 128.398C157.882 128.354 150.178 128.321 142.47 128.291C141.872 128.291 141.274 128.241 140.583 128.21C140.482 127.385 140.382 126.614 140.289 125.838L140.152 125.852V128.097C138.869 128.378 137.703 128.107 136.677 127.445C136.036 127.031 135.645 126.34 135.401 125.575C134.536 122.872 134.132 120.089 134.085 117.276C134.011 112.722 134.051 108.169 134.078 103.615C134.085 102.753 134.245 101.888 134.359 101.026C134.646 98.8277 136.534 97.8455 138.074 97.6317C138.702 97.5448 139.34 97.5515 140.118 97.5081C140.118 98.0994 140.105 98.6507 140.118 99.2019C140.125 99.7565 140.198 100.311 140.339 100.849C140.593 99.8099 140.563 98.7241 140.249 97.7018C140.91 97.4112 145.484 97.1506 146.907 97.3176V99.5594H147.074V97.2442H150.117V99.3723L150.328 99.3589V97.1439C151.978 97.0638 153.599 97.0237 155.336 97.0136V99.4291H155.536V97.0136H162.205V99.4391H162.388V96.9101H170.627C170.66 97.3644 170.697 97.8455 170.734 98.3232C171.128 97.8856 170.74 97.4012 170.934 96.8132L192.376 96.5559V99.409H192.55C192.55 98.6674 192.566 97.9223 192.543 97.1807C192.53 96.7063 192.66 96.4056 193.191 96.3755C193.391 96.3655 193.582 96.2753 193.779 96.2452C196.054 95.9011 197.334 94.4111 198.179 92.42C198.209 92.3331 198.259 92.2529 198.326 92.1861C198.393 92.1193 198.47 92.0692 198.56 92.0358V97.2675L196.024 99.2386C197.28 99.4658 197.441 99.3923 198.643 98.086C198.697 98.3065 198.774 98.4769 198.777 98.644C198.874 104.972 198.971 111.296 199.061 117.623C199.071 118.228 198.994 118.746 198.52 119.234C198.116 119.648 197.902 120.249 197.698 120.914L198.817 120.263V120.269Z" fill="#303E47"/>
<path d="M95.5446 41.2715C91.9465 42.6279 88.2413 43.687 84.7067 45.2338C79.9827 47.2984 75.1686 49.1459 70.2575 50.7295C68.8276 51.1905 67.4246 51.725 66.008 52.2195C65.7942 52.2963 65.5703 52.3531 65.2028 52.46C64.9623 50.1782 64.7285 47.9699 64.498 45.765C64.3075 48.0468 64.7319 50.2918 64.9624 52.5636C64.8521 52.6471 64.7385 52.7206 64.6182 52.7841C63.9767 53.0714 63.3086 53.3019 62.6905 53.6393C61.0802 54.5213 59.8441 55.7741 59.2996 57.5648C58.7617 59.3388 58.9755 59.8433 60.6159 60.6952C62.5569 61.7008 64.6315 62.3757 66.763 62.84C69.8833 63.5182 73.0605 63.7321 76.2343 63.9793C76.6486 64.0127 77.0963 63.8857 77.5005 63.7521C79.0574 63.2343 80.6042 62.683 82.1544 62.1418C109.893 52.5135 137.629 42.8885 165.368 33.2635C165.706 33.1466 166.046 33.0463 166.451 32.9194C168.679 38.3115 170.49 43.7671 172.518 49.2194C171.318 49.7272 170.293 50.215 169.23 50.6025C165.863 51.8219 162.485 53.0079 159.104 54.1973C148.998 57.7553 138.892 61.3099 128.783 64.8579C128.459 64.9715 128.141 65.1018 127.824 65.2221C130.039 65.6096 179.253 66.3179 180.121 66.0974C180.048 65.8435 179.988 65.5896 179.898 65.3423C176.68 56.4323 173.46 47.5256 170.232 38.6222C170.122 38.3215 167.463 30.9516 166.561 28.1854C166.077 26.6987 165.435 25.2521 164.78 23.8289C164.309 22.7832 163.544 21.8946 162.579 21.2732C159.128 19.0448 155.519 18.821 151.744 20.3678C150.044 21.0694 148.326 21.7309 146.589 22.3489C144.575 23.0706 142.514 23.6719 140.509 24.4203C125.519 30.0195 110.532 35.6388 95.5512 41.2749L95.5446 41.2715Z" fill="#303E47"/>
<path d="M172.524 37.3595C172.524 38.1914 172.471 38.9598 172.541 39.7215C172.608 40.4799 172.798 41.2082 172.942 41.9666L172 42.3808C172.822 42.9388 174.609 42.7951 175.651 42.0802L173.31 41.8864C173.086 40.3596 172.711 38.8729 172.925 37.3328H176.27C176.336 38.3384 176.396 39.2872 176.46 40.236L176.68 40.2293V37.2593L179.523 37.6736C179.854 41.8396 180.178 45.842 180.489 49.8476C180.843 54.4213 181.17 58.9949 181.528 63.5685C181.588 64.3803 181.752 65.1855 181.869 66.0007C181.652 61.3101 181.324 56.6429 180.977 51.9691C180.626 47.2952 180.259 42.6515 179.894 37.9208C180.7 38.1346 181.177 38.4988 181.214 39.3006C181.227 39.6313 181.314 39.9621 181.324 40.2962C181.475 44.1415 181.481 47.9935 181.869 51.8321C182.296 56.0583 182.587 60.3078 182.945 64.544C182.985 64.8648 183.045 65.1821 183.122 65.4928C183.172 63.4583 183.182 61.4471 183.021 59.4459C182.774 56.2754 182.383 53.1183 182.116 49.9479C181.872 47.1148 181.698 44.2718 181.501 41.4354C181.481 41.1347 181.501 40.824 181.501 40.52C182.323 44.7528 182.61 49.0258 182.891 53.2987C183.178 57.5984 183.426 61.9014 183.696 66.2044H184.528C184.528 65.7802 184.538 65.416 184.528 65.0552C184.471 63.044 184.414 61.0361 184.348 59.0283C184.191 54.2075 184.037 49.3866 183.85 44.5691C183.8 43.3029 183.553 42.0401 183.516 40.7706C183.432 37.8707 181.267 36.4542 179.367 34.8573C179.113 34.6434 178.678 34.62 178.321 34.5566C175.905 34.1356 173.46 34.0621 171.011 34.0889C170.807 34.1022 170.607 34.1256 170.406 34.159L171.683 37.2125L172.528 37.3562L172.524 37.3595Z" fill="#303E47"/>
<path d="M180.091 64.514C180.191 65.0284 180.325 65.5363 180.442 66.0441L180.653 66.0073C180.626 65.7434 180.602 65.4795 180.566 65.2189C180.345 63.6286 180.041 62.0451 179.918 60.4481C179.376 53.5058 178.885 46.5569 178.374 39.6079C178.331 40.844 178.407 42.0768 178.474 43.3062C178.675 46.7807 178.868 50.2552 179.079 53.7263C179.303 57.3345 179.403 60.9493 180.091 64.5106V64.514Z" fill="#303E47"/>
<path d="M177.806 47.5923C177.739 47.1914 177.873 46.6502 177.315 46.4097C176.927 47.3084 177.238 50.2784 177.766 51.0167C178.24 50.3452 178.251 50.3419 177.806 47.5923Z" fill="#303E47"/>
<path d="M176.066 52.3564C175.782 49.3263 175.518 46.5133 175.254 43.7036C175.017 45.4108 175.609 51.3709 176.066 52.3564Z" fill="#303E47"/>
<path d="M178.762 58.594C178.722 57.3913 178.672 56.3289 178.428 55.1997C177.853 55.4135 177.93 55.7309 177.96 56.0249C178.107 57.6051 178.248 58.1062 178.762 58.594Z" fill="#303E47"/>
<path d="M72.3458 48.7953C72.2689 47.0346 72.2991 45.2607 71.8047 43.5435C71.8281 45.3108 71.9415 47.0747 72.3458 48.7953Z" fill="#303E47"/>
<path d="M73.3075 41.873L73.2773 41.9065H73.2974L73.3075 41.873Z" fill="#303E47"/>
<path d="M76.4719 41.8994C75.7603 41.5988 75.062 41.7324 74.3504 41.8393C74.0029 41.8928 73.6455 41.8861 73.298 41.9061C73.2546 42.0431 73.2112 42.1868 73.1377 42.4273C74.3237 42.4975 75.4061 42.277 76.4719 41.8994Z" fill="#303E47"/>
<path d="M71.2768 49.4399C71.1298 47.5289 70.9995 45.805 70.8659 44.0845C70.5652 45.1268 70.8726 48.5646 71.2768 49.4399Z" fill="#303E47"/>
<path d="M69.4727 44.4854C69.6163 46.2226 69.7632 47.9565 69.9069 49.6937C70.094 47.9298 69.9871 46.1892 69.4727 44.4854Z" fill="#303E47"/>
<path d="M73.0811 43.4663L73.5921 48.1736L73.7926 48.1502C73.6723 46.57 73.639 44.9897 73.0811 43.4663Z" fill="#303E47"/>
<path d="M68.6708 50.0515L68.8546 50.0381C68.721 48.3543 68.5874 46.6705 68.4504 44.9834L68.29 44.9968L68.6708 50.0515Z" fill="#303E47"/>
<path d="M69.2654 43.0889C68.2765 43.2526 67.4446 43.4196 66.5459 43.8773C67.9324 43.9642 68.7609 43.747 69.2654 43.0889Z" fill="#303E47"/>
<path d="M57.9299 49.3027C56.7807 49.9943 56.4834 50.4787 56.4934 51.3941C56.9745 50.6992 57.4522 50.001 57.9299 49.3027Z" fill="#303E47"/>
<path d="M77.1062 42.7786L76.8457 42.7686C76.9225 43.6372 76.9994 44.5058 77.0796 45.3744L77.3034 45.3544L77.103 42.7786H77.1062Z" fill="#303E47"/>
<path d="M61.0273 46.5033C62.1666 46.2093 62.3504 46.1058 62.895 45.4209C62.0331 45.4844 61.5418 45.9187 61.0273 46.5033Z" fill="#303E47"/>
<path d="M174.699 40.5466H174.876L174.586 37.8071L174.429 37.8205C174.519 38.7292 174.609 39.6379 174.696 40.5466H174.699Z" fill="#303E47"/>
<path d="M79.0938 42.3306C78.8031 43.0555 79.1806 43.7404 79.2073 44.4453C79.4211 43.7204 79.4245 43.0188 79.0938 42.3306Z" fill="#303E47"/>
<path d="M173.637 45.6647C173.524 44.8495 173.447 44.2749 173.37 43.7036C173.403 44.2916 173.046 44.9264 173.637 45.6647Z" fill="#303E47"/>
<path d="M66.9672 50.1181V48.6348L66.917 48.6782V50.1214H66.9672V50.1181Z" fill="#303E47"/>
<path d="M4.77734 172.193L4.86755 172.283L5.92005 171.645L6.08367 171.04L4.78077 172.193H4.77734Z" fill="#303E47"/>
<path d="M77.0192 76.5845C76.8889 76.8451 76.7586 76.982 76.7553 77.1223C76.7185 99.0985 76.1639 121.078 76.8621 143.057C76.959 142.787 77.0092 142.503 77.0058 142.215C77.0626 136.556 77.1496 130.9 77.1696 125.241C77.2231 109.535 77.2597 93.8333 77.2797 78.1279C77.2931 77.8273 77.2864 77.5233 77.2664 77.2226C77.2463 77.0489 77.1362 76.8818 77.0192 76.5878V76.5845Z" fill="#303E47"/>
<path d="M79.7491 132.437C79.7658 133.269 79.7491 134.1 79.7491 134.932H79.9395V133.639C79.9328 121.693 80.3938 109.746 80.1266 97.7954C79.9829 91.3042 79.9261 84.8162 79.8259 78.3183C79.8192 77.9374 79.7826 77.5566 79.7592 77.1724C79.5587 77.4964 79.5352 77.8105 79.5285 78.1245C79.4851 80.1658 79.4284 82.207 79.4117 84.2483C79.3483 93.2151 78.9239 102.179 79.2546 111.152C79.5152 118.241 79.5954 125.337 79.7491 132.433V132.437Z" fill="#303E47"/>
<path d="M69.6426 93.743C69.3687 111.059 69.5925 128.368 69.7262 145.68C69.7328 146.545 69.7963 147.41 69.833 148.276C70.5045 146.351 70.3777 95.2063 69.7028 80.834C69.6561 85.137 69.7128 89.44 69.6426 93.7397V93.743Z" fill="#303E47"/>
<path d="M91.9468 86.2928C91.9067 83.9508 91.8464 81.6055 91.8063 79.2636C91.7963 78.7591 91.823 78.258 91.1382 77.9707C91.058 78.395 90.9311 78.7759 90.9277 79.1567C90.9277 80.2926 90.9645 81.4318 90.9979 82.5711C91.2484 91.7049 91.5191 100.839 91.7496 109.976C91.9935 119.548 92.2006 129.116 92.4244 138.687L92.5748 138.707C92.5748 133.519 92.635 128.331 92.5615 123.146C92.3944 110.861 92.1572 98.5771 91.9434 86.2961L91.9468 86.2928Z" fill="#303E47"/>
<path d="M87.6132 111.473C87.6198 110.367 87.6767 109.258 87.6399 108.159C87.4261 101.734 87.1989 95.31 86.9584 88.8855C86.8348 85.6048 86.6711 82.3274 86.5174 79.05C86.5074 78.8195 86.4171 78.589 86.367 78.3618C86.1733 78.7861 86.1666 79.1837 86.1767 79.5779C86.5575 91.4245 86.4305 103.281 86.9083 115.128C87.1822 121.916 87.2958 128.712 87.4729 135.153C87.5196 127.472 87.5631 119.471 87.6132 111.473Z" fill="#303E47"/>
<path d="M82.0479 78.8125L81.9477 78.8292C81.9143 79.3637 81.8576 79.8983 81.8542 80.4295C81.7941 88.2638 81.6537 96.1014 81.7105 103.936C81.7773 112.946 82.0212 121.946 82.1849 130.96C82.1949 131.588 82.1849 132.219 82.1849 132.847C82.2317 119.684 82.9599 106.532 82.5356 93.3686C82.3786 88.5177 82.2183 83.6634 82.0513 78.8125H82.0479Z" fill="#303E47"/>
<path d="M89.5848 123.423C89.7352 126.701 89.7853 129.981 89.8688 132.841C90.3399 115.044 89.7687 96.8467 88.9401 78.6525C88.9401 78.5756 88.8498 78.5021 88.7997 78.4253H88.6326C88.6226 78.7661 88.5959 79.1068 88.6026 79.4476C88.6594 82.9288 88.713 86.4099 88.7865 89.8911C89.027 101.073 89.0704 112.255 89.5816 123.423H89.5848Z" fill="#303E47"/>
<path d="M73.0277 76.9587V79.1737C73.1279 91.2241 73.2283 103.275 73.3285 115.328C73.402 124.131 73.4754 132.935 73.5489 141.741H73.5857V140.956C73.6626 119.698 73.736 98.4403 73.8095 77.1858C73.8095 76.7616 73.7293 76.3373 73.6792 75.8662C73.1246 76.1168 73.0244 76.511 73.0244 76.962L73.0277 76.9587Z" fill="#303E47"/>
<path d="M84.2622 82.9821C84.2388 82.3273 84.1486 81.6725 84.0885 81.021C83.9248 86.5167 83.8112 92.0091 83.7477 97.4947C83.721 99.5694 83.7543 101.644 83.8077 103.719C83.8846 106.562 84.0284 109.405 84.1085 112.248C84.2923 119.123 84.4659 125.999 84.6296 132.874H84.663V129.66C84.6964 121.392 84.7299 113.123 84.7633 104.858C84.77 103.418 84.8869 101.978 84.8469 100.542C84.6731 94.6884 84.466 88.8352 84.2622 82.9821Z" fill="#303E47"/>
<path d="M94.9294 80.463C94.9161 79.8583 94.9028 79.2569 94.8426 78.6589C94.8226 78.4451 94.6756 78.2446 94.5085 77.8638C94.2179 79.4072 95.3036 131.798 95.8481 137.896C95.8481 133.913 95.9117 129.928 95.8382 125.949C95.5609 110.788 95.2568 95.6237 94.9294 80.463Z" fill="#303E47"/>
<path d="M98.8959 111.56C98.779 100.886 98.4583 90.2119 98.2278 79.5379C98.2211 79.2239 98.2278 78.9098 98.2278 78.5991H98.0273C97.9003 97.4348 97.9671 116.267 98.7522 134.117C98.809 127.252 98.986 119.408 98.8992 111.563L98.8959 111.56Z" fill="#303E47"/>
<path d="M119.265 80.8907L119.044 80.874C119.028 81.1313 118.997 81.3885 118.991 81.6458C118.924 83.6536 118.804 85.6615 118.804 87.6693C118.804 91.9222 118.854 96.1718 118.914 100.421C119.068 111.232 119.225 122.043 119.392 132.858V133.375C119.405 115.883 119.756 98.3834 119.265 80.8941V80.8907Z" fill="#303E47"/>
<path d="M113.816 131.805C114.103 115.048 114.22 97.0071 113.616 79.6514C113.024 97.0104 113.412 115.051 113.816 131.805Z" fill="#303E47"/>
<path d="M65.8881 126.483C65.7845 110.136 65.6876 93.7895 65.5974 77.4428V76.3436L65.417 76.3169L65.5907 148.219C66.0685 147.47 66.0719 146.675 66.0618 145.877C66.005 139.412 65.9282 132.948 65.8881 126.483Z" fill="#303E47"/>
<path d="M126.371 80.239V134.261H126.578C126.718 125.254 126.972 116.25 126.966 107.243C126.962 98.2361 126.702 89.2325 126.555 80.2256L126.371 80.2423V80.239Z" fill="#303E47"/>
<path d="M103.168 132.443C103.596 115.773 103.673 99.0951 102.901 82.4209C102.547 99.0951 103.021 115.763 103.168 132.443Z" fill="#303E47"/>
<path d="M59.5567 74.8369C59.5567 75.4349 59.55 76.0329 59.5567 76.6276C59.697 87.8763 59.8373 99.1249 59.981 110.374C60.128 121.422 60.285 132.467 60.4487 143.515C60.462 144.42 60.4988 145.326 60.5389 146.224C60.5623 146.441 60.6057 146.659 60.6625 146.872L60.7126 146.856L59.8172 74.8636L59.5567 74.8369Z" fill="#303E47"/>
<path d="M108.25 124.916C108.33 111.523 108.4 98.1295 108.463 84.7393C108.47 83.1491 108.21 81.5555 108.073 79.9619L107.849 79.9719L108.163 125.818C108.233 125.524 108.26 125.22 108.246 124.916H108.25Z" fill="#303E47"/>
<path d="M104.464 75.3784C103.967 75.3183 103.466 75.2882 102.964 75.2915C101.842 75.2782 100.713 74.9909 99.5166 75.4051C99.6937 75.5187 99.8775 75.6189 100.065 75.7125C101.474 76.2938 102.968 76.0566 104.428 76.1134C104.558 76.1201 104.805 75.8895 104.802 75.7693C104.802 75.6323 104.601 75.3951 104.461 75.3751L104.464 75.3784Z" fill="#303E47"/>
<path d="M178.618 152.572C178.488 152.498 178.298 152.525 178.134 152.522C177.336 152.515 176.537 152.488 175.742 152.522C175.331 152.539 174.927 152.665 174.516 152.746C174.516 152.822 174.509 152.899 174.506 152.973C174.673 153.073 174.83 153.233 175.01 153.26C175.498 153.337 175.993 153.377 176.49 153.387C177.185 153.394 177.883 153.374 178.578 153.317C178.722 153.304 178.852 153.093 178.993 152.976C178.869 152.839 178.769 152.659 178.618 152.572Z" fill="#303E47"/>
<path d="M87.3223 152.893C88.5016 153.461 89.7011 153.361 90.867 153.434C91.1744 153.454 91.5385 153.514 91.7122 153.12C90.7433 152.302 88.5684 152.161 87.3223 152.893Z" fill="#303E47"/>
<path d="M160.431 76.7812C159.649 75.956 157.177 75.9327 155.597 76.681C157.247 77.1253 158.777 77.1688 160.431 76.7812Z" fill="#303E47"/>
<path d="M168.625 76.2872C167.613 75.7293 165.679 75.6925 164.75 76.207C165.672 77.1291 167.954 77.1759 168.625 76.2872Z" fill="#303E47"/>
<path d="M129.25 153.066C130.693 153.598 132.147 153.811 133.62 153.213C132.17 152.609 130.713 152.619 129.25 153.066Z" fill="#303E47"/>
<path d="M105.363 153.457C107 154.079 108.47 154.399 109.994 153.758C108.925 153.24 107.127 153.153 105.363 153.457Z" fill="#303E47"/>
<path d="M77.4238 152.629C78.8938 153.598 80.3905 153.143 82.0542 152.869C81.1087 152.338 79.0375 152.268 77.4238 152.629Z" fill="#303E47"/>
<path d="M96.2461 152.983C96.9844 153.35 99.4032 153.704 100.031 153.531C100.212 153.481 100.362 153.32 100.579 153.173C99.4467 152.629 97.1548 152.538 96.2461 152.983Z" fill="#303E47"/>
<path d="M121.016 153.17C121.964 153.812 124.176 154.002 124.888 153.538C124.139 152.843 122.145 152.636 121.016 153.17Z" fill="#303E47"/>
<path d="M150.856 76.6011C150.088 76.0632 146.469 76.0332 145.591 76.5343C147.448 76.7381 149.145 76.7849 150.856 76.6011Z" fill="#303E47"/>
<path d="M177.292 76.2768C175.952 75.4349 174.569 75.799 173.192 75.936C174.155 76.5641 176.537 76.7378 177.292 76.2768Z" fill="#303E47"/>
<path d="M147.515 153.017C146.509 152.662 145.434 152.569 144.385 152.756C144.906 153.478 145.621 153.468 146.222 153.635C146.626 153.745 147.074 153.688 147.505 153.671C147.595 153.671 147.759 153.488 147.749 153.411C147.729 153.267 147.632 153.06 147.518 153.02L147.515 153.017Z" fill="#303E47"/>
<path d="M72.0648 74.2493C73.2608 75.2281 74.6807 74.7103 76.017 74.7537C75.1417 74.4764 74.2732 74.1791 73.3912 73.9252C72.9368 73.7949 72.6161 73.9018 72.0615 74.2493H72.0648Z" fill="#303E47"/>
<path d="M81.3662 74.7735C82.1981 75.0374 82.8931 75.2245 83.5679 75.4784C84.2929 75.7524 84.9576 75.6221 85.7093 75.3782C85.01 74.9016 83.5623 74.7 81.3662 74.7735Z" fill="#303E47"/>
<path d="M140.536 76.7982C139.052 76.5643 137.565 76.2837 136.065 76.7982C137.552 77.3828 139.042 77.0287 140.536 76.7982Z" fill="#303E47"/>
<path d="M181.351 78.0443C182.043 77.0387 181.969 76.3571 181.107 75.8393C180.914 75.7257 180.623 75.7792 180.376 75.7524C180.356 75.993 180.235 76.287 180.332 76.464C180.623 77.0053 180.997 77.5064 181.351 78.0409V78.0443Z" fill="#303E47"/>
<path d="M181.418 152.756C182.297 153.127 182.681 153.083 183.095 152.656C183.857 151.85 184.021 151.145 183.516 150.34C183.566 151.76 182.29 152.068 181.418 152.756Z" fill="#303E47"/>
<path d="M159.128 153.153C160.013 154.015 161.37 154.146 162.673 153.558C161.513 153.083 160.407 152.9 159.128 153.153Z" fill="#303E47"/>
<path d="M166.849 153.143C167.67 153.524 169.628 153.621 170.687 153.297C169.952 152.779 167.664 152.722 166.849 153.143Z" fill="#303E47"/>
<path d="M181.605 91.1039C182.179 90.0415 182.279 88.7386 181.835 87.9702C181.19 88.615 181.083 90.0415 181.605 91.1039Z" fill="#303E47"/>
<path d="M137.438 152.889C138.397 153.527 139.396 153.708 140.515 153.19C139.55 152.615 138.668 152.508 137.438 152.889Z" fill="#303E47"/>
<path d="M151.478 153.14C152.851 154.082 154.137 153.411 155.376 153.417C154.144 153.29 152.948 152.565 151.478 153.14Z" fill="#303E47"/>
<path d="M58.7756 71.1188C57.8168 70.6477 56.8579 70.1867 55.8924 69.7357C55.6986 69.6455 55.4882 69.5954 55.124 69.4751C55.9425 70.2468 58.3446 71.5999 59.113 71.7602C59.3702 71.3493 59.0262 71.2457 58.7756 71.1188Z" fill="#303E47"/>
<path d="M114.104 153.103C115.092 153.721 116.719 153.908 117.464 153.384C116.392 152.976 115.226 152.882 114.104 153.103Z" fill="#303E47"/>
<path d="M132.027 76.6576C130.871 76.0229 130.814 76.0195 128.349 76.4739C129.598 76.6175 130.714 77.3124 132.027 76.6576Z" fill="#303E47"/>
<path d="M113.221 69.9062C113.077 71.1958 112.947 72.4854 113.432 73.7415C113.919 72.4319 113.749 71.1591 113.221 69.9062Z" fill="#303E47"/>
<path d="M182.805 132.454C182.294 133.352 182.544 134.211 182.765 135.17C183.48 134.198 183.49 133.078 182.805 132.454Z" fill="#303E47"/>
<path d="M182.815 139.062C182.337 140.107 182.36 141.313 182.872 142.128C183.356 141.297 183.333 140.027 182.815 139.062Z" fill="#303E47"/>
<path d="M181.608 84.2886C182.42 83.1193 182.44 82.5313 181.725 81.6895C181.214 82.5113 181.414 83.3332 181.608 84.2886Z" fill="#303E47"/>
<path d="M183.419 147.825C183.866 146.495 183.823 145.897 183.252 145.353C182.834 146.134 182.861 146.689 183.419 147.825Z" fill="#303E47"/>
<path d="M113.215 75.6991C112.426 75.6691 111.635 75.6858 110.843 75.6858V75.8161C111.615 75.9731 112.383 76.1435 113.158 76.2704C113.292 76.2905 113.459 76.1101 113.609 76.0199C113.475 75.9096 113.349 75.7092 113.212 75.7025L113.215 75.6991Z" fill="#303E47"/>
<path d="M90.0654 75.3518C91.1145 75.9164 92.0868 75.4386 93.0389 75.432C92.0801 75.4153 91.1345 74.7605 90.0654 75.3518Z" fill="#303E47"/>
<path d="M123.41 76.1131C123.243 75.9995 123.076 75.7823 122.913 75.7857C122.191 75.8024 121.473 75.8826 120.751 75.9394V76.0162C121.456 76.1465 122.167 76.2935 122.882 76.3837C123.046 76.4037 123.233 76.21 123.41 76.1131Z" fill="#303E47"/>
<path d="M59.9816 66.3813C59.4371 66.8858 59.6241 67.5506 59.7043 68.2088C59.7945 67.5974 59.8881 66.9894 59.9816 66.3813Z" fill="#303E47"/>
<path d="M152.292 107.564C151.911 107.444 151.5 107.424 151.11 107.51C150.201 107.731 149.306 107.998 148.424 108.316C147.742 108.556 147.231 109.044 146.833 109.649C146.098 110.761 145.714 111.994 145.594 113.427C145.614 113.584 145.63 113.851 145.677 114.112C146.152 116.748 148.166 118.896 151.287 118.819C152.389 118.786 153.475 118.512 154.46 118.014C156.148 117.149 156.953 115.565 157.163 113.701C157.2 113.334 157.173 112.966 157.086 112.609C156.468 110.003 154.788 108.379 152.292 107.564ZM151.587 111.727C151.992 112.756 151.504 113.868 150.421 114.723C149.506 115.452 148.647 115.528 147.605 114.807C149.489 114.376 151.076 113.788 151.587 111.727ZM156.251 115.843C154.835 117.964 151.998 119.09 149.406 117.613C149.356 117.586 149.336 117.513 149.249 117.369C149.566 117.346 149.883 117.302 150.198 117.246C150.465 117.169 150.725 117.075 150.983 116.968L150.919 116.755C150.428 116.855 149.937 117.012 149.442 117.032C148.948 117.052 148.464 116.902 148.009 116.374C148.57 116.126 149.042 115.856 149.546 115.702C150.782 115.328 151.861 114.797 152.506 113.577C152.78 113.066 153.264 112.665 153.816 112.034C153.966 113.093 153.749 113.845 153.528 114.603C153.692 114.446 153.882 114.302 153.993 114.119C154.347 113.514 154.661 112.889 155.052 112.151L155.72 113.628C155.753 113.023 155.703 112.612 155.814 112.251C155.967 111.743 155.109 111.87 155.369 111.302C155.787 111.409 156.001 111.74 156.104 112.097C156.325 112.866 156.565 113.644 156.635 114.433C156.662 114.93 156.528 115.425 156.254 115.843H156.251Z" fill="#303E47"/>
<path d="M153.491 114.65V114.7L153.515 114.673L153.531 114.613C153.531 114.613 153.505 114.64 153.491 114.653V114.65Z" fill="#303E47"/>
<path d="M143.232 106.191C143.118 109.228 142.985 112.268 142.911 115.305C142.868 117.206 142.911 119.11 142.934 121.014C142.941 121.432 143.055 121.846 143.118 122.26L143.289 122.247C143.359 116.574 143.432 110.902 143.502 105.229L143.322 105.219C143.285 105.543 143.239 105.867 143.232 106.191Z" fill="#303E47"/>
<path d="M162.663 105.516C162.435 109.742 162.846 121.582 163.247 122.484C163.488 120.817 163.023 107.38 162.663 105.516Z" fill="#303E47"/>
<path d="M140.004 116.504C139.991 118.308 140.068 120.116 140.118 121.92C140.122 122.12 140.205 122.331 140.248 122.534C140.569 120.948 140.459 107.858 140.148 106.766C140.098 110.01 140.025 113.257 140.004 116.504Z" fill="#303E47"/>
<path d="M192.75 103.475L192.539 103.509L193.197 122.795L193.421 122.789C193.197 116.351 192.973 109.916 192.753 103.478L192.75 103.475Z" fill="#303E47"/>
<path d="M171.883 122.658C171.769 118.422 171.656 114.185 171.542 109.949H171.438L171.689 122.634L171.886 122.661L171.883 122.658Z" fill="#303E47"/>
<path d="M148.13 124.389C147.304 124.362 146.439 124.215 145.514 124.836C146.773 125.231 147.822 125.281 148.935 125.07C148.868 124.466 148.454 124.402 148.13 124.389Z" fill="#303E47"/>
<path d="M138.24 105.84C138.341 105.894 138.695 105.64 138.812 105.449C138.995 105.135 139.126 104.795 139.206 104.437C139.246 104.28 139.176 104.003 139.062 103.933C138.949 103.866 138.618 103.876 138.528 103.976C138.24 104.317 138.017 104.711 137.723 105.159C137.92 105.436 138.033 105.737 138.244 105.837L138.24 105.84Z" fill="#303E47"/>
<path d="M138.678 121.763C139.079 120.667 138.899 119.595 138.518 118.536C138.1 119.641 138.11 120.721 138.678 121.763Z" fill="#303E47"/>
<path d="M165.432 102.316C166.638 102.863 167.747 102.469 168.993 102.436C168.214 101.804 166.4 101.764 165.432 102.316Z" fill="#303E47"/>
<path d="M143.727 102.389C144.692 102.676 145.721 102.656 146.677 102.336C146.132 101.511 144.742 101.547 143.727 102.389Z" fill="#303E47"/>
<path d="M158.065 102.155C159.318 102.62 160.424 102.493 161.56 102.249C161.303 102.028 161.022 101.858 160.742 101.865C159.903 101.888 159.021 101.611 158.065 102.155Z" fill="#303E47"/>
<path d="M151.356 124.993C152.436 125.257 153.424 125.311 154.564 124.913C153.351 124.275 152.145 124.305 151.356 124.993Z" fill="#303E47"/>
<path d="M188.844 100.699C188.754 100.786 188.634 100.999 188.457 101.063C187.932 101.24 187.391 101.354 186.856 101.494C187.642 101.835 188.397 101.928 189.202 101.594L188.844 100.699Z" fill="#303E47"/>
<path d="M142.651 124.182C142.147 124.165 141.639 124.258 141.131 124.309C141.131 124.405 141.138 124.499 141.141 124.596C141.338 124.766 141.569 124.897 141.819 124.977C142.07 125.057 142.33 125.087 142.591 125.064C142.878 125.037 143.269 124.993 143.212 124.599C143.189 124.429 142.851 124.192 142.651 124.185V124.182Z" fill="#303E47"/>
<path d="M175.441 125.19C176.554 125.635 177.589 125.715 178.502 125.384C177.636 124.906 176.243 124.839 175.441 125.19Z" fill="#303E47"/>
<path d="M154.006 102.115C153.087 101.644 152.162 101.667 151.229 102.145C152.155 102.593 153.08 102.663 154.006 102.115Z" fill="#303E47"/>
<path d="M169.017 124.823C170.169 125.471 170.847 125.491 171.736 124.913C170.847 124.261 169.969 124.679 169.017 124.823Z" fill="#303E47"/>
<path d="M138.068 108.362C137.707 109.147 137.737 110.153 138.144 110.968C138.385 110.574 138.505 110.116 138.492 109.652C138.478 109.191 138.331 108.74 138.071 108.359L138.068 108.362Z" fill="#303E47"/>
<path d="M138.1 113.458C137.85 114.336 137.639 115.205 138.201 116.184C138.642 115.168 138.411 114.306 138.1 113.458Z" fill="#303E47"/>
<path d="M188.981 124.88C189.877 125.06 190.632 125.017 191.404 124.506C190.578 123.968 189.84 124.088 188.981 124.88Z" fill="#303E47"/>
<path d="M172.765 102.322C173.627 102.566 174.432 102.667 175.28 102.222C174.439 101.638 173.723 101.674 172.765 102.322Z" fill="#303E47"/>
<path d="M163.04 124.686C163.929 125.15 164.767 125.053 165.833 124.786C164.807 124.195 163.965 124.302 163.04 124.686Z" fill="#303E47"/>
<path d="M179.189 102.239H182.393C182.387 102.139 182.38 102.045 182.373 101.951C181.311 101.915 180.245 101.778 179.189 102.239Z" fill="#303E47"/>
<path d="M189.276 112.365H189.202V117.64L189.276 117.6V112.365Z" fill="#303E47"/>
<path d="M194.036 123.68C195.189 123.723 195.583 123.47 195.713 122.614C194.895 122.611 194.738 122.711 194.036 123.68Z" fill="#303E47"/>
<path d="M189.055 110.371V105.777H189.038V110.374H189.055V110.371Z" fill="#303E47"/>
<path d="M163.735 127.786C163.682 126.958 163.632 126.133 163.578 125.304C163.231 126.149 163.111 126.981 163.735 127.786Z" fill="#303E47"/>
<path d="M157.391 124.94C158.269 125.371 159.028 125.14 159.786 124.856C159.018 124.83 158.236 124.282 157.391 124.94Z" fill="#303E47"/>
<path d="M182.694 125.331C183.386 125.672 184.061 125.451 184.719 125.207C184.004 124.83 183.346 125.03 182.694 125.331Z" fill="#303E47"/>
<path d="M193.739 127.372C193.846 126.61 193.953 125.862 193.491 125.17C193.147 126.149 193.178 126.403 193.739 127.372Z" fill="#303E47"/>
<path d="M139.229 102.383C140.175 102.807 140.359 102.797 140.973 102.366C140.215 101.892 140.142 101.892 139.229 102.383Z" fill="#303E47"/>
<path d="M146.729 121.889C146.736 120.867 147.217 119.848 146.729 118.853V121.889Z" fill="#303E47"/>
<path d="M143.332 100.638C143.686 99.9635 143.619 99.2886 143.332 98.6138V100.638Z" fill="#303E47"/>
<path d="M194.29 100.11C193.452 99.9936 192.931 100.411 192.353 100.692C192.951 100.588 193.682 100.845 194.29 100.11Z" fill="#303E47"/>
<path d="M139.376 123.072C139.293 123.012 138.972 123.096 138.962 123.149C138.932 123.316 138.942 123.607 139.039 123.657C139.303 123.8 139.62 123.847 139.918 123.934L140.048 123.71C139.828 123.493 139.624 123.249 139.376 123.075V123.072Z" fill="#303E47"/>
<path d="M171.339 107.901C171.339 107.901 171.355 107.076 171.355 106.061C171.355 105.045 171.349 104.22 171.339 104.22C171.329 104.22 171.325 105.045 171.325 106.061C171.325 107.076 171.332 107.901 171.339 107.901Z" fill="#303E47"/>
<path d="M146.686 125.772C146.896 126.276 146.459 126.878 147.103 127.329C147.043 126.801 146.983 126.269 146.92 125.738L146.683 125.768L146.686 125.772Z" fill="#303E47"/>
<path d="M189.823 127.723C189.77 126.998 189.713 126.246 189.65 125.361C189.453 126.697 189.503 127.238 189.823 127.723Z" fill="#303E47"/>
<path d="M151.123 126.142C151.18 126.707 150.949 127.315 151.554 127.803C151.474 127.238 151.397 126.677 151.317 126.112L151.123 126.139V126.142Z" fill="#303E47"/>
<path d="M172.013 127.472V125.962C171.779 126.493 171.576 126.988 172.013 127.472Z" fill="#303E47"/>
<path d="M143.085 127.456H143.202V126.25H143.085V127.456Z" fill="#303E47"/>
<path d="M150.822 121.175H150.976V120.7L150.775 120.68C150.785 120.847 150.809 121.011 150.825 121.175H150.822Z" fill="#303E47"/>
<path d="M96.9951 174.892C96.7378 175.574 96.4805 176.255 96.2266 176.937C96.7511 176.372 96.9315 175.66 97.1787 174.972L96.9951 174.895V174.892Z" fill="#303E47"/>
<path d="M96.2562 174.314L96.1995 174.391C96.1861 174.418 96.176 174.441 96.166 174.468C96.1861 174.448 96.2028 174.428 96.2195 174.411L96.2562 174.318V174.314Z" fill="#303E47"/>
<path d="M96.5899 173.492L96.2559 174.317L96.8038 173.612L96.5899 173.492Z" fill="#303E47"/>
<path d="M95.8187 178.029L96.1996 176.997L96.1828 176.984L96.1962 176.997L96.2197 176.934C96.2197 176.934 96.1928 176.964 96.1761 176.98L95.7954 178.009L95.8053 178.019L95.7954 178.013L95.7451 178.196C95.7685 178.14 95.7919 178.083 95.8153 178.029H95.8187Z" fill="#303E47"/>
<path d="M74.0968 167.776L71.8184 170.215L71.9453 170.305L74.2604 167.93L74.0968 167.773V167.776Z" fill="#303E47"/>
<path d="M63.8066 162.291C63.8634 162.351 63.9202 162.408 63.9769 162.464L67.8891 158.439C67.8423 158.392 67.7955 158.349 67.7454 158.302L63.8066 162.291Z" fill="#303E47"/>
<path d="M106.353 175.43C107.174 173.977 107.916 172.487 108.658 171.003C108.728 170.86 108.788 170.713 108.851 170.563L108.695 170.436C107.859 172.073 106.981 173.69 106.353 175.43Z" fill="#303E47"/>
<path d="M101.858 175.123L101.982 175.176C102.126 174.869 102.269 174.562 102.413 174.254L102.289 174.201C102.149 174.508 102.005 174.815 101.858 175.123Z" fill="#303E47"/>
<path d="M38.6602 176.152L38.7336 176.222L41.0488 174.044L40.8516 173.86L38.6602 176.152Z" fill="#303E47"/>
<path d="M37.4941 176.997C36.866 177.575 36.2914 178.103 35.7168 178.641C36.9663 177.916 37.3036 177.568 37.4941 176.997Z" fill="#303E47"/>
<path d="M34.6143 179.693L34.6911 179.773L35.1622 179.352L34.9986 179.219L34.6143 179.696V179.693Z" fill="#303E47"/>
<path d="M87.6265 185.065V185.823H87.7066L87.6666 185.068H87.623L87.6265 185.065Z" fill="#303E47"/>
<path d="M52.9584 147.374L51.6221 148.874C52.327 148.6 52.6945 148.035 52.9584 147.374Z" fill="#303E47"/>
<path d="M5.28182 170.055C4.76399 170.78 4.21613 171.481 3.73504 172.233C3.3308 172.864 3.00339 173.549 2.64258 174.211C3.52456 172.891 4.40652 171.571 5.28851 170.248C5.31857 170.205 5.2885 170.118 5.28182 170.051V170.055Z" fill="#303E47"/>
<path d="M153.488 114.693C153.194 115.058 152.9 115.422 152.606 115.782C153.108 115.559 153.512 115.261 153.488 114.693Z" fill="#303E47"/>
</g>
</svg>
