<svg width="200" height="200" viewBox="0 0 200 200" fill="none" xmlns="http://www.w3.org/2000/svg">
<rect width="200" height="200" fill="white"/>
<mask id="mask0_412_2130" style="mask-type:luminance" maskUnits="userSpaceOnUse" x="0" y="0" width="198" height="200">
<path d="M197.121 0H0V200H197.121V0Z" fill="white"/>
</mask>
<g mask="url(#mask0_412_2130)">
<path d="M67.5206 110.778C70.2169 110.37 72.8165 110.038 75.3918 109.572C77.566 109.178 79.3565 108.123 80.8118 106.374C82.2671 104.625 83.5012 102.762 84.3239 100.646C84.8251 99.3606 85.2262 98.0366 85.7481 96.7645C86.1871 95.693 86.7125 94.6525 87.2483 93.6258C88.0606 92.0841 88.9145 90.5631 89.7544 89.0353C89.986 88.5824 90.2452 88.1434 90.5356 87.7252C94.058 83.0206 96.025 77.6004 97.788 72.0869C98.6038 69.5289 99.3193 66.9329 100.208 64.4025C100.934 62.3527 101.818 60.3582 102.717 58.374C103.046 57.6585 103.55 57.012 104.055 56.3967C105.697 54.4057 107.38 52.4491 109.036 50.4684C109.188 50.2852 109.385 50.0329 109.365 49.8289C109.323 49.4694 109.461 49.4452 109.745 49.345C109.983 49.262 110.184 48.9959 110.343 48.7643C110.975 47.8448 111.629 46.9322 112.196 45.9712C112.728 45.069 113.167 44.108 113.634 43.1678C113.893 42.6493 114.09 42.0928 114.384 41.595C115.206 40.2088 115.759 38.719 116.219 37.1876C117.353 33.3507 118.984 29.6796 121.072 26.2678C121.321 25.8668 121.543 25.4486 121.76 25.0268C122.303 23.9552 123.019 22.9804 123.883 22.1439C125.515 20.5815 127.077 18.9672 128.155 16.9415C129.037 15.2892 129.735 13.6231 129.849 11.7115C129.953 9.9762 130.24 8.25128 130.471 6.52637C130.668 5.0538 131.301 3.74715 132.151 2.54766C132.874 1.52447 134.028 1.07164 135.096 0.566952C136.88 -0.273036 138.664 -0.158963 140.454 0.736333C142.159 1.59015 143.538 2.74815 144.613 4.31751C146.41 6.93772 147.282 9.86212 147.593 12.9801C147.824 15.2927 148.014 17.6052 148.208 19.9212C148.598 24.5913 147.751 29.1058 146.452 33.5615C144.322 40.8518 141.692 47.9658 138.82 54.9968C137.617 57.9592 136.6 60.9977 136.185 64.1848C136.03 65.3635 136.057 66.5734 136.092 67.7694C136.123 68.8617 136.932 69.4805 137.824 69.8158C138.94 70.2444 140.105 70.5452 141.291 70.7111C143.98 71.0429 146.666 70.8459 149.335 70.3516C151.589 69.9333 153.86 69.6188 156.113 69.204C158.44 68.7788 160.735 68.1531 163.075 67.8593C165.851 67.5136 168.665 67.244 171.458 67.2786C174.386 67.3131 177.186 68.2084 179.886 69.3526C183.996 71.0879 187.625 73.5698 190.83 76.6152C193.567 79.2147 194.964 82.5228 195.337 86.2768C195.545 88.3508 195.344 90.3281 194.449 92.2224C193.847 93.4945 193.045 94.6214 191.867 95.3991C191.345 95.7448 191.127 96.1354 191.123 96.571C192.447 98.1058 193.75 99.5161 194.929 101.027C195.994 102.396 196.561 104.041 196.83 105.731C197.47 109.696 196.989 113.547 195.344 117.232C194.577 118.933 193.263 120.087 191.621 120.924C191.338 121.069 191.054 121.211 190.736 121.366C191.469 121.964 192.177 122.469 192.8 123.063C194.552 124.723 195.306 126.828 195.537 129.182C195.866 132.486 194.922 135.425 193.063 138.118C192.848 138.411 192.661 138.726 192.509 139.054C191.476 141.509 189.747 143.285 187.279 144.371C187.635 145.363 187.967 146.348 188.334 147.316C189.308 149.884 188.98 152.473 188.413 155.042C187.649 158.533 186.025 161.651 184.075 164.613C183.875 164.918 183.615 165.198 183.487 165.529C182.786 167.303 181.178 168.212 179.799 169.294C178.344 170.435 176.615 171.008 174.731 171.067C172.951 171.126 171.292 171.589 169.84 172.695C168.748 173.528 167.503 173.981 166.124 174.147C159.902 174.897 153.818 176.408 147.672 177.593C144.958 178.119 142.262 178.796 139.528 179.142C135.079 179.709 130.603 179.868 126.119 179.391C123.62 179.125 121.111 178.98 118.615 178.71C116.264 178.458 113.924 178.091 111.573 177.815C109.441 177.566 107.294 177.421 105.165 177.137C102.399 176.767 99.6477 176.909 96.8823 177.13C93.3599 177.407 89.8237 177.49 86.3082 177.829C81.7038 178.264 77.1617 179.104 72.6956 180.542C72.3914 182.616 72.0387 184.69 71.7899 186.778C71.5963 188.396 70.5179 189.274 68.8344 189.25C66.2557 189.212 63.6699 189.485 61.0912 189.671C57.714 189.913 54.3365 190.2 50.9593 190.47C50.6413 190.494 50.3234 190.546 49.9294 190.591C49.8429 191.756 49.7876 192.876 49.6701 193.985C49.6079 194.708 49.48 195.42 49.2829 196.118C48.9995 197.048 48.4258 197.356 47.4475 197.276C47.0154 197.228 46.5763 197.217 46.1408 197.235C42.3315 197.546 38.5186 197.888 34.7093 198.189C29.5518 198.6 24.3943 198.994 19.2403 199.388C16.8448 199.575 14.4459 199.758 12.0504 199.941C11.366 199.993 10.6817 200.024 9.9696 199.883L15.2894 198.984C17.0109 198.69 18.7255 198.348 20.4573 198.109C22.438 197.843 24.4359 197.684 26.4235 197.456C29.7524 197.065 33.0744 196.664 36.3998 196.256C39.4659 195.869 42.5355 195.454 45.6051 195.047C46.6594 194.908 46.8219 194.732 46.8426 193.657C46.9878 185.229 47.1709 176.805 47.2504 168.374C47.3264 160.268 46.8563 152.183 46.0129 144.118C45.5635 139.822 45.1866 135.515 44.6923 131.221C43.9594 124.868 42.812 118.58 41.5572 112.313C40.3958 106.513 39.241 100.705 38.0968 94.9014C38.0622 94.7251 38.021 94.5557 37.9692 94.3103C37.6857 94.2757 37.3987 94.2549 37.1118 94.2549C32.2758 94.528 27.4365 94.7942 22.6005 95.088C15.255 95.5339 7.9023 95.8381 0.5429 95.8969C0.338953 95.9073 0.141959 95.8451 -0.0205078 95.7206C0.290599 95.6515 0.598316 95.565 0.912879 95.5167C4.57702 94.929 8.22365 94.1132 11.912 93.8159C17.906 93.332 23.8413 92.4263 29.8111 91.7419C32.5246 91.4273 35.2244 91.0298 37.931 90.6668C39.4036 90.4698 39.9186 90.8017 40.2816 92.2431C40.8623 94.5349 41.4294 96.8268 42.0032 99.1117C42.0896 99.4608 42.1896 99.803 42.3141 100.263C43.3062 100.214 44.2843 100.176 45.2557 100.121C48.6018 99.9378 51.9479 99.7477 55.2941 99.5576C57.3301 99.4401 59.3664 99.3225 61.4024 99.1704C62.9303 99.0598 63.9187 99.6233 64.4095 101.11C65.3463 103.937 66.2312 106.782 67.1334 109.62C67.2544 109.949 67.3617 110.291 67.5172 110.764L67.5206 110.778ZM153.742 88.7138C153.715 88.1676 154.589 87.8392 154.07 87.1202C153.828 87.3449 153.559 87.535 153.379 87.7839C153.089 88.1884 153.071 88.5859 153.607 88.8382C153.434 89.1217 153.203 89.3982 153.638 89.8545C153.804 89.3395 154.358 89.1148 154.133 88.4718L153.739 88.7173L153.742 88.7138ZM111.387 66.3521C111.276 66.525 111.186 66.7082 111.065 66.8707C110.823 67.1991 110.955 67.3062 111.304 67.3062C111.487 67.4929 111.632 67.766 111.86 67.8524C112.154 67.963 112.503 67.9353 112.832 67.9526C114.145 68.0252 115.466 68.0944 116.931 68.1704C115.929 68.8445 114.543 68.3398 113.948 69.6188C116.409 71.5545 119.244 72.9649 122.275 73.7634C118.936 73.3832 116.026 71.8968 113.226 70.1511L111.166 72.1007L115.507 72.3876L115.528 72.5639L112.133 73.1205L113.817 74.2785L115.514 73.1792L115.625 73.3175L114.301 74.6933H115.704L115.78 74.8073L115.193 75.115C117.35 76.795 119.783 77.3653 122.196 78.0601C124.643 78.7618 127.094 78.6236 129.569 78.4646C127.032 79.2527 124.505 79.4325 121.954 78.5752C119.368 77.7075 116.7 77.0853 114.304 75.7095C113.827 75.433 113.392 75.4779 112.998 75.8202C112.341 76.3905 111.715 76.9851 110.975 77.6591L114.418 79.7747L115.832 79.0107L115.943 79.1559L115.134 80.1203C117.222 81.5583 119.527 82.1253 121.913 82.5124C124.267 82.8788 126.652 82.9825 129.027 82.8166C128.387 83.0724 127.72 83.2452 127.039 83.3316C126.316 83.425 125.587 83.4423 124.858 83.387C122.134 83.1312 119.434 82.7509 116.914 81.586C116.129 81.223 115.314 80.9327 114.501 80.5939L111.94 82.8408C117.083 86.4738 122.811 87.1202 128.777 86.74C123.786 88.0259 119.071 86.8714 114.332 85.1222L112.22 87.3207C117.381 90.4352 123.001 90.7602 128.954 90.1449C128.715 90.297 128.66 90.3523 128.594 90.3627C125.397 91.1957 122.189 91.1923 118.964 90.5078C116.931 90.0723 114.913 89.6195 113.07 88.5963C111.446 87.6941 111.791 87.4901 110.218 89.1182C110.194 89.1424 110.191 89.1805 110.156 89.2738L111.556 89.6367L109.434 90.1207C109.724 90.3454 109.883 90.4802 110.056 90.5943C113.188 92.7132 116.645 93.7779 120.43 93.8263C122.511 93.8505 124.595 93.9093 126.679 93.9542C121.726 94.5591 116.8 94.8426 112.165 92.4575L110.37 94.4589C115.296 97.6737 120.616 97.7566 126.064 97.0169C125.947 97.1275 125.836 97.3142 125.708 97.3314C123.903 97.5492 122.096 97.85 120.284 97.9122C118.02 97.9917 115.787 97.6806 113.668 96.7576C112.507 96.2529 111.3 95.8381 110.097 95.4302C109.869 95.3542 109.489 95.3991 109.319 95.5443C108.732 96.0697 108.21 96.6643 107.626 97.2623C107.764 97.3729 107.909 97.4732 108.065 97.563C109.686 98.2993 111.286 99.0909 112.946 99.7373C113.889 100.111 114.888 100.332 115.901 100.391C118.518 100.505 121.142 100.484 123.762 100.508C124.595 100.519 125.432 100.508 126.278 100.508C126.189 100.546 126.095 100.581 125.998 100.605C123.516 101.12 121 101.041 118.49 101.051C114.902 101.061 111.466 100.411 108.269 98.7314C107.823 98.4964 107.411 98.4722 106.914 98.562C105.939 98.7383 105.534 99.485 104.898 100.225L108.41 102.15L110.381 100.747C110.294 101.123 110.084 101.352 109.876 101.587C109.648 101.849 109.423 102.119 109.129 102.461C113.99 104.521 118.915 104.642 123.921 103.989L123.904 103.975C123.786 104.086 123.686 104.273 123.547 104.304C120.474 104.815 117.391 105.016 114.318 104.366C112.645 104.013 110.993 103.564 109.337 103.149C108.922 103.039 108.497 102.8 108.234 103.377C108.352 103.509 108.452 103.626 108.66 103.858C107.394 103.785 106.879 104.57 106.295 105.341C106.433 105.434 106.578 105.52 106.724 105.6C107.086 105.766 107.453 105.928 107.826 106.077C112.572 107.992 117.484 108.414 122.524 107.729C123.499 107.598 124.474 107.487 125.449 107.37C124.37 107.771 123.268 107.989 122.161 108.165C117.733 108.874 113.385 108.625 109.129 107.104C107.94 106.678 106.692 106.412 105.455 106.07C104.798 106.723 104.183 107.335 103.571 107.957C103.481 108.065 103.398 108.179 103.326 108.3C105.165 109.347 106.191 109.644 106.917 109.444C107.294 109.713 107.56 110.014 107.892 110.125C109.437 110.633 110.972 111.231 112.558 111.542C116.409 112.292 120.291 112.427 124.173 111.639C124.913 111.487 125.67 111.411 126.416 111.3L126.448 111.514C125.497 111.743 124.557 112.002 123.603 112.189C119.783 112.925 115.988 112.61 112.209 111.85C110.498 111.504 108.805 111.086 107.097 110.737C106.768 110.671 106.288 110.657 106.088 110.847C105.272 111.601 104.539 112.444 103.612 113.426C110.882 115.984 118.086 116.831 125.507 115.766C123.561 116.25 121.567 116.506 119.565 116.53C116.091 116.606 112.662 116.185 109.251 115.562C108.946 115.507 108.504 115.427 108.324 115.586C107.346 116.426 106.433 117.339 105.4 118.314C106.54 118.77 107.525 119.095 108.583 119.188C108.836 119.209 109.24 119.181 109.306 119.309C109.617 119.956 110.232 119.814 110.73 119.904C113.236 120.357 115.725 120.924 118.297 120.875C121.211 120.823 124.114 120.509 126.973 119.935C127.578 119.811 128.193 119.717 128.802 119.607C127.274 120.129 125.718 120.485 124.156 120.806C120.45 121.577 116.783 121.733 113.067 120.969C110.367 120.409 107.671 119.745 104.884 119.683C104.487 119.672 104.1 119.555 103.789 119.942C103.308 120.526 102.804 121.083 102.185 121.791C103.312 122.102 104.283 122.393 105.265 122.617C105.458 122.662 105.738 122.507 105.921 122.369C106.212 122.151 106.447 121.864 106.727 121.636C107.242 121.214 107.723 120.737 108.518 120.516C108.328 121.622 107.19 121.961 106.941 123.032L110.274 123.184C109.209 123.357 108.13 123.433 107.052 123.416C106.482 123.409 106.057 123.499 105.866 124.18C109.202 124.916 112.535 125.507 115.919 125.666C119.334 125.825 122.738 125.455 126.143 125.12C125.02 125.417 123.883 125.625 122.746 125.822C119.756 126.344 116.755 126.551 113.72 126.178C111.152 125.86 108.607 125.428 106.108 124.747C105.762 124.654 105.4 124.45 105.092 124.792C104.283 125.694 103.488 126.613 102.61 127.612L105.828 128.553C106.879 127.74 107.412 126.499 108.632 125.995C108.303 127.111 107.28 127.733 106.654 128.833C114.408 130.966 122.12 131.622 129.949 129.728C121.985 132.227 114.079 131.474 106.122 129.31L105.296 130.25L106.651 130.637C106.226 130.727 105.828 130.713 105.434 130.73C105.223 130.741 104.95 130.73 104.816 130.848C104.183 131.422 103.588 132.041 102.876 132.742C105.334 133.617 107.754 133.855 110.094 134.488H107.591C107.66 134.585 107.768 134.65 107.885 134.668C111.535 135.404 115.241 135.677 118.947 135.926C123.434 136.227 127.796 135.439 132.124 134.367C132.335 134.315 132.556 134.291 132.774 134.256C128.691 135.732 124.502 136.562 120.153 136.41C118.77 136.361 117.388 136.275 116.008 136.161C111.684 135.801 107.401 135.19 103.246 133.876C101.832 133.427 100.401 133.043 98.9769 132.594C98.4964 132.442 98.2096 132.518 98.0229 133.105L104.739 135.214C99.2915 135.214 91.8249 132.424 89.1978 128.895C91.9597 130.516 94.6285 131.978 97.5875 132.898L97.9919 132.286L96.9721 131.799C94.0338 130.388 91.2339 128.767 89.0803 126.257C88.1539 125.175 87.2035 124.145 86.0317 123.319C85.2989 122.801 84.7872 122.078 84.4485 121.231L85.8136 122.144C85.2156 120.761 84.5521 119.413 83.8193 118.096C83.719 117.913 83.5322 117.778 83.3801 117.626C82.5055 116.751 81.6276 115.88 80.7531 115.013L80.1066 114.37C80.155 114.66 80.1621 114.767 80.1863 114.871C81.3962 119.468 83.304 123.772 85.7134 127.854C86.7504 129.61 88.0366 131.211 89.5333 132.597C89.6785 132.753 89.8166 132.915 89.9445 133.088L89.8753 133.161L88.3512 132.13C89.4469 134.523 90.7674 136.762 90.9299 139.421C90.7985 139.251 90.6982 139.061 90.6325 138.857C89.7268 136.676 88.873 134.478 87.8948 132.334C87.4972 131.46 86.8958 130.651 86.2805 129.901C84.5694 127.82 83.1038 125.552 81.9147 123.136C80.1103 119.451 79.0523 115.535 78.3229 111.518C78.2676 111.221 78.1676 110.934 78.0812 110.605L76.2526 111.203C76.2111 111.342 76.1659 111.414 76.1763 111.48C76.2662 112.126 76.3422 112.776 76.4632 113.419C77.5901 119.389 79.6814 125.016 82.5125 130.385C82.9377 131.194 83.4285 131.926 84.1268 132.552C84.6591 133.029 85.0984 133.644 85.4855 134.249C86.6988 136.168 87.5041 138.27 88.0538 140.461C88.2612 141.294 88.3235 142.162 88.4514 143.012C88.1403 142.763 88.0435 142.466 87.9329 142.169C87.2035 140.233 86.5084 138.28 85.7134 136.372C85.3953 135.642 84.9563 134.972 84.4171 134.388C82.5574 132.338 80.9743 130.06 79.7022 127.602C78.202 124.671 77.2066 121.57 76.3562 118.411C75.8481 116.478 75.5889 114.487 75.5751 112.489C75.5751 112.137 75.5334 111.784 75.5092 111.362L73.4247 111.736C73.4939 112.828 73.5145 113.837 73.6286 114.836C74.0676 118.756 75.1049 122.531 76.5706 126.185C77.9221 129.552 79.1562 132.974 81.092 136.078C81.1093 136.109 81.047 136.189 81.0228 136.244C80.9606 136.206 80.9018 136.161 80.85 136.109C80.6426 135.857 80.4419 135.598 80.2379 135.345C77.1061 131.418 75.0597 126.942 73.6286 122.178C72.8751 119.669 72.3948 117.094 72.381 114.46C72.381 113.606 72.4535 112.749 72.4984 111.815L70.1996 112.068C70.248 112.755 70.2618 113.367 70.3413 113.969C70.5695 115.659 70.8807 117.339 71.057 119.036C71.5859 124.152 73.1207 128.968 75.3053 133.603C75.4367 133.883 75.5506 134.173 75.6716 134.457L75.4849 134.55L72.5295 129.4C75.0391 145.985 75.4851 162.539 72.8269 179.256C73.3143 179.118 73.6185 179.038 73.9226 178.945C74.7246 178.707 75.5161 178.433 76.3319 178.233C81.2474 177.016 86.27 176.28 91.3272 176.034C93.2561 175.938 95.1779 175.779 97.1068 175.678C98.925 175.582 100.757 175.336 102.558 175.488C106.326 175.803 110.097 176.121 113.851 176.671C118.024 177.282 122.251 177.528 126.448 177.991C130.748 178.465 135.045 178.292 139.31 177.773C142.625 177.369 145.888 176.574 149.183 175.979C152.515 175.381 155.851 174.814 159.187 174.244C159.992 174.106 160.801 174.009 161.668 173.888C160.586 171.99 159.795 170.127 159.352 168.132C158.972 166.411 159 165.094 159.449 164.036C159.636 167.483 160.86 170.607 162.377 173.725C163.466 173.494 164.61 173.573 165.623 172.996L165.588 173.024C166.587 173.082 167.497 172.861 168.337 172.218C167.334 170.801 166.774 169.28 166.47 167.673L166.729 167.562L168.672 172.073C170.054 171.112 171.316 170.148 172.969 169.878C172.599 169.114 171.824 168.606 172.36 167.704C173.214 168.202 173.031 169.162 173.463 169.826H175.969C177.711 169.816 179.077 169.024 180.331 167.87C181.317 166.967 181.994 165.865 182.779 164.821C183.564 163.777 183.799 162.602 183.747 161.336C183.588 157.479 183.753 153.642 184.573 149.853C184.58 149.732 184.573 149.611 184.549 149.494C183.107 153.272 182.675 157.24 182.004 161.184C181.894 160.597 181.794 160.006 181.676 159.363L181.247 159.836C181.209 159.342 181.13 158.989 181.161 158.647C181.348 156.697 181.434 154.727 181.797 152.812C182.253 150.392 182.927 148.018 183.539 145.629C183.626 145.294 183.681 144.848 184.251 144.685V147.057L185.921 146.099C185.51 144.789 185.278 144.554 184.144 144.305C183.75 144.229 183.353 144.194 182.952 144.194C180.84 144.136 178.731 144.084 176.619 144.049C175.544 144.032 174.465 144.049 173.421 144.049C173.235 145.384 173.045 146.763 172.83 148.305C173.363 147.513 173.774 146.832 174.255 146.206C175.139 145.045 175.457 144.824 176.131 144.775C176.062 144.958 176.038 145.159 175.928 145.273C174.904 146.372 174.628 147.751 174.424 149.165C174.175 150.887 173.909 152.608 173.65 154.326L173.674 154.292C173.604 153.839 173.456 153.382 173.477 152.933C173.535 151.716 173.67 150.503 173.778 149.29C172.257 152.691 171.62 156.252 171.859 160.199C170.984 158.505 170.874 156.926 170.836 155.291C170.587 155.927 170.334 156.563 170.082 157.199C170.158 155.536 170.383 153.925 170.528 152.301C170.701 150.368 171.171 148.512 171.814 146.69C172.135 145.774 172.405 144.834 172.73 143.814C169.533 143.724 166.48 143.168 163.431 143.399C163.01 144.188 164.016 143.908 164.016 144.512C163.922 144.889 163.784 145.425 163.628 146.04C164.659 145.57 163.991 144.267 164.925 143.842C165.399 144.591 165.823 144.988 166.197 145.034C165.93 146.047 165.668 147.053 165.405 148.059C165.91 147.437 166.307 146.735 166.591 145.985C167.192 144.291 167.158 144.281 167.732 143.863C167.794 144.236 167.852 144.582 167.925 145.01C168.06 144.962 168.202 144.924 168.343 144.896C168.523 144.886 168.703 144.886 168.886 144.896C168.413 145.677 167.497 146.127 167.828 147.164C168.364 146.746 168.292 145.864 169.187 145.505L168.226 149.317C168.914 148.553 169.163 147.814 169.284 147.008C169.415 146.148 169.567 145.29 169.75 144.44C169.788 144.264 170.016 144.132 170.158 143.977L170.414 144.073V146.255C170.756 146.009 170.922 145.871 171.109 145.764C171.281 145.677 171.461 145.598 171.641 145.532L171.79 145.695C171.448 146.186 171.088 146.663 170.773 147.171C170.549 147.534 170.303 147.917 170.213 148.325C169.795 150.161 169.432 152.01 169.038 153.856C168.969 154.119 168.883 154.378 168.782 154.634L168.613 154.603V152.214C167.967 153.849 167.98 155.564 167.863 157.264C166.743 155.418 167.223 153.358 166.943 151.381C166.681 152.162 166.418 152.943 166.155 153.728L165.993 153.69V150.776C165.263 152.581 165.246 154.464 165.353 156.366L165.115 156.397L164.247 154.046L163.324 154.651C163.393 152.743 163.469 150.676 163.542 148.605C163.1 149.355 162.768 150.164 162.557 151.004C162.343 151.886 162.173 152.778 162.052 153.676C161.928 154.492 161.872 155.325 161.786 156.148C161.502 155.622 161.261 155.097 161.288 154.579C161.316 154.039 160.649 154.053 160.697 153.535C160.808 152.38 160.808 151.215 160.887 150.057C160.932 149.352 161.032 148.647 161.105 147.945L160.877 147.907C160.002 150.766 159.027 153.6 159.079 156.822C158.537 155.916 158.212 154.897 158.136 153.842C158.032 152.473 158.426 151.181 158.668 149.864C158.803 149.124 158.917 148.377 159.038 147.634L158.782 147.592C158.478 148.854 158.149 150.112 157.873 151.381C157.603 152.601 157.382 153.832 157.116 155.201C156.915 154.81 156.722 154.547 156.639 154.25C156.331 153.144 156.065 152.027 155.778 150.894C155.668 151.537 155.546 152.204 155.422 152.926C155.322 152.753 155.277 152.608 155.18 152.532C155.038 152.453 154.886 152.387 154.724 152.345C154.451 154.219 154.074 154.012 155.429 155.906C155.578 156.113 155.695 156.345 155.83 156.556C157.092 158.602 159.045 159.76 161.181 160.673C161.354 160.731 161.534 160.77 161.713 160.783C162.94 160.939 164.168 161.084 165.395 161.24C167.981 161.568 170.476 162.145 172.696 163.614C173.1 163.881 173.639 163.991 174.133 164.071C175.239 164.25 176.356 164.361 177.538 164.51C177.407 164.672 177.358 164.793 177.272 164.831C175.388 165.595 173.511 166.204 171.527 165.073C170.49 164.482 169.439 163.843 168.309 163.493C166.401 162.889 164.451 162.418 162.477 162.09C160.507 161.772 158.938 160.721 157.468 159.591C155.685 158.218 154.447 156.338 153.528 154.254C152.646 152.321 152.422 150.15 152.888 148.076C153.403 145.74 154.624 143.866 156.888 142.808C157.14 142.691 157.375 142.542 157.762 142.331C155.837 141.882 154.057 141.567 152.366 140.852C150.486 140.053 149.048 138.906 148.343 136.984C147.828 135.625 147.392 134.239 147.039 132.829C146.396 130.119 146.403 127.415 147.658 124.844C148.467 123.188 149.597 121.857 151.533 121.459C151.761 121.394 151.989 121.314 152.211 121.224C150.116 120.312 148.63 118.895 147.136 117.443C145.799 116.143 145.135 114.587 145.024 112.8C144.824 109.62 145.083 106.471 146.182 103.457C146.95 101.372 147.855 99.3502 149.978 98.1438C148.63 97.0964 147.485 95.9626 146.652 94.5038C145.104 91.7765 144.558 88.8694 144.827 85.7929C144.952 84.3894 145.087 82.9722 145.892 81.7277C147.347 79.4809 149.483 78.1742 151.948 77.3342C153.213 76.9056 154.534 77.0438 155.844 77.1821C156.217 77.2201 156.646 77.2236 156.978 77.0819C157.672 76.7811 158.301 76.3248 158.996 76.0241C159.615 75.7579 159.954 75.357 160.165 74.714C160.773 72.8785 161.589 71.1363 162.84 69.6326C162.968 69.4805 163.03 69.2766 163.21 68.9413C162.374 69.0968 161.703 69.2351 161.019 69.3422C160.545 69.4183 160.255 69.6706 160.023 70.0854C159.456 71.0983 158.872 72.1042 158.27 73.0997C157.562 74.2785 156.646 75.2947 155.782 75.8063L159.114 69.7847C158.447 69.8711 157.984 69.9333 157.517 69.9921C156.77 70.0854 156.221 70.4207 155.695 71.0153C154.299 72.595 152.798 74.0814 151.333 75.5989C151.167 75.7441 150.987 75.872 150.8 75.9792C150.745 75.9204 150.69 75.8582 150.641 75.7994L154.717 70.5521C153.759 70.6696 153.009 70.7871 152.252 70.8494C152 70.8597 151.751 70.9289 151.53 71.0499C151.305 71.1708 151.115 71.3368 150.963 71.5442C150.417 72.2701 149.833 72.9649 149.21 73.6286C148.118 74.7659 146.984 75.8582 145.864 76.9678C146.407 75.9377 147.046 74.9594 147.772 74.0503C148.484 73.1343 149.242 72.2597 150.071 71.2642C148.747 71.4163 147.624 71.5131 146.514 71.6928C146.203 71.7447 145.875 71.9901 145.647 72.239C144.309 73.677 143.009 75.153 141.689 76.6048C141.533 76.7569 141.371 76.8952 141.198 77.0266L141.042 76.8606L144.872 71.8103H141.381C140.638 73.3624 139.3 74.3718 138.097 75.4987C138.653 74.0676 139.718 72.9684 140.607 71.7896C139.908 71.6064 139.251 71.5027 138.657 71.2573C138.059 71.0118 137.554 70.96 137.029 71.3506C136.97 71.3955 136.845 71.3575 136.7 71.3575L137.053 70.6247C136.683 70.203 136.272 69.8262 135.985 69.3768C135.681 68.8998 135.328 68.3605 135.29 67.8282C135.19 66.6356 135.204 65.4396 135.335 64.2505C135.677 61.3883 136.538 58.6436 137.516 55.9439C139.735 49.7978 142.141 43.7243 144.06 37.4642C145.124 33.9971 146.521 30.6233 147.119 27.0214C147.524 24.5878 147.993 22.1647 147.489 19.6723C147.295 18.7183 147.319 17.7227 147.257 16.7445C147.091 14.2038 146.835 11.67 146.089 9.22608C145.028 5.76589 142.829 3.27704 139.479 1.83558C138.377 1.362 137.264 1.28941 136.085 1.78027C136.659 3.12494 138.194 3.11802 138.999 4.08937C138.342 4.0306 137.63 4.0306 137.101 3.7195C136.445 3.3358 135.947 2.69285 135.294 2.08446L134.118 2.92445C134.36 3.17333 134.54 3.24593 134.709 3.22173C134.927 3.19062 135.131 3.08691 135.518 2.95556C135.286 3.42222 135.145 3.70221 134.989 4.00641C136.054 5.16096 137.513 5.54811 138.871 6.1565L136.524 5.96292L135.539 7.19698C136.365 7.49771 137.032 7.76734 137.72 7.9782C138.408 8.18906 139.117 8.34116 140.043 8.57967C139.507 8.57967 139.213 8.60041 138.927 8.57967C137.758 8.4898 136.85 8.91152 136.203 9.84484C136.168 9.89669 136.185 9.97965 136.178 10.0972C137.485 10.6745 138.833 11.1342 140.295 11.2898H137.333L136.144 12.7381C137.72 13.5124 139.414 13.5021 140.959 14.0621C139.327 13.9584 137.713 13.751 136.102 13.4986C135.743 13.4433 135.47 13.4364 135.228 13.7371C134.986 14.0379 134.72 14.3386 134.471 14.629C134.879 15.1509 135.228 15.1025 135.612 14.7188C135.895 14.4354 136.216 14.1934 136.521 13.9307L136.666 14.0897C136.41 14.5114 136.154 14.9366 135.84 15.4551C136.459 15.7524 137.032 16.0428 137.62 16.3089C138.183 16.5647 138.757 16.7998 139.518 17.1247C137.827 17.3287 136.631 16.5163 135.297 16.0808L133.918 17.7158L134.671 18.1618C135.123 17.846 135.546 17.6479 135.94 17.5672L135.352 18.542L139.573 20.5192L139.49 20.737L134.64 19.14L133.327 20.5158C135.29 21.781 137.357 22.493 139.348 23.3745C136.987 23.06 134.723 22.2234 132.729 20.9237C132.826 21.2936 132.87 21.4699 132.898 21.5666L131.401 22.4066L136.141 25.3207L136.04 25.5108L130.89 23.2397L129.583 24.4841L135.888 28.328L135.795 28.5216L130.502 26.3093L129.223 27.7888L135.01 31.4356C134.692 31.4183 134.377 31.3458 134.087 31.2179C133.378 30.9275 132.673 30.6406 131.975 30.326C131.602 30.1566 131.298 30.1428 130.99 30.4677C130.603 30.8791 130.185 31.2628 129.676 31.7571L133.939 34.042C133.112 33.9176 132.3 33.6963 131.526 33.3887C130.713 33.0845 129.915 32.7354 129.002 32.3655L127.817 33.724L130.192 34.9857L131.539 34.1837C131.581 34.2321 131.619 34.2805 131.661 34.3324L130.883 35.359L133.057 36.441C132.314 36.396 131.626 36.199 130.942 35.9916C130.589 35.881 130.254 35.7635 129.922 36.0711C129.32 36.6311 128.698 37.1704 127.958 37.8306L131.661 39.5244C130.727 39.4 129.756 39.2928 128.944 38.8814C127.637 38.2212 126.756 38.6395 125.957 39.6523C125.891 39.7353 125.839 39.8321 125.722 40.0153L127.941 41.2528L130.281 39.6004L130.464 39.8113L128.712 41.6987L132.57 43.4616C132.207 43.5238 131.833 43.4996 131.481 43.3959C130.496 43.1194 129.535 42.7945 128.55 42.5421C128.273 42.4695 127.862 42.473 127.661 42.6286C127.042 43.109 126.493 43.6863 125.801 44.3258L130.409 46.7179C128.55 46.4482 126.901 45.5944 125.124 44.9273L122.877 47.0117C123.662 47.4853 124.374 47.8448 124.999 48.3218C125.483 48.6882 125.822 48.6191 126.247 48.2803C126.887 47.7687 127.561 47.2986 128.217 46.8112L128.377 46.991L126.271 49.065L129.386 50.6136L129.293 50.821L125.625 49.6319L123.05 52.0758L125.625 53.4309C125.594 53.4965 125.559 53.5622 125.528 53.6244C124.713 53.3341 123.904 53.0264 123.078 52.7672C122.825 52.6877 122.441 52.6185 122.275 52.7464C121.456 53.3756 120.703 54.0807 119.852 54.8723L122.39 56.3829L123.52 55.4012L123.596 55.4738L122.728 56.5454L125.189 57.814L125.11 58.0387L122.064 57.1849L120.868 58.011L121.643 57.0051L119.102 55.6086L118.131 56.5903L119.521 56.7424L117.405 57.3335L119.513 59.0239L120.817 58.0594L119.914 59.3281L122.618 61.0737L122.507 61.2535L119.396 59.6564L117.115 61.9621C118.757 63.3724 120.509 64.4717 122.327 65.5225C121.888 65.4638 121.498 65.3048 121.097 65.163C120.827 65.0697 120.526 64.9245 120.267 64.966C118.812 65.2011 117.367 65.488 115.915 65.7576C115.932 65.8302 115.925 65.927 115.97 65.9581C116.558 66.3867 117.139 66.8326 117.744 67.2267C119.434 68.3294 121.27 69.1971 123.195 69.8054C123.053 69.8746 122.988 69.9368 122.939 69.9264C120.875 69.5116 118.881 68.8064 117.018 67.8316C116.026 67.3166 115.123 66.6183 114.211 65.9581C113.744 65.6193 113.326 65.4569 112.842 65.8717C112.731 65.6089 112.59 65.5848 112.358 65.7472C112.03 65.9857 111.681 66.2001 111.342 66.4247L112.023 65.488L109.078 65.1008L108.967 65.2737L110.457 66.8776C110.816 66.684 111.096 66.5354 111.373 66.3902L111.387 66.3521ZM102.06 123.067C102.752 123.278 103.443 123.492 104.141 123.699C104.508 123.81 104.84 123.824 104.964 123.247C103.934 123.063 102.942 122.884 101.95 122.721C101.898 122.711 101.822 122.853 101.76 122.925C100.754 122.69 100.584 123.63 99.9275 124.149L103.346 125.518L104.304 124.297L102.06 123.07V123.067ZM101.075 76.4735C101.127 76.2799 101.186 76.0898 101.228 75.91L98.9769 75.0666C98.8905 75.8547 99.5199 76.7742 100.377 77.113C100.432 77.3135 100.429 77.5624 100.546 77.7075C101.009 78.2537 101.511 78.7757 102.015 79.3288C102.223 79.1801 102.375 79.0868 102.506 78.9692C102.907 78.6097 103.301 78.2399 103.678 77.8873C103.654 77.7974 103.62 77.7145 103.578 77.6349C103.298 77.3066 103.007 76.9816 102.724 76.6532C102.256 76.1117 101.709 76.0506 101.082 76.47H101.075V76.4735ZM160.963 103.44C161.292 103.111 161.61 102.786 161.942 102.472C162 102.416 162.118 102.427 162.232 102.402C162.142 102.717 162.07 102.98 161.938 103.44L165.111 99.4228C162.436 99.1428 161.489 100.978 160.624 102.921C160.745 102.997 160.891 103.049 160.974 103.153C161.026 103.218 160.981 103.36 160.974 103.467C159.512 104.255 159.491 105.742 159.238 107.117C159.819 105.894 160.396 104.67 160.963 103.443V103.44ZM91.4308 107.888L91.5277 107.263L88.4062 105.697C88.9696 106.741 89.6334 107.639 90.3179 108.517C90.4146 108.638 90.6188 108.676 90.7709 108.753C91.1995 110.07 92.3746 110.685 93.301 111.649L94.708 109.765L92.1083 107.515L91.4308 107.888ZM185.599 74.0883C185.738 74.4789 185.876 74.8696 186.038 75.3189L186.948 75.0217C186.509 74.5515 186.19 74.1125 185.568 74.1022C185.288 73.4246 184.808 73.0271 184.044 73.0306C183.771 72.7644 183.536 72.4395 183.218 72.2459C181.679 71.3022 180.086 70.4622 178.354 69.8849C177.956 70.5383 177.59 71.119 177.251 71.717C176.94 72.277 176.553 72.8197 176.681 73.5422C177.065 73.0167 177.31 72.4256 177.652 71.8933C177.995 71.361 178.309 70.7526 179.108 70.801C179.218 71.6721 178.05 74.631 177.504 74.7278L176.858 74.313C174.21 75.8271 169.045 81.866 169.263 84.0749C170.248 83.2833 171.185 82.5677 171.468 81.2196C171.648 80.3658 172.104 79.5431 173.072 79.1559C172.993 79.6848 172.816 80.1722 172.657 80.6665C172.599 80.8566 172.478 81.109 172.872 81.0848C172.384 81.8487 172.018 82.6368 172.308 83.6116L173.197 80.9984C173.359 80.8151 173.553 80.6492 173.677 80.4418C174.649 78.7722 175.865 77.2547 177.29 75.9481C178.171 75.1496 178.876 74.3234 179.187 73.1343C179.332 72.5674 179.778 72.0627 180.159 71.5822C180.3 71.4024 180.698 71.2365 180.881 71.3091C181.268 71.4647 181.137 71.8484 181.009 72.1595C180.86 72.5294 180.691 72.8923 180.553 73.2691C180.497 73.4177 180.508 73.5871 180.477 73.8429C181.365 73.5491 181.185 72.1733 182.447 72.315C182.312 73.2069 182.188 74.0607 182.049 74.9663C182.717 74.6933 183.083 74.3027 183.242 73.6873C183.346 73.2864 183.425 72.7679 184.089 72.9926L184.573 73.9466C184.289 74.8834 184.061 75.6508 183.805 76.4873L182.914 76.0068C182.779 76.1762 182.668 76.3179 182.554 76.4597C181.413 77.8182 179.868 78.9243 179.937 81.0087C179.961 81.7623 179.737 82.5262 179.609 83.4008C179.816 83.2591 179.899 83.2314 179.927 83.1761C181.044 80.8497 182.53 78.7204 184.334 76.8676C184.504 76.7085 184.635 76.5184 184.718 76.3041C184.801 76.0898 184.839 75.8582 184.822 75.63C184.808 75.1737 184.96 74.7071 185.102 74.2612C185.136 74.1575 185.427 74.1402 185.603 74.0814L185.599 74.0883ZM172.433 131.308C172.332 131.564 172.184 131.809 172.142 132.072C172.021 132.787 171.945 133.51 171.852 134.232L171.748 134.222C171.593 132.715 171.434 131.207 171.275 129.697L171.13 129.711C171.016 130.226 170.901 130.737 170.77 131.332C170.646 131.087 170.57 130.931 170.452 130.699C170.314 131.235 170.203 131.667 170.075 132.165L169.557 131.474C169.474 134.021 169.391 136.348 169.975 138.646C168.312 136.756 168.668 134.44 168.592 132.172L168.198 132.507C168.084 130.979 167.974 129.538 167.863 128.09H167.638C167.216 130.478 167.496 132.943 166.846 135.345C166.691 134.474 166.539 133.6 166.352 132.566C165.695 134.312 166.093 135.933 166.155 137.727C165.519 136.292 165.021 134.989 165.129 133.582C165.35 130.724 165.644 127.872 165.91 125.02C165.93 124.785 165.969 124.546 166.003 124.225C165.371 124.605 165.129 125.061 165.136 125.711C165.146 126.804 165.097 127.892 165.07 128.985C165.015 130.948 164.631 132.867 164.092 134.782C163.891 133.994 163.763 133.185 163.715 132.372C163.66 131.539 163.649 130.706 163.687 129.873C163.729 129.082 163.884 128.293 163.739 127.498C163.165 128.266 162.83 129.182 162.775 130.136C162.654 132.2 162.591 134.267 162.508 136.33C162.495 136.669 162.508 137.008 162.508 137.347L162.287 137.367C162.056 136.258 161.824 135.152 161.579 133.966L161.122 134.654C160.697 131.74 161.157 128.981 161.184 126.206C160.718 126.859 160.269 127.516 160.151 128.314C159.722 131.228 159.408 134.153 159.646 137.105C159.671 137.385 159.646 137.672 159.646 137.955L159.463 137.969C159.245 136.939 159.014 135.905 158.768 134.778L158.319 135.442C157.897 132.037 158.429 128.829 158.734 125.576C158.454 125.839 158.243 126.168 158.115 126.531C157.997 126.907 157.977 127.315 157.918 127.713C157.631 129.687 157.507 131.705 156.998 133.624C156.698 134.758 156.739 135.812 156.767 136.918C156.767 136.963 156.729 137.008 156.684 137.105C156.49 136.534 156.314 136.012 156.1 135.359C155.989 135.598 155.955 135.698 155.903 135.784C155.851 135.871 155.768 135.971 155.591 136.213C155.408 132.314 155.54 128.632 156.086 124.958C155.156 128.553 154.575 132.206 153.832 135.85C153.663 135.041 153.573 134.218 153.566 133.392C153.566 132.559 153.69 131.729 153.766 130.896C153.835 130.119 153.918 129.341 153.994 128.563C153.054 131.674 153.12 134.813 153.493 138.017C153.127 137.098 152.761 136.178 152.387 135.248L151.959 135.77C152.111 133.116 152.245 130.703 152.38 128.293C151.464 131.28 151.25 134.436 151.758 137.519C150.911 136.569 150.942 135.362 150.434 134.381C150.434 135.252 150.434 136.12 150.552 136.97C150.614 137.412 150.78 137.924 151.077 138.238C152.449 139.701 154.116 140.748 156.12 141.038C159.325 141.502 162.533 141.993 165.758 142.217C170.915 142.577 176.09 142.763 181.258 142.936C182.623 142.981 184.003 142.701 185.371 142.539C187.089 142.335 188.617 141.74 189.73 140.33C189.862 140.16 190.083 140.064 190.214 139.894C190.726 139.241 191.227 138.577 191.708 137.9C191.756 137.824 191.787 137.741 191.804 137.654C191.818 137.568 191.815 137.478 191.794 137.392C191.262 135.864 191.296 134.277 191.338 132.49C190.764 133.658 190.843 134.844 190.152 135.936C189.748 134.26 189.81 132.739 190.01 131.232C190.273 129.299 191.023 127.533 192.039 125.867C192.478 125.155 192.44 125.134 191.642 124.674C191.531 124.861 191.414 125.041 191.317 125.231C191.127 125.621 190.923 126.012 190.771 126.416C189.509 129.711 189.443 133.157 189.516 136.614C189.533 137.558 189.647 138.498 189.72 139.441C188.984 138.508 188.372 137.568 188.316 136.4C188.24 134.768 188.14 133.136 188.137 131.501C188.13 129.03 188.859 126.783 190.425 124.837C190.643 124.564 190.836 124.263 191.096 123.903L190.111 123.212C188.019 126.531 187.107 130.361 186.796 133.949C186.63 135.857 186.789 137.796 186.796 139.718C186.796 139.901 186.768 140.084 186.737 140.465C186.118 139.538 185.758 138.743 185.686 137.869C185.575 136.714 185.53 135.553 185.548 134.391C185.586 132.856 184.96 131.508 184.438 130.088L183.705 133.067C183.2 131.816 183.183 130.727 183.176 129.624C182.99 130.319 182.879 131.031 182.848 131.75C182.827 133.676 183.045 135.598 183.505 137.471C183.639 138.038 183.874 138.629 183.366 139.161C181.157 136.762 180.815 128.985 184.545 124.329C184.414 124.802 184.2 125.245 184.034 125.704C183.844 126.213 183.681 126.734 183.553 127.263C183.442 127.713 183.415 128.179 183.349 128.636C184.275 126.244 185.057 123.814 187.3 122.14C186.021 122.071 186.038 122.096 185.275 122.59C183.781 123.554 182.782 124.916 182.088 126.51C181.915 126.942 181.807 127.395 181.766 127.858C181.628 129.082 181.538 130.312 181.424 131.536C181.407 131.633 181.386 131.729 181.355 131.823L181.216 131.681L180.898 130.52C180.67 131.249 180.639 131.93 180.605 132.611C180.598 132.787 180.639 133.095 180.57 133.123C179.982 133.364 180.204 133.886 180.2 134.26C180.193 135.746 180.255 137.236 180.297 138.792C179.764 137.945 179.443 136.984 179.36 135.992C179.249 134.536 179.36 133.084 178.966 131.619C178.555 130.077 178.527 128.432 178.327 126.752C178.223 126.9 178.136 127.056 178.06 127.218C177.773 128.079 177.476 128.936 177.227 129.811C176.985 130.651 177.037 131.564 176.412 132.314C176.204 132.559 176.315 133.088 176.321 133.485C176.349 135.038 176.398 136.59 176.443 138.356C175.786 137.087 175.423 135.929 175.443 134.685C175.481 132.286 175.689 129.901 176.353 127.574C176.529 126.959 176.56 126.351 176.235 125.718C175.153 127.08 174.472 128.715 174.265 130.44C174.196 131.093 173.974 131.733 173.801 132.469L173.335 131.916V137.188C172.606 135.203 172.395 133.271 172.45 131.294C172.45 129.393 172.937 127.585 173.542 125.801C173.687 125.366 173.815 124.954 173.629 124.422C172.723 125.172 172.225 125.936 172.322 127.08C172.436 128.47 172.408 129.887 172.446 131.29L172.433 131.308ZM169.048 91.2718C169.08 91.6728 169.107 92.0772 169.145 92.5715C168.119 91.7696 167.794 90.5908 167.175 89.5849L166.366 90.2002C167.061 89.4363 167.279 88.6066 166.781 87.5731L164.863 89.4501C165.056 89.1113 165.219 88.7449 165.45 88.4338C165.799 87.9741 166.176 87.5316 166.577 87.1099C166.961 86.702 167.04 86.2699 166.836 85.7272C166.041 86.4911 165.263 87.179 164.551 87.9326C164.154 88.3543 164.333 89.0042 164.873 89.4466C164.513 89.8753 164.679 90.3523 164.776 90.8017C164.921 91.493 165.122 92.1705 165.346 93.052C164.271 91.8871 163.732 90.6738 163.331 89.1493C162.564 90.3143 161.226 90.7947 161.102 92.0599L159.982 92.5577C160.085 91.8352 160.42 91.0575 159.802 90.3108L159.052 90.8397C159.381 89.1413 159.444 88.0374 159.242 87.5281C157.62 88.8521 157.033 90.4733 157.928 92.5231L157.7 92.5611L156.331 90.7982L154.783 92.5992C154.928 91.9113 155.239 91.3133 155.526 90.7083C155.816 90.1034 156.1 89.4881 155.519 88.6689L154.427 90.7014C154.34 90.7325 154.046 90.7533 153.981 90.8846C153.818 91.213 153.763 91.5933 153.67 91.9182C152.819 91.6589 152.906 92.7132 152.214 92.8999C152.878 91.5276 153.272 90.1967 151.979 88.9731C150.666 90.5355 150.922 92.1671 151.509 93.8471C151.291 93.6708 151.112 93.4461 150.984 93.1972C150.437 91.9839 149.923 90.7567 149.376 89.4916C149.128 89.6091 148.913 89.7888 148.754 90.0101C148.595 90.2313 148.495 90.4906 148.464 90.7636C148.391 91.296 148.281 91.8214 148.184 92.3468C148.052 92.1567 147.973 91.9355 147.956 91.7073C147.783 89.6333 148.118 87.5523 148.941 85.6373C149.397 84.5692 149.871 83.5114 150.361 82.4606C150.5 82.1736 150.676 81.8072 150.932 81.6966C151.807 81.3198 152.315 80.5455 153.009 79.9786C153.348 79.7021 153.721 79.4636 154.081 79.2078L154.254 79.4117C153.708 80.065 153.141 80.7114 152.612 81.3855C152.086 82.0596 151.419 82.6887 151.309 83.6393L154.088 80.4522V81.2853L156.542 80.2413C155.605 81.6275 154.167 82.5781 153.697 84.265C154.731 83.4008 156.031 82.8546 156.67 81.5307C156.881 81.0951 157.31 80.7495 157.662 80.3865C158.067 79.9786 158.512 79.6087 158.917 79.2009C159.245 78.8655 159.535 78.4853 159.874 78.1535C160.973 77.0715 162.315 76.4355 163.791 76.0483C162.014 77.0508 160.396 78.3159 158.996 79.7989C159.072 80.0166 159.138 80.1999 159.214 80.4211C158.426 81.0468 157.942 81.8556 157.607 82.7717C158.481 82.1598 159.304 81.5099 160.106 80.8393C161.298 79.8403 162.577 78.9554 163.632 77.7836C164.976 76.2903 166.605 75.1081 168.34 74.0849C168.52 73.9673 168.696 73.836 168.862 73.7012C166.587 74.0296 164.351 74.3718 162.384 75.5747C161.268 76.2557 160.148 76.9332 159.028 77.6107C158.658 77.8354 158.215 78.0048 157.932 78.3125C157.448 78.8483 156.891 78.8967 156.248 78.8171C155.491 78.7204 154.72 78.5614 153.97 78.6098C153.106 78.6651 152.252 78.831 151.426 79.1041C150.669 79.3702 149.95 79.7332 149.286 80.1791C147.952 81.0537 146.77 82.1218 146.393 83.7257C145.501 87.5592 145.944 91.2303 148.004 94.6456C149.01 96.3117 150.303 97.6184 152.221 98.2337C153.818 98.7556 155.502 98.9561 157.175 98.8248C157.866 98.7729 158.557 98.6969 159.245 98.7072C161.855 98.7383 164.399 98.2855 166.895 97.6114C169.761 96.8371 172.678 96.4742 175.623 96.3013C178.133 96.1562 180.649 96.125 183.159 96.0628C185.171 96.011 187.158 95.769 189.084 95.1779C190.726 94.6732 192.171 93.7676 193.042 92.2846C193.678 91.2027 194.103 89.9686 194.424 88.7484C195.067 86.3114 194.535 84.0265 193.173 81.6966C193 82.5124 192.748 83.145 192.759 83.7707C192.783 85.1464 192.969 86.5188 193.035 87.898C193.083 88.8935 193.045 89.8891 193.045 91.1162C192.164 89.7197 192.16 88.2368 191.628 86.8852C190.501 88.2955 190.76 89.7543 191.044 91.2372C190.003 89.2634 189.029 87.2896 188.873 84.7869C188.597 85.2536 188.476 85.4748 188.341 85.6857C187.795 86.543 187.552 87.4244 187.812 88.4684C188.095 89.6195 188.233 90.8086 188.448 92.0426C186.695 90.2866 186.384 88.0259 185.983 85.7583C185.427 86.6467 184.922 87.5696 184.48 88.5202C184.386 88.7173 184.462 89.018 184.521 89.2565C184.718 90.1069 184.946 90.9468 185.178 91.8767C183.435 90.7049 183.003 88.9005 182.502 86.9751C182.226 87.459 182.039 87.7874 181.849 88.1123C181.631 87.6664 181.496 87.2309 181.565 86.8299C181.704 86.0452 181.901 85.2743 182.15 84.5173C182.402 83.7396 182.603 82.3638 182.461 81.5514C181.676 82.7509 180.94 83.9158 180.162 85.0497C179.989 85.2847 179.875 85.5543 179.827 85.8412C179.778 86.1282 179.792 86.422 179.868 86.6985C180.183 87.9291 180.497 89.1563 180.819 90.3834C180.881 90.6219 180.95 90.8639 181.016 91.1024C178.786 88.6585 178.316 85.7445 178.61 82.5746C177.842 83.2833 177.068 83.9089 176.515 84.7766C175.938 85.665 175.71 86.7331 175.879 87.7805C176.076 89.139 176.207 90.5078 176.408 92.136C175.793 91.1231 175.395 90.2797 175.181 89.374C174.963 88.4511 174.835 87.5074 174.642 86.4289C173.888 87.0822 173.276 87.6491 172.626 88.1676C172.232 88.4857 172.146 88.821 172.253 89.3084C172.443 90.1656 172.571 91.0367 172.727 91.9009L172.547 91.9804L171.206 89.5572L169.847 90.4353C170.144 90.1207 170.452 89.8165 170.735 89.4916C170.874 89.336 171.078 89.1251 171.057 88.9627C170.964 88.0985 170.812 87.2447 170.653 86.2111C169.854 86.9647 169.201 87.58 168.558 88.2022C168.433 88.3232 168.253 88.5202 168.281 88.6377C168.482 89.5296 168.409 90.5113 169.048 91.2683V91.2718ZM179.799 99.4228C179.398 100.035 178.683 100.436 178.586 101.262C179.063 100.709 179.758 100.325 179.899 99.5161L182.239 97.5146C179.858 97.2312 173.044 97.6875 170.576 98.244C170.027 98.8386 169.557 99.3363 169.104 99.8376C168.962 99.9966 168.703 100.256 168.748 100.342C169.076 100.978 168.534 101.369 168.364 101.849C168.153 102.441 167.873 103.007 167.624 103.588C168.17 103.26 168.568 102.579 169.017 102.544C169.647 102.492 169.792 102.14 170.013 101.773C170.711 100.619 171.631 99.6129 172.72 98.8109C173.114 98.5171 173.508 98.2302 174.206 98.3062C173.407 99.1324 172.713 99.8549 171.98 100.612L172.72 100.657C172.291 101.5 171.921 102.237 171.544 102.983L172.481 103.156C173.027 102.492 173.667 101.87 174.123 101.144C174.942 99.8479 176.1 98.9388 177.335 98.0988C177.514 97.9779 177.739 97.9329 177.946 97.85C177.884 98.0816 177.76 98.289 177.587 98.4549C175.312 100.816 173.781 103.571 173.145 106.799C173.076 107.156 172.951 107.501 172.879 107.857C172.305 110.761 171.655 113.661 172.07 116.855C170.21 114.484 169.681 111.884 169.491 109.109L168.686 112.973C168.129 110.871 168.35 108.835 168.928 106.817C169.118 106.219 169.308 105.624 169.501 105.026C169.132 105.586 168.613 106.112 168.955 106.844L168.492 107.204C168.444 106.986 168.399 106.768 168.35 106.551L168.133 106.519C167.908 107.197 167.593 107.861 167.476 108.555C167.019 111.259 167.037 113.979 167.365 116.696C167.4 116.973 167.455 117.242 167.5 117.522C166.231 115.013 165.868 112.341 165.803 109.586C165.561 111.321 165.319 113.056 165.077 114.791C164.804 114.366 164.603 113.896 164.489 113.405C164.016 111.649 164.489 109.945 164.818 108.241C164.949 107.556 165.146 106.886 165.343 106.077C163.857 107.432 163.618 107.933 163.359 109.606C163.016 111.815 163.072 114.021 163.31 116.229C163.328 116.547 163.328 116.869 163.31 117.187C163.241 117.104 163.183 117.014 163.134 116.917C162.965 116.437 162.799 115.96 162.643 115.476C162.474 114.957 162.201 114.439 162.19 113.917C162.18 113.395 161.634 113.281 161.582 112.842C161.513 112.303 161.426 111.763 161.33 111.231C161.309 111.117 161.209 111.013 161.139 110.903C160.144 111.594 159.774 112.43 160.106 113.561C160.427 114.66 160.694 115.773 161.001 116.938C159.919 116.043 159.38 114.84 158.886 113.544L157.9 114.418C157.755 113.156 157.61 111.895 157.462 110.633L157.244 110.574C157.102 110.837 156.846 111.096 156.836 111.362C156.794 112.531 156.905 113.689 157.32 114.843L157.707 114.577C157.04 115.369 157.776 116.112 157.852 116.952C156.4 115.51 156.262 115.144 155.394 110.453C155.177 111.784 154.98 113.025 154.738 114.498C154.199 113.205 154.188 112.033 154.133 110.809C153.376 111.228 153.199 111.76 153.334 112.434C153.538 113.461 153.739 114.491 153.939 115.517L153.797 115.562L152.484 112.856L152.273 112.925C152.239 113.54 152.204 114.152 152.162 114.909C151.596 114.169 151.537 113.44 151.478 112.735C151.423 112.047 151.468 111.349 151.468 110.481L150.555 111.442C150.545 110.585 150.838 109.969 151.26 109.416C151.896 108.58 151.948 107.608 152.073 106.509C149.833 108.863 149.359 111.566 150.32 115.866C150.116 115.583 149.898 115.296 149.795 114.975C149.442 113.91 149.127 112.831 148.809 111.756C148.747 111.549 148.785 111.183 148.681 111.141C148.059 110.899 148.377 110.515 148.439 110.128C148.585 109.254 148.681 108.369 148.799 107.491L148.502 107.435C148.094 109.053 147.686 110.671 147.281 112.285L147.07 112.261C147.205 110.405 147.34 108.562 147.479 106.668C146.749 107.194 146.276 107.795 146.3 108.742C146.317 109.613 146.224 110.481 146.189 111.355C146.058 115.006 147.71 117.705 150.735 119.607C152.996 121.031 155.612 121.791 158.288 121.809C165.578 121.919 172.858 121.65 180.128 121.103C181.033 121.024 181.946 121.027 182.851 121.114C183.837 121.224 184.586 120.492 185.527 120.509C186.183 120.523 186.84 120.467 187.49 120.502C188.697 120.568 189.896 120.312 190.968 119.759C192.599 118.919 193.706 117.512 194.248 115.721C194.324 115.486 194.342 115.234 194.3 114.988C193.944 113.412 193.56 111.846 193.173 110.211L192.399 111.815C192.281 111.563 192.247 111.276 192.305 111.003C192.744 108.535 193.259 106.087 194.355 103.802C194.483 103.533 194.594 103.149 194.494 102.893C194.304 102.409 193.958 101.981 193.577 101.379C193.384 101.925 193.287 102.299 193.125 102.648C192.147 104.76 191.728 107.003 191.649 109.306C191.555 111.978 191.649 114.629 193.343 117.031C192.167 116.852 191.472 116.223 190.999 115.313C190.231 113.851 190.114 112.258 190.076 110.654C190.069 110.367 190.035 110.08 190.01 109.796L189.855 109.814C189.63 110.291 189.402 110.764 189.091 111.425C188.859 110.346 189.039 109.503 189.215 108.673C189.872 105.631 190.923 102.755 192.938 100.256L192.095 99.2465C190.076 101.867 189.436 104.916 188.558 107.861C187.642 110.916 188.289 113.972 188.71 117.031L188.503 117.087L187.145 114.432L186.716 114.767C186.716 113.219 186.716 111.839 186.709 110.46C186.709 110.388 186.598 110.318 186.529 110.225L185.872 111.051C185.516 109.437 185.942 108.116 186.564 106.82C187.02 105.873 187.432 104.902 187.912 103.965C188.883 102.057 189.868 100.152 191.414 98.486L190.387 97.6253C190.276 97.7117 190.173 97.805 190.076 97.9053C189.768 98.3097 189.457 98.7141 189.174 99.1359C187.248 102.015 185.658 105.064 184.262 108.231C183.436 110.104 183.387 111.94 183.792 113.862C184.158 115.614 184.756 117.311 185.572 118.912C183.712 117.83 183.142 115.991 182.219 114.47C181.213 112.811 181.897 110.816 181.697 108.898L180.719 111.079C179.844 109.959 180.259 108.856 180.279 107.764C180.044 108.179 179.841 108.604 179.782 109.046C179.581 110.519 179.415 111.998 179.267 113.478C179.208 113.907 179.225 114.342 179.312 114.764C179.602 115.911 179.962 117.038 180.314 118.255C178.562 116.658 177.943 114.581 177.417 112.434C177.289 113.184 177.158 113.934 176.989 114.93C175.734 111.497 176.933 108.483 177.5 105.406C177.224 105.769 177.02 106.184 176.895 106.623C176.467 108.348 176.028 110.073 175.685 111.819C175.378 113.385 175.088 114.982 175.952 116.499C175.969 116.527 175.91 116.599 175.865 116.693C174.31 114.895 173.549 112.818 173.456 110.505C173.345 107.66 174.047 105.019 175.807 102.738C176.902 101.355 178.191 100.183 179.809 99.4228H179.799ZM51.6959 187.314L52.0102 187.338C52.1208 186.968 52.2453 186.605 52.3248 186.228C52.8502 183.719 52.9195 181.178 52.8642 178.637C52.7087 171.081 52.5806 163.528 52.3109 155.975C52.1243 150.714 51.6751 145.463 50.1991 140.364C50.0608 139.891 49.9501 139.41 49.7981 138.826C49.7981 140.154 49.7911 141.343 49.7981 142.535C49.8084 143.804 49.8567 145.076 49.8463 146.345C49.836 147.793 49.708 149.245 49.7633 150.69C49.9154 154.755 50.1576 158.816 50.3166 162.882C50.5205 168.146 50.6623 173.411 50.8628 178.675C50.9388 180.597 51.0803 182.519 51.2462 184.438C51.3327 185.399 51.5401 186.356 51.6922 187.314H51.6959ZM62.5637 186.643L62.7747 186.629C62.8611 186.412 62.9923 186.201 63.0235 185.976C63.141 185.261 63.2206 184.538 63.2621 183.812C63.3866 180.11 63.5213 176.408 63.5835 172.702C63.7079 165.291 63.8186 157.88 62.588 150.527C62.1628 147.986 61.748 145.442 61.3194 142.902C61.2848 142.694 61.1567 142.504 61.0703 142.307C60.8836 143.223 60.87 144.091 60.8873 144.958C61.0221 152.003 61.1396 159.048 61.3055 166.093C61.4231 171.067 61.5959 176.041 61.7825 181.016C61.8378 182.464 62.0106 183.909 62.1731 185.354C62.2215 185.793 62.4289 186.215 62.5637 186.65V186.643ZM58.4365 141.761L58.2289 141.775C58.1702 142.743 58.0525 143.714 58.0595 144.685C58.0837 148.712 58.139 152.743 58.2012 156.774C58.2635 160.911 58.3118 165.049 58.4328 169.187C58.5469 173.286 58.7096 177.386 58.9135 181.482C58.993 183.072 59.2418 184.656 59.4216 186.242C59.4388 186.387 59.5321 186.526 59.6393 186.802C60.2788 184.963 60.7351 183.224 60.7627 181.455C60.8492 176.484 60.9323 171.506 60.7837 166.539C60.6661 162.626 60.2236 158.723 59.8918 154.814C59.6533 151.993 59.3836 149.176 59.0864 146.362C58.9239 144.82 58.6611 143.292 58.4399 141.761H58.4365ZM70.815 146.016L70.6283 146.04C70.5453 147.959 70.4243 149.874 70.3862 151.796C70.2756 157.237 70.2135 162.681 70.0959 168.125C69.9749 173.822 69.8023 179.515 69.6709 185.216C69.6606 185.686 69.7815 186.163 69.8471 186.737C70.5039 186.349 70.5798 185.841 70.6593 185.347C70.8598 184.127 71.0638 182.913 71.2332 181.69C71.5754 179.208 72.0352 176.736 72.1977 174.244C72.7093 166.67 72.6161 159.065 71.9178 151.509C71.7588 149.819 71.33 148.156 71.0155 146.483C70.9671 146.32 70.8979 146.165 70.815 146.016ZM65.0837 185.475C65.2669 185.312 65.3119 185.292 65.3119 185.267C65.6956 182.063 66.3385 178.862 66.4076 175.651C66.5424 168.685 66.691 161.703 65.8614 154.758C65.4362 151.229 64.8487 147.72 64.3302 144.205C64.2956 143.963 64.1711 143.731 64.0882 143.5C63.9015 157.482 64.0051 171.42 65.087 185.468V185.475H65.0837ZM52.9851 141.405C52.9298 143.071 52.8088 144.741 52.8399 146.403C52.8883 149.131 53.0577 151.844 53.1407 154.565C53.3896 163.203 53.5866 171.845 53.8769 180.48C53.9495 182.675 54.2781 184.86 54.489 187.051C54.7378 186.906 54.8379 186.75 54.8586 186.588C55.1144 184.538 55.5465 182.488 55.5638 180.435C55.5984 175.827 55.5189 171.216 55.315 166.604C55.0246 160.151 54.5718 153.704 54.2054 147.25C54.0913 145.249 53.68 143.278 52.9817 141.398V141.405H52.9851ZM67.3616 186.142L67.6381 186.183C67.7107 185.993 67.8008 185.807 67.8561 185.613C68.468 183.446 68.8308 181.216 68.9276 178.966C69.1281 174.904 69.3251 170.846 69.4633 166.784C69.5428 164.465 69.6638 162.128 69.491 159.819C69.135 155.087 68.2951 150.413 67.2235 145.778C67.1579 150.814 67.1612 155.854 67.1577 160.887C67.1577 167.057 67.1301 173.231 67.1577 179.401C67.1646 181.645 67.289 183.888 67.3616 186.135V186.142ZM56.8395 187.483L57.0987 187.5C57.1782 187.307 57.2785 187.113 57.3408 186.913C57.8455 185.34 58.0216 183.712 58.0078 182.077C57.9802 178.7 57.9422 175.322 57.8039 171.949C57.4548 163.421 57.0362 154.9 56.6629 146.372C56.5938 144.792 56.1931 143.289 55.5986 141.813C55.4499 143.365 55.3874 144.924 55.4082 146.483C55.5188 151.129 55.7091 155.775 55.8335 160.424C56.0513 168.592 56.6493 176.747 56.4661 184.925C56.4454 185.772 56.7079 186.626 56.8358 187.48V187.487L56.8395 187.483ZM172.391 72.8024C171.88 73.1101 171.385 73.4315 170.867 73.7185C170.075 74.154 169.208 74.4824 168.482 75.0044C167.206 75.9031 165.989 76.8848 164.838 77.9357C163.698 79.0038 162.664 80.1929 161.641 81.3786C161.022 82.0907 160.528 82.9065 160.687 83.9988C160.867 83.8847 161.039 83.7568 161.202 83.6151C161.942 82.8684 162.747 82.1667 163.39 81.3406C164.105 80.4176 165.253 80.1411 166.048 79.3771C166.072 79.3529 166.117 79.3149 166.138 79.3253C166.732 79.5154 166.926 78.9969 167.255 78.71C168.423 77.6799 169.571 76.6256 170.784 75.6542C171.513 75.07 172.346 74.6138 173.19 74.0676C172.896 71.9624 174.095 70.4449 175.357 68.8929L174.23 68.6094C172.934 69.6948 172.588 71.3298 171.61 72.6814L172.391 72.8024ZM91.2617 95.5651L91.393 95.4544C91.0024 94.5868 90.6116 93.7192 90.1622 92.7271C89.7958 93.3285 89.4365 93.8263 89.1772 94.3725C89.0527 94.6386 89.0528 95.0051 89.1046 95.3023C89.516 97.563 90.9783 99.1912 92.4992 100.767C92.6617 100.909 92.8585 101.013 93.0728 101.061C93.8056 101.279 94.5385 101.486 95.2748 101.69C95.7933 101.832 96.1979 101.739 96.3604 101.144C95.5342 100.318 94.6873 99.5299 93.913 98.6796C93.3772 98.0919 92.7445 97.6011 92.0462 97.2277C91.2615 96.7991 90.5632 96.1942 89.8753 95.6134C89.6368 95.4129 89.3432 95.088 89.7062 94.5937L91.2617 95.5616V95.5651ZM92.3021 89.3291C93.2389 90.4491 94.1272 91.5345 95.0536 92.5923C95.2576 92.7927 95.517 92.9345 95.797 92.9967C96.6715 93.2214 97.5596 93.3977 98.4446 93.5982C98.9009 93.7019 99.2189 93.5636 99.3503 93.1626L97.1621 90.9157L96.4225 91.2891L96.7854 90.494C95.9281 89.2496 94.9361 88.2506 93.3425 87.9948L92.3021 89.3326V89.3291ZM93.2561 124.235C91.0818 122.013 88.5203 120.575 85.8136 119.206C85.8447 119.385 85.8344 119.5 85.8862 119.572C86.7262 120.882 87.5699 122.189 88.4237 123.492C88.5309 123.682 88.683 123.841 88.8697 123.959C90.0138 124.564 91.1683 125.141 92.3608 125.746C92.6961 125.175 92.976 124.716 93.2595 124.232L93.2561 124.235ZM86.5603 114.39C87.1376 115.86 89.3223 118.96 90.3766 119.914C90.6324 120.146 90.9609 120.298 91.2928 120.512L92.7409 118.438C91.1336 116.33 88.7208 115.569 86.5603 114.39ZM169.325 79.9579C170.507 79.0418 171.237 77.8562 172.232 76.9332C173.266 75.9757 174.313 75.032 175.371 74.0676C175.06 72.1215 176.263 70.8701 177.649 69.598L176.46 69.2143C175.803 70.4069 175.167 71.5442 174.548 72.6918C174.382 73.0029 174.272 73.3451 174.137 73.6666L174.797 74.0745C170.645 76.6567 166.878 80.0858 166.218 81.8072C167.583 81.3855 168.15 79.989 169.215 78.8344C169.263 79.3253 169.284 79.5603 169.322 79.951L169.325 79.9579ZM107.816 115.31C107.498 115.199 107.27 115.109 107.031 115.051C105.943 114.771 104.85 114.505 103.761 114.218C102.911 113.993 102.838 114.021 102.416 114.95L104.86 115.735C104.038 115.787 103.229 115.787 102.451 115.625C101.594 115.441 101.179 115.842 100.764 116.606C101.898 117.042 102.969 117.46 104.048 117.84C104.148 117.868 104.255 117.871 104.359 117.854C104.463 117.837 104.563 117.799 104.649 117.74C105.7 116.959 106.717 116.15 107.813 115.3L107.816 115.31ZM180.56 74.5204C180.038 74.9456 179.512 75.3017 179.073 75.7441C178.212 76.6187 177.393 77.5416 176.577 78.4611C176.477 78.5717 176.519 78.8033 176.484 78.9727C176.329 79.6848 176.287 80.4142 176.066 81.1228C175.772 82.0216 175.748 82.986 175.99 83.8986C176.906 80.7045 178.89 78.2883 181.082 76.1071C180.891 75.5332 180.736 75.0631 180.56 74.5204ZM180.722 104.155C182.385 101.742 184.034 99.3329 186.35 97.245C185.468 97.2969 184.818 97.3142 184.168 97.3764C183.888 97.404 183.57 97.4559 183.356 97.6114C181.521 98.9527 180.304 100.816 178.907 102.838C179.972 102.306 180.605 101.687 181.109 100.92C181.438 100.425 181.859 100.069 182.675 100.045C181.368 101.21 181.182 102.731 180.725 104.152L180.722 104.155ZM81.6517 109.841C81.6448 109.959 81.652 110.073 81.6831 110.187C82.4851 112.209 83.2939 114.231 84.1028 116.25C84.1754 116.454 84.31 116.634 84.4863 116.762C85.4576 117.349 86.4463 117.906 87.4971 118.514C87.4971 118.321 87.5075 118.283 87.4971 118.255C86.5327 116.551 85.5649 114.847 84.597 113.143C84.5244 113.018 84.4379 112.901 84.3411 112.793C83.4389 111.801 82.5401 110.816 81.6517 109.841ZM96.889 96.0179C95.9799 95.0051 95.1089 94.1132 93.8023 93.6396C92.8067 93.2767 91.9427 92.5542 91.0163 91.9942C90.9299 91.9562 90.8365 91.9286 90.7432 91.9113C90.7225 92.0115 90.6774 92.0945 90.705 92.1291C91.6176 93.5187 92.4957 94.9359 93.4671 96.284C94.0236 97.0549 94.9984 97.0031 95.8453 97.1552C95.9732 97.1794 96.1735 97.0203 96.2841 96.8959C96.5053 96.6297 96.6885 96.3186 96.889 96.0179ZM154.129 99.7373C153.348 99.4815 152.809 99.3018 152.269 99.122C150.807 98.6485 149.753 99.0322 148.941 100.363C147.976 101.946 147.281 103.678 146.884 105.486C146.846 105.738 146.825 105.991 146.818 106.243C147.765 105.368 148.44 104.515 148.772 103.395C148.955 102.779 149.29 102.195 149.632 101.649C150.061 100.961 150.648 100.411 151.433 100.135C151.613 100.073 151.845 100.163 152.214 100.197L151.246 101.376L151.357 101.493L154.133 99.7442L154.129 99.7373ZM111.922 64.2297L112.047 64.0119C111.031 63.1685 110.187 62.1764 109.371 61.1532C109.271 61.0495 109.143 60.9838 109.001 60.9666C108.04 60.8214 107.076 60.69 106.025 60.5448C106.299 61.7098 106.934 62.5774 107.584 63.4312C107.695 63.5833 107.954 63.6697 108.158 63.7008C109.413 63.8875 110.668 64.0534 111.922 64.2297ZM93.778 104.352C92.5992 102.171 90.4941 101.407 88.389 100.481C89.0907 102.202 91.1925 104.992 92.5475 106.018L93.778 104.352ZM85.2779 102.918C84.5693 103.602 84.5798 104.273 84.9116 105.002C85.2573 105.766 85.5614 106.537 85.8967 107.301C85.9969 107.529 86.1043 107.798 86.291 107.94C87.4109 108.811 88.631 109.541 89.9273 110.118L85.2779 102.918ZM101.863 67.2129L101.697 67.365C102.42 68.485 103.122 69.6188 103.868 70.7215C104.446 71.5684 105.414 71.6237 106.171 70.9392C106.464 70.6765 106.817 70.4726 107.252 70.1649C106.509 69.439 106.063 68.7373 105.427 68.4366C104.3 67.9042 103.056 67.6104 101.863 67.2163V67.2129ZM160.846 74.9249C161.973 74.4617 162.847 74.1264 163.698 73.7357C163.953 73.6148 164.157 73.4108 164.282 73.1585C164.893 71.6963 165.467 70.2202 166.059 68.7304C165.039 68.5541 164.365 68.879 163.915 69.802C163.466 70.7249 162.91 71.5684 162.384 72.4395C161.928 73.2103 161.44 73.9708 160.846 74.9283V74.9249ZM104.031 63.7423C103.972 63.8045 103.913 63.8668 103.854 63.9324C104.47 64.9072 105.071 65.889 105.704 66.8534C105.814 67.0228 106.015 67.2129 106.195 67.2405C107.325 67.4168 108.466 67.5551 109.61 67.7037C109.61 67.5102 109.641 67.4168 109.61 67.3753C108.901 66.5526 108.186 65.7334 107.467 64.9211C107.349 64.7862 107.197 64.686 107.028 64.6238C106.025 64.3161 105.023 64.0327 104.031 63.7389V63.7423ZM87.9879 113.429C86.5154 110.948 85.3885 108.248 83.031 106.392C82.6266 106.851 82.9205 107.245 83.0864 107.619C83.6291 108.839 84.1891 110.052 84.756 111.262C84.8666 111.48 84.9876 111.736 85.1743 111.881C86.0246 112.541 86.9751 113.063 87.9879 113.429ZM169.28 68.4262C168.243 68.3709 167.182 68.364 166.778 69.7363C166.698 70.0025 166.46 70.2202 166.314 70.4691C165.768 71.4024 165.236 72.3392 164.589 73.4592L167.417 72.958L169.28 68.4262ZM184.193 86.9578C184.912 84.8146 186.153 82.8961 186.567 80.6596C186.768 79.5776 187.272 78.6097 188.379 78.0982L188.634 78.4749L189.692 77.4552L188.925 76.7604C188.776 77.0611 188.676 77.2651 188.576 77.4725C188.057 77.1925 187.967 77.7075 187.756 77.9391C186.401 79.4255 185.423 81.1608 184.424 82.8892C183.636 84.2442 183.888 85.5751 184.193 86.9647V86.9578ZM104.297 105.742L100.93 104.314C100.322 104.967 99.6994 105.635 98.9908 106.395L102.137 107.923C102.863 107.232 103.492 106.637 104.114 106.036C104.186 105.946 104.245 105.849 104.293 105.742H104.297ZM95.3683 83.94C95.0814 84.6314 94.8153 85.1464 94.6597 85.6995C94.5906 86.0003 94.632 86.3148 94.7772 86.5914C95.3648 87.6526 97.5045 88.4303 98.7696 88.0778C98.825 88.0639 98.8631 87.9671 98.9945 87.8116C98.4587 87.0096 97.8571 86.2491 97.2003 85.5405L96.5295 85.8862L96.9238 84.8976L95.3649 83.94H95.3683ZM100.826 102.676L103.056 100.494C102.89 100.363 102.786 100.263 102.669 100.187C102.244 99.9102 101.825 99.6198 101.383 99.3744C100.591 98.9285 99.9899 99.0183 99.3435 99.6613C98.9909 100.014 98.652 100.377 98.213 100.833L100.823 102.679L100.826 102.676ZM102.994 113.063L105.559 110.505C104.255 109.852 103.007 110.021 101.787 110.018C101.642 110.025 101.507 110.083 101.404 110.184C100.979 110.602 100.571 111.037 100.08 111.542L102.997 113.063H102.994ZM110.958 57.1572L107.902 56.6353C108.348 57.534 108.715 58.2703 109.074 59.01C109.416 59.7221 109.911 60.13 110.771 60.0471C111.307 59.9952 111.853 60.1093 112.396 60.1093C112.614 60.1093 112.828 59.9987 113.163 59.9088L111.342 57.8209L110.177 58.7266L110.066 58.616L110.958 57.1572ZM111.753 92.3503L108.345 90.7948L106.686 92.6165L109.665 94.2861L111.753 92.3468V92.3503ZM124.868 49.2309C124.056 48.8265 123.402 48.4359 122.697 48.1801C122.369 48.0625 121.84 48.0764 121.577 48.2665C120.986 48.6951 120.502 49.2724 119.894 49.867L122.03 51.4156L124.868 49.2309ZM172.122 88.0605C172.996 87.1272 173.719 86.3736 174.431 85.6062C174.534 85.5059 174.604 85.3746 174.631 85.2329C174.697 84.2442 174.742 83.2556 174.794 82.267L174.6 82.1702C173.895 82.9791 173.19 83.781 172.488 84.5934C171.62 85.5993 171.977 86.7193 172.122 88.057V88.0605ZM114.615 59.5804C114.781 60.054 115.096 60.2268 115.524 60.2476C115.884 60.2614 116.247 60.2683 116.606 60.289C116.644 60.289 116.679 60.3651 116.734 60.4273L115.659 60.7108L116.72 61.6026L119.05 59.3972L116.572 57.8036L114.612 59.5804H114.615ZM106.171 88.0432C106.751 88.4373 107.201 88.8002 107.702 89.0664C108.151 89.3084 108.687 89.4466 109.14 89.1044C109.728 88.6585 110.26 88.1365 110.893 87.5834L108.348 86.0452L106.171 88.0397V88.0432ZM172.761 68.4538C171.23 68.205 170.791 68.3674 170.193 69.3768C170.099 69.5323 170.051 69.7121 169.958 69.8642C169.536 70.5763 169.114 71.2884 168.686 71.9936C168.533 72.2459 168.368 72.4879 168.126 72.8612L170.735 72.6918C171.16 70.7076 171.216 70.5901 172.761 68.4538ZM110.495 82.8961C109.931 82.5608 109.43 82.2704 108.933 81.9697C108.414 81.6551 107.902 81.3302 107.391 81.0122C107.062 81.3095 106.789 81.5445 106.526 81.7934C106.264 82.0423 106.036 82.2843 105.79 82.5297C107.94 84.6763 108.836 84.78 110.495 82.8961ZM80.7808 108.984C80.3763 109.281 79.9236 109.565 79.5226 109.914C79.1217 110.26 79.0111 110.664 79.2911 111.158C79.6436 111.788 79.9476 112.448 80.3072 113.07C80.8153 113.938 81.5794 114.556 82.3883 115.158L80.7841 108.981L80.7808 108.984ZM112.8 70.0163C111.777 68.7062 110.374 69.0968 109.116 69.0138C108.801 68.9931 108.459 69.3215 107.972 69.5773L110.561 71.9555C111.349 71.2746 112.071 70.6489 112.797 70.0198L112.8 70.0163ZM104.131 82.7405L102.036 80.8221L100.066 82.5885C100.574 83.1242 101.003 83.6082 101.469 84.0541C101.867 84.4344 102.32 84.4309 102.731 84.0645C103.18 83.66 103.612 83.2314 104.131 82.7405ZM107.46 79.6744L109.441 77.9668C109.06 77.6557 108.749 77.4206 108.462 77.1614C106.81 75.6819 106.526 76.2834 105.358 77.4414C105.306 77.5243 105.265 77.6142 105.237 77.7075L107.46 79.6744ZM189.26 96.9961C188.866 96.5329 188.375 96.6677 187.964 97.0065C187.563 97.3176 187.217 97.6944 186.948 98.123C186.142 99.4954 185.395 100.899 184.642 102.299C184.504 102.558 184.452 102.862 184.358 103.146C184.987 102.748 185.561 102.351 185.955 101.818C187.075 100.27 188.123 98.6692 189.264 96.9961H189.26ZM116.057 62.3631C115.566 61.9483 115.213 61.6406 114.854 61.3433C114.024 60.6554 113.561 60.652 112.766 61.3433C112.448 61.6199 112.151 61.9172 111.781 62.2628C112.524 62.9334 113.188 63.5315 113.896 64.1709L116.06 62.3631H116.057ZM99.7857 130.001L91.9946 127.153C94.0721 128.826 96.3809 130.195 98.8456 131.211C99.1809 130.775 99.485 130.381 99.7857 129.998V130.001ZM86.7781 99.2914C86.5603 99.7961 86.398 100.266 86.1664 100.698C85.9002 101.196 85.9486 101.635 86.1664 102.136C86.6676 103.242 88.3614 104.501 89.5367 104.646L86.7781 99.2914ZM93.0417 113.08L91.1993 115.192L94.3623 116.392L95.4719 114.975L93.0417 113.08ZM97.7741 119.983L101.141 121.418L102.876 119.448C101.656 119.264 100.619 119.143 99.5923 118.946C98.7523 118.784 98.1959 119.067 97.7708 119.983H97.7741ZM107.712 102.7L104.141 101.075C103.07 101.887 102.717 102.295 102.499 102.99C103.765 103.135 105.026 103.26 106.285 103.426C106.907 103.509 107.339 103.291 107.712 102.7ZM114.038 84.9045C113.316 84.1405 112.624 84.0023 111.774 84.3583C111.176 84.6106 110.519 84.7213 109.897 84.9218C109.686 84.9909 109.499 85.1292 109.171 85.3089L111.58 86.9751L114.038 84.9045ZM95.534 122.306L99.2949 123.782L100.422 122.296L96.7543 120.899L95.534 122.303V122.306ZM99.302 131.429L102.555 132.687L104.01 130.668C102.856 130.464 101.874 130.278 100.885 130.122C100.785 130.108 100.681 130.115 100.581 130.139C100.481 130.167 100.387 130.212 100.308 130.274C99.9796 130.589 99.703 130.959 99.302 131.429ZM108.445 59.8811C108.137 58.8026 107.864 57.8313 107.577 56.8634C107.446 56.4175 107.048 56.1928 106.782 56.4555C106.298 56.9395 105.773 57.451 105.503 58.056C105.33 58.4397 105.579 59.0135 105.645 59.5355L108.445 59.8811ZM185.862 128.923C186.284 127.823 186.585 126.71 187.124 125.722C187.687 124.685 188.479 123.769 189.212 122.742L188.375 122.306C186.087 124.322 185.254 126.524 185.866 128.923H185.862ZM94.7839 122.013L95.9455 120.478L93.4117 118.857C92.8655 119.455 92.3539 120.025 91.7421 120.699L94.7806 122.016L94.7839 122.013ZM169.363 98.5828C167.797 98.6588 166.425 99.0425 165.606 100.439C165.339 100.902 165.146 101.407 164.925 101.894C164.558 102.707 164.199 103.522 163.836 104.335C165.706 102.416 167.064 100.062 169.363 98.5828ZM168.9 128.809C169.436 127.052 169.937 125.296 171.337 123.841L171.645 124.664L174.133 122.818C171.969 122.348 170.532 123.247 169.457 124.909C169.377 125.03 169.28 125.141 169.215 125.269C169.138 125.393 169.09 125.528 169.069 125.67C169.007 126.717 168.959 127.761 168.907 128.812V128.805L168.9 128.809ZM191.618 79.3702C189.678 81.9109 190.225 84.6625 190.605 87.4002C190.995 85.7929 191.49 84.2097 191.344 82.5193C191.258 81.6862 191.393 80.8463 191.732 80.0823C191.815 79.9026 191.662 79.6157 191.618 79.3737V79.3702ZM92.3365 112.959L87.9846 110.712C88.4754 111.995 90.2246 114.211 91.1787 114.757L92.3402 112.959H92.3365ZM127.17 41.9476L124.643 40.6375C124.432 41.5362 123.582 41.6745 123.039 42.1861C122.998 42.2276 122.994 42.3105 122.943 42.4695L125.024 43.7658L127.17 41.9476ZM157.306 100.066C156.511 99.9758 155.906 99.8756 155.298 99.8583C155.014 99.8583 154.738 99.9551 154.523 100.135C153.269 101.289 152.518 102.741 151.951 104.573C152.256 104.318 152.401 104.228 152.498 104.103C153.109 103.343 153.714 102.579 154.312 101.811C154.689 101.327 154.98 100.754 155.823 100.436L155.198 102.071L155.343 102.15L157.309 100.062L157.306 100.066ZM127.174 37.2948L129.552 35.5111L127.091 34.3497L125.456 36.0124L127.17 37.2948H127.174ZM93.9474 112.023L96.941 113.188L98.1303 111.877L95.4685 110.284L93.9474 112.023ZM97.2624 126.399L93.7918 124.508L92.6545 125.881L96.4431 127.474L97.2624 126.396V126.399ZM117.101 52.4941C117.54 52.902 117.955 53.3514 118.442 53.7074C118.622 53.8422 119.054 53.8699 119.22 53.7454C119.925 53.2131 120.654 52.6911 121.249 51.9998C120.153 51.2566 117.948 51.5158 117.101 52.4941ZM97.9814 90.1725L100.318 92.3295C100.864 91.7212 101.334 91.1854 101.825 90.6323C101.227 89.4708 99.9829 89.82 98.9874 89.5607C98.5415 89.4466 98.2302 89.654 97.9848 90.1725H97.9814ZM101.856 127.402L103.118 125.787C101.936 125.528 100.916 125.283 99.8931 125.082C99.0462 124.913 98.9909 124.961 98.5104 125.922L101.856 127.402ZM101.144 92.8965C102.807 94.5661 103.588 94.5557 104.802 92.8481L102.762 91.3755L101.141 92.893L101.144 92.8965ZM101.279 97.7428L101.376 97.9917C102.731 98.0435 104.083 98.1058 105.438 98.1299C105.59 98.1299 105.749 97.9122 105.963 97.7428L103.083 95.9384L101.279 97.7393V97.7428ZM161.35 99.9067C160.452 99.962 159.667 99.9482 158.91 100.083C158.564 100.145 158.125 100.429 157.984 100.733C157.69 101.359 157.569 102.06 157.34 102.859L158.896 101.984L158.402 103.111L158.499 103.156L161.35 99.9102V99.9067ZM113.696 80.4349C112.821 79.9994 110.592 80.1964 108.926 80.8186L111.214 82.4536L113.696 80.4314V80.4349ZM181.327 122.794C180.885 123.264 180.497 123.693 180.089 124.104C179.682 124.515 179.422 124.965 179.419 125.542C179.412 126.9 179.419 128.259 179.419 129.666C179.82 128.563 180.204 127.516 180.577 126.468C180.611 126.327 180.632 126.185 180.646 126.04C180.857 125.016 181.075 123.997 181.327 122.794ZM167.133 82.1564C166.328 83.0309 165.557 83.9331 164.707 84.7558C163.995 85.4437 164.026 86.1731 164.32 87.1237C164.997 86.3286 165.53 85.5301 166.231 84.9252C167.089 84.1786 167.296 83.2694 167.137 82.1529L167.133 82.1564ZM128.584 28.5181C128.304 28.8189 128.076 29.0505 127.865 29.2959C127.654 29.5413 127.436 29.8282 127.17 30.1636L129.141 31.3769L131.007 29.9008L128.581 28.5216L128.584 28.5181ZM104.211 72.9027C103.934 72.6849 103.734 72.4084 103.478 72.3427C102.475 72.0869 101.456 71.8968 100.194 71.6271L102.33 74.5585L104.211 72.9027ZM103.381 62.6258L106.243 63.3344C105.877 62.3907 105.507 61.6061 105.279 60.7833C105.12 60.2026 104.826 59.9468 104.224 59.8811C103.875 60.7557 103.402 61.5577 103.381 62.6223V62.6258ZM119.852 64.6307L116.306 62.6085L114.802 64.3818C115.621 64.6445 118.207 64.8035 119.852 64.6307ZM100.588 87.5454C101.245 88.9316 102.475 88.6101 103.495 88.7726C103.768 88.814 104.089 88.5548 104.522 88.3889L102.046 86.3148L100.588 87.5454ZM95.5202 103.512C95.5029 103.623 95.4858 103.737 95.4685 103.847L98.0368 105.8L99.7584 103.944C98.4621 103.699 97.3662 103.467 96.2635 103.294C96.0319 103.256 95.7691 103.429 95.5202 103.512ZM101.414 127.927L97.6324 126.593L96.7682 127.668L100.543 129.075L101.414 127.927ZM98.4483 76.3629C98.0438 77.2962 97.6048 78.0878 97.4146 79.149L100.85 79.5673L98.4517 76.3629H98.4483ZM178.105 122.486C177.203 122.545 176.408 122.583 175.62 122.656C175.164 122.697 174.479 123.243 174.462 123.648C174.438 124.37 174.507 125.093 174.534 125.808L178.105 122.486ZM123.534 25.5281C124.156 26.4545 124.184 27.8372 125.805 27.7715C126.023 27.5157 126.272 27.2253 126.476 26.9937L124.602 24.3286C124.349 24.5982 124.152 24.8091 123.962 25.0234C123.845 25.1582 123.734 25.2965 123.537 25.5315L123.534 25.5281ZM97.048 80.1203C96.1285 81.7381 96.1181 81.8072 96.6885 82.8097C97.5043 84.2373 97.6878 84.2546 98.6937 82.9722C98.7283 82.8961 98.7489 82.8131 98.7558 82.7302L97.0447 80.1203H97.048ZM96.9582 106.831L94.4143 104.815L92.9796 106.443C94.0512 106.806 94.95 107.09 95.8314 107.415C96.3914 107.622 96.7233 107.432 96.9549 106.834L96.9582 106.831ZM106.893 97.01L108.794 94.9636C108.452 94.853 108.11 94.6283 107.802 94.6698C106.679 94.8115 105.565 95.0431 104.207 95.2851L106.896 97.0134L106.893 97.01ZM108.047 74.9421H112.527L112.59 74.7244C111.933 74.2473 111.287 73.7634 110.619 73.2967C110.312 73.079 110.007 73.1343 109.734 73.3866C109.209 73.874 108.68 74.3545 108.044 74.9421H108.047ZM98.2616 95.731C99.029 96.3013 99.651 96.7715 100.373 97.3176L102.143 95.3542C101.141 95.2643 100.18 95.1364 99.219 95.1261C98.939 95.1261 98.6555 95.4683 98.2545 95.731H98.2616ZM195.188 112.482C195.779 110.104 195.925 107.681 195.365 105.251C194.635 107.629 194.919 110.042 195.185 112.482H195.188ZM168.319 87.7908C169.118 86.9543 169.83 86.2422 170.497 85.4921C171.012 84.9114 170.919 84.227 170.805 83.584C170.182 84.1578 169.629 84.742 169.007 85.2294C168.184 85.8689 167.977 86.6467 168.312 87.7908H168.319ZM162.909 86.8437C161.35 88.299 160.559 90.1553 161.112 91.0851C161.561 90.539 161.955 89.9617 162.446 89.4916C163.241 88.7311 163.297 87.8842 162.906 86.8437H162.909ZM105.438 128.999L102.164 128.121L101.324 129.14C101.459 129.261 101.48 129.296 101.511 129.306C102.133 129.493 102.759 129.683 103.384 129.852C104.553 130.174 104.553 130.17 105.434 128.999H105.438ZM159.943 111.4C160.801 110.439 161.409 109.7 161.516 108.604C161.61 107.629 161.903 106.672 162.107 105.707L161.886 105.648C160.977 107.38 160.04 109.102 159.94 111.397L159.943 111.4ZM102.188 113.754L99.1879 112.482L98.1924 113.602C99.0289 113.882 99.7374 114.117 100.446 114.359C101.414 114.688 101.407 114.691 102.192 113.758L102.188 113.754ZM113.215 54.2985L110.097 53.5622C110.515 54.8861 110.986 55.6224 111.774 56.1824C112.085 55.8056 112.406 55.4289 112.714 55.0382C112.863 54.8447 112.987 54.6338 113.215 54.2985ZM117.972 54.7341C117.149 54.098 115.673 54.06 114.75 54.7029L116.427 56.4106L117.972 54.7341ZM105.362 87.4694L107.339 85.6822C106.596 85.5509 105.953 85.582 105.313 85.6131L103.474 85.6995C103.464 85.7721 103.453 85.8447 103.44 85.9173C104.051 86.4151 104.667 86.9094 105.362 87.4694ZM89.7301 99.8583L89.8236 99.6889L88.2128 95.928L87.1896 98.1645L89.7339 99.8618L89.7301 99.8583ZM118.055 49.6388C117.277 48.9475 116.347 49.3035 115.538 49.1307C115.334 49.0892 115.051 49.428 114.809 49.5904C115.964 51.3879 116.503 51.3914 118.058 49.6423L118.055 49.6388ZM102.918 63.2791L102.074 66.3107L104.563 66.9156C104.007 65.6885 103.516 64.6065 102.918 63.2826V63.2791ZM105.804 92.0737C106.454 91.4584 107.145 91.0955 107.567 90.2797H103.803L103.713 90.4871L105.801 92.0737H105.804ZM187.528 84.5277C188.043 83.4077 188.489 82.4225 188.952 81.4443C189.433 80.4349 189.893 79.4117 190.923 78.6443L190.387 78.0567C189.575 79.346 188.883 80.4937 188.14 81.6067C187.57 82.4606 187.304 83.3628 187.532 84.5277H187.528ZM122.431 27.0559C121.947 27.9996 122.431 29.2613 123.558 30.129C123.866 29.7937 124.18 29.4584 124.481 29.1334C124.135 28.0273 122.894 27.9685 122.427 27.0559H122.431ZM120.64 40.5856C122.344 41.277 122.414 41.3323 123.63 39.9219L122.473 39.0059L120.64 40.5822V40.5856ZM112.69 51.3879L112.527 51.6852C112.821 52.1311 113.074 52.6082 113.413 53.0195C113.751 53.4309 114.128 53.4551 114.539 53.1025C114.868 52.8225 115.144 52.4941 115.524 52.1069C114.598 51.4087 113.63 51.4571 112.686 51.3948L112.69 51.3879ZM120.094 44.8858L121.923 46.3342C122.579 45.8122 123.285 45.4147 123.772 44.6093C122.555 44.6093 121.473 44.6093 120.391 44.6162C120.34 44.6162 120.291 44.7061 120.094 44.8927V44.8858ZM105.624 72.6987L105.514 72.9096L107.325 74.7417L109.185 73.1274L105.624 72.6987ZM120.215 31.3596C119.341 32.8633 119.468 33.8311 120.713 35.2208L121.726 34.0316C121.484 33.5408 121.194 33.4233 120.748 33.3576C120.516 33.323 120.364 32.7596 120.16 32.407L120.644 32.2376L120.219 31.3561L120.215 31.3596ZM126.932 22.1543L129.03 23.9622L130.105 22.4758C129.462 21.8881 129.327 22.7108 128.895 22.7074L129.006 22.0437L127.62 21.5286L126.932 22.1577V22.1543ZM116.776 39.7214C117.246 39.8804 117.585 39.998 117.923 40.1051C118.262 40.2157 118.632 40.3678 119.147 40.2883C118.76 39.7906 118.732 39.1096 117.913 39.2409C118.259 38.4217 118.024 37.72 117.547 36.8834C117.274 37.9101 117.035 38.7743 116.776 39.7283V39.7214ZM119.804 35.9985C119.565 35.283 119.351 34.6297 119.116 33.9245C117.737 35.7185 117.685 36.237 118.732 37.7615L119.5 36.7314L118.507 35.9985H119.807H119.804ZM180.912 122.286C180.038 122.337 179.198 122.365 178.558 123.081C178.309 123.35 178.033 123.589 177.732 123.8C177.148 124.225 177.061 124.757 177.293 125.393C177.397 125.373 177.49 125.383 177.525 125.345C177.86 124.965 178.181 124.571 178.52 124.19C178.859 123.81 179.159 123.392 179.56 123.098C179.923 122.835 180.401 122.732 180.822 122.545C180.86 122.528 180.864 122.42 180.909 122.289V122.282L180.912 122.286ZM153.206 110.692C154.565 109.682 154.358 108.237 154.593 106.872C152.985 107.767 152.975 109.14 153.206 110.692ZM125.355 32.0336L126.949 33.1433L128.308 32.0613C127.008 31.0277 126.31 31.007 125.355 32.0336ZM102.81 74.9456C103.965 75.115 104.916 75.1599 106.029 75.0078L104.546 73.4074L102.81 74.9491V74.9456ZM100.418 70.6281L102.904 71.0187C102.337 70.0267 101.881 69.2282 101.328 68.2603L100.418 70.6316V70.6281ZM119.717 39.5797L121.394 38.0242L120.409 36.9491L118.947 38.4943C119.227 38.8918 119.455 39.2098 119.717 39.5832V39.5797ZM115.514 45.5391L116.399 46.4828L118.286 44.7372L117.388 43.8004L115.514 45.5391ZM120.969 42.2725C120.181 41.5086 119.797 41.3668 119.362 41.7402C118.926 42.1135 118.566 42.5456 118.145 42.9777C119.479 43.6034 119.745 43.5342 120.965 42.276L120.969 42.2725ZM107.45 55.6293L110.059 55.9577C109.721 55.1039 109.43 54.3642 109.092 53.5138L107.45 55.6293ZM100.118 109.841L96.5781 109.112L96.4779 109.351C97.2798 109.983 98.1578 110.512 99.0876 110.927L100.114 109.845L100.118 109.841ZM121.214 29.9147C121.242 29.8524 121.27 29.7868 121.294 29.7245L121.985 29.645L121.584 28.6737C120.589 30.1117 120.284 30.2638 121.698 32.0578L122.708 31.0001L121.211 29.9181L121.214 29.9147ZM188.486 76.2592L187.452 75.4399C186.733 76.2108 186.076 76.9263 185.406 77.6211C185.067 77.9737 184.836 78.3401 185.012 79.0004C185.959 77.8562 186.84 76.7466 188.486 76.2592ZM162.94 125.984C163.552 125.041 164.074 124.232 164.638 123.364C164.921 123.347 165.402 123.582 165.585 122.994C163.542 122.694 162.871 123.402 162.94 125.981V125.984ZM130.215 26.1123C129.002 25.0199 128.712 25.0891 127.723 26.6135L128.774 27.3947L130.215 26.1123ZM95.4685 116.613C97.2937 117.339 98.206 117.484 98.8351 117.118L96.2807 115.642L95.4685 116.617V116.613ZM115.39 57.4199L112.545 57.2506C112.514 57.3232 112.479 57.3992 112.448 57.4683L113.872 59.0273L115.39 57.4165V57.4199ZM123.257 37.8444C123.229 37.9447 123.198 38.0449 123.171 38.1486L124.619 39.2513C125.207 38.8019 125.725 38.4044 126.244 38.0069L126.147 37.7787C125.179 37.6578 124.218 37.7476 123.257 37.8479V37.8444ZM122.628 34.9338L121.166 36.2128C122.614 36.8558 122.828 36.8247 123.634 35.8741L122.628 34.9338ZM155.025 147.05C153.953 148.08 153.452 150.717 153.877 152.045C154.233 150.489 154.603 148.882 155.021 147.05H155.025ZM148.263 131.678C148.087 132.756 149.386 136.196 150.341 136.977C149.666 135.262 148.986 133.534 148.26 131.678H148.263ZM186.187 146.929C185.98 148.491 185.8 149.829 185.62 151.167L185.855 151.212C186.087 150.548 186.281 149.864 186.567 149.224C186.92 148.436 186.661 147.789 186.184 146.929H186.187ZM134.405 4.60442L133.499 5.80391L134.713 6.64736L135.667 5.63453L134.405 4.60442ZM110.18 78.4507C109.71 78.8102 109.247 79.1213 108.967 79.7055H111.947C111.964 79.6537 111.981 79.6053 111.998 79.5534L110.177 78.4507H110.18ZM114.121 46.4517C113.482 47.3885 113.45 47.6028 113.876 47.869C114.546 48.2907 114.951 48.0971 115.587 47.0428L114.121 46.4517ZM158.792 109.06C158.333 110.488 158.215 111.988 158.156 113.575C158.782 113.34 158.813 112.939 158.799 112.482C158.775 111.342 158.792 110.201 158.792 109.06ZM135.003 9.5925C135.456 9.11893 135.833 8.71794 136.279 8.25474L135.024 7.7466L134.004 8.96683L135.003 9.5925ZM98.0851 80.1238L99.5785 81.9801L100.681 80.67L98.0888 80.1238H98.0851ZM126.686 22.8007L125.3 23.817L127.841 24.3562C127.872 24.3044 127.906 24.2456 127.938 24.2007L126.686 22.8007ZM82.447 107.173C81.7488 107.885 81.7038 107.909 81.8698 108.241C82.2293 108.956 82.5645 109.703 83.3699 110.232C83.3492 109.983 83.37 109.838 83.325 109.71C83.052 108.898 82.7685 108.089 82.447 107.173ZM96.011 98.6173L95.9246 98.842L97.4663 100.173L98.5242 99.0356L96.0076 98.6173H96.011ZM101.172 74.8454C101.113 74.6691 101.037 74.4962 100.954 74.3269C100.626 73.8187 100.277 73.3175 99.8587 72.7022C99.6236 73.3279 99.4368 73.8222 99.2017 74.4478L101.172 74.8419V74.8454ZM165.941 79.9821C164.507 80.9154 163.971 82.1529 164.41 83.5633C164.925 82.3638 165.433 81.1746 165.941 79.9821ZM93.1973 92.0945C93.2319 92.0495 93.263 92.0012 93.2976 91.9562C92.8793 91.2683 92.4611 90.5804 91.9841 89.7958L91.1371 91.1404L93.1973 92.0979V92.0945ZM67.9426 112.282C68.3159 113.544 68.6441 114.653 68.9725 115.763L69.1143 115.725C69.0486 114.577 68.983 113.426 68.9104 112.227L67.9388 112.282H67.9426ZM101.075 85.6131L98.7315 85.3366C98.6969 85.4022 98.6626 85.4714 98.6211 85.537L99.8239 86.9405C100.235 86.5084 100.574 86.1454 101.072 85.6096L101.075 85.6131ZM181.738 124.36L184.013 122.407H182.146C182.029 122.984 181.908 123.565 181.738 124.36ZM105.78 79.671L104.311 78.3609L102.97 79.671H105.78ZM98.4101 124.844L95.1678 123.741C95.5411 124.197 95.9801 124.495 96.4363 124.768C96.8926 125.041 97.3593 125.293 97.8606 125.573C98.0611 125.303 98.206 125.11 98.4169 124.837L98.4101 124.844ZM160.542 122.956C160.628 123.136 160.79 123.357 160.749 123.402C160.4 123.803 160.431 124.228 160.587 124.819L162.398 122.963L160.542 122.956ZM134.312 12.0986C134.775 12.1609 135.152 12.3337 135.307 12.2127C135.746 11.8774 136.096 11.4211 136.562 10.9268L135.49 10.6191L134.312 12.0952V12.0986ZM169.837 123.067C169.021 122.967 168.198 122.597 167.552 123.195C167.635 123.824 167.714 124.394 167.811 125.134C168.274 124.418 167.98 123.565 168.699 123.157C168.852 123.298 169 123.437 169.173 123.599L169.833 123.063L169.837 123.067ZM121.85 32.4865C122.676 33.2677 122.687 33.2642 123.741 31.9749L122.974 31.2559L121.85 32.4865ZM117.547 47.4334L118.805 49.0166L120.091 47.9243L117.547 47.4334ZM106.326 71.3437L106.423 71.5546L108.583 71.7723L107.456 70.5867L106.33 71.3437H106.326ZM94.8774 118.003C94.8602 118.075 94.8394 118.148 94.8187 118.221L96.8063 119.461C97.0241 119.154 97.1967 118.905 97.4214 118.587L94.8774 118.003ZM157.856 106.727C156.998 107.591 156.791 108.645 156.891 109.969C157.862 108.963 157.472 107.729 157.856 106.727ZM120.606 47.0186L120.696 46.8216C120.208 46.431 119.721 46.0404 119.192 45.6152C118.853 45.9159 118.57 46.1683 118.117 46.5692L120.606 47.0186ZM160.545 87.815L160.856 87.8703L161.565 85.1222C160.282 85.8516 160.358 86.816 160.545 87.815ZM117.488 42.1584L118.328 41.2078L116.675 40.2261L116.499 40.3644L117.491 42.1584H117.488ZM110.308 77.2063C110.782 76.8192 111.276 76.6048 111.525 75.9826L109.226 76.311L110.308 77.2063ZM111.936 49.9845C112.631 50.2299 113.015 50.0605 113.364 49.4349C113.616 48.982 113.378 48.7193 112.942 48.422L111.933 49.9845H111.936ZM97.8984 114.923C97.8638 114.978 97.8295 115.033 97.788 115.089C98.2823 115.362 98.787 115.618 99.2709 115.911C99.8067 116.24 100.135 116.067 100.387 115.465L97.8984 114.923ZM115.328 42.9466C115.328 43.7278 114.619 44.267 115.296 45.0586L116.226 43.548L115.328 42.9466ZM111.255 50.9869C110.834 51.4951 110.46 51.9514 110.083 52.4042C110.118 52.4803 110.153 52.5528 110.187 52.6289C110.474 52.6012 110.903 52.6842 111.017 52.5321C111.307 52.1415 111.833 51.7232 111.259 50.9869H111.255ZM129.825 20.9341C130.537 20.139 130.741 19.5571 130.437 19.1884L129.272 20.5158C129.362 20.6264 129.459 20.7336 129.559 20.8304C129.642 20.8753 129.732 20.9099 129.822 20.9341H129.825ZM148.163 125.411C147.451 126.9 147.572 128.387 147.724 129.977C147.873 128.414 148.014 126.952 148.163 125.411ZM127.201 28.8016C127.181 28.7359 127.156 28.6668 127.135 28.6011H125.317L126.344 29.5448L127.201 28.7981V28.8016ZM106.941 94.2791L106.972 94.0925L105.711 93.3839L104.933 94.2791H106.945H106.941ZM150.517 87.4555C151.309 86.9751 151.471 86.3114 151.53 85.5198C150.382 86.339 150.379 86.3425 150.517 87.4555ZM132.338 11.0582C131.951 11.4177 131.56 11.6873 131.73 12.2784C132.359 12.6275 132.639 12.2162 132.933 11.7184L132.338 11.0616V11.0582ZM123.904 30.3329C124.567 30.3951 125.072 30.8169 125.639 30.1877L124.712 29.3581L123.907 30.3295L123.904 30.3329ZM149.964 127.924C149.352 129.234 149.283 130.589 149.456 132.058C149.632 130.62 149.798 129.272 149.964 127.924ZM103.996 104.145L103.924 104.352L105.306 104.96L106.112 104.145H103.996ZM128.038 28.1656L126.742 27.2011L126.133 27.9789C126.755 28.1552 127.26 28.4525 128.038 28.169V28.1656ZM123.737 33.4094L125.888 33.9383C125.926 33.8692 125.964 33.8 125.998 33.7309L124.55 32.6801C124.318 32.8909 124.118 33.0707 123.737 33.406V33.4094ZM125.362 34.4672L125.252 34.2805H123.541L124.512 35.1724L125.362 34.4672ZM96.7267 97.4144L98.5934 97.6909C98.6176 97.6253 98.6452 97.5561 98.6694 97.4939L97.5875 96.6159L96.7267 97.4179V97.4144ZM128.058 25.414L126.32 24.9784L126.209 25.1375L127.277 26.2851L128.055 25.4174L128.058 25.414ZM105.929 80.9984H103.917L104.957 81.9248L105.925 80.9984H105.929ZM104.843 83.3559L104.01 84.2477H105.835L104.84 83.3559H104.843ZM116.209 41.6226L115.977 41.6572C115.839 41.996 115.697 42.3382 115.518 42.7737L116.793 42.8671L116.212 41.6226H116.209ZM114.557 56.3795C114.601 56.3069 114.65 56.2377 114.695 56.1617C114.47 55.9059 114.242 55.6535 113.972 55.3459L113.108 56.2688L114.56 56.3795H114.557ZM132.082 8.0024L131.847 8.07499L131.737 9.47497L132.03 9.62361L132.77 8.74905L132.079 8.0024H132.082ZM171.199 110.685C171.278 110.011 171.354 109.34 171.458 108.473C170.701 109.274 170.815 109.973 171.199 110.685ZM161.447 143.202C161.535 143.702 161.826 144.017 162.322 144.146L162.692 143.33L161.444 143.202H161.447ZM158.989 144.589C159.318 144.343 159.543 144.06 159.823 143.991C160.172 143.904 160.403 143.849 160.331 143.431C159.526 143.564 159.079 143.95 158.989 144.589ZM131.543 15.5899C132.379 15.6833 132.577 15.1095 132.915 14.6808C132.293 14.3835 132.248 14.4112 131.543 15.5899ZM121.512 43.714L123.122 43.9732C123.043 43.7451 122.884 43.555 122.677 43.4374C122.473 43.3095 122.258 43.2024 122.047 43.0883C121.916 43.1782 121.795 43.2784 121.677 43.3856C121.608 43.4893 121.553 43.6034 121.512 43.7209V43.714ZM132.597 17.6605C132.003 17.3114 131.837 17.422 131.456 18.3864C132.079 18.4867 132.331 18.0857 132.597 17.6605ZM134.07 10.5811C134.046 10.4878 134.022 10.3945 133.997 10.3046C133.614 10.5777 133.092 10.2113 132.684 10.7332L133.382 11.314L134.07 10.5811ZM175.053 108.687C174.559 109.599 174.852 110.543 174.883 111.47C174.935 110.543 174.991 109.617 175.046 108.687H175.049H175.053ZM168.385 83.7361C168.323 84.1371 168.261 84.5381 168.174 85.0911C168.709 84.6625 168.777 84.2108 168.378 83.7361H168.385ZM169.28 80.5213C168.651 81.1677 168.502 81.6966 168.623 82.7025C168.872 81.866 169.073 81.1919 169.277 80.5213H169.28ZM84.3101 106.409L84.4934 106.298C84.3966 105.897 84.2997 105.493 84.1649 104.947L83.5772 105.721L84.3101 106.409ZM112.081 83.9988C111.57 83.5471 111.146 83.5725 110.809 84.0749L112.081 83.9988ZM119.904 51.3568L119.966 51.1183L119.109 50.5237L118.542 51.1632L119.901 51.3568H119.904ZM155.266 123.855C154.633 123.993 154.328 124.385 154.351 125.03L155.266 123.855ZM132.172 20.4881C131.377 20.0111 131.256 20.6852 130.851 20.9652C131.522 21.3558 131.754 20.8857 132.169 20.4881H132.172ZM134.481 15.704C134.069 15.4505 133.703 15.5531 133.385 16.0117C133.9 16.423 134.208 16.1672 134.478 15.704H134.481ZM105.4 76.3421C104.753 76.3041 104.38 76.1244 103.93 76.4147C104.21 76.6498 104.418 76.8261 104.653 77.0197L105.403 76.3421H105.4ZM165.561 104.411L165.768 104.542C166.052 104.321 166.283 104.041 166.442 103.719C166.601 103.398 166.688 103.045 166.695 102.689C166.318 103.26 165.937 103.834 165.561 104.411ZM111.435 61.9068L111.954 60.97L110.761 61.2051C111.013 61.4678 111.158 61.613 111.435 61.9102V61.9068ZM171.762 104.511C171.116 105.527 171.015 105.97 171.206 106.92L171.762 104.511ZM175.375 80.2621C174.576 81.1055 174.559 81.1332 174.489 81.7761C175.067 81.4581 175.299 80.9465 175.375 80.2621ZM133.928 18.9845L133.976 18.7425C133.612 18.459 133.313 18.4924 133.078 18.8427L133.932 18.9845H133.928ZM154.672 104.884C155.232 104.534 155.536 104.062 155.585 103.467C155.236 104.006 154.955 104.445 154.672 104.884ZM97.8535 107.691L97.8086 107.982L99.1774 108.317C98.7834 107.944 98.448 107.422 97.8535 107.691ZM101.286 118.352C100.699 117.916 100.148 117.738 99.6338 117.816L101.286 118.352ZM159.373 122.929C158.829 123.018 158.63 123.398 158.775 124.066C159.01 123.616 159.162 123.323 159.373 122.925V122.929ZM98.6761 83.8605C98.7107 83.9331 98.7488 84.0092 98.7869 84.0783L99.7584 84.1302L99.8688 83.9124L99.4127 83.3835L98.6799 83.8605H98.6761ZM159.584 84.7973L159.276 84.6729L158.799 85.8585L159.083 85.9691C159.249 85.5785 159.418 85.1879 159.584 84.7939V84.7973ZM156.86 84.4689L157.88 83.7154L157.828 83.6635L156.86 84.4724V84.4689ZM148.816 89.253C149.363 89.0698 149.546 88.7311 149.193 88.0536L148.816 89.253ZM151.039 88.178C150.691 88.4499 150.615 88.8233 150.811 89.298C150.908 88.814 150.973 88.496 151.039 88.1745V88.178ZM162.557 85.2709C162.96 84.9897 163.115 84.5784 163.02 84.0368C162.847 84.4897 162.702 84.8768 162.557 85.2674V85.2709ZM133.935 13.4398L132.97 13.6991C133.496 14.3766 133.727 13.9272 133.935 13.4398ZM193.104 81.427C192.966 81.2092 192.872 81.0295 192.751 80.8739C192.71 80.8221 192.606 80.8151 192.454 80.7633C192.502 81.0917 192.537 81.3233 192.579 81.6136L193.104 81.427ZM133.728 3.66073L133.52 3.5674L132.998 4.57331C133.42 4.30599 133.663 4.00065 133.728 3.65728V3.66073ZM154.316 122.403C153.638 122.21 153.483 122.514 153.383 122.884C153.372 122.918 153.452 122.977 153.511 123.056L154.312 122.407L154.316 122.403ZM132.162 19.5894C132.526 19.8659 132.86 19.791 133.164 19.3647L132.162 19.5894ZM153.794 86.4773C154.219 86.3252 154.575 86.0867 154.637 85.3746C154.257 85.8689 154.026 86.1731 153.794 86.4773ZM105.037 58.5918C104.795 58.9029 104.491 59.0446 104.788 59.456C105.196 59.2797 105.158 59.0239 105.037 58.5918ZM124.159 37.0978L125.089 37.2395C124.875 36.9388 124.699 36.5447 124.159 37.1012V37.0978ZM104.532 99.0218L103.436 99.1774C103.82 99.6094 104.124 99.6889 104.529 99.0218H104.532ZM133.766 7.07254C133.36 6.68308 133.035 6.61855 132.791 6.87896L133.766 7.07254ZM170.341 126.413L170.566 126.486L170.746 125.632L170.573 125.59L170.341 126.413ZM192.599 134.412H192.575V135.013H192.599V134.412ZM111.936 52.9296L112.216 52.5701C112.051 52.5148 111.867 52.3869 111.722 52.418C111.577 52.4526 111.48 52.6496 111.283 52.8605L111.936 52.9296ZM156.677 122.963L156.687 122.721C156.387 122.656 156.086 122.445 155.626 122.866L156.677 122.967V122.963ZM157.202 144.599L157.071 144.468C156.898 144.637 156.718 144.796 156.559 144.976C156.539 145 156.625 145.121 156.698 145.263L157.206 144.599H157.202ZM107.557 68.803L107.446 69.038C107.622 69.0899 107.799 69.1487 107.978 69.1901C108.013 69.1314 108.041 69.0691 108.061 69.0069L107.553 68.803H107.557ZM116.112 53.2477L116.015 53.5518L116.561 53.6832C116.586 53.6141 116.61 53.5449 116.634 53.4758L116.115 53.2477H116.112Z" fill="#303E47"/>
<path d="M173.653 154.326C174.227 152.349 174.808 150.368 175.392 148.391C175.468 148.073 175.568 147.762 175.693 147.458C175.938 146.936 176.218 146.431 176.536 145.947C176.743 145.643 176.985 145.142 177.462 145.453C177.853 145.709 177.573 146.099 177.428 146.435C176.543 148.484 176.387 150.704 175.907 152.854C176.847 150.151 177.766 147.451 179.474 145.114C179.675 144.841 179.982 144.644 180.404 144.523C180.352 144.755 180.363 145.017 180.245 145.207C179.364 146.663 179.37 148.318 179.115 149.922C178.731 152.346 178.14 154.734 177.348 157.061L177.117 157.047C177.144 156.431 177.144 155.813 177.213 155.204C177.282 154.596 177.431 153.991 177.531 153.383C177.652 152.743 177.722 152.097 177.742 151.447C176.657 154.088 176.004 156.857 175.074 159.563V156.411L174.825 156.628C174.635 155.218 175.126 153.911 175.018 152.511L173.58 156.438L173.421 156.4C173.508 155.699 173.591 154.997 173.67 154.292L173.646 154.323L173.653 154.326Z" fill="#303E47"/>
<path d="M77.4346 174.507C76.726 172.398 77.386 153.631 78.264 150.112C78.3504 151.803 78.3954 153.434 78.5233 155.059C78.9692 160.683 78.5716 166.297 78.3538 171.914C78.3296 172.854 78.0084 173.763 77.4346 174.51V174.507Z" fill="#303E47"/>
<path d="M137.018 175.582C136.189 173.601 135.58 171.534 135.207 169.415C134.26 163.943 133.499 158.447 133.33 152.885C133.233 149.729 133.212 146.569 133.862 143.455C134.032 142.635 134.308 141.84 134.689 141.094C134.561 141.844 134.377 142.587 134.319 143.344C134.191 144.9 134.08 146.455 134.049 148.014C133.949 153.144 134.391 158.243 135.11 163.31C135.681 167.327 136.445 171.316 137.122 175.319C137.126 175.35 137.098 175.385 137.015 175.582H137.018Z" fill="#303E47"/>
<path d="M151.734 172.478C150.621 169.66 150.019 166.94 149.67 164.171C149.075 159.425 148.474 154.679 148.028 149.915C147.855 148.09 148.111 146.227 148.184 144.381C148.191 144.208 148.28 144.042 148.343 143.835C149.024 153.403 150.309 162.847 151.734 172.481V172.478Z" fill="#303E47"/>
<path d="M139.493 140.223C139.358 141.405 139.237 142.591 139.089 143.769C138.733 146.593 138.788 149.431 138.954 152.256C139.383 159.726 140.464 167.144 142.186 174.427C142.31 174.953 142.452 175.471 142.404 176.066C142.12 175.367 141.754 174.69 141.567 173.964C140.143 168.509 139.04 163.003 138.65 157.368C138.394 153.673 138.138 149.978 138.453 146.272C138.632 144.229 138.919 142.203 139.493 140.223Z" fill="#303E47"/>
<path d="M82.8514 172.401C82.3122 171.309 82.2327 170.227 82.0737 169.166C81.6001 166.003 81.4962 162.812 81.5791 159.615C81.6379 157.295 81.6172 154.969 81.6622 152.649C81.676 151.74 81.7798 150.838 81.9734 149.95C82.0633 151.108 82.16 152.269 82.236 153.431C82.5886 158.858 82.9448 164.288 83.2663 169.715C83.3112 170.469 83.1866 171.233 83.1174 171.99C83.1071 172.104 82.9793 172.208 82.8514 172.401Z" fill="#303E47"/>
<path d="M146.773 173.445C146.351 171.838 145.961 170.22 145.501 168.623C144.225 164.202 143.724 159.656 143.289 155.104C143.05 152.612 142.922 150.109 142.85 147.606C142.774 145.052 143.347 142.559 143.814 140.06C143.856 139.87 143.959 139.697 144.111 139.576C143.973 140.669 143.859 141.754 143.697 142.836C143.327 145.428 143.285 148.059 143.569 150.662C144.032 155.208 144.623 159.746 145.283 164.268C145.726 167.313 146.376 170.327 146.943 173.355L146.773 173.442V173.445Z" fill="#303E47"/>
<path d="M104.992 173.642C104.622 172.709 104.152 171.803 103.896 170.842C102.33 164.99 101.57 159.048 102.088 152.978C102.112 152.694 102.157 152.411 102.219 151.878C103.187 159.262 104.121 166.4 105.057 173.538L104.989 173.642H104.992Z" fill="#303E47"/>
<path d="M125.767 176.622C125.366 175.582 124.851 174.572 124.592 173.501C123.091 167.324 121.805 161.108 121.871 154.706C121.885 153.289 121.982 151.879 122.089 150.472C122.199 149.124 122.382 147.786 122.614 146.445C121.719 156.708 123.762 166.646 125.988 176.56L125.767 176.626V176.622Z" fill="#303E47"/>
<path d="M87.3347 171.558C87.193 171.219 86.9822 170.891 86.9165 170.535C86.1768 166.608 85.7932 162.622 85.7725 158.626C85.7863 157.316 85.9382 156.013 86.2285 154.734C86.4981 156.666 86.8577 158.592 87.0201 160.531C87.3174 164.074 87.504 167.624 87.7287 171.174C87.7287 171.264 87.6494 171.361 87.6045 171.454L87.3347 171.558Z" fill="#303E47"/>
<path d="M182.989 145.321C182.989 145.587 183.017 145.674 182.989 145.722C181.503 148.076 181.281 150.776 180.842 153.424C180.666 154.492 180.542 155.65 180.027 156.559C179.581 157.354 179.443 158.122 179.37 158.948C179.315 159.556 179.359 160.178 179.29 160.794C178.692 159.128 178.713 157.41 179.024 155.712C179.487 153.178 179.875 150.627 180.839 148.211C181.064 147.644 181.154 147.019 181.333 146.431C181.413 146.165 181.513 145.964 181.924 145.947C182.246 145.933 182.564 145.587 182.989 145.325V145.321Z" fill="#303E47"/>
<path d="M115.4 173.58C112.268 165.668 111.176 157.465 111.881 149.013C112.078 157.34 113.52 165.491 115.4 173.58Z" fill="#303E47"/>
<path d="M131.194 174.047C128.034 165.253 127.395 156.151 128.3 146.891C128.369 149.898 128.345 152.909 128.536 155.906C128.729 158.979 129.026 162.052 129.476 165.097C129.922 168.101 130.613 171.064 131.194 174.047Z" fill="#303E47"/>
<path d="M89.9549 133.088C94.3865 135.77 99.2569 137.271 104.276 138.346C107.038 138.937 109.814 139.476 112.572 140.153C111.646 140.064 110.719 139.991 109.793 139.887C106.651 139.531 103.492 139.262 100.439 138.38C99.0047 137.983 97.6082 137.471 96.2601 136.845C94.4004 135.957 92.6061 134.91 90.7982 133.904C90.4594 133.714 90.1865 133.409 89.8857 133.16L89.9549 133.088Z" fill="#303E47"/>
<path d="M90.335 155.066C90.5459 156.853 90.8121 158.633 90.9538 160.424C91.22 163.787 91.4101 167.154 91.6313 170.521C91.6451 170.67 91.6244 170.818 91.5726 170.96C90.3212 168.495 90.1486 165.806 89.9654 163.124C89.7787 160.445 89.4259 157.773 90.335 155.069V155.066Z" fill="#303E47"/>
<path d="M116.865 149.957C117.277 158.484 118.013 166.964 120.471 175.205C117.201 167.071 116.316 158.605 116.865 149.957Z" fill="#303E47"/>
<path d="M107.041 152.715C107.504 153.334 107.487 154.07 107.57 154.769C108.037 158.651 108.445 162.539 108.96 166.414C109.171 168.025 109.582 169.612 109.9 171.216C109.959 171.492 109.986 171.772 109.983 172.052C107.518 165.816 106.855 159.328 107.038 152.712L107.041 152.715Z" fill="#303E47"/>
<path d="M95.5444 171.444C94.6941 170.026 94.3138 168.644 94.1479 167.195C93.664 162.971 93.491 158.73 93.4184 154.485C93.4115 154.274 93.4843 154.07 93.626 153.915C93.7021 154.157 93.7574 154.402 93.7989 154.651C94.1065 158.011 94.3727 161.378 94.7218 164.731C94.9326 166.784 95.2679 168.827 95.5444 170.873C95.5617 171.001 95.5444 171.129 95.5444 171.444Z" fill="#303E47"/>
<path d="M97.6599 155.816C98.289 161.672 99.115 167.431 100.446 173.276C98.7521 171.084 96.8441 158.837 97.6599 155.816Z" fill="#303E47"/>
<path d="M106.077 142.729C105.469 142.701 104.847 142.743 104.252 142.635C101.1 142.072 97.9884 141.325 94.9568 140.288C93.7608 139.884 92.686 139.189 91.8218 138.273C96.5264 140.285 101.345 141.27 106.112 142.438L106.077 142.729Z" fill="#303E47"/>
<path d="M81.2788 134.574C83.7504 137.319 84.4381 140.658 84.3828 144.232C83.3458 141.021 82.703 137.685 81.2788 134.574Z" fill="#303E47"/>
<path d="M157.192 172.847C155.833 171.396 155.239 169.633 155.097 167.721C154.973 166.058 154.955 164.389 154.938 162.719C155.678 166.103 155.94 169.581 157.192 172.851V172.847Z" fill="#303E47"/>
<path d="M94.1685 142.386C97.0825 143.883 100.446 143.835 103.426 145.107C100.118 144.968 96.8336 144.73 94.1685 142.386Z" fill="#303E47"/>
<path d="M165.623 172.996C164.362 172.505 163.902 171.361 163.559 170.237C163.259 169.256 163.214 168.191 163.138 167.147C164.233 169.01 164.997 170.98 165.592 173.027L165.627 172.996H165.623Z" fill="#303E47"/>
<path d="M78.4199 136.393C79.927 138.169 80.3799 140.319 80.3765 142.622L78.2021 136.469L78.4199 136.393Z" fill="#303E47"/>
<path d="M169.512 167.845L170.224 169.757C169.501 169.321 169.163 168.73 169.256 167.945L169.512 167.845Z" fill="#303E47"/>
<path d="M178.271 167.991C177.911 167.714 177.687 167.596 177.555 167.417C177.493 167.33 177.6 167.116 177.631 166.96C177.783 167.009 178.015 167.016 178.07 167.116C178.174 167.306 178.181 167.552 178.267 167.987L178.271 167.991Z" fill="#303E47"/>
<path d="M113.492 140.143H114.321L114.328 140.219H113.485C113.488 140.195 113.492 140.167 113.492 140.143Z" fill="#303E47"/>
<path d="M175.62 168.633L175.219 167.849C175.827 167.959 175.865 168.222 175.62 168.633Z" fill="#303E47"/>
<path d="M123.896 104.003H125.003L124.989 104.134C124.622 104.089 124.256 104.045 123.886 103.993L123.896 104.003Z" fill="#303E47"/>
<path d="M126.04 97.0273H127.16C127.16 97.0654 127.153 97.1034 127.149 97.138L126.036 97.0273H126.04Z" fill="#303E47"/>
<path d="M147.064 91.3442C146.141 88.4993 146.196 85.727 147.765 83.1241C149.107 80.9014 150.631 79.7123 152.003 79.7607C148.294 82.8165 146.884 86.7433 147.064 91.3442Z" fill="#303E47"/>
</g>
</svg>
