<svg width="148" height="42" viewBox="0 0 148 42" fill="none" xmlns="http://www.w3.org/2000/svg">
<path d="M37.1024 0.894043H0.282227V37.6905L37.1044 0.894043H37.1024Z" fill="#96C6A3"/>
<path d="M3.56787 41.0557H40.3762V4.26709L3.56787 41.0557Z" fill="#005E68"/>
<path d="M61.769 0.947826H48.7427V41.0498H56.7871V26.0705H61.9428C71.3399 26.0705 76.7285 21.5586 76.7285 13.7017V13.4825C76.7226 5.51702 71.2688 0.945849 61.769 0.945849V0.947826ZM68.8578 13.7037C68.8578 17.8681 66.4093 20.0658 61.769 20.0658H56.7871V7.3435H61.769C66.5969 7.3435 68.8578 9.27664 68.8578 13.4786V13.7037ZM96.3145 16.7011H89.7529V7.45804H107.212V0.947826H81.7657V41.0498H96.1644C105.356 41.0498 110.628 36.603 110.628 28.8488V28.6099C110.628 20.9406 105.55 16.6991 96.3125 16.6991L96.3145 16.7011ZM89.7332 22.7137H95.6688C100.508 22.7137 102.854 24.6468 102.854 28.5723V28.7915C102.854 32.7229 100.534 34.7153 95.9452 34.7153H89.7509L89.7312 22.7137H89.7332ZM130.493 20.0974L147.109 0.896484H138.278L123.712 18.1702V0.947826H115.667V41.0498H123.712V23.3002L138.33 41.0498H147.914L130.493 20.0954V20.0974Z" fill="#1D1D1B"/>
</svg>
