<svg width="177" height="67" viewBox="0 0 177 67" fill="none" xmlns="http://www.w3.org/2000/svg">
<path d="M0.5 12.4331H3.45195V21.996H4.27148L7.2728 12.4331H10.2999L6.96283 23.4098L10.3611 35.0955H7.2728L4.27148 24.5018H3.45195V35.0955H0.5V12.4331Z" fill="black"/>
<path d="M13.0782 37.5143C13.8601 37.5894 14.648 37.4887 15.3845 37.2162C15.8249 36.92 16.0638 36.4046 16.0046 35.8774C16.0046 35.5674 15.8051 34.1773 15.3964 31.7229L12.1719 12.4331H15.1358L17.2939 29.3652L19.3535 12.4331H22.3312L18.5222 36.3493C18.4175 37.6466 17.839 38.861 16.8971 39.7614C15.8999 40.4979 14.6737 40.8573 13.4356 40.7783H13.0763V37.5163L13.0782 37.5143Z" fill="black"/>
<path d="M23.8941 32.1179C24.5477 32.1613 25.1697 31.8355 25.5073 31.2747C25.9279 30.4099 26.1728 29.47 26.2261 28.5083C26.3624 27.2683 26.4867 25.1476 26.5973 22.3062L26.9567 12.4688H35.2934V35.0936H32.3414V15.6064H29.5375L29.2887 22.2666C29.2413 24.9896 29.03 27.7067 28.6568 30.404C28.5324 31.7723 28.0348 33.0815 27.2174 34.1873C26.4256 34.9672 25.3375 35.37 24.2278 35.2911H23.8921V32.1159L23.8941 32.1179Z" fill="black"/>
<path d="M42.7853 32.6272C43.5376 32.6588 44.29 32.5364 44.9929 32.2678C45.5221 32.0269 45.9269 31.5787 46.1086 31.0278C46.3514 30.1688 46.4482 29.2764 46.3929 28.3858C46.4245 27.5466 46.3199 26.7094 46.0829 25.9057C45.9111 25.3726 45.5379 24.9263 45.0403 24.6657C44.3571 24.3636 43.6167 24.2155 42.8703 24.2313H42.6708V32.5917L42.7834 32.6292L42.7853 32.6272ZM39.6714 12.4331H42.6728V21.7986H43.1447C44.3551 21.7709 45.5596 21.9763 46.693 22.4068C47.548 22.8017 48.2154 23.5125 48.5531 24.3912C49.0072 25.6845 49.2087 27.053 49.1494 28.4233C49.2008 29.7641 48.9934 31.1048 48.5412 32.3685C48.168 33.2848 47.4631 34.0292 46.5687 34.4517C45.3879 34.9296 44.1202 35.1488 42.8465 35.0974H39.6714V12.4351V12.4331Z" fill="black"/>
<path d="M53.1817 15.5707H50.2158V12.4331H59.135V15.5707H56.1337V35.0955H53.1817V15.5707Z" fill="black"/>
<path d="M62.0758 37.5133C62.8498 37.5667 63.6238 37.4482 64.3465 37.1658C64.7869 36.8696 65.0258 36.3542 64.9666 35.827C64.9666 35.517 64.7671 34.1269 64.3584 31.6725L61.1714 12.4341H64.1353L66.2441 29.3662L68.353 12.4341H71.3307L67.4861 36.3503C67.3815 37.6476 66.8029 38.862 65.861 39.7624C64.8639 40.4989 63.6377 40.8583 62.3996 40.7793H62.0403L62.0778 37.5173L62.0758 37.5133Z" fill="black"/>
<path d="M80.893 30.6419C81.1004 29.1432 81.1793 27.6268 81.128 26.1142V20.6189C81.1636 19.3236 81.051 18.0302 80.7923 16.7606C80.581 15.8542 80.123 15.408 79.4161 15.408C78.5966 15.4988 77.864 15.9549 77.4197 16.648V31.0862C77.941 31.7181 78.7091 32.0933 79.5286 32.115C80.2118 32.115 80.6442 31.6194 80.8437 30.638M74.5171 12.4283H77.469V14.2272C78.014 13.0207 79.1751 12.2071 80.4961 12.1064C81.9356 12.1064 82.9762 12.9871 83.3988 14.7603C83.9023 16.6698 84.1491 18.6404 84.1314 20.615V26.1103C84.1985 28.385 83.8924 30.6557 83.225 32.8337C82.9288 34.3008 81.6571 35.3671 80.1604 35.4007C79.2185 35.4007 78.324 34.7313 77.469 33.4044V42.5349H74.5171V12.4303V12.4283Z" fill="black"/>
<path d="M93.7305 31.6474C93.9852 31.132 94.1373 30.5713 94.1768 29.9967C94.1768 29.3392 94.2518 28.4585 94.2518 27.329V20.2343C94.2518 19.1049 94.2518 18.2123 94.1768 17.5429C94.1373 16.9644 93.9852 16.3997 93.7305 15.8804C93.5093 15.4519 93.0591 15.1912 92.5773 15.2109C92.0639 15.1557 91.5702 15.4222 91.3372 15.8804C91.0766 16.3977 90.9246 16.9644 90.891 17.5429C90.891 18.2123 90.8042 19.1068 90.8042 20.2343V27.329C90.8042 28.4585 90.8041 29.3392 90.891 29.9967C90.9246 30.5713 91.0766 31.134 91.3372 31.6474C91.5742 32.1016 92.0679 32.3642 92.5773 32.305C93.0572 32.3267 93.5054 32.072 93.7305 31.6474ZM88.9796 33.2725C88.1759 31.3078 87.8166 29.191 87.9252 27.0703V20.4713C87.8166 18.3506 88.1759 16.2338 88.9796 14.2691C90.034 12.2925 92.4904 11.5461 94.467 12.6005C95.1759 12.9797 95.7584 13.5602 96.1355 14.2691C96.9451 16.2318 97.3084 18.3506 97.2018 20.4713V27.0585C97.3084 29.1792 96.9432 31.2979 96.1355 33.2607C95.0673 35.2373 92.597 35.9718 90.6205 34.9035C89.9254 34.5264 89.3548 33.9557 88.9777 33.2607" fill="black"/>
<path d="M0.734965 43.8774H3.8864L8.99661 57.8437L14.1444 43.8774H17.3077L17.5427 66.6148H13.947V53.0435L9.67981 64.3697H8.3648L4.09765 53.1185V66.6148H0.5L0.734965 43.8774Z" fill="black"/>
<path d="M31.3492 62.6577C31.8014 62.3141 32.1923 61.8935 32.5023 61.4176V54.9667C31.5861 55.4603 30.6995 56.0073 29.8485 56.6036C29.2442 57.04 28.719 57.5771 28.2984 58.1912C27.8758 58.8349 27.6587 59.5912 27.6784 60.3613C27.635 61.1235 27.8146 61.8837 28.1997 62.5452C28.5334 63.0487 29.11 63.337 29.7122 63.3014C30.3165 63.2856 30.897 63.0585 31.3492 62.6557M25.6683 66.1784C24.9752 65.667 24.4243 64.9897 24.0688 64.2058C23.6759 63.412 23.4705 62.5373 23.4725 61.6507C23.3916 60.1421 23.7727 58.6454 24.5645 57.3579C25.3267 56.2541 26.3376 55.3438 27.5165 54.704C29.1258 53.8609 30.7824 53.1106 32.4786 52.459V50.8457C32.5497 49.7676 32.3937 48.6855 32.0205 47.6706C31.6453 47.019 30.9167 46.6576 30.1723 46.7524C28.5472 46.7524 27.6922 47.8325 27.6922 49.9769V51.1182L23.4627 50.9563C23.362 48.9225 24.0215 46.9242 25.3109 45.3504C26.7069 44.0452 28.5907 43.3916 30.4962 43.5516C32.2654 43.4074 34.005 44.0689 35.2352 45.3504C36.3489 46.9242 36.88 48.8356 36.7358 50.7588V61.1412C36.7398 62.9717 36.8741 64.8001 37.1328 66.6108H33.2744C32.9762 65.1101 32.7906 63.9925 32.7037 63.2619C32.4056 64.267 31.8349 65.1674 31.053 65.8664C30.2197 66.5911 29.1416 66.9682 28.0378 66.9208C27.1887 66.9307 26.3594 66.6701 25.6683 66.1764" fill="black"/>
<path d="M43.0464 43.8774H47.3135V53.4285H52.7851V43.8774H57.0522V66.6148H52.7851V56.5049H47.3135V66.6148H43.0464V43.8774Z" fill="black"/>
<path d="M63.5127 43.8774H67.1103V59.1845L74.057 43.8774H77.4059V66.6148H73.897V51.1952L66.986 66.6148H63.5127V43.8774Z" fill="black"/>
<path d="M92.5765 55.2022V46.2712H92.1302C90.7598 46.1527 89.3914 46.518 88.2599 47.2999C87.4365 48.2398 87.0436 49.4819 87.1799 50.7239C87.0772 51.9422 87.4543 53.1546 88.2343 54.0985C89.3381 54.9357 90.7144 55.3286 92.0926 55.2022H92.5765ZM86.4986 56.9754C84.4056 56.1481 83.3571 54.0807 83.3472 50.7732C83.286 49.4068 83.5822 48.0483 84.2022 46.828C84.8558 45.7795 85.8629 44.9995 87.0437 44.6323C88.7398 44.0932 90.511 43.8365 92.2901 43.876H96.7685V66.6134H92.5765V57.6448C92.1184 57.6448 91.4351 57.6448 90.5288 57.558L86.8067 66.6134H82.2178L86.4967 56.9754H86.4986Z" fill="black"/>
<path d="M136.749 64.5553L131.775 56.8643L164.585 35.6157L176.209 39.0021L167.574 44.5961L136.749 64.5553Z" fill="#27BBE5"/>
<path d="M116.232 32.8751L111.258 25.1841L143.882 4.05794L149.688 0.300293L148.868 11.749L116.232 32.8751Z" fill="#27BBE5"/>
<path d="M148.633 11.8994L139.764 17.6672L137.84 36.0013L155.888 41.2359L164.57 35.6044L176.193 38.9908L146.969 29.9728L148.631 11.8994H148.633ZM176.209 39.0026L167.526 44.5966H167.451L176.209 39.0026Z" fill="#9D9CAC"/>
<path d="M164.585 35.6157L155.891 41.2473L167.501 44.6337L167.574 44.5961L176.209 39.0021L164.585 35.6157Z" fill="#C3E3F3"/>
<path d="M149.688 0.300293L140.992 5.93182L139.764 17.6411L148.634 11.899L149.688 0.300293Z" fill="#C3E3F3"/>
<path d="M122.772 28.64L116.233 32.8735L131.766 56.8646L138.305 52.6311L122.772 28.64Z" fill="#9D9CAC"/>
<path d="M138.31 52.6386L131.771 56.8721L136.746 64.5564L143.285 60.3229L138.31 52.6386Z" fill="#C3E3F3"/>
<path d="M117.802 20.9589L111.263 25.1924L116.238 32.8767L122.777 28.6433L117.802 20.9589Z" fill="#C3E3F3"/>
</svg>
