<svg width="256" height="256" viewBox="0 0 256 256" fill="none" xmlns="http://www.w3.org/2000/svg">
<path d="M255.64 0H0V255.64H255.64V0Z" fill="white"/>
<path d="M197.798 23.479H10.8877C4.87457 23.479 0 28.3536 0 34.3667V221.277C0 227.291 4.87457 232.165 10.8877 232.165H197.798C203.812 232.165 208.686 227.291 208.686 221.277V34.3667C208.686 28.3536 203.812 23.479 197.798 23.479Z" fill="#F1EFEC"/>
<path opacity="0.3" d="M83.6499 249.236L32.29 219.582L126.641 163.363L179.314 194L83.6536 249.236H83.6499ZM39.4376 219.582L83.6499 245.108L172.162 194.004L126.641 167.366L39.4376 219.582Z" fill="#121214"/>
<path d="M83.65 172.264L35.8657 144.68L127.95 91.5137L175.738 119.102L83.65 172.264Z" fill="#313E47"/>
<path d="M127.95 93.6646L42.6587 142.904V139.851L127.95 90.6045V93.6646Z" fill="#313538"/>
<path d="M127.95 93.6646L168.945 117.334V114.27L127.95 90.6045V93.6646Z" fill="#313538"/>
<path d="M127.95 90.6039L168.81 114.189L83.65 163.359L42.7902 139.767L127.95 90.6003V90.6039ZM127.95 86.6042L35.8657 139.77L83.6537 167.362L175.738 114.189L127.95 86.6006V86.6042Z" fill="#4D5D66"/>
<path d="M83.65 247.173L35.8657 219.581V139.774L83.65 167.366V247.173Z" fill="#242F35"/>
<path d="M83.6499 247.173L175.738 194V114.192L83.6499 167.366V247.173Z" fill="#313E47"/>
<path d="M128.009 13.0449L42.8672 62.2039V138.421L83.7306 162.013V162.006V162.013L168.865 112.854V36.6482L128.009 13.0449Z" fill="#E8DBCA"/>
<path d="M83.7304 162.013L42.7354 138.498L42.867 62.2036L83.7304 85.8033V162.013Z" fill="#E2D0B5"/>
<path d="M84.418 115.154V126.626L168.865 107.286V90.1758L101.484 105.195L84.418 115.154Z" fill="#EDE6DF"/>
<path d="M168.415 36.8491L83.7306 85.8033L57.6558 70.7442L83.1968 86.9184L83.2772 129.237L84.6811 86.8124L168.415 36.8491Z" fill="#D0B787"/>
<path d="M150.991 74.0347L133.146 81.354L138.684 84.5713L156.529 77.252L150.991 74.0347Z" fill="#A08B5D"/>
<path d="M109.33 133.006L114.869 136.223L117.856 114.053L112.317 110.836L109.33 133.006Z" fill="#A08B5D"/>
<path d="M117.198 90.5601L99.3711 103.835L104.91 107.056L122.737 93.7811L130.656 70.6091L125.117 67.3882L117.198 90.5601Z" fill="#A08B5D"/>
<path d="M156.53 77.2519L138.685 84.5713L130.656 70.6089L122.737 93.7808L104.91 107.056L117.856 114.053L114.869 136.224L130.791 117.377L146.768 117.808L143.664 99.1551L156.53 77.2519Z" fill="#D0B787"/>
</svg>
