<svg width="256" height="256" viewBox="0 0 256 256" fill="none" xmlns="http://www.w3.org/2000/svg">
<path d="M255.641 0H0V255.64H255.641V0Z" fill="white"/>
<path d="M197.798 23.479H10.8876C4.87456 23.479 0 28.3536 0 34.3667V221.277C0 227.291 4.87456 232.165 10.8876 232.165H197.798C203.812 232.165 208.686 227.291 208.686 221.277V34.3667C208.686 28.3536 203.812 23.479 197.798 23.479Z" fill="#F1EFEC"/>
<g opacity="0.3">
<path d="M210.477 192.658L134.655 238.995C132.381 240.384 129.529 240.406 127.237 239.049L11.2457 170.492C6.50748 167.691 6.53307 160.829 11.2932 158.065L86.633 114.302C88.8449 113.019 91.5723 113.001 93.7988 114.262L210.273 180.242C215.051 182.948 215.164 189.792 210.477 192.654V192.658Z" fill="#121214"/>
</g>
<mask id="mask0_122_914" style="mask-type:luminance" maskUnits="userSpaceOnUse" x="218" y="178" width="4" height="10">
<path d="M221.003 183.708C220.992 182.093 220.988 180.477 220.988 178.864C220.988 180.129 220.151 181.394 218.477 182.363L218.491 187.207C220.169 186.242 221.01 184.97 221.007 183.708H221.003Z" fill="white"/>
</mask>
<g mask="url(#mask0_122_914)">
<path d="M218.473 182.363L218.487 187.207C220.165 186.242 221.006 184.97 221.003 183.708L220.988 178.864C220.988 180.129 220.151 181.394 218.476 182.363H218.473Z" fill="#2C2B2E"/>
</g>
<mask id="mask1_122_914" style="mask-type:luminance" maskUnits="userSpaceOnUse" x="96" y="114" width="7" height="6">
<path d="M102.095 119.837C102.087 118.221 102.08 116.605 102.08 114.993C100.424 114.032 97.7404 114.032 96.0732 114.986L96.0879 119.834C97.7514 118.876 100.439 118.876 102.095 119.834V119.837Z" fill="white"/>
</mask>
<g mask="url(#mask1_122_914)">
<path d="M96.0767 114.986L96.0913 119.834C96.2814 119.72 96.4898 119.622 96.7055 119.538L96.6909 114.693C96.4752 114.777 96.2741 114.88 96.0803 114.986H96.0767Z" fill="#2C2B2E"/>
<path d="M96.6873 114.693L96.7018 119.538C96.8664 119.472 97.0382 119.413 97.2137 119.366L97.1991 114.521C97.02 114.569 96.8518 114.628 96.6836 114.693H96.6873Z" fill="#2D2D30"/>
<path d="M97.2026 114.521L97.2173 119.366C97.3635 119.325 97.5134 119.285 97.6596 119.26L97.645 114.412C97.4915 114.445 97.3452 114.485 97.2026 114.521Z" fill="#2F2E32"/>
<path d="M97.645 114.412L97.6596 119.26C97.7985 119.227 97.9375 119.205 98.0801 119.187L98.0655 114.342C97.9229 114.361 97.784 114.386 97.6487 114.415L97.645 114.412Z" fill="#313034"/>
<path d="M98.0657 114.342L98.0803 119.186C98.2119 119.168 98.3508 119.15 98.4897 119.143L98.4751 114.298C98.3399 114.309 98.2046 114.32 98.062 114.342H98.0657Z" fill="#323235"/>
<path d="M98.4751 114.295L98.4897 119.139C98.6286 119.124 98.7712 119.121 98.9065 119.117L98.8918 114.273C98.7529 114.273 98.614 114.28 98.4751 114.295Z" fill="#343337"/>
<path d="M98.8955 114.273L98.9101 119.117C99.0564 119.11 99.2026 119.117 99.3489 119.117L99.3343 114.273C99.188 114.266 99.0454 114.262 98.8992 114.273H98.8955Z" fill="#363539"/>
<path d="M99.3269 114.276L99.3415 119.121C99.4987 119.128 99.6523 119.135 99.8095 119.154L99.7949 114.309C99.6377 114.295 99.4841 114.284 99.3232 114.28L99.3269 114.276Z" fill="#37373B"/>
<path d="M99.7988 114.306L99.8134 119.15C99.9999 119.165 100.179 119.194 100.358 119.223L100.344 114.379C100.168 114.346 99.9853 114.32 99.8025 114.306H99.7988Z" fill="#39383D"/>
<path d="M100.34 114.378L100.354 119.223C100.628 119.274 100.899 119.343 101.159 119.424L101.144 114.579C100.888 114.495 100.614 114.43 100.336 114.378H100.34Z" fill="#3B3A3E"/>
<path d="M101.147 114.58L101.162 119.424C101.495 119.53 101.809 119.669 102.098 119.837L102.083 114.993C101.795 114.828 101.48 114.689 101.147 114.58Z" fill="#3C3C40"/>
</g>
<path d="M20.5688 158.583L20.5871 163.431L96.0914 119.837L96.0768 114.985L20.5688 158.583Z" fill="#2D2D30"/>
<mask id="mask2_122_914" style="mask-type:luminance" maskUnits="userSpaceOnUse" x="19" y="158" width="2" height="8">
<path d="M19.3223 160.332C19.3223 161.948 19.3332 163.563 19.3369 165.176C19.3369 164.543 19.75 163.907 20.5873 163.428L20.5726 158.584C19.739 159.063 19.3223 159.695 19.3259 160.332H19.3223Z" fill="white"/>
</mask>
<g mask="url(#mask2_122_914)">
<path d="M19.3223 160.332L19.3369 165.176C19.3369 164.543 19.75 163.907 20.5873 163.428L20.5726 158.584C19.739 159.063 19.3223 159.695 19.3259 160.332H19.3223Z" fill="#2C2B2E"/>
</g>
<mask id="mask3_122_914" style="mask-type:luminance" maskUnits="userSpaceOnUse" x="19" y="160" width="2" height="7">
<path d="M19.3223 160.331C19.3223 161.947 19.3332 163.563 19.3369 165.175C19.3369 165.8 19.75 166.426 20.5726 166.905L20.558 162.06C19.7391 161.581 19.3223 160.956 19.3223 160.331Z" fill="white"/>
</mask>
<g mask="url(#mask3_122_914)">
<path d="M19.3223 160.331L19.3369 165.175V165.212L19.3223 160.368V160.331Z" fill="#8D8D8D"/>
<path d="M19.3223 160.368L19.3369 165.212C19.3369 165.296 19.3479 165.377 19.3661 165.457L19.3515 160.613C19.3369 160.533 19.3296 160.452 19.3259 160.368H19.3223Z" fill="#929292"/>
<path d="M19.3481 160.613L19.3628 165.457C19.3774 165.537 19.403 165.614 19.4322 165.698L19.4176 160.854C19.3847 160.774 19.3664 160.697 19.3481 160.613Z" fill="#979797"/>
<path d="M19.4175 160.854L19.4321 165.699C19.465 165.779 19.5016 165.856 19.5454 165.94L19.5308 161.096C19.4906 161.015 19.4504 160.939 19.4211 160.854H19.4175Z" fill="#9C9C9C"/>
<path d="M19.5271 161.092L19.5417 165.937C19.5893 166.024 19.6441 166.108 19.7136 166.192L19.6989 161.348C19.6331 161.264 19.5746 161.18 19.5234 161.092H19.5271Z" fill="#A1A1A1"/>
<path d="M19.7021 161.348L19.7168 166.192C19.7899 166.287 19.8776 166.382 19.9836 166.473L19.969 161.629C19.8703 161.538 19.7826 161.443 19.7058 161.348H19.7021Z" fill="#A6A6A6"/>
<path d="M19.9656 161.633L19.9802 166.478C20.1337 166.62 20.3092 166.752 20.514 166.876L20.4994 162.032C20.291 161.908 20.1155 161.772 19.9619 161.633H19.9656Z" fill="#ABABAB"/>
<path d="M20.5029 162.032L20.5175 166.876C20.5358 166.891 20.5578 166.894 20.5687 166.909L20.5541 162.065C20.5358 162.05 20.5176 162.043 20.5029 162.032Z" fill="#AFAFAF"/>
</g>
<path d="M102.083 114.993L102.094 119.837L194.409 173.486L194.395 168.638L102.083 114.993Z" fill="#414045"/>
<mask id="mask4_122_914" style="mask-type:luminance" maskUnits="userSpaceOnUse" x="194" y="168" width="2" height="8">
<path d="M194.409 173.486C195.228 173.965 195.641 174.59 195.649 175.215L195.634 170.367C195.634 169.746 195.221 169.121 194.395 168.638C194.402 170.093 194.402 172.027 194.409 173.482V173.486Z" fill="white"/>
</mask>
<g mask="url(#mask4_122_914)">
<path d="M194.394 168.638L194.409 173.482C194.409 173.482 194.442 173.501 194.456 173.512L194.445 168.667C194.427 168.66 194.409 168.649 194.391 168.638H194.394Z" fill="#3C3C40"/>
<path d="M194.449 168.667L194.46 173.511C194.668 173.639 194.847 173.774 195.001 173.913L194.986 169.065C194.833 168.93 194.65 168.795 194.449 168.667Z" fill="#3B3A3E"/>
<path d="M194.986 169.066L195.001 173.914C195.1 174.009 195.187 174.1 195.264 174.195L195.253 169.351C195.176 169.252 195.085 169.157 194.986 169.062V169.066Z" fill="#39383D"/>
<path d="M195.253 169.354L195.264 174.199C195.334 174.283 195.389 174.371 195.436 174.455L195.422 169.61C195.374 169.526 195.316 169.439 195.253 169.358V169.354Z" fill="#37373B"/>
<path d="M195.422 169.607L195.437 174.451C195.48 174.528 195.524 174.608 195.55 174.692L195.535 169.844C195.502 169.764 195.466 169.683 195.422 169.603V169.607Z" fill="#363539"/>
<path d="M195.535 169.848L195.549 174.696C195.579 174.773 195.6 174.853 195.619 174.934L195.604 170.089C195.589 170.009 195.56 169.929 195.535 169.848Z" fill="#343337"/>
<path d="M195.604 170.093L195.619 174.937C195.637 175.018 195.641 175.098 195.644 175.179L195.633 170.335C195.633 170.254 195.619 170.174 195.604 170.093Z" fill="#323235"/>
<path d="M195.634 170.331L195.645 175.175C195.645 175.175 195.652 175.2 195.652 175.215L195.637 170.367V170.331H195.634Z" fill="#313034"/>
</g>
<mask id="mask5_122_914" style="mask-type:luminance" maskUnits="userSpaceOnUse" x="194" y="170" width="2" height="7">
<path d="M195.649 175.215L195.634 170.367C195.634 171.003 195.221 171.635 194.38 172.118L194.395 176.966C195.232 176.476 195.649 175.847 195.649 175.215Z" fill="white"/>
</mask>
<g mask="url(#mask5_122_914)">
<path d="M194.376 172.118L194.391 176.966C195.228 176.476 195.645 175.847 195.645 175.215L195.63 170.367C195.63 171.003 195.217 171.635 194.376 172.118Z" fill="#7F7F7F"/>
</g>
<path d="M20.5576 162.064L20.5686 166.908L112.883 220.553L112.865 215.709L20.5576 162.064Z" fill="#BCBCBC"/>
<path d="M118.872 215.713L118.887 220.557L194.395 176.966L194.376 172.118L118.872 215.713Z" fill="#828282"/>
<mask id="mask6_122_914" style="mask-type:luminance" maskUnits="userSpaceOnUse" x="112" y="215" width="7" height="7">
<path d="M112.865 215.709L112.88 220.554C114.532 221.515 117.223 221.515 118.883 220.554L118.868 215.709C117.208 216.667 114.518 216.667 112.861 215.709H112.865Z" fill="white"/>
</mask>
<g mask="url(#mask6_122_914)">
<path d="M112.865 215.709L112.88 220.554C113.165 220.718 113.476 220.854 113.812 220.963L113.797 216.119C113.465 216.013 113.15 215.878 112.865 215.709Z" fill="#AFAFAF"/>
<path d="M113.801 216.119L113.816 220.963C114.072 221.047 114.342 221.113 114.62 221.164L114.606 216.32C114.331 216.273 114.057 216.203 113.801 216.119Z" fill="#ABABAB"/>
<path d="M114.606 216.316L114.62 221.16C114.799 221.193 114.979 221.215 115.158 221.234L115.147 216.389C114.96 216.367 114.781 216.345 114.602 216.312L114.606 216.316Z" fill="#A6A6A6"/>
<path d="M115.15 216.396L115.161 221.241C115.319 221.255 115.479 221.266 115.637 221.274L115.622 216.429C115.465 216.429 115.308 216.415 115.15 216.4V216.396Z" fill="#A1A1A1"/>
<path d="M115.618 216.426L115.633 221.271C115.775 221.278 115.918 221.278 116.068 221.271L116.053 216.426C115.907 216.426 115.76 216.426 115.614 216.426H115.618Z" fill="#9C9C9C"/>
<path d="M116.057 216.43L116.071 221.274C116.21 221.267 116.353 221.259 116.488 221.252L116.473 216.408C116.335 216.419 116.196 216.426 116.057 216.43Z" fill="#979797"/>
<path d="M116.474 216.404L116.488 221.248C116.627 221.233 116.762 221.219 116.901 221.204L116.887 216.36C116.755 216.374 116.616 216.396 116.474 216.404Z" fill="#929292"/>
<path d="M116.886 216.36L116.901 221.204C117.04 221.183 117.183 221.161 117.322 221.131L117.307 216.287C117.168 216.316 117.025 216.338 116.883 216.36H116.886Z" fill="#8D8D8D"/>
<path d="M117.311 216.287L117.326 221.131C117.472 221.098 117.622 221.062 117.768 221.025L117.753 216.177C117.604 216.221 117.461 216.254 117.311 216.287Z" fill="#888888"/>
<path d="M117.75 216.173L117.764 221.021C117.943 220.97 118.111 220.912 118.276 220.846L118.261 216.001C118.097 216.067 117.925 216.126 117.75 216.173Z" fill="#838383"/>
<path d="M118.265 216.002L118.28 220.846C118.495 220.762 118.7 220.663 118.89 220.554L118.876 215.709C118.689 215.819 118.484 215.914 118.265 216.002Z" fill="#7F7F7F"/>
</g>
<path d="M92.845 109.351C96.172 107.428 101.546 107.428 104.851 109.351L218.514 175.405C221.822 177.332 221.808 180.439 218.473 182.362L136.48 229.701C133.153 231.624 127.782 231.624 124.473 229.701L10.811 163.647C7.5023 161.724 7.52058 158.613 10.8512 156.693L92.845 109.351ZM112.865 215.705C114.522 216.663 117.212 216.663 118.872 215.705L194.377 172.111C196.044 171.153 196.047 169.596 194.391 168.634L102.08 114.989C100.424 114.028 97.7404 114.028 96.0732 114.982L20.5653 158.58C18.9091 159.538 18.8981 161.095 20.5506 162.057L112.862 215.702L112.865 215.705Z" fill="#242F35"/>
<path d="M20.5689 158.584C18.9127 159.542 18.9017 161.099 20.5543 162.061L112.865 215.706C114.522 216.664 117.212 216.664 118.872 215.706L194.376 172.111C196.044 171.154 196.047 169.596 194.391 168.635L102.08 114.99C100.424 114.028 97.7403 114.028 96.0732 114.982L20.5652 158.58L20.5689 158.584Z" fill="#F5F5F5"/>
<path d="M124.473 229.701L10.8108 163.647C10.6061 163.527 10.4525 163.395 10.2807 163.267C10.076 163.125 9.8566 162.982 9.68477 162.825C9.42154 162.587 9.20217 162.342 9.01571 162.09C8.97915 162.042 8.94992 161.995 8.91701 161.947C8.74884 161.691 8.60989 161.428 8.51484 161.161C8.50021 161.125 8.49655 161.092 8.48558 161.059C8.39784 160.774 8.34301 160.485 8.33936 160.192V160.265L8.35397 165.113C8.36128 165.274 8.37958 165.435 8.41248 165.6C8.43442 165.702 8.47097 165.808 8.50022 165.91C8.51119 165.94 8.51485 165.969 8.52582 166.002C8.53678 166.027 8.54044 166.049 8.54775 166.075C8.6099 166.236 8.68302 166.4 8.77442 166.558C8.8183 166.634 8.87679 166.711 8.93163 166.788C8.96453 166.835 8.99743 166.887 9.03399 166.938C9.06324 166.982 9.08519 167.022 9.11809 167.066C9.27164 167.259 9.44348 167.453 9.6409 167.632C9.65918 167.647 9.68843 167.665 9.70671 167.68C9.87488 167.833 10.0906 167.969 10.288 168.108C10.4379 168.214 10.5586 168.327 10.7231 168.429C10.7597 168.451 10.7962 168.473 10.8255 168.492L124.491 234.545L124.477 229.701H124.473Z" fill="#364349"/>
<path d="M218.473 182.362L136.48 229.701C136.074 229.935 135.635 230.139 135.174 230.315C135.13 230.333 135.076 230.348 135.028 230.362C134.622 230.512 134.202 230.64 133.77 230.746C133.708 230.761 133.646 230.775 133.584 230.79C133.131 230.889 132.666 230.973 132.195 231.028C132.125 231.039 132.059 231.042 131.986 231.053C131.515 231.101 131.036 231.126 130.557 231.13H130.367C129.88 231.13 129.394 231.101 128.915 231.05C128.838 231.039 128.765 231.028 128.689 231.017C128.33 230.973 127.979 230.907 127.628 230.834C127.347 230.775 127.073 230.706 126.798 230.626C126.524 230.549 126.246 230.472 125.983 230.377C125.877 230.337 125.771 230.3 125.669 230.26C125.252 230.092 124.846 229.909 124.473 229.693L124.488 234.537C124.857 234.753 125.259 234.936 125.676 235.1C125.778 235.144 125.884 235.181 125.99 235.221C126.111 235.265 126.224 235.32 126.349 235.356C126.495 235.404 126.652 235.43 126.802 235.47C127.087 235.55 127.372 235.623 127.672 235.685C127.771 235.704 127.859 235.737 127.957 235.759C128.173 235.799 128.4 235.824 128.623 235.85C128.736 235.865 128.842 235.887 128.955 235.898C128.985 235.898 129.01 235.905 129.04 235.908C129.35 235.941 129.665 235.963 129.979 235.974C130.103 235.982 130.224 235.974 130.348 235.974H130.601C130.685 235.974 130.765 235.974 130.846 235.974C131.127 235.974 131.405 235.956 131.683 235.93C131.782 235.919 131.88 235.905 131.983 235.894C132.067 235.883 132.147 235.879 132.228 235.865C132.323 235.854 132.414 235.85 132.505 235.835C132.791 235.795 133.068 235.748 133.35 235.689C133.419 235.674 133.482 235.653 133.551 235.638C133.646 235.62 133.738 235.594 133.825 235.572C133.961 235.539 134.099 235.51 134.238 235.473C134.509 235.397 134.772 235.302 135.035 235.207C135.083 235.188 135.138 235.174 135.193 235.155C135.215 235.141 135.244 235.141 135.269 235.126C135.697 234.954 136.11 234.757 136.498 234.537L218.484 187.199L218.47 182.355L218.473 182.362Z" fill="#1B2326"/>
<path d="M109.915 140.465L109.936 140.45L109.725 140.33C109.798 140.37 109.86 140.414 109.911 140.461L109.915 140.465Z" fill="#C79B7A"/>
<path d="M104.793 137.463L100.983 139.661L104.04 141.437L104.625 141.777L105.919 142.531C105.166 142.092 105.404 141.244 106.453 140.637C107.502 140.03 108.975 139.891 109.725 140.333L108.423 139.577L107.901 139.273L104.789 137.467L104.793 137.463Z" fill="#E6B48C"/>
<path d="M106.453 140.636C105.404 141.243 105.166 142.092 105.919 142.53C105.992 142.571 106.073 142.607 106.153 142.64C106.95 142.94 108.237 142.775 109.191 142.227C110.142 141.678 110.434 140.925 109.919 140.468C109.868 140.421 109.802 140.377 109.732 140.337C108.979 139.894 107.51 140.037 106.46 140.64L106.453 140.636Z" fill="#E6B48C"/>
<path d="M108.427 139.576L109.937 140.454C110.431 140.925 110.138 141.679 109.188 142.227C108.233 142.779 106.946 142.94 106.149 142.64L105.915 142.53L104.621 141.777C100.735 144.87 100.322 148.965 103.385 152.263L126.557 138.882C120.865 137.094 113.772 137.324 108.423 139.573L108.427 139.576Z" fill="#1F2931"/>
<path d="M134.286 138.684L103.63 156.383L72.7515 138.439L103.407 120.74L134.286 138.684ZM126.561 138.885C120.868 137.097 113.776 137.328 108.427 139.576L107.904 139.273C108.862 137.543 107.681 135.229 104.65 133.467C100.738 131.196 95.2178 130.699 92.3295 132.366C89.4339 134.037 90.2712 137.236 94.1831 139.507C97.1628 141.236 101.067 141.938 104.04 141.437L104.625 141.777C100.738 144.87 100.325 148.965 103.389 152.263L126.561 138.881V138.885Z" fill="#D5E3ED"/>
<path d="M92.3296 132.366C89.434 134.037 90.2713 137.236 94.1832 139.507C97.1629 141.236 101.068 141.938 104.04 141.437L100.983 139.66L104.793 137.463L107.904 139.269C108.862 137.54 107.681 135.225 104.65 133.463C100.738 131.193 95.2179 130.696 92.3296 132.363V132.366Z" fill="#E6B48C"/>
<path d="M106.127 142.651L106.149 142.64C106.069 142.607 105.992 142.567 105.916 142.53L106.127 142.651Z" fill="#C79B7A"/>
<path d="M39.3022 164.32L41.6129 165.662L71.8445 148.208L69.5376 146.862L39.3022 164.32Z" fill="#D0D2D4"/>
<path d="M44.9766 167.614L47.2835 168.956L82.5934 148.574L80.2865 147.232L44.9766 167.614Z" fill="#D0D2D4"/>
<path d="M50.647 170.912L52.9539 172.254L88.2675 151.864L85.9569 150.526L50.647 170.912Z" fill="#D0D2D4"/>
<path d="M56.3213 174.206L58.6283 175.548L88.8636 158.094L86.553 156.752L56.3213 174.206Z" fill="#D0D2D4"/>
<path d="M61.9917 177.503L64.2986 178.845L99.6086 158.463L97.3016 157.121L61.9917 177.503Z" fill="#D0D2D4"/>
<path d="M80.897 188.49L83.2113 189.832L153.199 149.429L150.881 148.084L80.897 188.49Z" fill="#D0D2D4"/>
<path d="M86.5679 191.788L88.8822 193.133L148.808 158.532L146.494 157.187L86.5679 191.788Z" fill="#D0D2D4"/>
<path d="M33.6318 161.026L35.9424 162.364L71.2524 141.978L68.9454 140.637L33.6318 161.026Z" fill="#D0D2D4"/>
<path d="M92.2383 195.082L94.5525 196.428L164.54 156.021L162.226 154.676L92.2383 195.082Z" fill="#D0D2D4"/>
<path d="M54.9062 159.615L56.7672 158.701L56.6063 160.613L54.9062 159.615Z" fill="#313E47"/>
<path d="M57.0375 145.993L56.6976 160.679L52.7637 160.811V164.061L127.383 207.392L127.325 186.838L57.0375 145.993Z" fill="#505C63"/>
<path d="M127.325 186.838L127.383 207.392L181.098 176.378L181.039 155.827L127.325 186.838Z" fill="#242F35"/>
<path d="M127.383 190.406L127.424 204.427L178.995 174.634L178.688 160.814L127.383 190.406Z" fill="#A7A7A7"/>
<path d="M54.2515 144.373L127.325 186.838L181.039 155.827L107.966 113.355L54.2515 144.373Z" fill="#313E47"/>
<path d="M178.688 160.814L178.996 174.634L177.683 174.02L177.339 161.593L178.688 160.814Z" fill="#505C63"/>
<path d="M127.423 204.427L178.995 174.634L177.683 174.02L127.325 202.259L127.423 204.427Z" fill="#505C63"/>
<path d="M127.383 190.406L56.9498 150.215L56.5879 162.097L127.423 204.427L127.383 190.406Z" fill="#EAEAEF"/>
<path d="M127.423 204.427L52.7637 160.81L54.9061 159.615L127.423 202.204V204.427Z" fill="#313E47"/>
<path d="M54.2515 144.373V148.596L56.9496 150.215L57.3591 146.179L54.2515 144.373Z" fill="#505C63"/>
<path d="M127.383 190.406L56.6064 160.613L56.9501 150.215L127.383 190.406Z" fill="#E2E2E4"/>
<path d="M127.325 202.259L177.339 161.593L127.383 190.406L127.325 202.259Z" fill="#929292"/>
<path d="M80.8125 150.222L83.8324 151.981L121.475 130.246L118.451 128.495L80.8125 150.222Z" fill="#4D5D66"/>
<path d="M91.1191 156.211L94.139 157.969L131.778 136.234L128.758 134.479L91.1191 156.211Z" fill="#242F35"/>
<path d="M86.1396 153.319L89.1631 155.078L126.802 133.343L123.782 131.591L86.1396 153.319Z" fill="#4D5D66"/>
<path d="M75.833 147.331L78.8566 149.089L116.495 127.354L113.475 125.603L75.833 147.331Z" fill="#4D5D66"/>
<path d="M86.666 151.217L88.494 150.054V152.281L86.666 151.217Z" fill="#8E7747"/>
<path d="M85.2729 136.637V140.79L88.4244 142.512L88.4902 152.277L85.251 152.113V155.564L127.595 180.162L127.54 161.172L85.2729 136.637Z" fill="#BFA67C"/>
<path d="M127.541 161.172L127.595 180.162L163.655 159.34L163.6 140.351L127.541 161.172Z" fill="#A08B5D"/>
<path d="M85.2734 136.637L127.541 161.172L163.6 140.351L121.688 116.006L85.2734 136.637Z" fill="#D0B787"/>
<path d="M161.106 146L127.551 164.92L127.595 176.919L161.106 157.641V146Z" fill="#BAAC9D"/>
<path d="M161.106 146L127.551 164.92L127.595 176.919L161.106 146Z" fill="#CEC3B6"/>
<path d="M127.595 176.919L88.5016 154.003L88.4248 142.512L127.552 164.92L127.595 176.919Z" fill="#EAEAEF"/>
<path d="M127.552 164.92L88.5016 154.003L88.4248 142.512L127.552 164.92Z" fill="#E2E2E4"/>
<path d="M161.106 146V157.641L159.344 156.884V146.994L161.106 146Z" fill="#BFA67C"/>
<path d="M159.344 156.884L127.595 175.054V176.919L161.106 157.641L159.344 156.884Z" fill="#8E7747"/>
<path d="M127.595 176.919L85.251 152.113L86.6659 151.217L127.595 175.054V176.919Z" fill="#8E7747"/>
<path d="M87.4818 66.1488C87.4818 76.4698 71.1613 100.512 60.9171 100.512C50.6729 100.512 42.8052 97.3713 42.8052 87.0467C42.8052 76.7221 58.6943 47.4556 68.9348 47.4556C79.1753 47.4556 87.4818 55.8242 87.4818 66.1488Z" fill="#E2E2E4"/>
<path d="M95.0604 59.2202L91.4373 57.1107L91.3203 45.4297L94.9398 47.5356L95.0604 59.2202Z" fill="#BFA67C"/>
<path d="M122.777 31.2734C122.894 31.2185 123.011 31.1746 123.124 31.1308C123.296 31.065 123.464 31.0101 123.629 30.9589C123.713 30.9333 123.793 30.9078 123.874 30.8858C123.969 30.8602 124.064 30.8456 124.155 30.8237C124.265 30.8017 124.375 30.7798 124.481 30.7652C124.547 30.7615 124.612 30.7542 124.674 30.7505C124.799 30.7396 124.912 30.7323 125.029 30.7323C125.08 30.7323 125.132 30.7323 125.183 30.7323C125.34 30.7396 125.501 30.7505 125.647 30.7761C125.654 30.7761 125.662 30.7798 125.669 30.7834C125.815 30.809 125.947 30.8493 126.078 30.8931C126.115 30.9041 126.144 30.9151 126.177 30.9297C126.316 30.9809 126.448 31.0394 126.572 31.1088C125.366 30.4069 124.159 29.7049 122.949 29.003C122.938 28.9993 122.927 28.992 122.92 28.9847C122.828 28.9335 122.74 28.8896 122.645 28.8531C122.616 28.8421 122.587 28.8311 122.554 28.8202C122.525 28.8092 122.492 28.7982 122.459 28.7873C122.419 28.7726 122.382 28.758 122.346 28.747C122.247 28.7178 122.148 28.6959 122.046 28.6776C122.042 28.6776 122.035 28.6776 122.024 28.6739C122.024 28.6739 122.024 28.6739 122.02 28.6739C121.9 28.652 121.779 28.6374 121.655 28.63H121.567C121.516 28.63 121.468 28.63 121.413 28.63C121.355 28.63 121.3 28.6264 121.241 28.63C121.183 28.63 121.117 28.641 121.059 28.6483C120.993 28.6556 120.927 28.6593 120.861 28.6703C120.825 28.6703 120.795 28.6703 120.763 28.6776C120.693 28.6885 120.613 28.7105 120.54 28.7251C120.448 28.7434 120.353 28.7617 120.258 28.7836C120.229 28.7909 120.203 28.7946 120.178 28.8019C120.126 28.8128 120.068 28.8384 120.02 28.8531C119.852 28.9042 119.68 28.9591 119.505 29.0286C119.461 29.0468 119.417 29.0578 119.37 29.0724C119.3 29.1017 119.231 29.1382 119.158 29.1711C119.095 29.1967 119.037 29.2223 118.978 29.2552C118.777 29.3503 118.573 29.4527 118.368 29.5733L91.3242 45.4332L94.9437 47.539L121.987 31.6792C122.196 31.5585 122.4 31.4562 122.602 31.3611C122.66 31.3318 122.722 31.3063 122.781 31.277L122.777 31.2734Z" fill="#8E7747"/>
<path d="M121.984 31.6757C125.293 29.7636 127.95 30.8238 127.987 34.0302C128.016 37.2621 125.384 41.4373 122.101 43.3604L95.0645 59.2166L94.9438 47.5355L121.987 31.6757H121.984Z" fill="#D0B787"/>
<path d="M88.3078 61.4762L84.6883 59.3703L84.6006 51.4258L88.2201 53.5317L88.3078 61.4762Z" fill="#41271A"/>
<path d="M88.2201 53.5316L84.6006 51.4258L91.3533 47.4517L94.9727 49.5612L88.2201 53.5316Z" fill="#48484D"/>
<path d="M94.9724 49.561L95.0711 57.5019L88.3075 61.476L88.2197 53.5315L94.9724 49.561Z" fill="#2C2B2E"/>
<path d="M84.0667 67.6479C84.1106 67.3846 84.1508 67.1141 84.1873 66.8508C84.2019 66.7375 84.2239 66.6242 84.2385 66.5145C84.2385 66.4852 84.2422 66.4523 84.2495 66.4231C84.319 65.8674 84.3701 65.319 84.4103 64.7742C84.414 64.6719 84.425 64.5658 84.4286 64.4561C84.4579 63.9004 84.4835 63.3411 84.4798 62.7927C84.4652 56.8114 82.3483 52.5996 78.9409 50.6181C77.7344 49.9161 76.5279 49.2142 75.3178 48.5122C78.7252 50.4938 80.8347 54.7055 80.853 60.6868C80.853 61.2352 80.8347 61.7946 80.7982 62.3539C80.7909 62.46 80.7872 62.5623 80.7799 62.6684C80.7397 63.2168 80.6885 63.7652 80.6154 64.3172C80.5971 64.4561 80.5788 64.6024 80.5569 64.745C80.5167 65.0119 80.4764 65.2788 80.4326 65.5456C80.4033 65.7102 80.3741 65.8637 80.3485 66.0209C80.2973 66.2878 80.2498 66.5511 80.195 66.8216C80.173 66.9459 80.1437 67.0665 80.1182 67.1945C79.9792 67.8307 79.8257 68.4668 79.6466 69.1066C79.6173 69.2163 79.5881 69.3223 79.5588 69.4283C79.398 69.9841 79.2298 70.5398 79.0506 71.0955C79.0397 71.1211 79.0323 71.1503 79.025 71.1759C78.8459 71.7097 78.6485 72.2435 78.451 72.7736C78.3998 72.8979 78.3523 73.0222 78.3048 73.1502C78.1256 73.6145 77.9392 74.0715 77.7417 74.5285C77.7161 74.5797 77.6979 74.6309 77.6723 74.6821C77.4602 75.1756 77.2299 75.6692 76.9996 76.1591C76.9411 76.2834 76.8789 76.4004 76.8204 76.5247C76.6266 76.9122 76.4292 77.2998 76.2318 77.6837C76.1733 77.797 76.1112 77.9067 76.0563 78.02C75.804 78.4989 75.5335 78.9742 75.263 79.4386C75.2155 79.5226 75.1716 79.5994 75.1204 79.6835C74.8754 80.1003 74.6232 80.5098 74.3672 80.9156C74.2941 81.0289 74.221 81.1496 74.1479 81.2629C73.8408 81.7419 73.519 82.2171 73.1937 82.6814C73.1425 82.7546 73.0876 82.8277 73.0401 82.8972C72.7037 83.3761 72.3564 83.8441 72.0055 84.3011C71.947 84.3742 71.8957 84.451 71.8372 84.5241C71.3912 85.0981 70.9306 85.6538 70.459 86.2022C70.3895 86.2826 70.32 86.3667 70.2505 86.4472C69.9727 86.7652 69.6875 87.0796 69.4024 87.3831C69.3731 87.416 69.3439 87.4489 69.3183 87.4818C69.0002 87.8218 68.6748 88.1472 68.3531 88.4726C68.2836 88.5384 68.2105 88.6079 68.1447 88.6737C67.7206 89.0868 67.2892 89.4926 66.8468 89.8802C66.8102 89.9167 66.7627 89.9533 66.7261 89.9898C66.2728 90.3884 65.8122 90.7686 65.3442 91.1342C65.2528 91.2073 65.1614 91.2768 65.07 91.3499C64.6093 91.7009 64.145 92.0409 63.677 92.3626C63.5929 92.4175 63.5015 92.4723 63.4174 92.5308C62.9275 92.8635 62.4266 93.1779 61.9258 93.4667C61.5236 93.7007 61.1178 93.9128 60.723 94.1139C60.6096 94.176 60.4926 94.2272 60.3756 94.282C60.0758 94.4283 59.7724 94.5672 59.4799 94.6915C59.3702 94.739 59.2569 94.7866 59.1508 94.8341C58.873 94.9438 58.5951 95.0461 58.3209 95.1485C58.2515 95.1704 58.1783 95.2033 58.1052 95.2289C57.7616 95.3459 57.4252 95.452 57.0852 95.5434C56.8878 95.5982 56.694 95.6457 56.4966 95.6859C56.3979 95.7115 56.3064 95.7371 56.2187 95.7591C55.9262 95.8176 55.6374 95.8724 55.3559 95.9163C54.9245 95.9821 54.504 96.0223 54.0873 96.0442C54.0068 96.0479 53.9227 96.0552 53.8386 96.0589C53.4657 96.0698 53.1001 96.0698 52.7382 96.0479C52.6723 96.0442 52.6138 96.0369 52.5517 96.0296C52.2629 96.0077 51.9741 95.9748 51.6962 95.9309C51.6085 95.9163 51.5207 95.9053 51.433 95.887C51.1112 95.8249 50.7968 95.7591 50.4861 95.6677C50.4715 95.664 50.4568 95.6567 50.4459 95.653C50.1534 95.569 49.8718 95.4629 49.5903 95.3532C49.5062 95.3203 49.4258 95.2838 49.3417 95.2472C49.1078 95.1448 48.8774 95.0279 48.6581 94.9145C48.5776 94.8706 48.4972 94.8304 48.4204 94.7902L52.0435 96.8961C52.0801 96.9144 52.113 96.9363 52.1495 96.9546C52.1934 96.9765 52.2337 96.9948 52.2739 97.0131C52.5006 97.1337 52.7308 97.2507 52.9721 97.3531C53.016 97.3714 53.0599 97.4006 53.1038 97.4189C53.1367 97.4335 53.1769 97.4445 53.2135 97.4591C53.495 97.5725 53.7765 97.6748 54.069 97.7626C54.0836 97.7626 54.0945 97.7662 54.1055 97.7735C54.1055 97.7735 54.1067 97.7735 54.1092 97.7735C54.4199 97.8613 54.7307 97.9307 55.0561 97.9929C55.0927 97.9966 55.1292 98.0112 55.1694 98.0185C55.2206 98.0295 55.2755 98.0295 55.323 98.0368C55.6009 98.0806 55.886 98.1135 56.1712 98.1391C56.2224 98.1391 56.2626 98.1501 56.3174 98.1538C56.332 98.1538 56.3503 98.1538 56.3686 98.1538C56.7269 98.172 57.0962 98.1793 57.4618 98.1611C57.4983 98.1611 57.5312 98.1611 57.5715 98.1611C57.6153 98.1611 57.6665 98.1501 57.7177 98.1428C58.1308 98.1209 58.5513 98.0843 58.9827 98.0185C59.2679 97.9746 59.553 97.9198 59.8418 97.8576C59.9223 97.8357 60.01 97.8137 60.0941 97.7955C60.2769 97.7516 60.4634 97.7114 60.6571 97.6602C60.6754 97.6565 60.6937 97.6492 60.712 97.6419C61.0483 97.5505 61.3884 97.4481 61.7284 97.3275C61.8088 97.3019 61.8892 97.2653 61.9696 97.2398C62.2365 97.141 62.5034 97.046 62.774 96.9326C62.8142 96.918 62.8471 96.9071 62.891 96.8888C62.9641 96.8595 63.0408 96.8193 63.114 96.7864C63.4028 96.6621 63.6989 96.5268 63.9951 96.3842C64.1157 96.3257 64.2327 96.2709 64.3534 96.2088C64.7482 96.0077 65.1467 95.7956 65.5489 95.5653C66.0534 95.2765 66.5506 94.9584 67.0442 94.6293C67.1283 94.5708 67.2161 94.516 67.3001 94.4612C67.7681 94.1394 68.2324 93.8031 68.6931 93.4521C68.7845 93.379 68.8759 93.3059 68.9709 93.2327C69.4352 92.8671 69.8959 92.4906 70.3456 92.0921C70.3931 92.0555 70.437 92.0116 70.4772 91.9751C70.9123 91.5912 71.34 91.189 71.7641 90.7796C71.808 90.7357 71.8519 90.6955 71.8994 90.6553C71.925 90.6297 71.9506 90.5967 71.9798 90.5712C72.3016 90.2494 72.627 89.9204 72.9414 89.584C72.967 89.5548 72.9926 89.5292 73.0218 89.4963C73.3107 89.1892 73.5958 88.8675 73.8773 88.5457C73.9066 88.5128 73.9395 88.4799 73.9724 88.4434C74.009 88.3995 74.0418 88.3556 74.0784 88.3081C74.5537 87.7597 75.0217 87.193 75.475 86.6153C75.486 86.5971 75.4969 86.5861 75.5079 86.5678C75.5408 86.5276 75.5701 86.4837 75.603 86.4435C75.9649 85.9719 76.3196 85.4893 76.6669 84.9994C76.7034 84.9518 76.74 84.908 76.7729 84.8531C76.7912 84.8312 76.8058 84.8056 76.8168 84.7837C77.1495 84.312 77.4712 83.8294 77.7819 83.3432C77.8112 83.2993 77.8368 83.2591 77.8661 83.2152C77.9099 83.1458 77.9502 83.08 77.9904 83.0105C78.2463 82.6047 78.4949 82.1989 78.7398 81.7821C78.7764 81.7236 78.813 81.6651 78.8495 81.6066C78.8605 81.5846 78.8751 81.5627 78.8897 81.5371C79.1603 81.0691 79.4235 80.5975 79.6795 80.1186C79.7014 80.082 79.7233 80.0455 79.7416 80.0126C79.7818 79.9321 79.8184 79.859 79.8549 79.7822C80.056 79.3983 80.2498 79.0108 80.4436 78.6269C80.4801 78.5465 80.524 78.4734 80.5606 78.3966C80.5825 78.3527 80.6008 78.3052 80.6227 78.2577C80.8567 77.7714 81.0797 77.2778 81.2954 76.7843C81.2991 76.7697 81.3064 76.7587 81.3137 76.7477C81.3283 76.7075 81.3429 76.6636 81.3649 76.6234C81.5586 76.1701 81.7488 75.7131 81.9243 75.2561C81.9499 75.1829 81.9827 75.1171 82.012 75.0477C82.0303 74.9892 82.0486 74.9343 82.0705 74.8758C82.2752 74.342 82.4617 73.8119 82.6408 73.2781C82.6445 73.2708 82.6481 73.2635 82.6518 73.2599C82.6591 73.2379 82.6628 73.216 82.6737 73.1941C82.8565 72.6383 83.0247 72.0863 83.1819 71.5306C83.2002 71.4611 83.2221 71.3953 83.2441 71.3222C83.255 71.2856 83.2623 71.249 83.2733 71.2088C83.4488 70.5727 83.606 69.9329 83.7413 69.2931C83.7523 69.2419 83.7669 69.1944 83.7778 69.1395C83.7961 69.0664 83.8034 68.9896 83.8217 68.9165C83.8729 68.6533 83.9204 68.3864 83.9716 68.1231C84.0009 67.9623 84.0301 67.8051 84.0557 67.6405L84.0667 67.6479Z" fill="#505C63"/>
<path d="M67.4063 44.7092C67.7975 44.5191 68.1814 44.3473 68.5616 44.1791C68.7005 44.1206 68.8395 44.0585 68.9747 44.0073C69.3403 43.8537 69.7059 43.7184 70.0679 43.5868C70.152 43.5576 70.2324 43.5283 70.3202 43.4954C70.7626 43.3455 71.2013 43.2103 71.6327 43.0896C71.8849 43.0201 72.1372 42.9616 72.3858 42.9031C72.5064 42.8776 72.6271 42.841 72.7514 42.8154C73.1207 42.735 73.4899 42.6692 73.8519 42.6107C73.8555 42.6107 73.8629 42.6107 73.8702 42.6107C74.2102 42.5595 74.5502 42.5229 74.8792 42.49C74.9853 42.479 75.0913 42.4754 75.2046 42.4644C75.4386 42.4498 75.6726 42.4352 75.9066 42.4279C76.0089 42.4242 76.1113 42.4242 76.21 42.4169C76.4513 42.4169 76.689 42.4206 76.9266 42.4315C77.0107 42.4315 77.0948 42.4315 77.1789 42.4388C77.2703 42.4461 77.358 42.4571 77.4494 42.4608C77.8223 42.49 78.1916 42.5339 78.5536 42.5887C78.6669 42.607 78.7729 42.6216 78.8862 42.6436C79.2994 42.7203 79.7125 42.8117 80.1074 42.9251C80.1183 42.9251 80.133 42.9361 80.1476 42.9361C80.5278 43.0494 80.8934 43.181 81.259 43.3309C81.3613 43.3711 81.4637 43.415 81.5661 43.4625C81.8732 43.5978 82.1693 43.7404 82.4655 43.9012C82.5605 43.9561 82.6629 44 82.758 44.0548C81.5478 43.3528 80.3413 42.6509 79.1348 41.9453C79.091 41.9197 79.0435 41.8941 78.9996 41.8721C78.9484 41.8429 78.8899 41.821 78.8424 41.7954C78.5499 41.6345 78.2501 41.4883 77.943 41.353C77.8881 41.3311 77.8369 41.2982 77.7784 41.2726C77.7346 41.2543 77.6798 41.2397 77.6395 41.2214C77.2776 41.0751 76.912 40.9435 76.5391 40.8338C76.5245 40.8338 76.5098 40.8229 76.4952 40.8192C76.4916 40.8192 76.4915 40.8192 76.4879 40.8156C76.093 40.7059 75.6835 40.6145 75.2704 40.5377C75.2229 40.5304 75.179 40.5121 75.1315 40.5048C75.0657 40.4938 74.9999 40.4902 74.9377 40.4792C74.5758 40.4244 74.2065 40.3805 73.8336 40.3512C73.7751 40.3476 73.7203 40.333 73.6618 40.3293C73.6289 40.3293 73.596 40.3293 73.5667 40.3256C73.479 40.3256 73.3912 40.322 73.3071 40.3147C73.0695 40.311 72.8392 40.3037 72.6015 40.3037C72.4955 40.3074 72.3858 40.311 72.2798 40.3147C72.1994 40.3147 72.1262 40.3147 72.0495 40.3147C71.8996 40.322 71.7497 40.3403 71.5998 40.3512C71.4864 40.3549 71.3731 40.3659 71.2561 40.3732C70.9453 40.4024 70.6273 40.439 70.3092 40.4865C70.269 40.4938 70.2288 40.4975 70.1886 40.5085C69.8412 40.5596 69.4866 40.6254 69.132 40.7022C69.0077 40.7315 68.8834 40.7607 68.7627 40.79C68.536 40.8411 68.3094 40.8923 68.0863 40.9545C68.0644 40.9618 68.0388 40.9691 68.0169 40.9764C67.5818 41.0934 67.1394 41.2287 66.697 41.3822C66.6129 41.4115 66.5325 41.4444 66.4484 41.4736C66.0901 41.6016 65.7209 41.7405 65.3553 41.8904C65.3114 41.9087 65.2639 41.9233 65.22 41.9416C65.1286 41.9782 65.0408 42.0257 64.9494 42.0659C64.5619 42.2304 64.1781 42.4059 63.7905 42.5924C63.6406 42.6655 63.4907 42.7386 63.3444 42.8117C62.8326 43.0677 62.3171 43.3419 61.7979 43.638C61.4068 43.8683 61.0156 44.1023 60.6317 44.3509C60.5074 44.4314 60.3831 44.5118 60.2588 44.5922C59.9955 44.7641 59.7323 44.9359 59.4691 45.115C59.3228 45.2138 59.1839 45.3125 59.0377 45.4185C58.7964 45.5867 58.555 45.7622 58.3174 45.9377C58.1675 46.0437 58.0249 46.1534 57.8824 46.2667C57.6374 46.4495 57.3998 46.6396 57.1621 46.8334C57.0269 46.9394 56.8952 47.0454 56.7636 47.1515C56.493 47.3745 56.2189 47.6048 55.952 47.8388C55.8569 47.9192 55.7618 47.9997 55.6668 48.0837C55.3012 48.4018 54.9392 48.7272 54.581 49.0636C54.5225 49.1184 54.4603 49.1769 54.4055 49.2317C54.1569 49.4694 53.9082 49.707 53.6596 49.9447C53.6231 49.9812 53.5865 50.0214 53.55 50.058C53.1332 50.4711 52.7201 50.8879 52.3179 51.3193C52.2813 51.3559 52.2484 51.3924 52.2155 51.429C51.8353 51.8348 51.466 52.2443 51.1004 52.6647C51.0638 52.7013 51.0273 52.7415 50.9944 52.7817C50.9505 52.8329 50.9103 52.8878 50.8664 52.9353C50.2522 53.6482 49.649 54.3758 49.0677 55.1289C49.0494 55.1472 49.0348 55.1691 49.0165 55.1874C48.9763 55.2422 48.9361 55.3007 48.8922 55.3592C48.4242 55.9661 47.9745 56.5767 47.5285 57.2055C47.4846 57.2677 47.4371 57.3298 47.3932 57.3883C47.3713 57.4139 47.353 57.4468 47.3347 57.4724C46.9106 58.0757 46.5011 58.6899 46.099 59.3114C46.0624 59.3736 46.0185 59.4321 45.982 59.4905C45.9235 59.5856 45.8686 59.677 45.8101 59.7721C45.4957 60.2729 45.185 60.7775 44.8852 61.2893C44.834 61.3807 44.7755 61.4648 44.7207 61.5525C44.7024 61.5855 44.6841 61.622 44.6658 61.6586C44.3221 62.2508 43.9894 62.8468 43.6641 63.4537C43.6385 63.5049 43.6092 63.5561 43.58 63.6036C43.5251 63.7133 43.4703 63.8193 43.4191 63.9253C43.1705 64.3969 42.9255 64.8759 42.6915 65.3548C42.6404 65.4645 42.5819 65.5705 42.527 65.6765C42.5014 65.746 42.4685 65.8118 42.4393 65.874C42.1468 66.4918 41.8616 67.1097 41.5874 67.7312C41.5764 67.7568 41.5692 67.7715 41.5618 67.7934C41.5326 67.8629 41.5033 67.9323 41.4741 68.0018C41.2365 68.5612 41.0061 69.1205 40.7868 69.6836C40.7465 69.7823 40.7027 69.881 40.6661 69.976C40.6332 70.0601 40.604 70.1442 40.5747 70.2283C40.3261 70.8937 40.0811 71.5628 39.8581 72.2355C39.8508 72.2464 39.8472 72.2611 39.8399 72.2757C39.8252 72.3232 39.8143 72.3671 39.796 72.4146C39.5693 73.1019 39.3609 73.7929 39.1671 74.4839C39.1452 74.579 39.1087 74.6667 39.0794 74.7581C39.0575 74.8459 39.0392 74.9336 39.0136 75.0177C38.9624 75.2151 38.9076 75.4126 38.86 75.6063C38.7796 75.9025 38.7101 76.1949 38.637 76.4911C38.5895 76.6922 38.5493 76.8969 38.4981 77.098C38.4615 77.2515 38.425 77.4051 38.3921 77.555C38.3701 77.6647 38.3555 77.7707 38.3299 77.8804C38.2641 78.1948 38.2093 78.5092 38.1508 78.82C38.1105 79.0466 38.0667 79.2697 38.0338 79.4963C37.9753 79.8254 37.9278 80.1508 37.8839 80.4762C37.8619 80.626 37.8363 80.7833 37.8144 80.9332C37.8034 80.999 37.7998 81.0611 37.7925 81.1269C37.7705 81.2805 37.7559 81.4304 37.7376 81.5876C37.7047 81.902 37.6718 82.2091 37.6426 82.5162C37.6316 82.6771 37.617 82.8379 37.606 82.9952C37.5877 83.3169 37.5658 83.6386 37.5475 83.9567C37.5366 84.0883 37.5329 84.2272 37.5256 84.3589C37.511 84.8122 37.5 85.2619 37.5 85.7043C37.5183 93.3856 40.2347 98.7929 44.6073 101.334L48.2304 103.44C43.8542 100.899 41.1414 95.4951 41.1231 87.8101C41.1231 87.3678 41.1304 86.9181 41.1487 86.4647C41.1487 86.3295 41.1597 86.1942 41.167 86.0626C41.1816 85.7445 41.2035 85.4228 41.2255 85.1047C41.2364 84.9438 41.2511 84.783 41.2657 84.6221C41.2913 84.3113 41.3242 84.0042 41.3644 83.6971C41.379 83.5436 41.3973 83.39 41.4156 83.2328C41.4448 83.0171 41.4741 82.8014 41.507 82.5893C41.5509 82.2603 41.5984 81.9313 41.6569 81.5986C41.6935 81.3755 41.7337 81.1489 41.7702 80.9295C41.8324 80.6114 41.8909 80.297 41.9567 79.9826C42.0115 79.723 42.0627 79.4671 42.1212 79.2075C42.1651 79.0028 42.2163 78.798 42.2602 78.5896C42.3296 78.2972 42.4027 78.0083 42.4795 77.7159C42.5307 77.5184 42.5855 77.321 42.6367 77.1199C42.6879 76.9408 42.7354 76.7653 42.7866 76.5898C42.984 75.8988 43.1924 75.2042 43.4191 74.5059C43.441 74.451 43.4557 74.3925 43.4739 74.3377C43.7006 73.6686 43.9419 72.9996 44.1942 72.3305C44.2636 72.1477 44.3331 71.9649 44.4062 71.7821C44.6256 71.2154 44.8559 70.6561 45.0972 70.0967C45.1338 70.0089 45.1667 69.9249 45.1996 69.8371C45.4774 69.2119 45.759 68.5941 46.0515 67.9725C46.1355 67.8007 46.216 67.6289 46.3 67.4607C46.5377 66.9781 46.7826 66.4992 47.0349 66.0202C47.1153 65.8667 47.1958 65.7095 47.2762 65.5596C47.5979 64.9527 47.9343 64.3494 48.2816 63.7571C48.3511 63.6365 48.4242 63.5195 48.4937 63.3988C48.7971 62.887 49.1079 62.3825 49.4223 61.8779C49.521 61.7244 49.6197 61.5672 49.7184 61.4136C50.1169 60.7921 50.5264 60.1815 50.9432 59.582C51.009 59.4869 51.0785 59.3955 51.1479 59.3004C51.5903 58.6753 52.04 58.0647 52.5044 57.4578C52.5629 57.3847 52.6213 57.3042 52.6762 57.2311C53.2575 56.4816 53.8644 55.7468 54.4822 55.0338C54.5554 54.9461 54.6321 54.8547 54.7089 54.7706C55.0782 54.3465 55.4548 53.9297 55.835 53.5203C55.8642 53.4874 55.8971 53.4544 55.9264 53.4215C56.3286 52.9901 56.7417 52.5697 57.1548 52.1566C57.4363 51.8787 57.7178 51.6045 58.0066 51.334C58.0688 51.2791 58.1273 51.217 58.1895 51.1585C58.5441 50.8258 58.9061 50.5004 59.268 50.1823C59.3631 50.1019 59.4617 50.0214 59.5531 49.9373C59.8237 49.707 60.0943 49.4803 60.3648 49.2537C60.5001 49.144 60.6317 49.038 60.767 48.9319C61.0046 48.7418 61.2459 48.5517 61.4872 48.3689C61.6334 48.2556 61.776 48.1459 61.9222 48.0399C62.1599 47.8607 62.4049 47.6889 62.6425 47.5171C62.7851 47.4147 62.9277 47.316 63.0739 47.2173C63.3335 47.0381 63.5967 46.8626 63.86 46.6944C63.9806 46.614 64.1086 46.5299 64.2329 46.4532C64.6204 46.2082 65.0079 45.9706 65.4028 45.7439C65.9183 45.4441 66.4338 45.1735 66.942 44.914C67.0956 44.8372 67.2418 44.7677 67.3917 44.6946L67.4063 44.7092Z" fill="#505C63"/>
<path d="M65.4177 45.7589C78.8829 37.9862 89.8217 44.2234 89.8656 59.6884C89.9095 75.1534 79.0401 93.9819 65.5786 101.755C52.1207 109.524 41.1783 103.286 41.1344 87.8215C41.0942 72.3528 51.9599 53.5243 65.4177 45.7552V45.7589ZM65.5603 95.5686C76.0495 89.5142 84.5168 74.8426 84.4839 62.7923C84.451 50.7494 75.9252 45.8869 65.436 51.9449C54.9506 57.9993 46.4832 72.6746 46.5197 84.7139C46.5526 96.7641 55.0785 101.623 65.5603 95.5686Z" fill="#313E47"/>
</svg>
