<svg width="256" height="256" viewBox="0 0 256 256" fill="none" xmlns="http://www.w3.org/2000/svg">
<path d="M255.64 0H0V255.64H255.64V0Z" fill="white"/>
<path d="M197.798 23.479H10.8877C4.87458 23.479 0 28.3536 0 34.3667V221.277C0 227.291 4.87458 232.165 10.8877 232.165H197.798C203.812 232.165 208.686 227.291 208.686 221.277V34.3667C208.686 28.3536 203.812 23.479 197.798 23.479Z" fill="#F1EFEC"/>
<path d="M172.656 41.5546L157.542 32.8276C128.937 54.6103 116.111 61.5713 103.271 65.0336C90.4352 76.3965 68.4917 89.5107 39.8833 100.757V162.818C39.8833 187.854 49.7655 200.42 61.4246 206.537L76.5313 215.26L75.6941 211.154C87.982 213.161 103.264 213.403 103.264 213.403C103.275 213.392 157.538 155.977 157.538 94.8887V58.4198L172.652 41.5546H172.656Z" fill="#A08B5D"/>
<path d="M39.8835 100.753L54.9976 109.48L91.9344 103.272L118.382 73.7567L103.268 65.0298C90.4317 76.3927 68.4883 89.5069 39.8799 100.753H39.8835Z" fill="#BFA67C"/>
<path d="M171.011 40.6038L157.538 32.8237C128.933 54.6063 116.108 61.5674 103.268 65.0297L118.382 73.7566L150.76 73.6981L172.649 41.5543L171.007 40.6074L171.011 40.6038Z" fill="#C6AF8F"/>
<path d="M118.386 73.757C105.549 85.1199 83.606 98.2341 54.9976 109.48V171.541C54.9976 232.633 118.375 222.126 118.386 222.126C118.393 222.115 172.656 164.701 172.656 103.612V41.5547C144.051 63.3373 131.222 70.2984 118.386 73.7606V73.757Z" fill="#D0B787"/>
<path d="M118.689 214.079C113.651 214.711 103.725 215.336 93.9414 212.386C76.2426 207.045 62.4009 190.048 62.4009 167.399V115.878C66.5688 113.863 70.6562 111.703 74.6266 109.41C91.5906 99.6158 109.172 91.5031 118.685 83.0979C128.198 80.5167 136.052 73.9468 153.016 64.1523C156.99 61.86 161.073 59.3008 165.241 56.5039V108.025C165.241 130.674 161.132 158.035 143.429 183.814C133.65 198.058 123.723 208.894 118.682 214.082L118.689 214.079Z" fill="#D0B787"/>
<path d="M93.9453 212.386C76.2465 207.045 62.4048 190.048 62.4048 167.399V115.878C66.5727 113.864 70.6601 111.703 74.6305 109.411C91.5945 99.6161 109.176 91.5034 118.689 83.0981V214.079C113.651 214.712 103.725 215.337 93.9416 212.386H93.9453Z" fill="#D0B787"/>
<path d="M139.825 121.698C138.739 131.072 135.302 141.488 129.507 151.56C123.716 161.636 116.459 169.819 108.931 175.427L98.6285 193.345L87.8103 187.101C73.5554 178.769 73.5554 151.911 87.8103 127.116C102.065 102.321 125.179 88.9766 139.433 97.3087L150.252 103.557L139.821 121.702L139.825 121.698Z" fill="#242F35"/>
<path d="M98.6321 133.361C84.3772 158.156 84.3772 185.013 98.6321 193.345C112.887 201.677 136 188.337 150.255 163.538C164.51 138.742 164.51 111.885 150.255 103.553C136 95.2211 112.887 108.562 98.6321 133.357V133.361Z" fill="#313E47"/>
<path d="M114.945 173.661L118.575 175.771C118.415 175.676 118.257 175.57 118.107 175.449L114.477 173.339C114.627 173.46 114.781 173.566 114.945 173.661Z" fill="#C4BFCE"/>
<path d="M150.285 125.274L146.654 123.164C145.411 122.44 143.769 122.66 142.121 123.61C140.603 124.484 139.086 125.983 137.869 127.939L141.499 130.049C142.717 128.093 144.234 126.597 145.751 125.72C147.4 124.769 149.041 124.55 150.285 125.274Z" fill="#A7A7A7"/>
<path d="M141.499 130.048L137.872 127.939L120.792 155.52L124.422 157.63L141.499 130.048Z" fill="#A7A7A7"/>
<path d="M107.769 167.029L104.138 164.92L114.477 173.336L118.108 175.446L107.769 167.029Z" fill="#D5E0F9"/>
<path d="M117.187 151.78L113.556 149.67C112.317 148.95 110.668 149.162 109.012 150.12L112.642 152.23C114.298 151.272 115.947 151.06 117.187 151.78Z" fill="#A7A7A7"/>
<path d="M112.642 152.226L109.012 150.117C107.586 150.939 106.156 152.31 104.975 154.116C102.259 158.266 101.886 163.099 104.138 164.92L107.769 167.029C105.516 165.212 105.893 160.379 108.606 156.226C109.787 154.42 111.216 153.049 112.642 152.226Z" fill="#A7A7A7"/>
<path d="M112.642 152.226C111.216 153.049 109.787 154.42 108.606 156.226C105.889 160.375 105.513 165.212 107.769 167.029L118.108 175.445C119.603 176.663 121.757 176.487 123.914 175.241C125.694 174.213 127.482 172.455 128.911 170.141L150.043 136.022C152.657 131.814 152.855 127.058 150.504 125.413C149.239 124.528 147.499 124.711 145.751 125.72C144.234 126.597 142.717 128.093 141.499 130.049L124.422 157.633L117.574 152.047C116.305 151.02 114.477 151.166 112.642 152.23V152.226Z" fill="#F5F5F5"/>
</svg>
