<svg width="256" height="256" viewBox="0 0 256 256" fill="none" xmlns="http://www.w3.org/2000/svg">
<path d="M255.64 0H0V255.641H255.64V0Z" fill="white"/>
<path d="M197.798 23.479H10.8877C4.87458 23.479 0 28.3536 0 34.3667V221.277C0 227.291 4.87458 232.165 10.8877 232.165H197.798C203.812 232.165 208.686 227.291 208.686 221.277V34.3667C208.686 28.3536 203.812 23.479 197.798 23.479Z" fill="#F1EFEC"/>
<path d="M55.922 89.5693L53.2129 90.4541C54.2146 90.1616 55.1469 89.8618 55.922 89.5693Z" fill="white"/>
<path d="M103.198 60.5256C105.523 55.9629 105.856 53.9155 105.856 53.9155L80.4248 68.5981L97.2242 69.0369C99.8785 65.5929 102.302 62.2659 103.198 60.5256Z" fill="#A9ADAE"/>
<path d="M59.8779 88.8968C63.2159 86.6154 70.0928 81.1094 74.1839 72.1997L53.9917 83.8588L57.0226 89.2075C57.9 88.9882 58.8689 88.8968 59.8779 88.9004V88.8968Z" fill="#A9ADAE"/>
<path d="M55.9221 89.5696C55.9916 89.5404 56.0647 89.5148 56.1342 89.4892C56.4193 89.3758 56.7155 89.2844 57.0262 89.2077L53.9954 83.8589L42.8408 90.3008L42.8481 92.9331C42.8481 92.9331 48.749 91.7596 53.213 90.458L55.9221 89.5733V89.5696Z" fill="#E8F3FD"/>
<path d="M59.8779 88.8962C63.6327 88.9035 67.9394 90.1941 70.3122 90.8083C71.3578 91.0715 72.696 92.6399 74.0304 94.6471C76.6883 91.8064 83.4629 84.6479 88.0695 80.4398C88.3035 80.1583 93.049 74.4512 97.2242 69.033L80.4248 68.5942L74.1839 72.1954C70.0928 81.1052 63.2159 86.6111 59.8779 88.8925V88.8962Z" fill="#616A70"/>
<path d="M97.228 69.0334C93.0528 74.4516 88.3072 80.1587 88.0732 80.4402C88.713 79.8589 89.309 79.3324 89.8465 78.8827C93.5464 75.7897 100.515 70.6384 105.286 66.6935C108.017 62.6865 111.004 58.9098 114.155 55.433L121.193 47.6968L121.186 45.0645L105.86 53.912C105.86 53.912 105.527 55.9631 103.202 60.5221C102.31 62.2624 99.8859 65.5894 97.228 69.0334Z" fill="#E8F3FD"/>
<path d="M94.2627 88.6737L96.7781 82.0782C97.3996 80.4293 98.3831 78.3892 99.5018 76.2761C101.249 72.9674 103.191 69.7647 105.282 66.6973C100.511 70.6421 93.5425 75.7935 89.8426 78.8865C89.3052 79.3362 88.7092 79.8626 88.0694 80.4439C83.4628 84.652 76.6919 91.8069 74.0303 94.6513C74.2423 94.9693 74.4507 95.2984 74.6628 95.6347L96.3101 87.9534L94.2627 88.6737Z" fill="#798085"/>
<path d="M105.282 66.6972C103.191 69.7646 101.249 72.9709 99.5018 76.276C98.3867 78.3891 97.4033 80.4255 96.7781 82.0781L94.2627 88.6735L96.3101 87.9533L112.152 82.334L112.375 68.4411L121.23 63.3263L121.2 52.7823L121.186 47.6968L114.148 55.4329C110.993 58.9098 108.009 62.6865 105.278 66.6935L105.282 66.6972Z" fill="#91979A"/>
<path d="M74.6626 95.6346C77.1853 99.6782 79.5178 104.815 79.6202 105.038C80.0077 102.885 80.4793 101.203 81.0716 100.523C81.1484 100.439 81.2178 100.373 81.2873 100.336C82.0806 99.8793 82.4097 102.545 82.5084 106.098L84.4352 103.641L84.9141 93.3533C84.9141 93.3533 85.4698 93.4227 85.6417 94.2782C85.8098 95.1484 85.6672 103.316 85.6672 103.316C85.6672 103.316 86.1059 100.303 86.435 98.3803C86.4752 98.1609 86.5191 98.0476 86.5666 98.0184C86.9176 97.8136 87.4514 102.746 87.4514 102.746C87.4514 102.746 88.6725 99.5283 88.837 98.4754C88.8517 98.3767 88.8772 98.3218 88.9101 98.3035C89.2282 98.1171 90.2921 101.422 90.2921 101.422C90.2921 101.422 90.2775 95.9673 91.0526 92.6367C91.1403 92.2528 91.2244 92.0554 91.3048 92.0078C91.9081 91.6605 92.1969 100.128 92.1969 100.128C92.1969 100.128 93.2498 96.6912 93.1255 95.2252C93.067 94.4355 93.1511 94.132 93.2864 94.0516C93.407 93.9821 93.5606 94.0845 93.6886 94.1942C93.9664 94.4208 93.9811 99.2943 93.9811 99.2943L95.034 95.7333L95.6555 98.1353L97.0009 99.8537L99.509 98.7934L100.825 91.1816L101.406 97.3054L102.492 87.6389L103.022 96.5121L104.072 91.2218L104.47 95.1667L106.229 86.0266L107.373 94.004L108.188 87.2404L109.6 92.07L112.056 88.4542L112.155 82.3413L96.3136 87.9606L74.6663 95.6419L74.6626 95.6346Z" fill="#616A70"/>
<path d="M89.8866 131.855L89.8684 125.987L86.5121 124.971L77.2515 132.758L65.5302 134.659L43.0127 152.526L43.031 158.906L89.978 131.804L89.8866 131.855Z" fill="#616A70"/>
<path d="M44.6984 146.296L44.8263 131.775L45.6307 131.018L45.6672 143.935L46.6653 142.845L47.2137 137.134L52.7745 128.071L52.7563 120.967L54.0907 119.297L54.1126 127.3L58.1634 124.96L60.2511 103.901L60.2657 108.318L61.3479 107.692L62.0864 104.574L62.6019 107.451L63.6037 106.873L64.6749 97.6858L65.6181 106.098L66.9562 105.327L67.7021 103.941L68.4625 104.168L70.7439 108.548L71.4166 111.612L72.0893 111.224L72.316 101.971C72.316 101.971 72.411 101.839 72.5463 101.759C72.6852 101.678 72.8681 101.653 73.0399 101.883C73.3689 102.333 73.6211 110.851 73.6211 110.851L75.1896 111.041L75.8404 107.199C75.8404 107.199 76.3924 106.936 76.3961 107.393C76.3961 107.835 76.4071 110.785 76.4071 110.785L78.97 109.838C79.1528 108.131 79.3648 106.479 79.6207 105.038C79.522 104.815 77.1858 99.682 74.6632 95.6348C74.4511 95.2984 74.2427 94.9694 74.0307 94.6513C72.6999 92.6442 71.358 91.0757 70.3124 90.8125C67.936 90.1983 63.6293 88.9114 59.8782 88.9004C58.8728 88.9004 57.9039 88.9881 57.0228 89.2075C56.7121 89.2843 56.4159 89.3757 56.1308 89.489C56.0613 89.5146 55.9918 89.5439 55.9187 89.5694C55.1436 89.8656 54.2114 90.1617 53.2096 90.4542C48.7456 91.7557 42.8447 92.9293 42.8447 92.9293V93.8433L42.9836 142.198L43.0056 151.243V150.45L44.6947 146.3L44.6984 146.296Z" fill="#91979A"/>
<path d="M108.185 87.2367L107.37 94.0004L106.225 86.0229L104.467 95.163L104.068 91.2182L103.019 96.5084L102.489 87.6353L101.403 97.3018L100.822 91.1779L99.5056 98.7898L96.9976 99.85L95.6521 98.1317L95.0306 95.7297L93.9777 99.2907C93.9777 99.2907 93.963 94.4172 93.6852 94.1905C93.5536 94.0845 93.4 93.9821 93.283 94.0479C93.1477 94.1284 93.0636 94.4318 93.1221 95.2215C93.2465 96.6876 92.1935 100.124 92.1935 100.124C92.1935 100.124 91.9047 91.6569 91.3015 92.0042C91.221 92.0517 91.137 92.2455 91.0492 92.633C90.2741 95.9637 90.2887 101.418 90.2887 101.418C90.2887 101.418 89.2248 98.1171 88.9067 98.2999C88.8738 98.3182 88.8483 98.373 88.8336 98.4717C88.6655 99.5247 87.448 102.742 87.448 102.742C87.448 102.742 86.9142 97.8136 86.5633 98.0147C86.5157 98.044 86.4718 98.1536 86.4316 98.3767C86.0989 100.303 85.6639 103.312 85.6639 103.312C85.6639 103.312 85.8064 95.1447 85.6383 94.2746C85.4664 93.4154 84.9107 93.3496 84.9107 93.3496L84.4318 103.638L82.505 106.095C82.6732 112.204 82.165 120.934 82.165 120.934L89.6123 116.635C89.6123 116.635 90.2558 105.352 92.146 104.259C94.0362 103.166 93.623 114.068 93.623 114.068L99.5275 107.052L111.903 97.6053L112.053 88.4432L109.596 92.0591L108.185 87.2294V87.2367Z" fill="#E2E2E4"/>
<path d="M76.3957 107.392C76.3957 106.935 75.84 107.199 75.84 107.199L75.1892 111.041L73.6208 110.851C73.6208 110.851 73.3649 102.332 73.0395 101.883C72.8714 101.652 72.6849 101.678 72.5459 101.758C72.4107 101.835 72.3156 101.97 72.3156 101.97L72.0889 111.224L71.4162 111.611L70.7435 108.548L68.4622 104.168L67.7017 103.941L66.9559 105.327L65.6178 106.098L64.6745 97.6855L63.6033 106.873L62.6016 107.451L62.086 104.574L61.3476 107.692L60.2653 108.317L60.2508 103.901L58.1631 124.96L59.3513 124.272L61.6692 115.436L62.6966 120.236L63.6727 111.198L66.1552 119.139L70.8459 117.636L76.4396 124.239L78.1141 123.274C78.1141 123.274 78.2969 116.163 78.9623 109.835L76.3994 110.781C76.3994 110.781 76.3921 107.831 76.3884 107.389L76.3957 107.392Z" fill="#E2E2E4"/>
<path d="M77.2512 132.758L86.5082 124.97L89.8645 125.987L89.8827 131.858L89.9741 131.804L121.376 113.677L121.251 69.4902L114.85 71.6473L112.378 68.4409L112.155 82.3338L112.057 88.4467L111.907 97.6087L99.531 107.056L93.6265 114.072C93.6265 114.072 94.0434 103.17 92.1495 104.263C90.2557 105.356 89.6158 116.638 89.6158 116.638L82.1686 120.938C82.1686 120.938 82.6804 112.207 82.5085 106.098C82.4098 102.544 82.0808 99.8791 81.2874 100.336C81.2179 100.373 81.1485 100.438 81.0718 100.523C80.4831 101.206 80.0079 102.884 79.6203 105.038C79.3644 106.478 79.1487 108.127 78.9695 109.838C78.3041 116.167 78.1213 123.278 78.1213 123.278L76.4468 124.243L70.8532 117.64L66.1625 119.143L63.68 111.202L62.7039 120.24L61.6765 115.439L59.3585 124.276L58.1703 124.963L54.1195 127.303L54.0976 119.3L52.7631 120.971L52.7814 128.074L47.2205 137.138L46.6721 142.848L45.6741 143.938L45.6375 131.021L44.8331 131.778L44.7052 146.3L43.0161 150.449V151.243L43.0234 152.208V152.526L65.5409 134.659L77.2621 132.758H77.2512Z" fill="#D0B787"/>
<path d="M114.85 71.6436L121.252 69.4866L121.233 63.3262L112.378 68.4373L114.85 71.6436Z" fill="#E8F3FD"/>
<path d="M123.434 44.0591L121.036 45.4411L121.23 112.686L123.632 114.006L123.434 44.0591Z" fill="#2A2C35"/>
<path d="M121.23 112.686L43.7661 157.407L43.7734 160.112L123.632 114.006L121.23 112.686Z" fill="#383C47"/>
<path d="M39.686 162.474L39.6969 167.172L39.686 162.474Z" fill="#1E2025"/>
<path d="M39.4883 92.5273L39.6857 162.474L39.4883 92.5273Z" fill="#1E2025"/>
<path d="M127.723 111.644L127.525 41.697L127.511 36.999L123.423 39.3608L43.561 85.467L39.4736 87.8288L39.4883 92.5268L39.6857 162.474L39.6966 167.176L43.7878 164.814L123.646 118.708L127.737 116.349L127.723 111.648V111.644ZM43.7768 160.112L43.7695 157.407L43.5793 90.165L123.434 44.0588L123.632 114.006L43.7768 160.112Z" fill="#4F5462"/>
<path d="M35.0391 86.0337L35.2877 174.071L35.0391 86.0337Z" fill="#7F5A1B"/>
<path d="M131.916 30.1001L35.0391 86.0337L131.916 30.1001Z" fill="#CB9031"/>
<path d="M32.3042 84.4614L134.636 25.38L129.215 22.2285L26.8823 81.3099L32.3042 84.4614Z" fill="#C6AF8F"/>
<path d="M32.3042 84.4616L26.8823 81.3101L27.1492 175.639L32.571 178.791L32.3042 84.4616Z" fill="#BFA67C"/>
<path d="M134.636 25.3804L32.3042 84.4618L32.5711 178.795L134.903 119.713L134.636 25.3804ZM35.2876 174.071L35.0389 86.0339L131.916 30.1003L132.165 118.137L35.2876 174.071Z" fill="#D0B787"/>
<path d="M131.916 30.1001L35.0391 86.0337L35.2877 174.071L132.165 118.137L131.916 30.1001ZM129.599 117.691L37.2766 171.146V86.5163L129.599 33.9024V117.691Z" fill="#D0B787"/>
<path d="M37.2764 171.143L129.598 117.688V33.1421L37.2764 86.5164V171.146V171.143ZM43.5611 85.4672L123.423 39.361L127.511 36.9992L127.525 41.6972L127.723 111.644L127.737 116.346L123.646 118.704L43.7878 164.81L39.6966 167.172L39.6857 162.47L39.4883 92.5233L39.4736 87.8253L43.5611 85.4635V85.4672Z" fill="#4D5D66"/>
<path d="M175.01 176.122V177.563C175.003 178.202 174.586 178.838 173.745 179.328C172.06 180.308 169.318 180.308 167.622 179.328C166.766 178.835 166.338 178.184 166.338 177.537V176.1C166.338 176.747 166.77 177.394 167.625 177.888C169.322 178.868 172.06 178.868 173.749 177.888C174.59 177.402 175.007 176.762 175.01 176.122Z" fill="#313E47"/>
<path d="M173.735 174.338C175.431 175.318 175.435 176.908 173.749 177.888C172.064 178.868 169.322 178.868 167.626 177.888C165.922 176.904 165.915 175.318 167.6 174.338C169.285 173.358 172.031 173.354 173.735 174.338Z" fill="#798085"/>
<path d="M173.15 130.089L173.11 175.749C173.11 176.111 172.868 176.469 172.393 176.747C171.443 177.303 169.885 177.303 168.924 176.747C168.437 176.469 168.2 176.104 168.2 175.734L168.24 130.074C168.24 130.44 168.481 130.805 168.964 131.087C169.925 131.643 171.483 131.639 172.433 131.087C172.909 130.813 173.146 130.451 173.15 130.089Z" fill="#4D5D66"/>
<path d="M172.422 129.076C173.383 129.632 173.391 130.531 172.433 131.087C171.482 131.639 169.925 131.642 168.963 131.087C168.002 130.531 168.002 129.632 168.952 129.076C169.91 128.52 171.46 128.52 172.422 129.076Z" fill="#8ABBF8"/>
<path d="M166.784 132.769V133.489C166.784 133.328 166.89 133.167 167.102 133.043C167.53 132.794 168.214 132.794 168.641 133.043C168.85 133.164 168.956 133.324 168.959 133.485V132.765C168.956 132.604 168.85 132.443 168.641 132.323C168.217 132.074 167.53 132.074 167.102 132.323C166.89 132.443 166.784 132.608 166.784 132.765V132.769Z" fill="url(#paint0_linear_122_1105)"/>
<path d="M164.953 131.16V131.881C164.956 132.725 165.512 133.566 166.62 134.213C168.854 135.511 172.488 135.507 174.729 134.213C175.862 133.559 176.425 132.703 176.425 131.848V131.127C176.425 131.983 175.859 132.838 174.729 133.493C172.488 134.787 168.854 134.791 166.62 133.493C165.512 132.849 164.956 132.005 164.953 131.16Z" fill="#313E47"/>
<path d="M166.646 128.795C164.404 130.093 164.386 132.195 166.62 133.493C167.746 134.147 169.223 134.469 170.704 134.465V127.822C169.238 127.822 167.772 128.148 166.646 128.795Z" fill="#616A70"/>
<path d="M174.605 132.769V133.489C174.605 133.328 174.495 133.167 174.287 133.043C173.859 132.794 173.176 132.794 172.748 133.043C172.536 133.164 172.43 133.324 172.43 133.485V132.765C172.43 132.604 172.539 132.443 172.748 132.323C173.172 132.074 173.856 132.074 174.287 132.323C174.499 132.443 174.605 132.608 174.605 132.765V132.769Z" fill="#313E47"/>
<path d="M170.689 127.822V134.465C172.17 134.469 173.647 134.147 174.773 133.493C177.007 132.195 176.992 130.089 174.747 128.795C173.625 128.148 172.159 127.822 170.689 127.822ZM172.751 132.326C173.175 132.078 173.859 132.078 174.29 132.326C174.711 132.571 174.714 132.966 174.29 133.215C173.87 133.46 173.182 133.464 172.755 133.219C172.327 132.97 172.331 132.571 172.755 132.326H172.751Z" fill="#616A70"/>
<path d="M175.01 128.404V129.844C175.003 130.484 174.586 131.124 173.745 131.61C172.06 132.59 169.318 132.59 167.622 131.61C166.766 131.116 166.338 130.469 166.338 129.822V128.385C166.338 129.032 166.77 129.679 167.625 130.173C169.322 131.153 172.06 131.153 173.749 130.173C174.59 129.687 175.007 129.047 175.01 128.407V128.404Z" fill="#313E47"/>
<path d="M173.735 126.619C175.431 127.599 175.435 129.189 173.749 130.169C172.064 131.149 169.322 131.149 167.626 130.169C165.922 129.186 165.915 127.599 167.6 126.619C169.285 125.639 172.031 125.636 173.735 126.619Z" fill="#798085"/>
<path d="M174.429 125.629C174.429 127.701 172.747 129.38 170.678 129.38C168.609 129.38 166.927 127.701 166.927 125.629C166.927 123.556 168.609 121.877 170.678 121.877C172.747 121.877 174.429 123.556 174.429 125.629Z" fill="#4D5D66"/>
<mask id="mask0_122_1105" style="mask-type:luminance" maskUnits="userSpaceOnUse" x="75" y="127" width="96" height="66">
<path d="M166.59 133.203L166.897 133.339L167.292 133.434L167.577 133.459L167.863 133.448L168.199 133.401L168.48 133.317L168.674 133.229L168.886 133.086L169.775 132.311L170.696 130.344L167.142 127.485L164.049 128.059L159.925 131.427L140.026 153.41L102.562 178.33L91.4699 172.882L83.4705 168.235L75.1421 175.094L86.6696 190.369L129.972 192.424L154.441 171.263L167.142 136.757L166.312 134.684L166.155 134.377L165.914 133.766L166.59 133.203Z" fill="white"/>
</mask>
<g mask="url(#mask0_122_1105)">
<path d="M167.862 131.007C167.775 130.89 167.676 130.802 167.574 130.74L166.729 130.235C166.831 130.298 166.934 130.385 167.021 130.502C167.27 130.835 167.372 131.233 167.266 131.679C167.065 132.564 166.144 133.946 166.137 133.954L166.488 134.403L167.332 134.908L166.985 134.458C166.985 134.458 167.914 133.069 168.115 132.184C168.224 131.734 168.122 131.336 167.87 131.003L167.862 131.007Z" fill="#91979A"/>
<path d="M167.445 128.667C167.087 128.455 166.689 128.403 166.253 128.524C165.303 128.784 164.425 129.76 163.859 130.462C162.992 131.533 162.586 132.878 162.228 134.07C162.155 134.319 162.082 134.567 162.001 134.798C161.753 135.576 160.839 136.779 160.546 137.138L161.204 138.066L162.049 138.571L161.395 137.638C161.687 137.277 162.597 136.077 162.85 135.299C162.926 135.068 163 134.82 163.076 134.571C163.435 133.379 163.837 132.034 164.707 130.963C165.274 130.261 166.147 129.288 167.098 129.025C167.537 128.908 167.932 128.955 168.29 129.167L167.445 128.663V128.667Z" fill="#91979A"/>
<path d="M164.703 130.963C165.27 130.261 166.144 129.289 167.095 129.025C167.8 128.835 168.4 129.08 168.893 129.738C169.332 130.327 169.456 131.087 169.248 132.005C169.065 132.806 168.67 133.446 168.283 133.928C167.888 134.414 167.493 134.74 167.321 134.904L166.974 134.455C166.974 134.455 167.903 133.065 168.104 132.181C168.213 131.731 168.111 131.332 167.859 131C167.555 130.594 167.124 130.557 166.776 130.649C166.312 130.773 165.786 131.365 165.38 131.866C164.886 132.477 164.568 133.533 164.294 134.455C164.21 134.725 164.126 134.996 164.045 135.241C163.625 136.539 162.488 138.016 162.137 138.451C162.093 138.502 162.064 138.542 162.046 138.56L161.391 137.628C161.684 137.266 162.594 136.067 162.846 135.288C162.923 135.058 162.996 134.809 163.073 134.561C163.431 133.369 163.833 132.023 164.703 130.952V130.963Z" fill="#4D5D66"/>
<path d="M164.396 137.854C163.91 137.032 162.641 135.858 161.57 135.24C160.923 134.867 160.491 134.776 160.353 134.937L156.521 139.415C156.66 139.251 157.091 139.346 157.735 139.719C158.813 140.34 160.082 141.51 160.565 142.333C160.758 142.658 160.795 142.885 160.7 142.991L164.535 138.512C164.626 138.403 164.586 138.183 164.396 137.854Z" fill="#4D5D66"/>
<path d="M157.735 139.719C158.813 140.341 160.082 141.51 160.565 142.333C161.044 143.152 160.561 143.313 159.486 142.695C158.404 142.07 157.135 140.896 156.656 140.077C156.174 139.255 156.656 139.094 157.735 139.719Z" fill="#91979A"/>
<path d="M124.125 178.155C128.798 175.453 136.267 170.338 143.206 164.083C152.214 155.955 157.611 149.086 159.863 141.796C159.322 141.222 157.841 140.114 157.322 139.843C156.722 139.529 156.657 140.077 156.657 140.077C153.929 147.331 147.685 154.65 141.162 160.708C134.64 166.766 127.843 171.567 124.001 173.782C116.652 178.023 97.7579 186.242 91.2721 179.87C90.7347 179.339 90.168 179.138 89.817 178.389L87.7916 183.014L87.2651 182.853C90.3984 186.918 97.1474 187.167 104.346 185.686C111.545 184.206 119.193 180.996 124.125 178.151V178.155Z" fill="#D0B787"/>
<path d="M159.87 141.803C159.812 141.741 159.742 141.672 159.662 141.598C159.026 141.035 157.819 140.184 157.362 139.961C156.77 139.672 156.708 140.202 156.704 140.209C154.072 147.178 148.2 154.201 141.904 160.149C141.667 160.372 141.433 160.595 141.195 160.815C134.684 166.858 127.895 171.647 124.041 173.878C123.588 174.137 123.094 174.415 122.564 174.7C117.585 177.38 109.296 180.981 102.204 182.023C97.7141 182.681 93.7034 182.316 91.3197 180.034C90.7786 179.515 90.2083 179.314 89.8536 178.576C89.8134 178.561 87.8062 183.051 87.7806 183.021L87.2505 182.86C90.3691 186.955 97.1181 187.215 104.324 185.734C111.53 184.253 119.193 181.043 124.133 178.192C128.805 175.49 136.274 170.375 143.213 164.12C151.827 156.351 157.135 149.729 159.556 142.79C159.574 142.743 159.589 142.695 159.607 142.648C159.611 142.633 159.618 142.619 159.622 142.604C159.622 142.604 159.622 142.604 159.622 142.6C159.709 142.341 159.793 142.077 159.867 141.811L159.87 141.803Z" fill="#CFB686"/>
<path d="M159.874 141.807C159.815 141.744 159.746 141.675 159.665 141.598C159.04 141.072 157.852 140.271 157.399 140.066C156.814 139.803 156.755 140.315 156.748 140.326C154.112 147.272 148.262 154.266 141.937 160.237C141.7 160.46 141.466 160.683 141.228 160.902C134.728 166.927 127.949 171.709 124.078 173.95C123.624 174.214 123.131 174.488 122.604 174.773C117.625 177.457 109.355 181.047 102.258 182.103C97.7799 182.765 93.7728 182.414 91.3672 180.177C90.8224 179.665 90.2521 179.464 89.8865 178.74C89.806 178.711 87.8136 183.069 87.766 183.003L87.2358 182.842C90.3362 186.962 97.0889 187.233 104.302 185.759C111.516 184.286 119.193 181.065 124.14 178.21C128.812 175.508 136.282 170.393 143.221 164.138C151.845 156.358 157.154 149.729 159.57 142.783C159.585 142.735 159.603 142.688 159.622 142.64C159.625 142.626 159.633 142.611 159.636 142.596C159.636 142.596 159.636 142.596 159.636 142.593C159.724 142.337 159.804 142.074 159.87 141.803L159.874 141.807Z" fill="#CEB586"/>
<path d="M159.881 141.814C159.822 141.752 159.753 141.682 159.673 141.605C159.055 141.115 157.888 140.37 157.439 140.183C156.861 139.942 156.806 140.439 156.795 140.457C154.156 147.382 148.328 154.35 141.97 160.342C141.732 160.565 141.498 160.785 141.261 161.004C134.771 167.011 128.004 171.789 124.118 174.042C123.664 174.305 123.171 174.579 122.644 174.864C117.668 177.551 109.413 181.134 102.313 182.198C97.8454 182.867 93.8421 182.531 91.4182 180.334C90.8697 179.833 90.2957 179.632 89.9265 178.922C89.8095 178.879 87.8316 183.101 87.7585 183.006L87.2246 182.845C90.3066 186.995 97.063 187.273 104.284 185.803C111.508 184.333 119.197 181.109 124.15 178.25C128.823 175.548 136.292 170.433 143.231 164.178C151.863 156.39 157.179 149.755 159.588 142.801C159.603 142.757 159.621 142.706 159.64 142.655C159.643 142.64 159.651 142.625 159.654 142.611C159.654 142.611 159.654 142.611 159.654 142.607C159.738 142.351 159.819 142.088 159.877 141.817L159.881 141.814Z" fill="#CDB485"/>
<path d="M159.884 141.818C159.83 141.755 159.757 141.686 159.68 141.609C159.073 141.156 157.925 140.461 157.479 140.293C156.908 140.077 156.857 140.556 156.846 140.582C154.207 147.481 148.397 154.424 142.006 160.438C141.769 160.661 141.535 160.88 141.297 161.099C134.819 167.092 128.062 171.859 124.158 174.126C123.701 174.389 123.211 174.667 122.684 174.948C117.708 177.639 109.468 181.211 102.368 182.286C97.9111 182.959 93.9114 182.641 91.4655 180.484C90.9135 179.994 90.3359 179.793 89.9593 179.094C89.8021 179.036 87.8388 183.123 87.7437 182.995L87.21 182.835C90.2774 187.01 97.0337 187.302 104.265 185.832C111.497 184.363 119.2 181.134 124.161 178.272C128.834 175.57 136.303 170.455 143.242 164.2C151.885 156.401 157.201 149.762 159.607 142.797C159.621 142.753 159.64 142.706 159.658 142.651C159.661 142.636 159.669 142.622 159.672 142.607C159.672 142.607 159.672 142.607 159.672 142.604C159.757 142.351 159.833 142.088 159.884 141.81V141.818Z" fill="#CCB384"/>
<path d="M159.889 141.825C159.834 141.763 159.764 141.693 159.684 141.616C159.084 141.2 157.958 140.556 157.516 140.406C156.956 140.216 156.905 140.677 156.891 140.706C154.247 147.583 148.46 154.5 142.036 160.536C141.799 160.759 141.565 160.979 141.327 161.198C134.863 167.172 128.114 171.932 124.195 174.214C123.738 174.48 123.248 174.755 122.725 175.036C117.749 177.734 109.527 181.295 102.423 182.381C97.9774 183.057 93.9814 182.754 91.5136 180.641C90.9579 180.158 90.3802 179.961 89.9963 179.273C89.7989 179.2 87.8539 183.153 87.7332 182.995L87.1958 182.834C90.2449 187.039 97.0049 187.339 104.244 185.873C111.483 184.407 119.201 181.175 124.166 178.308C128.838 175.606 136.307 170.492 143.246 164.236C151.9 156.431 157.216 149.784 159.622 142.808C159.636 142.764 159.655 142.717 159.673 142.662C159.677 142.647 159.684 142.633 159.688 142.618C159.688 142.618 159.688 142.618 159.688 142.614C159.772 142.362 159.845 142.099 159.889 141.821V141.825Z" fill="#CBB284"/>
<path d="M159.892 141.829C159.837 141.767 159.768 141.697 159.688 141.62C159.095 141.24 157.991 140.652 157.552 140.52C157 140.355 156.953 140.798 156.935 140.834C154.288 147.689 148.522 154.577 142.069 160.635C141.831 160.858 141.597 161.078 141.36 161.297C134.907 167.256 128.169 172.006 124.231 174.302C123.774 174.569 123.281 174.846 122.762 175.128C117.789 177.83 109.582 181.38 102.474 182.477C98.0396 183.157 94.0399 182.875 91.5611 180.795C90.998 180.323 90.4204 180.126 90.0292 179.449C89.7916 179.362 87.8648 183.178 87.7186 182.992L87.1812 182.831C90.212 187.061 96.9756 187.376 104.222 185.913C111.468 184.451 119.201 181.212 124.173 178.342C128.845 175.64 136.314 170.525 143.254 164.269C151.915 156.453 157.238 149.799 159.636 142.82C159.651 142.776 159.669 142.728 159.688 142.673C159.691 142.659 159.698 142.644 159.702 142.629C159.702 142.629 159.702 142.629 159.702 142.626C159.783 142.377 159.856 142.114 159.892 141.832V141.829Z" fill="#CAB183"/>
<path d="M159.9 141.836C159.845 141.774 159.775 141.704 159.695 141.628C159.114 141.284 158.031 140.747 157.593 140.633C157.052 140.491 157.004 140.915 156.982 140.959C154.331 147.792 148.588 154.654 142.102 160.734C141.864 160.957 141.63 161.176 141.393 161.392C134.951 167.333 128.224 172.079 124.268 174.382C123.807 174.649 123.317 174.927 122.798 175.208C117.826 177.914 109.633 181.456 102.525 182.564C98.1053 183.248 94.1057 182.985 91.605 180.945C91.0383 180.484 90.4569 180.283 90.062 179.625C89.7842 179.526 87.8721 183.204 87.7039 182.985L87.1665 182.824C90.1827 187.083 96.9464 187.405 104.2 185.946C111.454 184.487 119.201 181.244 124.18 178.371C128.853 175.669 136.322 170.554 143.261 164.299C151.933 156.475 157.256 149.813 159.651 142.823C159.666 142.779 159.684 142.732 159.702 142.677C159.706 142.662 159.713 142.648 159.717 142.633C159.717 142.633 159.717 142.633 159.717 142.629C159.797 142.384 159.867 142.118 159.896 141.836H159.9Z" fill="#C9B082"/>
<path d="M159.903 141.839C159.848 141.777 159.779 141.708 159.698 141.631C159.124 141.324 158.068 140.841 157.633 140.746C157.103 140.629 157.055 141.035 157.03 141.086C154.379 147.894 148.654 154.73 142.135 160.836C141.897 161.055 141.663 161.278 141.426 161.494C134.995 167.417 128.279 172.155 124.308 174.473C123.847 174.744 123.358 175.018 122.842 175.299C117.87 178.008 109.695 181.54 102.584 182.659C98.1748 183.346 94.1788 183.101 91.6561 181.101C91.0858 180.648 90.5045 180.451 90.0986 179.804C89.7806 179.69 87.8867 183.237 87.6929 182.984L87.1519 182.82C90.1498 187.105 96.9171 187.437 104.178 185.982C111.443 184.527 119.201 181.277 124.187 178.4C128.86 175.698 136.329 170.583 143.268 164.328C151.951 156.493 157.275 149.828 159.666 142.826C159.68 142.786 159.698 142.735 159.717 142.68C159.72 142.666 159.728 142.651 159.731 142.636C159.731 142.636 159.731 142.636 159.731 142.633C159.808 142.388 159.878 142.124 159.899 141.836L159.903 141.839Z" fill="#C8AF82"/>
<path d="M159.907 141.847C159.855 141.785 159.782 141.716 159.702 141.635C159.139 141.365 158.112 140.853 157.669 140.856C157.179 140.666 157.099 141.152 157.073 141.211C154.419 147.997 148.715 154.808 142.164 160.932C141.926 161.151 141.692 161.37 141.455 161.59C135.035 167.498 128.326 172.225 124.341 174.558C123.88 174.828 123.39 175.106 122.875 175.384C117.902 178.097 109.746 181.621 102.631 182.751C98.2331 183.445 94.2407 183.215 91.6961 181.255C91.1221 180.813 90.5371 180.616 90.1277 179.98C89.773 179.852 87.8938 183.263 87.6745 182.977L87.1333 182.813C90.113 187.123 96.884 187.471 104.156 186.016C111.428 184.56 119.2 181.31 124.195 178.429C128.867 175.728 136.336 170.613 143.275 164.357C151.969 156.515 157.296 149.843 159.68 142.834C159.695 142.794 159.713 142.747 159.731 142.688C159.735 142.673 159.742 142.659 159.746 142.644C159.746 142.644 159.746 142.644 159.746 142.64C159.823 142.399 159.885 142.132 159.903 141.843L159.907 141.847Z" fill="#C7AE81"/>
<path d="M159.91 141.851C159.859 141.789 159.789 141.719 159.709 141.639C159.153 141.401 158.152 140.937 157.709 140.97C157.23 140.794 157.15 141.273 157.124 141.335C154.466 148.099 148.785 154.881 142.204 161.03C141.966 161.25 141.732 161.469 141.495 161.688C135.086 167.578 128.388 172.298 124.388 174.645C123.924 174.916 123.434 175.194 122.922 175.472C117.954 178.188 109.808 181.701 102.693 182.842C98.3061 183.54 94.3137 183.328 91.7545 181.409C91.1768 180.978 90.5882 180.78 90.1714 180.155C89.7765 180.012 87.912 183.288 87.6707 182.974L87.126 182.809C90.091 187.149 96.8619 187.504 104.141 186.052C111.42 184.601 119.208 181.343 124.209 178.458C128.881 175.757 136.351 170.642 143.29 164.386C151.991 156.533 157.322 149.857 159.705 142.838C159.72 142.798 159.738 142.75 159.757 142.692C159.76 142.677 159.768 142.662 159.771 142.648C159.771 142.648 159.771 142.648 159.771 142.644C159.848 142.403 159.906 142.14 159.917 141.847L159.91 141.851Z" fill="#C6AD80"/>
<path d="M159.914 141.858C159.863 141.796 159.793 141.727 159.713 141.646C159.168 141.445 158.185 141.025 157.746 141.083C157.278 140.922 157.197 141.394 157.168 141.463C154.507 148.205 148.847 154.958 142.233 161.129C141.999 161.348 141.762 161.568 141.524 161.787C135.126 167.662 128.439 172.375 124.421 174.729C123.957 175 123.467 175.278 122.959 175.559C117.99 178.279 109.863 181.786 102.745 182.937C98.3682 183.639 94.3794 183.442 91.7983 181.566C91.217 181.142 90.6284 180.948 90.2043 180.338C89.7692 180.181 87.923 183.321 87.6561 182.974L87.1113 182.809C90.0581 187.175 96.8327 187.544 104.119 186.096C111.406 184.648 119.208 181.387 124.213 178.499C128.885 175.797 136.354 170.682 143.293 164.427C152.006 156.566 157.336 149.879 159.716 142.856C159.731 142.816 159.749 142.768 159.768 142.71C159.771 142.695 159.779 142.681 159.782 142.666C159.782 142.666 159.782 142.666 159.782 142.662C159.855 142.425 159.914 142.162 159.921 141.862L159.914 141.858Z" fill="#C5AD80"/>
<path d="M159.921 141.861C159.87 141.799 159.801 141.726 159.72 141.649C159.183 141.484 158.225 141.104 157.786 141.192C157.333 141.046 157.249 141.51 157.216 141.583C154.554 148.303 148.913 155.03 142.266 161.223C142.032 161.443 141.795 161.662 141.557 161.878C135.17 167.735 128.494 172.44 124.462 174.809C123.997 175.083 123.507 175.361 122.999 175.639C118.031 178.366 109.921 181.858 102.8 183.021C98.4342 183.726 94.4492 183.547 91.8461 181.712C91.2611 181.299 90.6688 181.101 90.2374 180.505C89.7621 180.333 87.9341 183.339 87.6417 182.962L87.0933 182.797C90.0217 187.192 96.8 187.569 104.094 186.124C111.388 184.68 119.204 181.412 124.217 178.52C128.889 175.818 136.358 170.703 143.297 164.448C152.021 156.576 157.355 149.886 159.728 142.852C159.742 142.815 159.761 142.764 159.779 142.705C159.782 142.691 159.79 142.676 159.793 142.662C159.793 142.662 159.793 142.662 159.793 142.658C159.866 142.424 159.921 142.157 159.921 141.857V141.861Z" fill="#C4AC7F"/>
<path d="M159.925 141.869C159.874 141.807 159.804 141.733 159.724 141.657C159.197 141.529 158.258 141.192 157.823 141.309C157.38 141.174 157.296 141.635 157.26 141.715C154.594 148.409 148.975 155.111 142.296 161.326C142.062 161.545 141.824 161.765 141.586 161.981C135.21 167.819 128.545 172.517 124.494 174.901C124.026 175.175 123.54 175.453 123.032 175.731C118.067 178.462 109.973 181.946 102.847 183.12C98.4928 183.829 94.5113 183.668 91.8899 181.873C91.3013 181.471 90.7054 181.273 90.2703 180.688C89.7548 180.502 87.9414 183.372 87.627 182.966L87.0786 182.802C89.9925 187.222 96.7707 187.609 104.072 186.169C111.377 184.728 119.204 181.456 124.224 178.557C128.896 175.855 136.366 170.74 143.305 164.485C152.039 156.606 157.373 149.908 159.742 142.863C159.757 142.827 159.775 142.775 159.793 142.717C159.797 142.702 159.804 142.688 159.808 142.673C159.808 142.673 159.808 142.673 159.808 142.669C159.877 142.435 159.932 142.172 159.925 141.869Z" fill="#C3AB7E"/>
<path d="M159.929 141.873C159.881 141.811 159.808 141.737 159.728 141.661C159.208 141.569 158.291 141.277 157.859 141.419C157.428 141.299 157.344 141.748 157.304 141.84C154.635 148.512 149.037 155.188 142.325 161.425C142.091 161.645 141.853 161.864 141.616 162.08C135.25 167.904 128.596 172.591 124.527 174.989C124.059 175.263 123.573 175.541 123.069 175.819C118.104 178.554 110.024 182.027 102.898 183.211C98.5549 183.928 94.5771 183.782 91.9338 182.027C91.3415 181.632 90.7456 181.438 90.2996 180.868C89.7475 180.667 87.9487 183.405 87.6087 182.963L87.0566 182.798C89.9522 187.248 96.7341 187.646 104.043 186.206C111.351 184.765 119.197 181.489 124.224 178.59C128.896 175.888 136.366 170.774 143.305 164.518C152.046 156.628 157.384 149.927 159.749 142.874C159.764 142.838 159.782 142.787 159.801 142.728C159.804 142.714 159.812 142.699 159.815 142.684C159.815 142.684 159.815 142.684 159.815 142.681C159.885 142.45 159.936 142.183 159.921 141.88L159.929 141.873Z" fill="#C2AA7E"/>
<path d="M159.932 141.88C159.885 141.818 159.815 141.745 159.735 141.668C159.226 141.613 158.331 141.364 157.899 141.536C157.479 141.43 157.395 141.873 157.355 141.968C154.682 148.618 149.107 155.265 142.365 161.524C142.131 161.743 141.893 161.959 141.656 162.178C135.301 167.984 128.658 172.667 124.575 175.077C124.107 175.354 123.617 175.632 123.116 175.907C118.151 178.645 110.089 182.107 102.96 183.306C98.6277 184.027 94.6536 183.895 91.9884 182.184C91.3924 181.8 90.7929 181.606 90.3432 181.047C89.7509 180.831 87.9667 183.434 87.6048 182.963L87.0527 182.794C89.9337 187.269 96.712 187.679 104.035 186.242C111.358 184.805 119.211 181.526 124.246 178.619C128.918 175.917 136.387 170.803 143.326 164.547C152.079 156.65 157.42 149.941 159.782 142.878C159.797 142.841 159.815 142.794 159.833 142.732C159.837 142.717 159.844 142.702 159.848 142.688C159.848 142.688 159.848 142.688 159.848 142.684C159.917 142.454 159.965 142.191 159.943 141.88H159.932Z" fill="#C1A97D"/>
<path d="M159.936 141.884C159.889 141.822 159.819 141.748 159.739 141.668C159.238 141.65 158.364 141.445 157.936 141.642C157.53 141.551 157.443 141.986 157.399 142.088C154.726 148.717 149.173 155.338 142.394 161.619C142.16 161.838 141.923 162.054 141.685 162.27C135.342 168.061 128.71 172.733 124.608 175.154C124.136 175.431 123.65 175.709 123.149 175.983C118.188 178.726 110.141 182.18 103.008 183.387C98.6867 184.111 94.7125 183.997 92.0327 182.327C91.4331 181.954 90.8298 181.756 90.3728 181.212C89.7403 180.981 87.9744 183.449 87.5869 182.945L87.0312 182.776C89.8939 187.281 96.6758 187.701 104.006 186.268C111.337 184.835 119.208 181.548 124.242 178.641C128.915 175.94 136.384 170.825 143.323 164.569C152.087 156.665 157.428 149.945 159.786 142.874C159.801 142.838 159.815 142.79 159.837 142.728C159.841 142.714 159.848 142.699 159.852 142.684C159.852 142.684 159.852 142.684 159.852 142.681C159.918 142.454 159.965 142.187 159.936 141.876V141.884Z" fill="#C0A87C"/>
<path d="M159.943 141.891C159.896 141.829 159.826 141.756 159.746 141.675C159.252 141.694 158.404 141.533 157.976 141.756C157.582 141.679 157.494 142.107 157.446 142.213C154.77 148.819 149.238 155.411 142.427 161.718C142.193 161.937 141.956 162.153 141.718 162.368C135.386 168.141 128.765 172.806 124.648 175.241C124.176 175.519 123.69 175.797 123.193 176.075C118.232 178.821 110.199 182.265 103.067 183.482C98.7561 184.21 94.7856 184.115 92.0838 182.484C91.4806 182.118 90.8774 181.925 90.4131 181.391C89.7404 181.146 87.9928 183.478 87.5796 182.945L87.0239 182.776C89.8683 187.306 96.6539 187.738 103.992 186.308C111.329 184.879 119.215 181.588 124.257 178.674C128.929 175.973 136.399 170.858 143.338 164.602C152.109 156.687 157.454 149.964 159.808 142.886C159.823 142.853 159.837 142.801 159.859 142.739C159.863 142.725 159.87 142.71 159.874 142.695C159.874 142.695 159.874 142.695 159.874 142.692C159.94 142.469 159.984 142.202 159.947 141.887L159.943 141.891Z" fill="#BFA77C"/>
<path d="M159.947 141.895C159.899 141.833 159.83 141.76 159.749 141.679C159.267 141.734 158.437 141.617 158.013 141.869C157.629 141.807 157.541 142.228 157.49 142.341C154.81 148.922 149.3 155.492 142.456 161.817C142.222 162.036 141.985 162.252 141.747 162.467C135.426 168.226 128.812 172.88 124.681 175.329C124.209 175.607 123.723 175.889 123.226 176.163C118.264 178.916 110.25 182.349 103.114 183.577C98.8144 184.308 94.8476 184.232 92.1238 182.641C91.5169 182.287 90.91 182.093 90.442 181.574C89.7291 181.314 87.9962 183.511 87.5611 182.945L87.0054 182.777C89.8351 187.336 96.6207 187.774 103.966 186.349C111.311 184.923 119.211 181.625 124.26 178.711C128.933 176.009 136.402 170.895 143.341 164.639C152.123 156.716 157.472 149.986 159.819 142.897C159.833 142.864 159.848 142.813 159.87 142.75C159.874 142.736 159.881 142.721 159.885 142.707C159.885 142.707 159.885 142.707 159.885 142.703C159.947 142.48 159.991 142.213 159.947 141.895Z" fill="#BEA67B"/>
<path d="M159.951 141.902C159.903 141.84 159.837 141.767 159.753 141.687C159.278 141.778 158.474 141.705 158.053 141.983C157.68 141.931 157.593 142.348 157.538 142.469C154.854 149.028 149.366 155.568 142.493 161.919C142.259 162.138 142.022 162.354 141.784 162.57C135.474 168.31 128.871 172.96 124.725 175.421C124.25 175.702 123.763 175.98 123.27 176.254C118.312 179.011 110.313 182.433 103.173 183.672C98.8877 184.407 94.9209 184.345 92.1789 182.799C91.5683 182.455 90.9578 182.261 90.4825 181.753C89.733 181.479 88.0147 183.541 87.554 182.945L86.9946 182.777C89.8061 187.361 96.5953 187.815 103.948 186.389C111.3 184.963 119.215 181.665 124.271 178.744C128.944 176.042 136.413 170.927 143.352 164.672C152.145 156.738 157.494 150.004 159.837 142.904C159.848 142.871 159.867 142.82 159.888 142.758C159.892 142.743 159.899 142.729 159.903 142.714C159.903 142.714 159.903 142.714 159.903 142.71C159.965 142.491 160.006 142.224 159.954 141.902H159.951Z" fill="#BDA57A"/>
<path d="M159.954 141.905C159.91 141.843 159.841 141.77 159.757 141.689C159.292 141.817 158.506 141.788 158.089 142.095C157.731 142.059 157.64 142.468 157.585 142.592C154.898 149.129 149.432 155.641 142.526 162.013C142.292 162.233 142.054 162.448 141.817 162.66C135.521 168.382 128.925 173.025 124.761 175.497C124.286 175.778 123.8 176.056 123.306 176.33C118.348 179.091 110.364 182.505 103.22 183.756C98.9459 184.498 94.9828 184.45 92.2189 182.944C91.6046 182.608 90.994 182.418 90.5114 181.92C89.7217 181.635 88.0217 183.562 87.5355 182.933L86.9761 182.765C89.7693 187.379 96.5622 187.84 103.925 186.417C111.285 184.995 119.215 181.69 124.279 178.769C128.951 176.067 136.42 170.952 143.359 164.697C152.163 156.756 157.512 150.014 159.855 142.907C159.866 142.874 159.885 142.826 159.907 142.761C159.91 142.746 159.918 142.731 159.921 142.717C159.921 142.717 159.921 142.717 159.921 142.713C159.983 142.494 160.02 142.231 159.961 141.905H159.954Z" fill="#BCA47A"/>
<path d="M159.961 141.913C159.918 141.851 159.848 141.778 159.768 141.697C159.311 141.862 158.55 141.876 158.133 142.209C157.786 142.187 157.695 142.589 157.636 142.721C154.949 149.236 149.501 155.722 142.562 162.116C142.328 162.332 142.091 162.551 141.853 162.763C135.568 168.47 128.984 173.103 124.801 175.589C124.326 175.87 123.84 176.152 123.35 176.422C118.392 179.186 110.426 182.59 103.278 183.851C99.0154 184.597 95.0559 184.568 92.27 183.102C91.6521 182.776 91.0379 182.583 90.548 182.104C89.7181 181.804 88.0327 183.595 87.5245 182.934L86.9614 182.765C89.74 187.405 96.5329 187.88 103.903 186.462C111.27 185.043 119.215 181.734 124.286 178.806C128.958 176.104 136.428 170.989 143.367 164.734C152.178 156.782 157.534 150.033 159.87 142.918C159.881 142.885 159.899 142.838 159.921 142.772C159.925 142.758 159.932 142.743 159.936 142.728C159.936 142.728 159.936 142.728 159.936 142.725C159.994 142.509 160.031 142.242 159.965 141.917L159.961 141.913Z" fill="#BCA379"/>
<path d="M159.965 141.916C159.921 141.854 159.852 141.781 159.772 141.701C159.325 141.902 158.583 141.96 158.17 142.322C157.834 142.315 157.742 142.706 157.68 142.845C154.989 149.334 149.564 155.795 142.592 162.211C142.358 162.427 142.12 162.642 141.883 162.858C135.609 168.547 129.035 173.175 124.838 175.673C124.359 175.958 123.877 176.236 123.387 176.51C118.433 179.277 110.481 182.674 103.33 183.946C99.0777 184.696 95.122 184.681 92.3178 183.259C91.6963 182.944 91.0784 182.751 90.5848 182.283C89.7147 181.968 88.0475 183.624 87.5137 182.933L86.9507 182.762C89.711 187.43 96.5076 187.913 103.885 186.498C111.263 185.083 119.219 181.767 124.293 178.839C128.966 176.137 136.435 171.022 143.374 164.767C152.196 156.807 157.552 150.051 159.885 142.929C159.896 142.9 159.914 142.849 159.936 142.783C159.94 142.768 159.947 142.754 159.951 142.739C159.951 142.739 159.951 142.739 159.951 142.735C160.009 142.523 160.042 142.256 159.969 141.924L159.965 141.916Z" fill="#BBA279"/>
<path d="M159.969 141.923C159.925 141.861 159.856 141.788 159.775 141.704C159.336 141.942 158.62 142.04 158.207 142.432C157.885 142.439 157.79 142.823 157.724 142.969C155.03 149.437 149.626 155.871 142.625 162.309C142.391 162.525 142.153 162.741 141.915 162.957C135.653 168.631 129.09 173.248 124.875 175.76C124.396 176.045 123.913 176.323 123.423 176.597C118.469 179.369 110.532 182.754 103.381 184.037C99.1398 184.79 95.1876 184.794 92.3615 183.412C91.7363 183.105 91.1185 182.915 90.6139 182.458C89.7036 182.129 88.0547 183.65 87.4953 182.926L86.9287 182.754C89.6707 187.448 96.4709 187.942 103.856 186.531C111.241 185.119 119.211 181.8 124.293 178.864C128.966 176.162 136.435 171.047 143.374 164.792C152.207 156.822 157.563 150.062 159.892 142.929C159.903 142.9 159.921 142.848 159.943 142.783C159.943 142.768 159.954 142.753 159.958 142.739C159.958 142.739 159.958 142.739 159.958 142.735C160.013 142.523 160.046 142.256 159.965 141.923H159.969Z" fill="#BAA178"/>
<path d="M159.973 141.928C159.929 141.869 159.863 141.793 159.779 141.708C159.351 141.983 158.653 142.125 158.243 142.542C157.932 142.564 157.837 142.941 157.768 143.09C155.07 149.536 149.688 155.941 142.654 162.405C142.42 162.621 142.182 162.837 141.948 163.049C135.696 168.705 129.145 173.315 124.915 175.841C124.436 176.126 123.95 176.408 123.467 176.678C118.513 179.453 110.594 182.832 103.439 184.126C99.2093 184.883 95.2608 184.904 92.4127 183.563C91.7839 183.267 91.1624 183.076 90.6542 182.63C89.7036 182.287 88.0694 183.672 87.4881 182.919L86.9214 182.747C89.6488 187.471 96.449 187.976 103.841 186.564C111.234 185.153 119.219 181.83 124.308 178.89C128.98 176.188 136.45 171.074 143.389 164.818C152.229 156.841 157.592 150.073 159.914 142.93C159.925 142.9 159.943 142.849 159.965 142.783C159.965 142.769 159.976 142.754 159.98 142.739C159.98 142.739 159.98 142.739 159.98 142.736C160.035 142.527 160.064 142.261 159.98 141.924L159.973 141.928Z" fill="#B9A077"/>
<path d="M159.976 141.935C159.936 141.876 159.866 141.799 159.782 141.715C159.362 142.026 158.689 142.213 158.28 142.659C157.98 142.691 157.885 143.064 157.815 143.222C155.117 149.645 149.754 156.025 142.687 162.507C142.453 162.723 142.215 162.939 141.981 163.151C135.74 168.788 129.2 173.391 124.951 175.928C124.469 176.217 123.986 176.495 123.504 176.766C118.55 179.548 110.649 182.911 103.49 184.217C99.2714 184.977 95.3265 185.014 92.4566 183.716C91.8241 183.427 91.1989 183.237 90.6834 182.809C89.6963 182.451 88.0767 183.705 87.4698 182.915L86.8994 182.743C89.6085 187.492 96.4124 188.008 103.812 186.604C111.212 185.196 119.211 181.869 124.308 178.926C128.98 176.225 136.45 171.11 143.389 164.854C152.24 156.866 157.603 150.095 159.925 142.944C159.936 142.915 159.954 142.867 159.976 142.794C159.976 142.779 159.987 142.765 159.991 142.75C159.991 142.75 159.991 142.75 159.991 142.746C160.046 142.538 160.071 142.271 159.976 141.931V141.935Z" fill="#B89F77"/>
<path d="M159.983 141.939C159.943 141.88 159.874 141.803 159.79 141.719C159.38 142.067 158.726 142.297 158.32 142.769C158.031 142.816 157.936 143.182 157.863 143.346C155.161 149.748 149.82 156.098 142.72 162.606C142.486 162.822 142.248 163.038 142.014 163.25C135.784 168.873 129.254 173.468 124.992 176.016C124.509 176.305 124.026 176.587 123.544 176.854C118.594 179.64 110.704 182.996 103.545 184.312C99.3372 185.08 95.3961 185.131 92.5078 183.873C91.8716 183.595 91.2464 183.405 90.7236 182.988C89.6963 182.616 88.0949 183.734 87.4625 182.915L86.8921 182.744C89.5829 187.518 96.3905 188.048 103.801 186.645C111.212 185.241 119.222 181.906 124.326 178.96C128.999 176.258 136.468 171.143 143.407 164.887C152.269 156.892 157.633 150.11 159.951 142.951C159.962 142.926 159.98 142.875 159.998 142.801C159.998 142.787 160.009 142.772 160.013 142.758C160.013 142.758 160.013 142.758 160.013 142.754C160.064 142.549 160.089 142.282 159.987 141.939H159.983Z" fill="#B79E76"/>
<path d="M159.987 141.945C159.947 141.887 159.878 141.81 159.797 141.726C159.395 142.11 158.766 142.384 158.36 142.885C158.086 142.947 157.987 143.305 157.911 143.474C155.205 149.85 149.886 156.178 142.753 162.704C142.519 162.92 142.281 163.136 142.047 163.348C135.828 168.953 129.306 173.541 125.028 176.104C124.546 176.393 124.063 176.674 123.584 176.941C118.634 179.73 110.763 183.076 103.6 184.403C99.4032 185.174 95.462 185.24 92.5555 184.026C91.9157 183.759 91.2869 183.569 90.7568 183.164C89.6892 182.776 88.1025 183.759 87.448 182.908L86.874 182.736C89.5502 187.54 96.3578 188.077 103.776 186.677C111.194 185.277 119.219 181.939 124.326 178.988C128.999 176.287 136.468 171.172 143.407 164.916C152.28 156.91 157.647 150.124 159.958 142.954C159.969 142.929 159.987 142.878 160.006 142.805C160.006 142.79 160.017 142.775 160.02 142.761C160.02 142.761 160.02 142.761 160.02 142.757C160.071 142.556 160.093 142.285 159.984 141.942L159.987 141.945Z" fill="#B69D75"/>
<path d="M159.991 141.949C159.951 141.89 159.881 141.814 159.801 141.729C159.41 142.15 158.799 142.468 158.397 142.994C158.134 143.071 158.035 143.422 157.955 143.598C155.245 149.952 149.948 156.251 142.786 162.803C142.552 163.019 142.314 163.231 142.08 163.443C135.872 169.033 129.361 173.61 125.065 176.188C124.579 176.476 124.096 176.758 123.621 177.028C118.67 179.822 110.817 183.16 103.652 184.498C99.4654 185.273 95.5279 185.357 92.5994 184.183C91.9559 183.924 91.3234 183.737 90.7896 183.346C89.6818 182.944 88.1134 183.792 87.4334 182.911L86.8594 182.739C89.5173 187.569 96.3286 188.117 103.754 186.721C111.179 185.324 119.219 181.979 124.334 179.025C129.006 176.323 136.475 171.208 143.415 164.953C152.295 156.939 157.666 150.146 159.973 142.969C159.984 142.943 160.002 142.892 160.02 142.819C160.02 142.804 160.031 142.79 160.035 142.771C160.082 142.57 160.104 142.303 159.987 141.956L159.991 141.949Z" fill="#B59C75"/>
<path d="M159.994 141.957C159.954 141.898 159.888 141.821 159.804 141.737C159.42 142.194 158.832 142.556 158.433 143.112C158.181 143.203 158.082 143.547 157.998 143.726C155.289 150.058 150.01 156.332 142.815 162.902C142.581 163.118 142.343 163.33 142.109 163.542C135.912 169.114 129.412 173.684 125.101 176.272C124.615 176.565 124.133 176.846 123.657 177.113C118.711 179.91 110.868 183.237 103.703 184.586C99.5274 185.365 95.5936 185.463 92.6468 184.334C91.9997 184.085 91.3672 183.899 90.8224 183.518C89.6744 183.102 88.1206 183.815 87.4187 182.904L86.8447 182.732C89.4844 187.591 96.2992 188.151 103.732 186.754C111.165 185.361 119.219 182.012 124.341 179.054C129.013 176.353 136.483 171.238 143.422 164.982C152.313 156.957 157.684 150.161 159.987 142.973C159.998 142.947 160.016 142.896 160.035 142.823C160.035 142.809 160.046 142.794 160.049 142.776C160.097 142.578 160.115 142.311 159.991 141.957H159.994Z" fill="#B49B74"/>
<path d="M160.002 141.96C159.965 141.902 159.896 141.825 159.811 141.737C159.435 142.231 158.872 142.637 158.473 143.218C158.232 143.32 158.133 143.657 158.049 143.847C155.337 150.157 150.079 156.402 142.851 162.997C142.617 163.213 142.38 163.425 142.146 163.637C135.96 169.19 129.47 173.757 125.141 176.356C124.655 176.649 124.172 176.93 123.701 177.197C118.754 179.998 110.93 183.314 103.761 184.674C99.6004 185.456 95.6665 185.573 92.6978 184.484C92.047 184.242 91.4109 184.056 90.8624 183.69C89.6779 183.259 88.1386 183.836 87.4111 182.893L86.8335 182.718C89.4585 187.602 96.2733 188.173 103.713 186.783C111.153 185.39 119.222 182.038 124.352 179.076C129.024 176.375 136.493 171.26 143.432 165.004C152.335 156.972 157.709 150.168 160.009 142.969C160.02 142.944 160.038 142.896 160.056 142.819C160.056 142.805 160.067 142.79 160.071 142.772C160.119 142.575 160.133 142.308 160.002 141.953V141.96Z" fill="#B39A73"/>
<path d="M160.006 141.967C159.969 141.909 159.9 141.832 159.816 141.744C159.45 142.274 158.905 142.724 158.514 143.331C158.287 143.448 158.185 143.777 158.097 143.974C155.381 150.263 150.145 156.478 142.884 163.095C142.65 163.311 142.413 163.523 142.179 163.735C136.004 169.274 129.525 173.829 125.182 176.444C124.692 176.736 124.213 177.018 123.742 177.284C118.795 180.089 110.989 183.397 103.816 184.768C99.6666 185.554 95.7364 185.686 92.7457 184.64C92.0877 184.41 91.4515 184.224 90.8958 183.869C89.671 183.423 88.1502 183.869 87.397 182.893L86.8193 182.717C89.4261 187.631 96.2445 188.212 103.696 186.823C111.147 185.434 119.226 182.077 124.363 179.112C129.035 176.411 136.505 171.296 143.444 165.04C152.357 157.001 157.732 150.186 160.028 142.984C160.039 142.962 160.057 142.91 160.075 142.834C160.075 142.819 160.086 142.804 160.09 142.786C160.134 142.592 160.148 142.325 160.009 141.967H160.006Z" fill="#B29A73"/>
<path d="M160.009 141.974C159.973 141.916 159.903 141.839 159.823 141.751C159.464 142.318 158.945 142.812 158.554 143.448C158.338 143.579 158.236 143.901 158.145 144.102C155.424 150.365 150.211 156.558 142.921 163.198C142.687 163.413 142.449 163.625 142.215 163.838C136.051 169.358 129.584 173.906 125.222 176.535C124.732 176.831 124.253 177.113 123.781 177.376C118.839 180.187 111.044 183.481 103.871 184.863C99.7321 185.657 95.8055 185.803 92.7966 184.798C92.1349 184.578 91.4988 184.392 90.9358 184.052C89.6708 183.591 88.1645 183.902 87.3894 182.893L86.8081 182.717C89.4002 187.657 96.2187 188.249 103.677 186.863C111.135 185.478 119.23 182.114 124.374 179.145C129.046 176.444 136.515 171.329 143.455 165.073C152.375 157.023 157.753 150.204 160.046 142.991C160.057 142.969 160.075 142.918 160.093 142.841C160.093 142.826 160.104 142.812 160.108 142.793H160.104C160.148 142.603 160.159 142.333 160.013 141.971L160.009 141.974Z" fill="#B19972"/>
<path d="M160.013 141.978C159.976 141.92 159.907 141.843 159.826 141.755C159.479 142.359 158.978 142.896 158.591 143.558C158.386 143.704 158.283 144.018 158.188 144.227C155.468 150.468 150.273 156.632 142.95 163.297C142.716 163.509 142.478 163.724 142.244 163.933C136.091 169.439 129.635 173.976 125.259 176.616C124.769 176.912 124.286 177.193 123.822 177.46C118.879 180.275 111.102 183.562 103.926 184.955C99.798 185.752 95.8751 185.913 92.8442 184.948C92.1788 184.736 91.539 184.553 90.9686 184.224C89.6634 183.752 88.1755 183.924 87.3748 182.886L86.7935 182.71C89.3673 187.679 96.1895 188.278 103.655 186.896C111.121 185.514 119.23 182.147 124.377 179.175C129.05 176.473 136.519 171.358 143.458 165.103C152.39 157.045 157.772 150.219 160.057 142.998C160.068 142.976 160.086 142.925 160.104 142.849C160.104 142.834 160.115 142.819 160.119 142.801H160.115C160.155 142.611 160.166 142.344 160.013 141.978Z" fill="#B09871"/>
<path d="M160.016 141.986C159.98 141.927 159.914 141.85 159.83 141.763C159.49 142.403 159.015 142.984 158.627 143.675C158.433 143.836 158.331 144.143 158.232 144.355C155.509 150.574 150.335 156.712 142.979 163.395C142.745 163.607 142.508 163.82 142.274 164.032C136.132 169.519 129.686 174.053 125.291 176.703C124.798 176.999 124.319 177.281 123.855 177.548C118.912 180.367 111.154 183.642 103.973 185.046C99.8564 185.847 95.9372 186.026 92.8844 185.101C92.2154 184.9 91.5719 184.714 90.9979 184.399C89.6525 183.913 88.1827 183.95 87.3565 182.878L86.7715 182.703C89.327 187.697 96.1529 188.311 103.626 186.929C111.099 185.551 119.222 182.176 124.377 179.2C129.05 176.499 136.519 171.384 143.458 165.128C152.401 157.06 157.783 150.23 160.064 142.998C160.075 142.976 160.093 142.925 160.111 142.849C160.111 142.834 160.122 142.819 160.126 142.801H160.122C160.163 142.615 160.166 142.344 160.009 141.978L160.016 141.986Z" fill="#AF9771"/>
<path d="M160.024 141.989C159.991 141.931 159.921 141.854 159.837 141.766C159.508 142.442 159.157 143.133 158.667 143.784C158.517 143.985 158.382 144.26 158.283 144.479C155.556 150.676 150.405 156.785 143.016 163.494C142.782 163.706 142.544 163.918 142.31 164.13C136.179 169.599 129.744 174.126 125.335 176.791C124.842 177.091 124.363 177.372 123.898 177.635C118.959 180.458 111.212 183.726 104.032 185.141C99.9259 185.946 96.014 186.136 92.9392 185.258C92.2702 185.064 91.6231 184.882 91.0381 184.582C89.6525 184.081 88.1974 183.982 87.3492 182.882L86.7642 182.706C89.3051 187.73 96.1309 188.351 103.611 186.977C111.091 185.598 119.23 182.224 124.392 179.24C129.064 176.539 136.534 171.424 143.473 165.168C152.423 157.092 157.808 150.252 160.089 143.013C160.1 142.995 160.119 142.943 160.137 142.863C160.137 142.848 160.148 142.834 160.152 142.815H160.148C160.188 142.633 160.188 142.362 160.024 141.993V141.989Z" fill="#AE9670"/>
<path d="M160.028 141.997C159.995 141.938 159.925 141.862 159.841 141.774C159.519 142.483 159.179 143.207 158.704 143.898C158.561 144.106 158.43 144.381 158.327 144.607C155.596 150.779 150.467 156.866 143.049 163.593C142.815 163.805 142.577 164.017 142.343 164.229C136.227 169.684 129.796 174.199 125.372 176.879C124.878 177.179 124.4 177.46 123.935 177.724C118.996 180.55 111.267 183.807 104.083 185.233C99.9882 186.041 96.0762 186.246 92.9832 185.412C92.3105 185.229 91.6597 185.047 91.0711 184.758C89.6489 184.242 88.2085 184.008 87.3347 182.879L86.7461 182.703C89.2688 187.752 96.0981 188.388 103.586 187.014C111.077 185.639 119.226 182.257 124.396 179.274C129.068 176.572 136.538 171.457 143.477 165.202C152.438 157.115 157.823 150.271 160.101 143.024C160.108 143.006 160.13 142.955 160.148 142.874C160.148 142.86 160.159 142.845 160.163 142.827H160.159C160.196 142.644 160.196 142.374 160.024 142.001L160.028 141.997Z" fill="#AD956F"/>
<path d="M160.031 142.001C159.998 141.942 159.929 141.865 159.845 141.774C159.534 142.52 159.198 143.277 158.741 144.008C158.605 144.223 158.477 144.498 158.371 144.728C155.637 150.877 150.533 156.935 143.078 163.688C142.844 163.9 142.607 164.112 142.373 164.321C136.267 169.757 129.847 174.265 125.405 176.96C124.908 177.259 124.429 177.541 123.972 177.804C119.032 180.634 111.322 183.884 104.134 185.321C100.05 186.133 96.1421 186.356 93.0271 185.562C92.3471 185.387 91.6963 185.208 91.104 184.93C89.6416 184.4 88.2194 184.034 87.32 182.868L86.7314 182.689C89.2358 187.767 96.069 188.41 103.567 187.039C111.066 185.668 119.23 182.283 124.407 179.292C129.079 176.59 136.548 171.476 143.488 165.22C152.46 157.126 157.849 150.274 160.119 143.017C160.126 142.999 160.148 142.948 160.166 142.867C160.166 142.852 160.177 142.838 160.181 142.82H160.177C160.214 142.64 160.21 142.37 160.035 141.993L160.031 142.001Z" fill="#AC946F"/>
<path d="M160.035 142.008C160.002 141.949 159.936 141.873 159.852 141.781C159.548 142.564 159.219 143.35 158.781 144.121C158.653 144.348 158.528 144.615 158.419 144.856C155.684 150.983 150.598 157.016 143.111 163.787C142.877 163.999 142.639 164.211 142.405 164.419C136.311 169.841 129.902 174.342 125.445 177.044C124.948 177.343 124.469 177.629 124.012 177.892C119.076 180.725 111.376 183.965 104.189 185.412C100.116 186.231 96.2112 186.469 93.078 185.716C92.3943 185.551 91.7436 185.372 91.1404 185.105C89.6378 184.56 88.2302 184.06 87.3089 182.864L86.7202 182.685C89.21 187.789 96.0431 188.443 103.549 187.076C111.055 185.708 119.233 182.316 124.418 179.325C129.09 176.623 136.559 171.508 143.498 165.253C152.481 157.148 157.87 150.292 160.137 143.024C160.144 143.006 160.166 142.955 160.184 142.874C160.184 142.86 160.195 142.842 160.199 142.827H160.195C160.228 142.648 160.225 142.377 160.042 142.001L160.035 142.008Z" fill="#AB936E"/>
<path d="M160.038 142.012C160.005 141.953 159.939 141.877 159.855 141.785C159.563 142.604 159.234 143.423 158.817 144.235C158.696 144.472 158.576 144.736 158.462 144.981C155.724 151.086 150.661 157.089 143.14 163.886C142.906 164.098 142.668 164.31 142.434 164.518C136.351 169.922 129.953 174.415 125.478 177.132C124.981 177.435 124.502 177.717 124.045 177.98C119.109 180.821 111.428 184.049 104.236 185.508C100.174 186.33 96.2734 186.582 93.1182 185.873C92.4309 185.72 91.7765 185.537 91.1696 185.288C89.6267 184.729 88.2375 184.093 87.2906 182.864L86.6982 182.685C89.1697 187.818 96.0065 188.484 103.52 187.116C111.033 185.753 119.226 182.356 124.414 179.358C129.086 176.656 136.556 171.542 143.495 165.29C152.485 157.177 157.878 150.315 160.141 143.039C160.148 143.021 160.166 142.97 160.188 142.889C160.188 142.875 160.199 142.856 160.203 142.842H160.199C160.232 142.666 160.225 142.396 160.035 142.012H160.038Z" fill="#AA926D"/>
<path d="M160.045 142.019C160.016 141.96 159.947 141.88 159.862 141.792C159.577 142.648 159.252 143.499 158.857 144.348C158.744 144.593 158.627 144.856 158.51 145.108C155.768 151.192 150.726 157.166 143.173 163.984C142.939 164.196 142.701 164.405 142.467 164.617C136.394 170.006 130.007 174.488 125.518 177.219C125.017 177.522 124.542 177.804 124.088 178.067C119.153 180.911 111.49 184.129 104.295 185.599C100.244 186.425 96.3462 186.695 93.1691 186.026C92.4782 185.88 91.8201 185.701 91.2059 185.463C89.6228 184.889 88.2482 184.118 87.2793 182.86L86.687 182.681C89.1402 187.84 95.9806 188.516 103.501 187.156C111.025 185.792 119.229 182.392 124.425 179.394C129.097 176.692 136.566 171.578 143.505 165.326C152.507 157.202 157.903 150.332 160.159 143.05C160.166 143.035 160.184 142.984 160.206 142.9C160.206 142.885 160.217 142.867 160.221 142.852H160.217C160.25 142.68 160.239 142.41 160.042 142.022L160.045 142.019Z" fill="#A9916D"/>
<path d="M160.049 142.023C160.02 141.964 159.951 141.884 159.867 141.796C157.611 149.086 152.218 155.956 143.21 164.083C136.271 170.339 128.805 175.453 124.129 178.151C119.193 180.999 111.549 184.209 104.35 185.69C97.1511 187.171 90.402 186.922 87.2688 182.857L86.6729 182.678C89.1114 187.866 95.9519 188.553 103.48 187.193C111.011 185.833 119.233 182.425 124.432 179.424C129.105 176.722 136.574 171.607 143.513 165.355C152.525 157.224 157.922 150.347 160.177 143.057C160.185 143.043 160.203 142.991 160.225 142.907C160.225 142.893 160.236 142.874 160.24 142.86H160.236C160.265 142.684 160.254 142.414 160.049 142.026V142.023Z" fill="#A8906C"/>
<path d="M88.7673 176.821L91.0084 179.457C91.6409 180.203 91.6372 181.402 90.9133 182.396C90.0286 183.614 88.4126 184.074 87.3158 183.438C87.1183 183.325 86.9502 183.182 86.8113 183.021L84.5737 180.385C84.7127 180.55 84.8772 180.689 85.0783 180.802C86.1751 181.438 87.7875 180.978 88.6722 179.76C89.3961 178.766 89.4034 177.567 88.7673 176.821Z" fill="#4D5D66"/>
<path d="M88.2704 176.407C89.3708 177.043 89.55 178.55 88.6689 179.76C87.7841 180.977 86.1681 181.438 85.075 180.802C83.9672 180.162 83.788 178.667 84.6728 177.449C85.5502 176.243 87.1662 175.767 88.2704 176.407Z" fill="#91979A"/>
<path d="M85.5321 176.872C85.5394 176.641 85.565 176.393 85.5906 176.129C85.66 175.259 85.7442 174.261 85.448 173.863C85.3164 173.687 85.1628 173.501 84.9691 173.387L84.1245 172.883C84.3146 173 84.4755 173.183 84.6071 173.358C84.9033 173.757 84.8156 174.755 84.7498 175.625C84.7242 175.888 84.7022 176.137 84.6912 176.367C84.6217 177.701 85.4517 178.795 85.5431 178.919L86.3877 179.423C86.2963 179.299 85.4627 178.206 85.5321 176.872Z" fill="#91979A"/>
<path d="M85.0607 171.318C84.7536 171.136 84.3661 171.04 83.8762 171.172C83.1705 171.362 82.3991 171.969 81.5802 172.982C80.8526 173.885 80.403 174.803 80.2604 175.706C79.9935 177.289 80.9513 177.662 81.1963 177.83L82.0408 178.334C81.7995 178.166 80.8416 177.793 81.1049 176.21C81.2474 175.307 81.6935 174.389 82.4284 173.483C83.2473 172.47 84.0188 171.867 84.7244 171.673C85.2106 171.541 85.5982 171.636 85.9053 171.819L85.0607 171.315V171.318Z" fill="#91979A"/>
<path d="M82.428 173.483C83.2469 172.47 84.0184 171.867 84.724 171.673C85.6709 171.417 86.2375 172.006 86.5848 172.47C87.1003 173.176 86.998 174.433 86.8993 175.559C86.881 175.793 86.8555 176.024 86.8518 176.239C86.8152 176.956 87.3234 177.775 87.5098 178.005L86.3911 179.42C86.2997 179.296 85.4661 178.203 85.5356 176.868C85.5429 176.638 85.5685 176.389 85.5941 176.126C85.6635 175.256 85.7477 174.258 85.4515 173.859C85.2139 173.537 84.8738 173.176 84.4059 173.296C84.0512 173.395 83.5686 173.673 83.0531 174.305C82.6473 174.81 82.3731 175.314 82.3 175.753C82.1574 176.63 82.6181 177.625 82.6218 177.632L82.0477 178.327C81.8064 178.159 80.8485 177.786 81.1118 176.203C81.2544 175.3 81.7004 174.382 82.4353 173.475L82.428 173.483Z" fill="#4D5D66"/>
</g>
<path d="M84.8855 223.734V225.175C84.8782 225.815 84.4614 226.451 83.6205 226.941C81.9351 227.92 79.193 227.92 77.4966 226.941C76.6411 226.447 76.2134 225.796 76.2134 225.149V223.712C76.2134 224.36 76.6448 225.007 77.5003 225.5C79.1967 226.48 81.9351 226.48 83.6242 225.5C84.465 225.014 84.8818 224.374 84.8855 223.734Z" fill="#313E47"/>
<path d="M83.6127 221.951C85.3091 222.93 85.3128 224.521 83.6273 225.501C81.9419 226.48 79.1999 226.48 77.5035 225.501C75.7998 224.517 75.7924 222.93 77.4779 221.951C79.1633 220.971 81.909 220.967 83.6127 221.951Z" fill="#798085"/>
<path d="M83.0278 177.698L82.9877 223.358C82.9877 223.72 82.7464 224.079 82.2711 224.356C81.3205 224.912 79.7631 224.912 78.8015 224.356C78.3153 224.079 78.0776 223.713 78.0776 223.344L78.1178 177.684C78.1178 178.049 78.3591 178.415 78.8417 178.696C79.8032 179.252 81.3607 179.248 82.3113 178.696C82.7865 178.422 83.0242 178.06 83.0278 177.698Z" fill="#4D5D66"/>
<path d="M82.3003 176.685C83.2618 177.241 83.2691 178.14 82.3112 178.696C81.3607 179.248 79.8032 179.251 78.8417 178.696C77.8801 178.14 77.8801 177.241 78.8307 176.685C79.7886 176.129 81.3387 176.129 82.3003 176.685Z" fill="#8ABBF8"/>
<path d="M76.6626 180.378V181.098C76.6626 180.937 76.7687 180.776 76.9807 180.652C77.4085 180.403 78.0921 180.403 78.5199 180.652C78.7283 180.772 78.8343 180.933 78.8379 181.094V180.374C78.8343 180.213 78.7283 180.052 78.5199 179.932C78.0958 179.683 77.4085 179.683 76.9807 179.932C76.7687 180.052 76.6626 180.217 76.6626 180.374V180.378Z" fill="#313E47"/>
<path d="M74.8276 178.773V179.493C74.8313 180.337 75.387 181.178 76.4948 181.825C78.7286 183.123 82.3627 183.12 84.6039 181.825C85.7372 181.171 86.3003 180.315 86.3003 179.46V178.74C86.3003 179.595 85.7336 180.451 84.6039 181.105C82.3627 182.399 78.7286 182.403 76.4948 181.105C75.387 180.462 74.8313 179.617 74.8276 178.773Z" fill="#313E47"/>
<path d="M76.5206 176.404C74.2794 177.702 74.2611 179.804 76.4949 181.102C77.621 181.756 79.098 182.078 80.5787 182.074V175.431C79.1126 175.431 77.6466 175.757 76.5206 176.404ZM78.5131 180.827C78.0926 181.072 77.4017 181.069 76.9812 180.824C76.5571 180.575 76.5571 180.18 76.9812 179.935C77.409 179.687 78.0926 179.687 78.5204 179.935C78.9408 180.18 78.9408 180.579 78.5131 180.827Z" fill="#616A70"/>
<path d="M84.4829 180.378V181.098C84.4829 180.937 84.3733 180.776 84.1649 180.652C83.7372 180.403 83.0535 180.403 82.6257 180.652C82.4137 180.772 82.3076 180.933 82.3076 181.094V180.374C82.3076 180.213 82.4173 180.052 82.6257 179.932C83.0498 179.683 83.7335 179.683 84.1649 179.932C84.377 180.052 84.4829 180.217 84.4829 180.374V180.378Z" fill="#313E47"/>
<path d="M80.564 175.431V182.074C82.0447 182.078 83.5218 181.756 84.6478 181.102C86.8816 179.804 86.867 177.698 84.6222 176.404C83.4998 175.757 82.0337 175.431 80.564 175.431ZM82.626 179.935C83.0501 179.687 83.7338 179.687 84.1652 179.935C84.5856 180.18 84.5893 180.575 84.1652 180.824C83.7447 181.069 83.0574 181.072 82.6297 180.827C82.2019 180.579 82.2056 180.18 82.6297 179.935H82.626Z" fill="#616A70"/>
<path d="M84.8855 176.016V177.456C84.8782 178.096 84.4614 178.736 83.6205 179.222C81.9351 180.202 79.193 180.202 77.4966 179.222C76.6411 178.729 76.2134 178.081 76.2134 177.434V175.998C76.2134 176.645 76.6448 177.292 77.5003 177.785C79.1967 178.765 81.9351 178.765 83.6242 177.785C84.465 177.299 84.8818 176.659 84.8855 176.019V176.016Z" fill="#313E47"/>
<path d="M83.6127 174.232C85.3091 175.212 85.3128 176.802 83.6273 177.782C81.9419 178.762 79.1999 178.762 77.5035 177.782C75.7998 176.798 75.7924 175.212 77.4779 174.232C79.1633 173.252 81.909 173.248 83.6127 174.232Z" fill="#798085"/>
<path d="M84.3039 173.237C84.3039 175.31 82.6222 176.988 80.5528 176.988C78.4835 176.988 76.8018 175.31 76.8018 173.237C76.8018 171.164 78.4835 169.486 80.5528 169.486C82.6222 169.486 84.3039 171.164 84.3039 173.237Z" fill="#4D5D66"/>
<defs>
<linearGradient id="paint0_linear_122_1105" x1="168.963" y1="132.813" x2="166.788" y2="132.813" gradientUnits="userSpaceOnUse">
<stop stop-color="#799ACC"/>
<stop offset="1" stop-color="#9EB7E5"/>
</linearGradient>
</defs>
</svg>
