<svg width="270" height="48" viewBox="0 0 270 48" fill="none" xmlns="http://www.w3.org/2000/svg">
<path d="M0.5 0V46.2342H46.1676V0H0.5ZM43.3636 20.6498L26.5983 12.5714L43.3636 4.49305V20.6463V20.6498ZM23.3338 14.145L41.9443 23.1101L23.3338 32.0787L4.72336 23.1101L23.3338 14.145ZM43.3636 25.5704V41.7342L26.5983 33.6523L43.3636 25.5704ZM40.4799 2.74069L3.2071 20.6989V2.74069H40.4799ZM3.2071 43.4935V25.5249L40.4834 43.4935H3.2071Z" fill="#D0B787"/>
<path fill-rule="evenodd" clip-rule="evenodd" d="M76.7798 20.4853L84.233 3.01074H86.1542L93.5486 20.4853H91.6896L89.2041 14.6043H81.1624L78.6561 20.4853H76.7832H76.7798ZM85.313 5.19769L85.1953 4.72455L85.0776 5.19769L81.8443 13.0412H88.5186L85.313 5.19769ZM107.977 4.85773L102.442 20.4853H100.569L107.088 3.01074H109.009L115.645 20.4853H113.554L107.974 4.85773H107.977ZM124.175 20.4853V3.01074H133.622V4.59838H125.902V10.7281H133.355V12.3158H125.902V18.8941H133.622V20.4818H124.175V20.4853ZM145.004 11.4186L152.62 3.01074H154.735L147.248 11.373L155.255 20.4853H153.046L145.008 11.4186H145.004ZM144.932 3.01074V20.4853H143.204V3.01074H144.932Z" fill="#D0B787"/>
<path fill-rule="evenodd" clip-rule="evenodd" d="M179.446 7.49685H177.524C177.029 6.82394 176.558 6.31927 176.112 5.97931C175.468 5.47813 174.751 5.08911 173.948 4.81224C173.159 4.54237 172.356 4.4092 171.539 4.4092C170.258 4.4092 169.06 4.74565 167.942 5.41154C166.827 6.08095 165.938 6.97465 165.28 8.09616C164.619 9.22117 164.29 10.4268 164.29 11.727C164.29 13.0273 164.626 14.2539 165.297 15.393C165.962 16.5285 166.855 17.4327 167.973 18.1056C169.105 18.7785 170.317 19.115 171.612 19.115C172.733 19.115 173.82 18.8451 174.876 18.3019C175.454 18.0005 175.918 17.6956 176.275 17.3907C176.631 17.0822 177.071 16.5986 177.59 15.9292H179.501C179.131 16.5811 178.819 17.0647 178.563 17.3907C178.31 17.7131 177.978 18.0671 177.566 18.4491C175.8 20.0052 173.789 20.7797 171.539 20.7797C169.901 20.7797 168.392 20.3767 167.014 19.5776C165.637 18.7785 164.553 17.6781 163.757 16.2832C162.957 14.8883 162.559 13.3708 162.559 11.7305C162.559 10.0903 162.957 8.58682 163.757 7.20946C164.553 5.83211 165.637 4.74565 167.004 3.95008C168.375 3.151 169.881 2.75146 171.515 2.75146C173.315 2.75146 174.956 3.22811 176.448 4.18489C177.348 4.79822 178.092 5.47112 178.667 6.20011C178.944 6.54707 179.207 6.97815 179.446 7.49685Z" fill="#D0B787"/>
<path fill-rule="evenodd" clip-rule="evenodd" d="M196.235 3.01074H194.314L186.86 20.4853H188.733L191.239 14.6043H199.281L201.767 20.4853H203.626L196.231 3.01074H196.235ZM191.925 13.0412L195.158 5.19769L195.276 4.72455L195.394 5.19769L198.599 13.0412H191.925Z" fill="#D0B787"/>
<path fill-rule="evenodd" clip-rule="evenodd" d="M212.184 20.4853V3.01074H213.911V10.7071H222.853V3.01074H224.604V20.4853H222.853V12.2702H213.911V20.4853H212.184Z" fill="#D0B787"/>
<path fill-rule="evenodd" clip-rule="evenodd" d="M248.227 18.9222L242.273 3.01074H240.351L234.324 18.9222H233.186V23.4187H234.889V20.4853H247.697V23.4187H249.425V18.9222H248.223H248.227ZM236.222 18.9222L241.31 5.02595L246.354 18.9222H236.222Z" fill="#D0B787"/>
<path fill-rule="evenodd" clip-rule="evenodd" d="M269.23 6.53298C269.05 5.99676 268.787 5.51311 268.444 5.06801C268.102 4.62992 267.693 4.25842 267.219 3.95702C266.675 3.61005 266.059 3.36472 265.37 3.21752C264.692 3.08084 263.764 3.01074 262.597 3.01074H258.062V20.4853H259.79V13.4338H263.03C263.75 13.4338 264.373 13.3917 264.903 13.3146C265.44 13.241 265.921 13.1254 266.34 12.9606C266.765 12.7924 267.163 12.5681 267.527 12.2912C268.171 11.8181 268.659 11.2363 268.995 10.5424C269.331 9.84494 269.5 9.0739 269.5 8.23277C269.5 7.63697 269.41 7.0692 269.23 6.53298ZM267.361 9.91854C267.108 10.4337 266.738 10.8473 266.26 11.1557C265.858 11.4115 265.395 11.5938 264.872 11.6954C264.353 11.8006 263.646 11.8496 262.767 11.8496H259.793V4.59838H262.3L262.597 4.57385H262.933C264.096 4.57385 264.986 4.70702 265.613 4.97689C266.291 5.25727 266.817 5.68484 267.191 6.2526C267.565 6.81686 267.749 7.47225 267.749 8.21174C267.749 8.83558 267.62 9.40335 267.364 9.91503L267.361 9.91854Z" fill="#D0B787"/>
<path d="M86.4138 34.5783V43.9464H85.2403V42.3342C84.7418 42.951 84.181 43.4101 83.5613 43.7221C82.9417 44.0305 82.2597 44.1882 81.5258 44.1882C80.2173 44.1882 79.0991 43.708 78.1714 42.7442C77.2471 41.784 76.7832 40.6134 76.7832 39.236C76.7832 37.8587 77.2505 36.7372 78.1852 35.7769C79.1199 34.8166 80.245 34.3364 81.5604 34.3364C82.3186 34.3364 83.0075 34.5011 83.6237 34.8271C84.2364 35.1565 84.7799 35.6472 85.2438 36.2991V34.5783H86.4173H86.4138ZM81.6539 35.5C80.9927 35.5 80.38 35.6647 79.8192 35.9942C79.2584 36.3236 78.8153 36.7862 78.4829 37.382C78.1506 37.9778 77.9844 38.6087 77.9844 39.2746C77.9844 39.9405 78.1541 40.5643 78.4864 41.1671C78.8187 41.7664 79.2688 42.2361 79.833 42.5725C80.3973 42.909 80.9996 43.0772 81.647 43.0772C82.2943 43.0772 82.914 42.9125 83.499 42.5795C84.0806 42.2466 84.5306 41.798 84.8457 41.2302C85.1607 40.6624 85.3165 40.0246 85.3165 39.3131C85.3165 38.2267 84.9634 37.3224 84.2572 36.5935C83.551 35.868 82.6855 35.5035 81.6539 35.5035V35.5Z" fill="#D0B787"/>
<path d="M91.5825 34.5781H92.8426L96.0205 41.7908L99.1084 34.5781H100.375L94.8574 47.3703H93.6007L95.3801 43.2348L91.5825 34.5781Z" fill="#D0B787"/>
<path d="M105.395 34.5782H106.586V38.5245L110.875 34.5782H112.533L107.839 38.8645L112.9 43.9428H111.218L106.963 39.611L106.589 39.9474V43.9428H105.398V34.5747L105.395 34.5782Z" fill="#D0B787"/>
<path d="M126.266 43.9462H117.618V34.5781H118.809V42.8072H124.192V34.5781H125.383V42.8072H127.391V45.4252H126.269V43.9427L126.266 43.9462Z" fill="#D0B787"/>
<path d="M133.664 34.5781V41.5069L140.459 34.5781H140.553V43.9462H139.362V37.0805L132.618 43.9462H132.477V34.5781H133.667H133.664Z" fill="#D0B787"/>
<path d="M151.065 34.3398C152.492 34.3398 153.672 34.862 154.61 35.9065C155.462 36.8597 155.888 37.9883 155.888 39.292C155.888 40.5958 155.438 41.7418 154.538 42.7231C153.638 43.7009 152.481 44.1916 151.069 44.1916C149.657 44.1916 148.486 43.7009 147.586 42.7231C146.686 41.7453 146.236 40.6028 146.236 39.292C146.236 37.9812 146.662 36.8702 147.514 35.917C148.452 34.8656 149.632 34.3398 151.065 34.3398ZM151.059 35.5174C150.069 35.5174 149.217 35.8889 148.507 36.6284C147.798 37.3679 147.441 38.2651 147.441 39.313C147.441 39.9894 147.604 40.6203 147.929 41.2056C148.251 41.7909 148.691 42.243 149.241 42.5619C149.792 42.8808 150.401 43.0385 151.059 43.0385C151.716 43.0385 152.326 42.8773 152.876 42.5619C153.426 42.243 153.866 41.7909 154.191 41.2056C154.513 40.6203 154.676 39.9894 154.676 39.313C154.676 38.2616 154.32 37.3679 153.603 36.6284C152.89 35.8889 152.042 35.5174 151.055 35.5174H151.059Z" fill="#D0B787"/>
<path d="M168.146 39.4357H162.763V43.9462H161.572V34.5781H162.763V38.2966H168.146V34.5781H169.337V43.9462H168.146V39.4357Z" fill="#D0B787"/>
<path d="M182.045 39.4357H176.662V43.9462H175.471V34.5781H176.662V38.2966H182.045V34.5781H183.236V43.9462H182.045V39.4357Z" fill="#D0B787"/>
<path d="M190.557 38.2897H191.689C192.593 38.2897 193.299 38.3598 193.808 38.5035C194.32 38.6472 194.76 38.9661 195.13 39.4533C195.497 39.9439 195.684 40.5082 195.684 41.1461C195.684 41.9136 195.418 42.5725 194.885 43.1192C194.352 43.6694 193.541 43.9428 192.458 43.9428H189.377V34.5747H190.561V38.2862L190.557 38.2897ZM190.599 39.3902V42.9264H191.97C193.583 42.9264 194.39 42.3517 194.39 41.2056C194.39 40.8797 194.303 40.5573 194.13 40.2418C193.957 39.9264 193.704 39.7056 193.372 39.5794C193.04 39.4568 192.454 39.3937 191.613 39.3937H190.599V39.3902ZM197.325 34.5782H198.516V43.9463H197.325V34.5782Z" fill="#D0B787"/>
<path d="M205.73 34.578V41.5069L212.526 34.578H212.619V43.9461H211.428V37.0804L204.685 43.9461H204.543V34.578H205.734H205.73ZM205.561 30.8175H206.682C206.876 31.1154 207.132 31.3397 207.458 31.4869C207.78 31.6376 208.164 31.7112 208.614 31.7112C209.064 31.7112 209.431 31.6446 209.711 31.5114C209.988 31.3782 210.251 31.1469 210.501 30.814H211.588C211.463 31.3292 211.145 31.7602 210.632 32.1107C210.12 32.4577 209.445 32.6294 208.604 32.6294C207.762 32.6294 207.091 32.4577 206.561 32.1177C206.035 31.7778 205.699 31.3432 205.557 30.814L205.561 30.8175Z" fill="#D0B787"/>
<path d="M227.135 42.9194L230.704 34.5781H231.324L234.879 42.9194H235.99V45.1413H234.844V43.9427H227.19V45.1904H226.013V42.9158H227.135V42.9194ZM230.998 36.4391L228.291 42.9194H233.594L231.002 36.4391H230.998Z" fill="#D0B787"/>
<path d="M245.461 34.3398C246.887 34.3398 248.068 34.862 249.006 35.9065C249.857 36.8597 250.283 37.9883 250.283 39.292C250.283 40.5958 249.833 41.7418 248.933 42.7231C248.033 43.7009 246.877 44.1916 245.464 44.1916C244.052 44.1916 242.882 43.7009 241.982 42.7231C241.082 41.7453 240.632 40.6028 240.632 39.292C240.632 37.9812 241.058 36.8702 241.909 35.917C242.847 34.8656 244.028 34.3398 245.461 34.3398ZM245.454 35.5174C244.464 35.5174 243.612 35.8889 242.903 36.6284C242.193 37.3679 241.837 38.2651 241.837 39.313C241.837 39.9894 241.999 40.6203 242.325 41.2056C242.647 41.7909 243.086 42.243 243.637 42.5619C244.187 42.8808 244.796 43.0385 245.454 43.0385C246.112 43.0385 246.721 42.8773 247.272 42.5619C247.822 42.243 248.262 41.7909 248.587 41.2056C248.909 40.6203 249.072 39.9894 249.072 39.313C249.072 38.2616 248.715 37.3679 247.998 36.6284C247.282 35.8889 246.437 35.5174 245.451 35.5174H245.454Z" fill="#D0B787"/>
<path d="M266.017 34.5781H266.356L269.5 43.9462H268.257L265.965 37.056L262.407 43.9462H262.185L258.616 37.0454L256.331 43.9462H255.088L258.252 34.5781H258.574L262.303 41.9065L266.017 34.5781Z" fill="#D0B787"/>
</svg>
