<svg width="199" height="37" viewBox="0 0 199 37" fill="none" xmlns="http://www.w3.org/2000/svg">
<g clip-path="url(#clip0_179_419)">
<path d="M0 0V35.0322H33.7839V0H0ZM31.7095 15.6466L19.3069 9.52551L31.7095 3.40444V15.6439V15.6466ZM16.8919 10.7179L30.6595 17.5108L16.8919 24.3064L3.12434 17.5108L16.8919 10.7179ZM31.7095 19.375V31.6225L19.3069 25.4987L31.7095 19.375ZM29.5762 2.07665L2.00265 15.6838V2.07665H29.5762ZM2.00265 32.9556V19.3405L29.5788 32.9556H2.00265Z" fill="#D0B787"/>
<path fill-rule="evenodd" clip-rule="evenodd" d="M56.4302 15.5219L61.9439 2.28125H63.3652L68.8353 15.5219H67.4601L65.6214 11.0659H59.6723L57.8182 15.5219H56.4327H56.4302ZM62.7429 3.93832L62.6558 3.57982L62.5687 3.93832L60.1768 9.88148H65.1143L62.7429 3.93832ZM79.5093 3.68073L75.4144 15.5219H74.0289L78.8512 2.28125H80.2725L85.1818 15.5219H83.635L79.5068 3.68073H79.5093ZM91.4919 15.5219V2.28125H98.4807V3.48422H92.7698V8.12881H98.2835V9.33178H92.7698V14.3163H98.4807V15.5192H91.4919V15.5219ZM106.901 8.65195L112.535 2.28125H114.1L108.561 8.61743L114.484 15.5219H112.85L106.904 8.65195H106.901ZM106.847 2.28125V15.5219H105.569V2.28125H106.847Z" fill="#D0B787"/>
<path fill-rule="evenodd" clip-rule="evenodd" d="M132.38 5.68035H130.959C130.592 5.17048 130.244 4.78808 129.914 4.53049C129.437 4.15075 128.907 3.85598 128.313 3.64619C127.729 3.44171 127.135 3.3408 126.531 3.3408C125.583 3.3408 124.697 3.59573 123.87 4.10029C123.045 4.6075 122.387 5.28467 121.901 6.13445C121.411 6.98689 121.168 7.90041 121.168 8.88562C121.168 9.87084 121.417 10.8003 121.913 11.6633C122.405 12.5237 123.066 13.2089 123.893 13.7188C124.73 14.2286 125.627 14.4836 126.585 14.4836C127.414 14.4836 128.218 14.2791 128.999 13.8675C129.427 13.6391 129.77 13.408 130.034 13.177C130.298 12.9433 130.623 12.5769 131.007 12.0696H132.421C132.147 12.5636 131.916 12.93 131.727 13.177C131.54 13.4213 131.294 13.6895 130.989 13.979C129.683 15.1581 128.195 15.7449 126.531 15.7449C125.319 15.7449 124.203 15.4396 123.184 14.8341C122.164 14.2286 121.363 13.3948 120.774 12.3379C120.182 11.2809 119.888 10.1311 119.888 8.88828C119.888 7.64547 120.182 6.50623 120.774 5.4626C121.363 4.41896 122.164 3.59573 123.176 2.99292C124.19 2.38745 125.304 2.08472 126.513 2.08472C127.845 2.08472 129.058 2.44587 130.162 3.17084C130.828 3.63557 131.379 4.14544 131.804 4.69779C132.009 4.96069 132.203 5.28733 132.38 5.68035Z" fill="#D0B787"/>
<path fill-rule="evenodd" clip-rule="evenodd" d="M144.8 2.28125H143.379L137.865 15.5219H139.251L141.105 11.0659H147.054L148.893 15.5219H150.268L144.798 2.28125H144.8ZM141.612 9.88148L144.004 3.93832L144.091 3.57982L144.178 3.93832L146.549 9.88148H141.612Z" fill="#D0B787"/>
<path fill-rule="evenodd" clip-rule="evenodd" d="M156.599 15.5219V2.28125H157.877V8.11287H164.491V2.28125H165.787V15.5219H164.491V9.29725H157.877V15.5219H156.599Z" fill="#D0B787"/>
<path fill-rule="evenodd" clip-rule="evenodd" d="M183.263 14.3375L178.858 2.28125H177.437L172.978 14.3375H172.136V17.7446H173.396V15.5219H182.871V17.7446H184.149V14.3375H183.26H183.263ZM174.382 14.3375L178.146 3.8082L181.878 14.3375H174.382Z" fill="#D0B787"/>
<path fill-rule="evenodd" clip-rule="evenodd" d="M198.8 4.95009C198.667 4.54379 198.472 4.17732 198.219 3.84007C197.965 3.50812 197.663 3.22663 197.312 2.99825C196.91 2.73535 196.454 2.54946 195.945 2.43793C195.443 2.33436 194.756 2.28125 193.893 2.28125H190.539V15.5219H191.816V10.1789H194.214C194.746 10.1789 195.207 10.147 195.599 10.0886C195.996 10.0328 196.352 9.94521 196.662 9.8204C196.977 9.69293 197.271 9.52298 197.54 9.31319C198.016 8.95469 198.378 8.51386 198.626 7.98806C198.874 7.4596 199 6.87538 199 6.23804C199 5.7866 198.933 5.3564 198.8 4.95009ZM197.417 7.51537C197.23 7.90574 196.956 8.21909 196.603 8.45278C196.306 8.64664 195.963 8.78473 195.576 8.86174C195.192 8.94141 194.669 8.97859 194.019 8.97859H191.819V3.48422H193.673L193.893 3.46563H194.142C195.002 3.46563 195.66 3.56654 196.124 3.77102C196.626 3.98347 197.015 4.30745 197.292 4.73765C197.568 5.16519 197.704 5.66179 197.704 6.22211C197.704 6.6948 197.609 7.125 197.42 7.51271L197.417 7.51537Z" fill="#D0B787"/>
<path d="M63.5571 27.3046V34.4029H62.689V33.1813C62.3202 33.6487 61.9053 33.9966 61.4469 34.2329C60.9885 34.4666 60.484 34.5861 59.9411 34.5861C58.9731 34.5861 58.1459 34.2223 57.4596 33.492C56.7758 32.7644 56.4326 31.8775 56.4326 30.8338C56.4326 29.7902 56.7783 28.9404 57.4698 28.2128C58.1612 27.4852 58.9936 27.1213 59.9667 27.1213C60.5276 27.1213 61.0372 27.2461 61.493 27.4931C61.9463 27.7427 62.3484 28.1145 62.6915 28.6085V27.3046H63.5597H63.5571ZM60.0359 28.003C59.5467 28.003 59.0934 28.1278 58.6786 28.3774C58.2637 28.627 57.9359 28.9776 57.69 29.429C57.4442 29.8805 57.3213 30.3585 57.3213 30.863C57.3213 31.3676 57.4467 31.8403 57.6926 32.297C57.9384 32.7511 58.2714 33.107 58.6888 33.3619C59.1062 33.6169 59.5518 33.7443 60.0307 33.7443C60.5096 33.7443 60.968 33.6195 61.4008 33.3672C61.8311 33.115 62.164 32.775 62.397 32.3448C62.6301 31.9146 62.7453 31.4313 62.7453 30.8922C62.7453 30.069 62.4841 29.3839 61.9617 28.8315C61.4392 28.2818 60.799 28.0056 60.0359 28.0056V28.003Z" fill="#D0B787"/>
<path d="M67.3804 27.3044H68.3126L70.6635 32.7696L72.9478 27.3044H73.8852L69.803 36.9973H68.8734L70.1897 33.8637L67.3804 27.3044Z" fill="#D0B787"/>
<path d="M77.5986 27.3044H78.4796V30.2946L81.6526 27.3044H82.8793L79.4067 30.5522L83.1507 34.4001H81.9061L78.7587 31.1178L78.4822 31.3727V34.4001H77.6012V27.3018L77.5986 27.3044Z" fill="#D0B787"/>
<path d="M93.0388 34.4028H86.6416V27.3044H87.5226V33.5397H91.5048V27.3044H92.3858V33.5397H93.8711V35.5234H93.0414V34.4001L93.0388 34.4028Z" fill="#D0B787"/>
<path d="M98.5112 27.3044V32.5545L103.538 27.3044H103.607V34.4028H102.727V29.2005L97.7378 34.4028H97.6328V27.3044H98.5138H98.5112Z" fill="#D0B787"/>
<path d="M111.385 27.1238C112.44 27.1238 113.313 27.5195 114.007 28.3108C114.637 29.0331 114.952 29.8882 114.952 30.8761C114.952 31.864 114.619 32.7323 113.954 33.4759C113.288 34.2168 112.432 34.5886 111.388 34.5886C110.343 34.5886 109.477 34.2168 108.811 33.4759C108.145 32.735 107.812 31.8693 107.812 30.8761C107.812 29.8829 108.127 29.0411 108.757 28.3188C109.451 27.5221 110.325 27.1238 111.385 27.1238ZM111.38 28.016C110.647 28.016 110.017 28.2975 109.492 28.8579C108.967 29.4182 108.704 30.098 108.704 30.892C108.704 31.4046 108.824 31.8826 109.065 32.326C109.303 32.7695 109.628 33.1121 110.035 33.3537C110.443 33.5954 110.893 33.7149 111.38 33.7149C111.866 33.7149 112.317 33.5927 112.724 33.3537C113.132 33.1121 113.457 32.7695 113.698 32.326C113.936 31.8826 114.056 31.4046 114.056 30.892C114.056 30.0954 113.792 29.4182 113.262 28.8579C112.735 28.2975 112.107 28.016 111.377 28.016H111.38Z" fill="#D0B787"/>
<path d="M124.021 30.9851H120.039V34.4028H119.158V27.3044H120.039V30.122H124.021V27.3044H124.902V34.4028H124.021V30.9851Z" fill="#D0B787"/>
<path d="M134.303 30.9851H130.321V34.4028H129.44V27.3044H130.321V30.122H134.303V27.3044H135.184V34.4028H134.303V30.9851Z" fill="#D0B787"/>
<path d="M140.6 30.1167H141.438C142.106 30.1167 142.629 30.1698 143.005 30.2786C143.384 30.3875 143.709 30.6292 143.983 30.9983C144.255 31.3701 144.393 31.7976 144.393 32.2809C144.393 32.8625 144.196 33.3618 143.802 33.776C143.407 34.193 142.808 34.4001 142.006 34.4001H139.727V27.3018H140.603V30.114L140.6 30.1167ZM140.631 30.9505V33.63H141.645C142.839 33.63 143.435 33.1945 143.435 32.3261C143.435 32.0791 143.371 31.8348 143.243 31.5958C143.115 31.3568 142.928 31.1895 142.682 31.0939C142.437 31.001 142.004 30.9532 141.381 30.9532H140.631V30.9505ZM145.607 27.3044H146.488V34.4027H145.607V27.3044Z" fill="#D0B787"/>
<path d="M151.825 27.3045V32.5545L156.852 27.3045H156.921V34.4028H156.04V29.2005L151.051 34.4028H150.946V27.3045H151.827H151.825ZM151.699 24.455H152.529C152.672 24.6808 152.862 24.8507 153.103 24.9623C153.341 25.0765 153.625 25.1322 153.958 25.1322C154.291 25.1322 154.562 25.0818 154.77 24.9808C154.975 24.8799 155.169 24.7047 155.354 24.4524H156.158C156.066 24.8428 155.83 25.1694 155.451 25.435C155.072 25.6979 154.573 25.828 153.95 25.828C153.328 25.828 152.831 25.6979 152.439 25.4403C152.05 25.1827 151.802 24.8534 151.697 24.4524L151.699 24.455Z" fill="#D0B787"/>
<path d="M167.659 33.6247L170.3 27.3044H170.758L173.388 33.6247H174.21V35.3083H173.363V34.4001H167.7V35.3455H166.83V33.622H167.659V33.6247ZM170.517 28.7145L168.515 33.6247H172.438L170.52 28.7145H170.517Z" fill="#D0B787"/>
<path d="M181.217 27.1238C182.272 27.1238 183.145 27.5195 183.839 28.3108C184.469 29.0331 184.784 29.8882 184.784 30.8761C184.784 31.864 184.451 32.7323 183.785 33.4759C183.119 34.2168 182.264 34.5886 181.219 34.5886C180.174 34.5886 179.309 34.2168 178.643 33.4759C177.977 32.735 177.644 31.8693 177.644 30.8761C177.644 29.8829 177.959 29.0411 178.589 28.3188C179.283 27.5221 180.156 27.1238 181.217 27.1238ZM181.211 28.016C180.479 28.016 179.849 28.2975 179.324 28.8579C178.799 29.4182 178.535 30.098 178.535 30.892C178.535 31.4046 178.656 31.8826 178.896 32.326C179.135 32.7695 179.46 33.1121 179.867 33.3537C180.274 33.5954 180.725 33.7149 181.211 33.7149C181.698 33.7149 182.149 33.5927 182.556 33.3537C182.963 33.1121 183.288 32.7695 183.529 32.326C183.767 31.8826 183.888 31.4046 183.888 30.892C183.888 30.0954 183.624 29.4182 183.094 28.8579C182.564 28.2975 181.939 28.016 181.209 28.016H181.211Z" fill="#D0B787"/>
<path d="M196.424 27.3044H196.675L199 34.4028H198.081L196.385 29.1819L193.753 34.4028H193.589L190.948 29.174L189.258 34.4028H188.339L190.68 27.3044H190.918L193.676 32.8572L196.424 27.3044Z" fill="#D0B787"/>
</g>
<defs>
<clipPath id="clip0_179_419">
<rect width="199" height="37" fill="white"/>
</clipPath>
</defs>
</svg>
