<svg width="1021" height="18" viewBox="0 0 1021 18" fill="none" xmlns="http://www.w3.org/2000/svg">
<rect width="11.9636" height="11.9636" transform="matrix(0.70495 0.709257 -0.70495 0.709257 414.028 0)" fill="#F1EFEC"/>
<rect width="11.9636" height="11.9636" transform="matrix(0.70495 0.709257 -0.70495 0.709257 465.654 0)" fill="#F1EFEC"/>
<rect width="11.9636" height="11.9636" transform="matrix(0.70495 0.709257 -0.70495 0.709257 517.28 0)" fill="#F1EFEC"/>
<rect width="11.9636" height="11.9636" transform="matrix(0.70495 0.709257 -0.70495 0.709257 568.906 0)" fill="#F1EFEC"/>
<rect width="11.9636" height="11.9636" transform="matrix(0.70495 0.709257 -0.70495 0.709257 620.531 0)" fill="#F1EFEC"/>
<rect width="11.9636" height="11.9636" transform="matrix(0.70495 0.709257 -0.70495 0.709257 672.156 0)" fill="#F1EFEC"/>
<rect width="11.9636" height="11.9636" transform="matrix(0.70495 0.709257 -0.70495 0.709257 723.782 0)" fill="#F1EFEC"/>
<rect width="11.9636" height="11.9636" transform="matrix(0.70495 0.709257 -0.70495 0.709257 775.408 0)" fill="#F1EFEC"/>
<rect width="11.9636" height="11.9636" transform="matrix(0.70495 0.709257 -0.70495 0.709257 827.033 0)" fill="#F1EFEC"/>
<rect width="11.9636" height="11.9636" transform="matrix(0.70495 0.709257 -0.70495 0.709257 439.841 0)" fill="#F1EFEC"/>
<rect width="11.9636" height="11.9636" transform="matrix(0.70495 0.709257 -0.70495 0.709257 491.467 0)" fill="#F1EFEC"/>
<rect width="11.9636" height="11.9636" transform="matrix(0.70495 0.709257 -0.70495 0.709257 543.093 0)" fill="#F1EFEC"/>
<rect width="11.9636" height="11.9636" transform="matrix(0.70495 0.709257 -0.70495 0.709257 594.718 0)" fill="#F1EFEC"/>
<rect width="11.9636" height="11.9636" transform="matrix(0.70495 0.709257 -0.70495 0.709257 646.344 0)" fill="#F1EFEC"/>
<rect width="11.9636" height="11.9636" transform="matrix(0.70495 0.709257 -0.70495 0.709257 697.969 0)" fill="#F1EFEC"/>
<rect width="11.9636" height="11.9636" transform="matrix(0.70495 0.709257 -0.70495 0.709257 749.595 0)" fill="#F1EFEC"/>
<rect width="11.9636" height="11.9636" transform="matrix(0.70495 0.709257 -0.70495 0.709257 801.221 0)" fill="#F1EFEC"/>
<rect width="11.9636" height="11.9636" transform="matrix(0.70495 0.709257 -0.70495 0.709257 852.846 0)" fill="#F1EFEC"/>
<rect width="11.9636" height="11.9636" transform="matrix(0.70495 0.709257 -0.70495 0.709257 142.565 0)" fill="#CDB98C"/>
<rect width="11.9636" height="11.9636" transform="matrix(0.70495 0.709257 -0.70495 0.709257 388.066 0)" fill="#CDB98C"/>
<rect width="11.9636" height="11.9636" transform="matrix(0.70495 0.709257 -0.70495 0.709257 879.067 0)" fill="#CDB98C"/>
<rect width="11.9636" height="11.9636" transform="matrix(0.70495 0.709257 -0.70495 0.709257 9.37897 1)" fill="#CDB98C"/>
<rect width="11.9636" height="11.9636" transform="matrix(0.70495 0.709257 -0.70495 0.709257 1012.25 0)" fill="#CDB98C"/>
<line x1="159.974" y1="8" x2="370.686" y2="8" stroke="#CDB98C" stroke-width="2"/>
<line x1="896.474" y1="8" x2="994.873" y2="8" stroke="#CDB98C" stroke-width="2"/>
<line x1="26.7873" y1="9" x2="125.186" y2="9" stroke="#CDB98C" stroke-width="2"/>
</svg>
