<svg width="37" height="36" viewBox="0 0 37 36" fill="none" xmlns="http://www.w3.org/2000/svg">
  <rect width="9.28623" height="9.13433" transform="matrix(1 0 0 -1 0.186523 9.13428)" fill="#CDB98C"/>
  <rect width="9.28623" height="9.13433" transform="matrix(1 0 0 -1 13.8423 9.13428)" fill="#CDB98C"/>
  <rect width="9.28623" height="9.13433" transform="matrix(1 0 0 -1 27.4985 9.13428)" fill="#CDB98C"/>
  <rect width="9.28623" height="9.13433" transform="matrix(1 0 0 -1 0.186523 22.5671)" fill="#CDB98C"/>
  <rect width="9.28623" height="9.13433" transform="matrix(1 0 0 -1 13.8423 22.5674)" fill="#CDB98C"/>
  <rect width="9.28623" height="9.13433" transform="matrix(1 0 0 -1 27.4985 22.5674)" fill="#CDB98C"/>
  <rect width="9.28623" height="9.13433" transform="matrix(1 0 0 -1 0.186523 35.9998)" fill="#CDB98C"/>
  <rect width="9.28623" height="9.13433" transform="matrix(1 0 0 -1 13.8423 36)" fill="#CDB98C"/>
  <rect width="9.28623" height="9.13433" transform="matrix(1 0 0 -1 27.4985 36)" fill="#CDB98C"/>
  </svg>
  