<svg width="19" height="19" viewBox="0 0 19 19" fill="none" xmlns="http://www.w3.org/2000/svg">
  <path d="M17.5859 2.04931L16.4141 0.87751C15.8512 0.3156 15.0884 0 14.293 0C13.4976 0 12.7348 0.3156 12.1719 0.87751L0 13.0493V18.4634H5.4141L17.5859 6.29151C18.1478 5.72862 18.4634 4.96576 18.4634 4.17041C18.4634 3.37505 18.1478 2.6122 17.5859 2.04931ZM4.5856 16.4634H2V13.8778L11 4.87781L13.5858 7.46338L4.5856 16.4634ZM16.1718 4.87731L15 6.04921L12.4142 3.46341L13.5861 2.29151C13.774 2.10473 14.0281 1.99989 14.293 1.99989C14.5579 1.99989 14.812 2.10473 14.9999 2.29151L16.172 3.46341C16.3587 3.65124 16.4635 3.90532 16.4635 4.17016C16.4635 4.435 16.3585 4.68948 16.1718 4.87731Z" fill="#343E47"/>
  </svg>
  