<svg width="32" height="29" viewBox="0 0 32 29" fill="none" xmlns="http://www.w3.org/2000/svg">
  <path d="M27.2 6.44444H25.6V0H6.4V6.44444H4.8C3.52696 6.44444 2.30606 6.95367 1.40589 7.8601C0.505712 8.76652 0 9.9959 0 11.2778V25.7778H6.4V29H25.6V25.7778H32V11.2778C32 9.9959 31.4942 8.76652 30.5941 7.8601C29.6939 6.95367 28.473 6.44444 27.2 6.44444ZM9.6 3.22222H22.4V6.44444H9.6V3.22222ZM22.4 25.7778H9.6V22.5556H22.4V25.7778ZM28.8 22.5556H25.6V19.3333H6.4V22.5556H3.2V11.2778C3.20046 10.8506 3.36918 10.4411 3.66914 10.1391C3.9691 9.83703 4.37579 9.66713 4.8 9.66667H27.2C27.6242 9.66713 28.0309 9.83703 28.3309 10.1391C28.6309 10.4411 28.7995 10.8506 28.8 11.2778V22.5556ZM8 12.4861C7.60443 12.4861 7.21776 12.6042 6.88886 12.8256C6.55997 13.0468 6.30362 13.3613 6.15224 13.7292C6.00086 14.0974 5.96126 14.5023 6.03843 14.893C6.1156 15.2835 6.30608 15.6424 6.58579 15.9241C6.86549 16.2057 7.22186 16.3976 7.60982 16.4752C7.99778 16.5529 8.39992 16.5131 8.76536 16.3605C9.13082 16.2081 9.44318 15.95 9.66294 15.6189C9.8827 15.2877 10 14.8983 10 14.5C10 13.9659 9.78928 13.4536 9.41421 13.0759C9.03914 12.6983 8.53043 12.4861 8 12.4861Z" fill="#CDB98C"/>
  </svg>
  