<svg width="120" height="116" viewBox="0 0 120 116" fill="none" xmlns="http://www.w3.org/2000/svg">
<path d="M70.1825 25.7825C81.8925 37.4925 81.8925 56.4725 70.1825 68.1825C58.4725 79.8925 39.4925 79.8925 27.7825 68.1825C16.0725 56.4725 16.0725 37.4925 27.7825 25.7825C39.4925 14.0725 58.4725 14.0725 70.1825 25.7825Z" stroke="#2E3E48" stroke-width="3" stroke-miterlimit="10"/>
<path d="M35.5925 28.6526C37.5125 27.2426 39.6125 26.1826 41.7925 25.4526" stroke="#2E3E48" stroke-width="3" stroke-miterlimit="10"/>
<path d="M41.8025 68.5123C38.5625 67.4323 35.5125 65.6023 32.9325 63.0223C24.9125 55.0023 24.1525 42.4723 30.6525 33.5923" stroke="#2E3E48" stroke-width="3" stroke-miterlimit="10"/>
<path d="M70.0225 68.0225L76.0525 74.0524" stroke="#2E3E48" stroke-width="3" stroke-miterlimit="10"/>
<path d="M79.5452 71.2253L73.2236 77.5469L94.5783 98.9015L100.9 92.58L79.5452 71.2253Z" stroke="#2E3E48" stroke-width="3" stroke-miterlimit="10"/>
</svg>
