<svg width="120" height="101" viewBox="0 0 120 101" fill="none" xmlns="http://www.w3.org/2000/svg">
<path d="M36.04 89.1701L48.18 86.6501L46.57 78.6101C46.22 76.8401 45.25 75.2201 43.85 74.0701C42.96 73.3401 42.05 72.8601 41.19 72.6701L34.33 70.6801C34.18 70.6401 34.04 70.5701 33.91 70.4801C33.55 70.2401 33.31 69.8501 33.26 69.4101L32.94 66.6901C35.03 64.7901 35.74 63.1001 35.85 60.6901C35.88 57.1601 34.4 50.5101 34.4 50.5101C32.76 44.9101 27.59 45.2501 27.59 45.2501C27.59 45.2501 22.42 44.9101 20.78 50.5101C20.78 50.5101 19.29 57.1601 19.33 60.6901C19.44 63.1001 20.16 64.7901 22.24 66.6901L21.92 69.4101C21.87 69.8401 21.63 70.2301 21.27 70.4801C21.14 70.5701 21 70.6301 20.85 70.6801L13.99 72.6701C13.12 72.8601 12.22 73.3301 11.33 74.0701C9.93002 75.2201 8.97002 76.8401 8.61002 78.6101L7 86.6501L19.14 89.1701" stroke="#2E3E48" stroke-width="1" stroke-miterlimit="10"/>
<path d="M33.2 68.79L27.6 73.81L22 68.79" stroke="#2E3E48" stroke-width="1" stroke-miterlimit="10"/>
<path d="M35.1901 73.4902L31.2401 77.2802L27.6001 73.8102" stroke="#2E3E48" stroke-width="1" stroke-miterlimit="10"/>
<path d="M20 73.4902L23.96 77.2802L27.6 73.8102" stroke="#2E3E48" stroke-width="1" stroke-miterlimit="10"/>
<path d="M27.6001 83.1299V89.5499" stroke="#2E3E48" stroke-width="1" stroke-miterlimit="10"/>
<path d="M27.6001 80.1099V76.9199" stroke="#2E3E48" stroke-width="1" stroke-miterlimit="10"/>
<path d="M27.6001 41.27C31.6101 41.27 35.8101 43.5 37.4901 47.25C38.2301 48.9 38.5301 50.71 38.7401 52.51C39.0301 55.04 39.1601 57.4501 40.3801 59.7401C41.2701 61.4101 42.6201 62.58 44.7701 62.84C44.7701 62.84 42.1501 67.34 36.4401 66.36" stroke="#2E3E48" stroke-width="1" stroke-miterlimit="10"/>
<path d="M27.5999 41.27C23.5899 41.27 19.3899 43.5 17.7099 47.25C16.9699 48.9 16.6699 50.71 16.4599 52.51C16.1699 55.04 16.0399 57.4501 14.8199 59.7401C13.9299 61.4101 12.5799 62.58 10.4299 62.84C10.4299 62.84 13.0499 67.34 18.7599 66.36" stroke="#2E3E48" stroke-width="1" stroke-miterlimit="10"/>
<path d="M15.54 38.9903V18.7803H107.67V74.3303H48.0901" stroke="#2E3E48" stroke-width="1" stroke-miterlimit="10"/>
<path d="M108.79 18.78H14.4301C12.5601 18.78 11.04 17.26 11.04 15.39C11.04 13.52 12.5601 12 14.4301 12H108.79C110.66 12 112.18 13.52 112.18 15.39C112.18 17.26 110.66 18.78 108.79 18.78Z" stroke="#2E3E48" stroke-width="1" stroke-miterlimit="10"/>
</svg>
