<svg width="120" height="101" viewBox="0 0 120 101" fill="none" xmlns="http://www.w3.org/2000/svg">
<path d="M100.13 91.1099C100.13 91.1099 100.13 72.7899 89.66 67.5599L70.03 58.3999" stroke="#2E3E48" stroke-width="1" stroke-miterlimit="10"/>
<path d="M19 91.1099C19 91.1099 19 72.7899 29.47 67.5599L49.1 58.3999" stroke="#2E3E48" stroke-width="1" stroke-miterlimit="10"/>
<path d="M43.86 61.0199L42.55 75.4099C53.02 72.7899 55.6301 64.9399 55.6301 64.9399C50.4001 63.6299 49.0901 58.3999 49.0901 58.3999" stroke="#2E3E48" stroke-width="1" stroke-miterlimit="10"/>
<path d="M75.27 61.0199L76.58 75.4099C66.11 72.7899 63.5 64.9399 63.5 64.9399C68.73 63.6299 70.04 58.3999 70.04 58.3999" stroke="#2E3E48" stroke-width="1" stroke-miterlimit="10"/>
<path d="M53.02 91.11C53.02 85.88 56.95 74.1 56.95 74.1C53.02 70.17 55.64 64.9399 55.64 64.9399C55.64 64.9399 59.57 66.2499 63.49 64.9399C63.49 64.9399 66.11 70.17 62.18 74.1C62.18 74.1 66.11 85.88 66.11 91.11" stroke="#2E3E48" stroke-width="1" stroke-miterlimit="10"/>
<path d="M66.1098 54.48C75.2698 50.55 76.2198 39.97 77.2198 31.83C77.7598 27.44 77.9198 22.7 75.7998 18.67C73.8598 14.98 70.2899 12.42 66.3999 11.11C64.2599 10.39 61.9299 10 59.5699 10C57.2099 10 54.8798 10.39 52.7398 11.11C48.8398 12.43 45.2799 14.98 43.3399 18.67C41.2199 22.7 41.3798 27.44 41.9198 31.83C42.9198 39.97 43.8698 50.56 53.0298 54.48" stroke="#2E3E48" stroke-width="1" stroke-miterlimit="10"/>
<path d="M49.1001 53.1699V58.3999" stroke="#2E3E48" stroke-width="1" stroke-miterlimit="10"/>
<path d="M70.03 53.1699V58.3999" stroke="#2E3E48" stroke-width="1" stroke-miterlimit="10"/>
<path d="M76.5801 28.31C76.5801 28.31 75.16 22.68 70.04 24.38C66.11 25.69 64.8101 28.31 59.5701 28.31C54.3301 28.31 53.03 25.69 49.1 24.38C43.98 22.67 42.5601 28.31 42.5601 28.31" stroke="#2E3E48" stroke-width="1" stroke-miterlimit="10"/>
</svg>
