<svg width="120" height="101" viewBox="0 0 120 101" fill="none" xmlns="http://www.w3.org/2000/svg">
<path d="M87.6201 68.54L101.24 68.52" stroke="#2E3E48" stroke-width="1" stroke-miterlimit="10"/>
<path d="M46.0101 85.6002C44.0701 86.0002 39.8301 86.2501 37.1401 81.6901L25.7601 62.1602H18.8501" stroke="#2E3E48" stroke-width="1" stroke-miterlimit="10"/>
<path d="M57.1201 65.3701L63.9401 77.6501" stroke="#2E3E48" stroke-width="1" stroke-miterlimit="10"/>
<path d="M47.27 73.3999L51.69 81.0899" stroke="#2E3E48" stroke-width="1" stroke-miterlimit="10"/>
<path d="M72.7399 80.4498C70.7499 81.2898 66.9599 82.8599 63.8999 77.6099" stroke="#2E3E48" stroke-width="1" stroke-miterlimit="10"/>
<path d="M58.8699 83.7399C58.8699 83.7399 54.7199 86.5998 51.6899 81.0898" stroke="#2E3E48" stroke-width="1" stroke-miterlimit="10"/>
<path d="M18.8201 22.5098H41.2901" stroke="#2E3E48" stroke-width="1" stroke-miterlimit="10"/>
<path d="M2.12 16H18.36V69.32H2" stroke="#2E3E48" stroke-width="1" stroke-miterlimit="10"/>
<path d="M117.61 20.5898H101.37V73.9099H117.73" stroke="#2E3E48" stroke-width="1" stroke-miterlimit="10"/>
<path d="M88.97 70.68L70.6 35.67C69.04 35.57 61.13 34.86 61.13 34.86L50.28 45.88C41.23 52.8 36.28 42.6 36.28 42.6L50.22 24.44C54.89 18.57 59.59 18.5 59.59 18.5L80.57 18.53L101.11 27.47" stroke="#2E3E48" stroke-width="1" stroke-miterlimit="10"/>
<path d="M90.17 69.29C89.34 71.65 83.99 85.42 77.1 73.36L67.49 58.29" stroke="#2E3E48" stroke-width="1" stroke-miterlimit="10"/>
<path d="M114.17 61.8599C114.855 61.8599 115.41 61.3047 115.41 60.6199C115.41 59.935 114.855 59.3799 114.17 59.3799C113.485 59.3799 112.93 59.935 112.93 60.6199C112.93 61.3047 113.485 61.8599 114.17 61.8599Z" stroke="#2E3E48" stroke-width="1" stroke-miterlimit="10"/>
<path d="M6.77002 55.8699C6.77002 56.5599 6.22003 57.1099 5.53003 57.1099C4.84003 57.1099 4.29004 56.5599 4.29004 55.8699C4.29004 55.1799 4.85003 54.6299 5.53003 54.6299C6.21003 54.6299 6.77002 55.1799 6.77002 55.8699Z" stroke="#2E3E48" stroke-width="1" stroke-miterlimit="10"/>
</svg>
