<svg width="120" height="101" viewBox="0 0 120 101" fill="none" xmlns="http://www.w3.org/2000/svg">
<path d="M102.84 67.3999H18V93.8699H102.84V67.3999Z" stroke="#2E3E48" stroke-width="3" stroke-miterlimit="10"/>
<path d="M30.1201 67.3999V93.8799" stroke="#2E3E48" stroke-width="3" stroke-miterlimit="10"/>
<path d="M42.24 67.3999V93.8799" stroke="#2E3E48" stroke-width="3" stroke-miterlimit="10"/>
<path d="M54.3599 67.3999V93.8799" stroke="#2E3E48" stroke-width="3" stroke-miterlimit="10"/>
<path d="M66.48 67.3999V93.8799" stroke="#2E3E48" stroke-width="3" stroke-miterlimit="10"/>
<path d="M78.5898 67.3999V93.8799" stroke="#2E3E48" stroke-width="3" stroke-miterlimit="10"/>
<path d="M90.71 67.3999V93.8799" stroke="#2E3E48" stroke-width="3" stroke-miterlimit="10"/>
<path d="M32.6101 67.3999H27.6201V84.3299H32.6101V67.3999Z" fill="#2E3E48"/>
<path d="M44.73 67.3999H39.74V84.3299H44.73V67.3999Z" fill="#2E3E48"/>
<path d="M56.8499 67.3999H51.8599V84.3299H56.8499V67.3999Z" fill="#2E3E48"/>
<path d="M81.0901 67.3999H76.1001V84.3299H81.0901V67.3999Z" fill="#2E3E48"/>
<path d="M93.21 67.3999H88.22V84.3299H93.21V67.3999Z" fill="#2E3E48"/>
<path d="M18 67.66V56.57C18 50.08 22.98 40.54 36.85 40.54C46.81 40.54 51.9301 34.74 51.9301 29.6C51.9301 21.67 58.39 8 77.52 8C96.65 8 102.84 22.34 102.84 30.45V67.65H18V67.66Z" stroke="#2E3E48" stroke-width="3" stroke-miterlimit="10"/>
</svg>
