<svg width="45" height="50" viewBox="0 0 45 50" fill="none" xmlns="http://www.w3.org/2000/svg">
  <path d="M39.2949 9.13827C38.9118 9.1377 38.5293 9.17577 38.1539 9.2519V8.52235C38.1537 7.62623 37.9408 6.74288 37.5325 5.94435C37.124 5.14582 36.5321 4.45477 35.8043 3.9276C35.0768 3.40044 34.2343 3.0521 33.3459 2.91098C32.4573 2.76989 31.5479 2.84003 30.6917 3.11571C30.2154 2.17854 29.4875 1.39122 28.5888 0.84119C27.6904 0.291185 26.6564 0 25.6016 0C24.5469 0 23.5129 0.291185 22.6142 0.84119C21.7158 1.39122 20.9878 2.17854 20.5116 3.11571C19.6555 2.84048 18.7463 2.77066 17.8581 2.91198C16.9698 3.05328 16.1277 3.40171 15.4004 3.92883C14.6731 4.45595 14.0812 5.14684 13.673 5.94512C13.2648 6.74343 13.0519 7.6265 13.0516 8.52235L13.2656 25.3548L11.9106 23.342C11.5322 22.6677 11.0218 22.0759 10.4096 21.6016C9.79736 21.1272 9.09577 20.78 8.34638 20.5806C7.59701 20.3814 6.81507 20.3338 6.04692 20.441C5.27876 20.5481 4.54 20.8077 3.8744 21.2043L1.48329 22.4272C0.842293 22.7573 0.357705 23.3254 0.134499 24.0089C-0.088683 24.6923 -0.0324767 25.4357 0.290932 26.0782L6.4337 38.2301C8.47664 41.8011 11.4313 44.7706 14.9981 46.8375C18.5649 48.9045 22.6172 49.9957 26.7438 50C31.584 49.9945 36.2242 48.077 39.6468 44.6686C43.0692 41.2599 44.9945 36.6385 45 31.818V14.8201C44.9984 13.3137 44.3969 11.8694 43.3273 10.8042C42.2577 9.73895 40.8075 9.13983 39.2949 9.13827ZM40.4359 31.818C40.4318 35.4335 38.988 38.8997 36.4212 41.4561C33.8543 44.0124 30.374 45.4506 26.7438 45.4545C23.4417 45.4556 20.1975 44.5902 17.3381 42.9456C14.4787 41.3008 12.1047 38.9349 10.4553 36.086L5.18383 25.6457L5.96383 25.2461C6.44702 24.9961 7.00658 24.9352 7.53263 25.075C8.05871 25.2148 8.51331 25.5455 8.80723 26.0018L13.1451 32.688C13.4103 33.0417 13.7669 33.3169 14.1768 33.4846C14.5867 33.6526 15.0346 33.7062 15.4728 33.6405L15.4856 33.7114C17.3896 33.2823 19.3796 33.4403 21.1911 34.1646C23.0028 34.889 24.5501 36.1453 25.6276 37.7665L29.5899 35.5165C28.3154 33.5039 26.5475 31.8478 24.4526 30.7041C22.3575 29.5605 20.0047 28.9671 17.6156 28.9798V8.52235C17.6156 8.22096 17.7359 7.93191 17.9498 7.71882C18.1638 7.5057 18.454 7.38598 18.7566 7.38598C19.0593 7.38598 19.3495 7.5057 19.5635 7.71882C19.7775 7.93191 19.8977 8.22096 19.8977 8.52235V22.7625H24.4617V5.68142C24.4617 5.38003 24.582 5.09098 24.7958 4.87789C25.0099 4.66477 25.3002 4.54504 25.6028 4.54504C25.9054 4.54504 26.1956 4.66477 26.4095 4.87789C26.6235 5.09098 26.7438 5.38003 26.7438 5.68142V22.7625H31.3078V8.52235C31.3078 8.22096 31.4281 7.93191 31.6419 7.71882C31.856 7.5057 32.1462 7.38598 32.4488 7.38598C32.7514 7.38598 33.0417 7.5057 33.2555 7.71882C33.4696 7.93191 33.5899 8.22096 33.5899 8.52235V24.9998H38.1539V14.8201C38.1539 14.5187 38.2742 14.2297 38.488 14.0166C38.7021 13.8035 38.9923 13.6838 39.2949 13.6838C39.5975 13.6838 39.8878 13.8035 40.1016 14.0166C40.3157 14.2297 40.4359 14.5187 40.4359 14.8201V31.818Z" fill="#343E47"/>
  </svg>
  