<svg width="49" height="48" viewBox="0 0 49 48" fill="none" xmlns="http://www.w3.org/2000/svg">
<circle cx="24.5" cy="23" r="16" fill="white"/>
<path d="M33.6829 15.0601C33.6919 15.0601 33.7039 15.0601 33.7159 15.0601C34.0294 15.0601 34.3204 15.1576 34.5589 15.3256L34.5544 15.3226C34.7284 15.4741 34.8454 15.6871 34.8739 15.9271V15.9316C34.9039 16.1146 34.9204 16.3246 34.9204 16.5391C34.9204 16.6366 34.9174 16.7326 34.9099 16.8286V16.8151C34.5724 20.3686 33.1084 28.9861 32.3644 32.9641C32.0494 34.6486 31.4299 35.2126 30.8299 35.2666C29.5264 35.3881 28.5364 34.4056 27.2734 33.5776C25.2964 32.2801 24.1789 31.4731 22.2604 30.2086C20.0419 28.7491 21.4804 27.9436 22.7434 26.6326C23.0749 26.2876 28.8214 21.0601 28.9339 20.5861C28.9399 20.5576 28.9429 20.5261 28.9429 20.4931C28.9429 20.3761 28.8994 20.2696 28.8289 20.1886C28.7509 20.1376 28.6534 20.1091 28.5514 20.1091C28.4839 20.1091 28.4194 20.1226 28.3594 20.1451L28.3624 20.1436C28.1644 20.1886 25.0064 22.2756 18.8884 26.4046C18.2209 26.9311 17.3779 27.2641 16.4599 27.3031H16.4509C15.1504 27.1456 13.9699 26.8561 12.8494 26.4436L12.9604 26.4796C11.5534 26.0206 10.4359 25.7791 10.5319 25.0021C10.5829 24.5981 11.1399 24.1846 12.2029 23.7616C18.7509 20.9086 23.1174 19.0281 25.3024 18.1201C27.7129 16.8406 30.5074 15.7876 33.4459 15.1051L33.6814 15.0586L33.6829 15.0601ZM24.3949 1.5376C11.9419 1.5676 1.85742 11.6701 1.85742 24.1276C1.85742 36.6031 11.9704 46.7176 24.4474 46.7176C36.9244 46.7176 47.0374 36.6046 47.0374 24.1276C47.0374 11.6701 36.9529 1.5676 24.5029 1.5376H24.4999C24.4649 1.5376 24.4299 1.5376 24.3949 1.5376Z" fill="#D0B787"/>
</svg>
