<svg width="49" height="48" viewBox="0 0 49 48" fill="none" xmlns="http://www.w3.org/2000/svg">
<g clip-path="url(#clip0_2001_1459)">
<path d="M37.5216 2H12.2094C7.12317 2 3 6.12318 3 11.2094V36.5216C3 41.6078 7.12318 45.731 12.2094 45.731H37.5216C42.6078 45.731 46.731 41.6078 46.731 36.5216V11.2094C46.731 6.12317 42.6078 2 37.5216 2Z" fill="#D0B787"/>
<path d="M9.37549 38.9946L11.5176 31.3867C10.1401 29.0465 9.41483 26.384 9.41483 23.6488C9.41483 15.2271 16.2664 8.37549 24.6882 8.37549C33.1099 8.37549 39.9614 15.2271 39.9614 23.6488C39.9614 32.0706 33.1099 38.9221 24.6882 38.9221C22.064 38.9221 19.4944 38.2504 17.2213 36.975L9.37549 38.9946ZM17.6224 34.1963L18.0899 34.4818C20.0718 35.6917 22.3535 36.3313 24.6882 36.3313C31.6813 36.3313 37.3705 30.6419 37.3705 23.6488C37.3705 16.6557 31.6813 10.9664 24.6882 10.9664C17.695 10.9664 12.0057 16.6557 12.0057 23.6488C12.0057 26.0855 12.6982 28.4517 14.0082 30.4917L14.3231 30.9819L13.0895 35.3632L17.6224 34.1963Z" fill="white"/>
<path d="M20.3979 16.5402L19.4068 16.4862C19.0955 16.4692 18.7902 16.5732 18.5549 16.7776C18.0744 17.1948 17.3062 18.0014 17.0702 19.0526C16.7184 20.6198 17.2621 22.539 18.6696 24.4582C20.077 26.3773 22.6998 29.448 27.3377 30.7594C28.8323 31.182 30.0079 30.8971 30.915 30.3169C31.6335 29.8573 32.1287 29.1197 32.3072 28.2858L32.4654 27.5468C32.5157 27.3119 32.3964 27.0735 32.1782 26.9729L28.8288 25.4291C28.6114 25.3289 28.3535 25.3922 28.2073 25.5817L26.8924 27.2863C26.7931 27.4151 26.623 27.4662 26.4695 27.4122C25.569 27.0958 22.5527 25.8325 20.8976 22.6444C20.8258 22.5061 20.8437 22.3383 20.9455 22.2203L22.2022 20.7666C22.3305 20.6181 22.363 20.4094 22.2858 20.229L20.8421 16.8512C20.7652 16.6714 20.5929 16.5508 20.3979 16.5402Z" fill="white"/>
</g>
<defs>
<clipPath id="clip0_2001_1459">
<rect width="43.731" height="43.731" fill="white" transform="translate(3 2)"/>
</clipPath>
</defs>
</svg>
