<svg width="365" height="100" viewBox="0 0 365 100" fill="none" xmlns="http://www.w3.org/2000/svg">
<rect width="365" height="100" rx="3" fill="#FFE55F"/>
<path d="M103.394 28.948C104.421 29.1387 105.249 29.5127 105.88 30.07C106.525 30.6127 106.848 31.4487 106.848 32.578C106.848 34.1767 106.276 35.3133 105.132 35.988C103.988 36.6627 102.397 37 100.358 37H95.606V21.776H99.764C101.847 21.776 103.438 22.084 104.538 22.7C105.638 23.316 106.188 24.306 106.188 25.67C106.188 26.5647 105.917 27.2907 105.374 27.848C104.846 28.3907 104.186 28.7573 103.394 28.948ZM98.84 24.108V27.958H100.424C101.216 27.958 101.825 27.7967 102.25 27.474C102.675 27.1367 102.888 26.6307 102.888 25.956C102.888 25.2813 102.661 24.8047 102.206 24.526C101.751 24.2473 101.04 24.108 100.072 24.108H98.84ZM100.38 34.602C101.392 34.602 102.162 34.4553 102.69 34.162C103.218 33.854 103.482 33.282 103.482 32.446C103.482 30.9207 102.543 30.158 100.666 30.158H98.84V34.602H100.38ZM112.969 28.992C114.817 28.992 116.166 29.3367 117.017 30.026C117.882 30.7007 118.315 31.6907 118.315 32.996C118.315 34.3013 117.86 35.2987 116.951 35.988C116.056 36.6627 114.89 37 113.453 37H109.075V25.34H112.199V28.992H112.969ZM119.481 25.34H122.605V37H119.481V25.34ZM113.145 34.888C114.45 34.888 115.103 34.2427 115.103 32.952C115.103 32.3067 114.942 31.83 114.619 31.522C114.296 31.214 113.739 31.06 112.947 31.06H112.199V34.888H113.145ZM129.203 24.988C130.464 24.988 131.52 25.2813 132.371 25.868C133.236 26.44 133.669 27.2173 133.669 28.2C133.669 28.86 133.463 29.4027 133.053 29.828C132.642 30.2533 132.011 30.5687 131.161 30.774C132.202 30.9353 132.979 31.2433 133.493 31.698C134.006 32.138 134.263 32.776 134.263 33.612C134.263 34.8293 133.771 35.7607 132.789 36.406C131.821 37.0367 130.545 37.352 128.961 37.352C127.098 37.352 125.536 36.8753 124.275 35.922L125.771 34.162C126.299 34.4993 126.79 34.7413 127.245 34.888C127.714 35.02 128.249 35.086 128.851 35.086C130.288 35.086 131.007 34.5507 131.007 33.48C131.007 32.9667 130.809 32.6 130.413 32.38C130.031 32.1453 129.474 32.028 128.741 32.028H126.981L127.179 29.938H128.499C129.129 29.938 129.621 29.8207 129.973 29.586C130.325 29.3367 130.501 28.97 130.501 28.486C130.501 28.046 130.339 27.7233 130.017 27.518C129.709 27.298 129.291 27.188 128.763 27.188C128.235 27.188 127.765 27.2613 127.355 27.408C126.959 27.54 126.541 27.7453 126.101 28.024L124.649 26.33C125.294 25.8753 125.983 25.538 126.717 25.318C127.45 25.098 128.279 24.988 129.203 24.988ZM143.57 30.62C145.55 30.84 146.54 31.7787 146.54 33.436C146.54 34.6387 146.078 35.5333 145.154 36.12C144.23 36.7067 142.976 37 141.392 37H136.64V25.472C138.282 25.1493 139.756 24.988 141.062 24.988C142.602 24.988 143.812 25.2593 144.692 25.802C145.572 26.33 146.012 27.1147 146.012 28.156C146.012 28.816 145.799 29.3587 145.374 29.784C144.963 30.1947 144.362 30.4733 143.57 30.62ZM141.018 27.056C140.622 27.056 140.204 27.078 139.764 27.122V29.938H141.216C141.744 29.938 142.154 29.8207 142.448 29.586C142.756 29.3513 142.91 28.9847 142.91 28.486C142.91 28.002 142.748 27.6427 142.426 27.408C142.118 27.1733 141.648 27.056 141.018 27.056ZM141.326 34.888C142.66 34.888 143.328 34.3307 143.328 33.216C143.328 32.7027 143.166 32.3213 142.844 32.072C142.536 31.8227 142.037 31.698 141.348 31.698H139.764V34.888H141.326ZM157.602 33.766C157.602 34.2207 157.668 34.558 157.8 34.778C157.932 34.9833 158.152 35.1373 158.46 35.24L157.8 37.308C157.111 37.2493 156.546 37.088 156.106 36.824C155.681 36.56 155.351 36.1493 155.116 35.592C154.354 36.7653 153.188 37.352 151.618 37.352C150.46 37.352 149.536 37.022 148.846 36.362C148.172 35.6873 147.834 34.8147 147.834 33.744C147.834 32.468 148.296 31.4927 149.22 30.818C150.144 30.1433 151.472 29.806 153.202 29.806H154.544V29.234C154.544 28.5153 154.383 28.0167 154.06 27.738C153.738 27.4593 153.202 27.32 152.454 27.32C151.633 27.32 150.606 27.5253 149.374 27.936L148.67 25.846C150.122 25.274 151.56 24.988 152.982 24.988C154.566 24.988 155.732 25.3327 156.48 26.022C157.228 26.6967 157.602 27.7087 157.602 29.058V33.766ZM152.476 35.108C153.356 35.108 154.046 34.6753 154.544 33.81V31.588H153.51C151.824 31.588 150.98 32.2187 150.98 33.48C150.98 33.9933 151.105 34.3967 151.354 34.69C151.618 34.9687 151.992 35.108 152.476 35.108ZM169.138 25.34L168.742 27.694H165.442V37H162.318V27.694H158.82V25.34H169.138ZM174.677 28.992C176.525 28.992 177.875 29.3367 178.725 30.026C179.591 30.7007 180.023 31.6907 180.023 32.996C180.023 34.3013 179.569 35.2987 178.659 35.988C177.765 36.6627 176.599 37 175.161 37H170.563V25.34H173.687V28.992H174.677ZM174.853 34.888C176.159 34.888 176.811 34.2427 176.811 32.952C176.811 32.3067 176.65 31.83 176.327 31.522C176.005 31.214 175.447 31.06 174.655 31.06H173.687V34.888H174.853ZM196.251 25.34L195.855 27.694H192.555V37H189.431V27.694H185.933V25.34H196.251ZM205.706 33.766C205.706 34.2207 205.772 34.558 205.904 34.778C206.036 34.9833 206.256 35.1373 206.564 35.24L205.904 37.308C205.215 37.2493 204.65 37.088 204.21 36.824C203.785 36.56 203.455 36.1493 203.22 35.592C202.457 36.7653 201.291 37.352 199.722 37.352C198.563 37.352 197.639 37.022 196.95 36.362C196.275 35.6873 195.938 34.8147 195.938 33.744C195.938 32.468 196.4 31.4927 197.324 30.818C198.248 30.1433 199.575 29.806 201.306 29.806H202.648V29.234C202.648 28.5153 202.487 28.0167 202.164 27.738C201.841 27.4593 201.306 27.32 200.558 27.32C199.737 27.32 198.71 27.5253 197.478 27.936L196.774 25.846C198.226 25.274 199.663 24.988 201.086 24.988C202.67 24.988 203.836 25.3327 204.584 26.022C205.332 26.6967 205.706 27.7087 205.706 29.058V33.766ZM200.58 35.108C201.46 35.108 202.149 34.6753 202.648 33.81V31.588H201.614C199.927 31.588 199.084 32.2187 199.084 33.48C199.084 33.9933 199.209 34.3967 199.458 34.69C199.722 34.9687 200.096 35.108 200.58 35.108ZM218.881 25.34L215.669 30.752L219.189 37H215.823L213.117 31.896H211.951V37H208.827V25.34H211.951V29.916H213.183L215.801 25.34H218.881ZM225.334 24.988C226.111 24.988 226.808 25.1053 227.424 25.34C228.054 25.56 228.648 25.912 229.206 26.396L227.842 28.244C227.46 27.9507 227.086 27.738 226.72 27.606C226.368 27.474 225.979 27.408 225.554 27.408C223.896 27.408 223.068 28.684 223.068 31.236C223.068 32.5267 223.28 33.4507 223.706 34.008C224.131 34.5653 224.74 34.844 225.532 34.844C225.942 34.844 226.316 34.7853 226.654 34.668C226.991 34.536 227.387 34.3233 227.842 34.03L229.206 35.988C228.091 36.8973 226.815 37.352 225.378 37.352C224.234 37.352 223.236 37.1027 222.386 36.604C221.55 36.1053 220.904 35.4013 220.45 34.492C219.995 33.568 219.768 32.49 219.768 31.258C219.768 30.026 219.995 28.9407 220.45 28.002C220.904 27.0487 221.55 26.308 222.386 25.78C223.236 25.252 224.219 24.988 225.334 24.988ZM240.944 37H237.952V32.578C237.952 31.742 237.996 30.95 238.084 30.202C238.172 29.454 238.267 28.86 238.37 28.42L234.234 37H230.978V25.34H233.97V29.806C233.97 30.598 233.926 31.3827 233.838 32.16C233.764 32.9227 233.676 33.5093 233.574 33.92L237.644 25.34H240.944V37Z" fill="#313E47"/>
<path d="M101.546 64.022C101.077 65.5033 100.336 66.6473 99.324 67.454C98.3267 68.2607 96.97 68.7227 95.254 68.84L94.924 66.596C96.0387 66.4493 96.8527 66.1853 97.366 65.804C97.894 65.4227 98.3267 64.8213 98.664 64H97.586L93.956 52.34H97.278L99.61 61.976L102.074 52.34H105.308L101.546 64.022ZM115.98 52.34V64H112.856V54.672H110.282L110.04 57.51C109.893 59.182 109.71 60.436 109.49 61.272C109.284 62.0933 108.925 62.7387 108.412 63.208C107.913 63.6627 107.15 64.0147 106.124 64.264L105.376 61.976C105.86 61.7707 106.204 61.5433 106.41 61.294C106.615 61.03 106.762 60.6267 106.85 60.084C106.952 59.5413 107.048 58.6173 107.136 57.312L107.51 52.34H115.98ZM129.031 64H126.039V59.578C126.039 58.742 126.083 57.95 126.171 57.202C126.259 56.454 126.355 55.86 126.457 55.42L122.321 64H119.065V52.34H122.057V56.806C122.057 57.598 122.013 58.3827 121.925 59.16C121.852 59.9227 121.764 60.5093 121.661 60.92L125.731 52.34H129.031V64ZM141.764 61.668H143.524V67.564H141.302L140.928 64H132.106V52.34H135.23V61.646H138.64V52.34H141.764V61.668ZM154.036 60.766C154.036 61.2207 154.102 61.558 154.234 61.778C154.366 61.9833 154.586 62.1373 154.894 62.24L154.234 64.308C153.545 64.2493 152.98 64.088 152.54 63.824C152.115 63.56 151.785 63.1493 151.55 62.592C150.787 63.7653 149.621 64.352 148.052 64.352C146.893 64.352 145.969 64.022 145.28 63.362C144.605 62.6873 144.268 61.8147 144.268 60.744C144.268 59.468 144.73 58.4927 145.654 57.818C146.578 57.1433 147.905 56.806 149.636 56.806H150.978V56.234C150.978 55.5153 150.817 55.0167 150.494 54.738C150.171 54.4593 149.636 54.32 148.888 54.32C148.067 54.32 147.04 54.5253 145.808 54.936L145.104 52.846C146.556 52.274 147.993 51.988 149.416 51.988C151 51.988 152.166 52.3327 152.914 53.022C153.662 53.6967 154.036 54.7087 154.036 56.058V60.766ZM148.91 62.108C149.79 62.108 150.479 61.6753 150.978 60.81V58.588H149.944C148.257 58.588 147.414 59.2187 147.414 60.48C147.414 60.9933 147.539 61.3967 147.788 61.69C148.052 61.9687 148.426 62.108 148.91 62.108ZM170.382 55.948C171.409 56.1387 172.238 56.5127 172.868 57.07C173.514 57.6127 173.836 58.4487 173.836 59.578C173.836 61.1767 173.264 62.3133 172.12 62.988C170.976 63.6627 169.385 64 167.346 64H162.594V48.776H166.752C168.835 48.776 170.426 49.084 171.526 49.7C172.626 50.316 173.176 51.306 173.176 52.67C173.176 53.5647 172.905 54.2907 172.362 54.848C171.834 55.3907 171.174 55.7573 170.382 55.948ZM165.828 51.108V54.958H167.412C168.204 54.958 168.813 54.7967 169.238 54.474C169.664 54.1367 169.876 53.6307 169.876 52.956C169.876 52.2813 169.649 51.8047 169.194 51.526C168.74 51.2473 168.028 51.108 167.06 51.108H165.828ZM167.368 61.602C168.38 61.602 169.15 61.4553 169.678 61.162C170.206 60.854 170.47 60.282 170.47 59.446C170.47 57.9207 169.532 57.158 167.654 57.158H165.828V61.602H167.368ZM184.973 60.766C184.973 61.2207 185.039 61.558 185.171 61.778C185.303 61.9833 185.523 62.1373 185.831 62.24L185.171 64.308C184.482 64.2493 183.917 64.088 183.477 63.824C183.052 63.56 182.722 63.1493 182.487 62.592C181.725 63.7653 180.559 64.352 178.989 64.352C177.831 64.352 176.907 64.022 176.217 63.362C175.543 62.6873 175.205 61.8147 175.205 60.744C175.205 59.468 175.667 58.4927 176.591 57.818C177.515 57.1433 178.843 56.806 180.573 56.806H181.915V56.234C181.915 55.5153 181.754 55.0167 181.431 54.738C181.109 54.4593 180.573 54.32 179.825 54.32C179.004 54.32 177.977 54.5253 176.745 54.936L176.041 52.846C177.493 52.274 178.931 51.988 180.353 51.988C181.937 51.988 183.103 52.3327 183.851 53.022C184.599 53.6967 184.973 54.7087 184.973 56.058V60.766ZM179.847 62.108C180.727 62.108 181.417 61.6753 181.915 60.81V58.588H180.881C179.195 58.588 178.351 59.2187 178.351 60.48C178.351 60.9933 178.476 61.3967 178.725 61.69C178.989 61.9687 179.363 62.108 179.847 62.108ZM195.025 57.62C197.005 57.84 197.995 58.7787 197.995 60.436C197.995 61.6387 197.533 62.5333 196.609 63.12C195.685 63.7067 194.431 64 192.847 64H188.095V52.472C189.737 52.1493 191.211 51.988 192.517 51.988C194.057 51.988 195.267 52.2593 196.147 52.802C197.027 53.33 197.467 54.1147 197.467 55.156C197.467 55.816 197.254 56.3587 196.829 56.784C196.418 57.1947 195.817 57.4733 195.025 57.62ZM192.473 54.056C192.077 54.056 191.659 54.078 191.219 54.122V56.938H192.671C193.199 56.938 193.609 56.8207 193.903 56.586C194.211 56.3513 194.365 55.9847 194.365 55.486C194.365 55.002 194.203 54.6427 193.881 54.408C193.573 54.1733 193.103 54.056 192.473 54.056ZM192.781 61.888C194.115 61.888 194.783 61.3307 194.783 60.216C194.783 59.7027 194.621 59.3213 194.299 59.072C193.991 58.8227 193.492 58.698 192.803 58.698H191.219V61.888H192.781ZM210.328 64H207.336V59.578C207.336 58.742 207.38 57.95 207.468 57.202C207.556 56.454 207.652 55.86 207.754 55.42L203.618 64H200.362V52.34H203.354V56.806C203.354 57.598 203.31 58.3827 203.222 59.16C203.149 59.9227 203.061 60.5093 202.958 60.92L207.028 52.34H210.328V64ZM222.907 52.34V64H219.783V54.672H217.209L216.967 57.51C216.821 59.182 216.637 60.436 216.417 61.272C216.212 62.0933 215.853 62.7387 215.339 63.208C214.841 63.6627 214.078 64.0147 213.051 64.264L212.303 61.976C212.787 61.7707 213.132 61.5433 213.337 61.294C213.543 61.03 213.689 60.6267 213.777 60.084C213.88 59.5413 213.975 58.6173 214.063 57.312L214.437 52.34H222.907ZM230.899 51.988C232.644 51.988 234.008 52.538 234.991 53.638C235.974 54.7233 236.465 56.234 236.465 58.17C236.465 59.402 236.238 60.4873 235.783 61.426C235.343 62.35 234.698 63.0687 233.847 63.582C233.011 64.0953 232.021 64.352 230.877 64.352C229.132 64.352 227.76 63.8093 226.763 62.724C225.78 61.624 225.289 60.106 225.289 58.17C225.289 56.938 225.509 55.86 225.949 54.936C226.404 53.9973 227.049 53.2713 227.885 52.758C228.736 52.2447 229.74 51.988 230.899 51.988ZM230.899 54.32C230.107 54.32 229.513 54.6353 229.117 55.266C228.736 55.882 228.545 56.85 228.545 58.17C228.545 59.49 228.736 60.4653 229.117 61.096C229.513 61.712 230.1 62.02 230.877 62.02C231.654 62.02 232.234 61.712 232.615 61.096C233.011 60.4653 233.209 59.49 233.209 58.17C233.209 56.85 233.018 55.882 232.637 55.266C232.256 54.6353 231.676 54.32 230.899 54.32ZM245.771 57.62C247.751 57.84 248.741 58.7787 248.741 60.436C248.741 61.6387 248.279 62.5333 247.355 63.12C246.431 63.7067 245.177 64 243.593 64H238.841V52.472C240.483 52.1493 241.957 51.988 243.263 51.988C244.803 51.988 246.013 52.2593 246.893 52.802C247.773 53.33 248.213 54.1147 248.213 55.156C248.213 55.816 248 56.3587 247.575 56.784C247.164 57.1947 246.563 57.4733 245.771 57.62ZM243.219 54.056C242.823 54.056 242.405 54.078 241.965 54.122V56.938H243.417C243.945 56.938 244.355 56.8207 244.649 56.586C244.957 56.3513 245.111 55.9847 245.111 55.486C245.111 55.002 244.949 54.6427 244.627 54.408C244.319 54.1733 243.849 54.056 243.219 54.056ZM243.527 61.888C244.861 61.888 245.529 61.3307 245.529 60.216C245.529 59.7027 245.367 59.3213 245.045 59.072C244.737 58.8227 244.238 58.698 243.549 58.698H241.965V61.888H243.527ZM259.804 60.766C259.804 61.2207 259.87 61.558 260.002 61.778C260.134 61.9833 260.354 62.1373 260.662 62.24L260.002 64.308C259.312 64.2493 258.748 64.088 258.308 63.824C257.882 63.56 257.552 63.1493 257.318 62.592C256.555 63.7653 255.389 64.352 253.82 64.352C252.661 64.352 251.737 64.022 251.048 63.362C250.373 62.6873 250.036 61.8147 250.036 60.744C250.036 59.468 250.498 58.4927 251.422 57.818C252.346 57.1433 253.673 56.806 255.404 56.806H256.746V56.234C256.746 55.5153 256.584 55.0167 256.262 54.738C255.939 54.4593 255.404 54.32 254.656 54.32C253.834 54.32 252.808 54.5253 251.576 54.936L250.872 52.846C252.324 52.274 253.761 51.988 255.184 51.988C256.768 51.988 257.934 52.3327 258.682 53.022C259.43 53.6967 259.804 54.7087 259.804 56.058V60.766ZM254.678 62.108C255.558 62.108 256.247 61.6753 256.746 60.81V58.588H255.712C254.025 58.588 253.182 59.2187 253.182 60.48C253.182 60.9933 253.306 61.3967 253.556 61.69C253.82 61.9687 254.194 62.108 254.678 62.108ZM264.003 60.59C264.545 60.59 264.993 60.7733 265.345 61.14C265.711 61.492 265.895 61.932 265.895 62.46C265.895 62.7533 265.843 63.0613 265.741 63.384C265.653 63.692 265.499 64.1027 265.279 64.616L263.849 67.828H262.023L262.947 64C262.697 63.8387 262.499 63.626 262.353 63.362C262.206 63.0833 262.133 62.7827 262.133 62.46C262.133 61.932 262.309 61.492 262.661 61.14C263.027 60.7733 263.475 60.59 264.003 60.59ZM281.853 51.438H276.375V54.848C277.094 54.5107 277.842 54.342 278.619 54.342C279.44 54.342 280.166 54.5327 280.797 54.914C281.442 55.2953 281.948 55.8527 282.315 56.586C282.682 57.3047 282.865 58.1553 282.865 59.138C282.865 60.1647 282.63 61.074 282.161 61.866C281.692 62.6433 281.024 63.252 280.159 63.692C279.308 64.132 278.318 64.352 277.189 64.352C275.282 64.352 273.684 63.6333 272.393 62.196L274.153 60.546C274.974 61.4847 275.957 61.954 277.101 61.954C277.908 61.954 278.531 61.712 278.971 61.228C279.426 60.744 279.653 60.0473 279.653 59.138C279.653 57.3927 278.905 56.52 277.409 56.52C277.086 56.52 276.778 56.564 276.485 56.652C276.206 56.7253 275.898 56.8573 275.561 57.048H273.383V49.172H282.227L281.853 51.438ZM292.743 49.172V51.328L287.287 64.33L284.449 63.384L289.509 51.548H283.393V49.172H292.743ZM302.195 64L301.337 60.59H296.563L295.705 64H292.339L297.025 48.776H300.963L305.627 64H302.195ZM297.179 58.192H300.721L298.939 51.174L297.179 58.192Z" fill="#8C8C8C"/>
<path d="M342 0H362C363.657 0 365 1.34315 365 3V21H342V0Z" fill="#DA8400"/>
<rect x="18" y="23" width="54" height="54" rx="5" fill="#FFBE06"/>
<path d="M18 54C18 51.2386 20.2386 49 23 49H72V72C72 74.7614 69.7614 77 67 77H23C20.2386 77 18 74.7614 18 72V54Z" fill="#292A2C"/>
<path d="M18 49H45V77H23C20.2386 77 18 74.7614 18 72V49Z" fill="#E9EDED"/>
</svg>
