<svg width="212" height="46" viewBox="0 0 212 46" fill="none" xmlns="http://www.w3.org/2000/svg">
<rect width="212" height="46" rx="3" fill="#FFE55F"/>
<path d="M60.5752 17.2959C61.2285 17.4173 61.7558 17.6553 62.1572 18.0099C62.5678 18.3553 62.7732 18.8873 62.7732 19.6059C62.7732 20.6233 62.4092 21.3466 61.6812 21.7759C60.9532 22.2053 59.9405 22.4199 58.6432 22.4199H55.6192V12.7319H58.2652C59.5905 12.7319 60.6032 12.9279 61.3032 13.3199C62.0032 13.7119 62.3532 14.3419 62.3532 15.2099C62.3532 15.7793 62.1805 16.2413 61.8352 16.5959C61.4992 16.9413 61.0792 17.1746 60.5752 17.2959ZM57.6772 14.2159V16.6659H58.6852C59.1892 16.6659 59.5765 16.5633 59.8472 16.3579C60.1178 16.1433 60.2532 15.8213 60.2532 15.3919C60.2532 14.9626 60.1085 14.6593 59.8192 14.4819C59.5298 14.3046 59.0772 14.2159 58.4612 14.2159H57.6772ZM58.6572 20.8939C59.3012 20.8939 59.7912 20.8006 60.1272 20.6139C60.4632 20.4179 60.6312 20.0539 60.6312 19.5219C60.6312 18.5513 60.0338 18.0659 58.8392 18.0659H57.6772V20.8939H58.6572ZM66.6684 17.3239C67.8444 17.3239 68.7031 17.5433 69.2444 17.9819C69.7951 18.4113 70.0704 19.0413 70.0704 19.8719C70.0704 20.7026 69.7811 21.3373 69.2024 21.7759C68.6331 22.2053 67.8911 22.4199 66.9764 22.4199H64.1904V14.9999H66.1784V17.3239H66.6684ZM70.8124 14.9999H72.8005V22.4199H70.8124V14.9999ZM66.7804 21.0759C67.6111 21.0759 68.0264 20.6653 68.0264 19.8439C68.0264 19.4333 67.9238 19.1299 67.7184 18.9339C67.5131 18.7379 67.1584 18.6399 66.6544 18.6399H66.1784V21.0759H66.7804ZM76.9988 14.7759C77.8015 14.7759 78.4735 14.9626 79.0148 15.3359C79.5655 15.6999 79.8408 16.1946 79.8408 16.8199C79.8408 17.2399 79.7101 17.5853 79.4488 17.8559C79.1875 18.1266 78.7861 18.3273 78.2448 18.4579C78.9075 18.5606 79.4021 18.7566 79.7288 19.0459C80.0555 19.3259 80.2188 19.7319 80.2188 20.2639C80.2188 21.0386 79.9061 21.6313 79.2808 22.0419C78.6648 22.4433 77.8528 22.6439 76.8448 22.6439C75.6595 22.6439 74.6655 22.3406 73.8628 21.7339L74.8148 20.6139C75.1508 20.8286 75.4635 20.9826 75.7528 21.0759C76.0515 21.1599 76.3921 21.2019 76.7748 21.2019C77.6895 21.2019 78.1468 20.8613 78.1468 20.1799C78.1468 19.8533 78.0208 19.6199 77.7688 19.4799C77.5261 19.3306 77.1715 19.2559 76.7048 19.2559H75.5848L75.7108 17.9259H76.5508C76.9521 17.9259 77.2648 17.8513 77.4888 17.7019C77.7128 17.5433 77.8248 17.3099 77.8248 17.0019C77.8248 16.7219 77.7221 16.5166 77.5168 16.3859C77.3208 16.2459 77.0548 16.1759 76.7188 16.1759C76.3828 16.1759 76.0841 16.2226 75.8228 16.3159C75.5708 16.3999 75.3048 16.5306 75.0248 16.7079L74.1008 15.6299C74.5115 15.3406 74.9501 15.1259 75.4168 14.9859C75.8835 14.8459 76.4108 14.7759 76.9988 14.7759ZM86.1415 18.3599C87.4015 18.4999 88.0315 19.0973 88.0315 20.1519C88.0315 20.9173 87.7375 21.4866 87.1495 21.8599C86.5615 22.2333 85.7635 22.4199 84.7555 22.4199H81.7315V15.0839C82.7768 14.8786 83.7148 14.7759 84.5455 14.7759C85.5255 14.7759 86.2955 14.9486 86.8555 15.2939C87.4155 15.6299 87.6955 16.1293 87.6955 16.7919C87.6955 17.2119 87.5601 17.5573 87.2895 17.8279C87.0281 18.0893 86.6455 18.2666 86.1415 18.3599ZM84.5175 16.0919C84.2655 16.0919 83.9995 16.1059 83.7195 16.1339V17.9259H84.6435C84.9795 17.9259 85.2408 17.8513 85.4275 17.7019C85.6235 17.5526 85.7215 17.3193 85.7215 17.0019C85.7215 16.6939 85.6188 16.4653 85.4135 16.3159C85.2175 16.1666 84.9188 16.0919 84.5175 16.0919ZM84.7135 21.0759C85.5628 21.0759 85.9875 20.7213 85.9875 20.0119C85.9875 19.6853 85.8848 19.4426 85.6795 19.2839C85.4835 19.1253 85.1661 19.0459 84.7275 19.0459H83.7195V21.0759H84.7135ZM95.0714 20.3619C95.0714 20.6513 95.1134 20.8659 95.1974 21.0059C95.2814 21.1366 95.4214 21.2346 95.6174 21.2999L95.1974 22.6159C94.7587 22.5786 94.3994 22.4759 94.1194 22.3079C93.8487 22.1399 93.6387 21.8786 93.4894 21.5239C93.0041 22.2706 92.2621 22.6439 91.2634 22.6439C90.5261 22.6439 89.9381 22.4339 89.4994 22.0139C89.0701 21.5846 88.8554 21.0293 88.8554 20.3479C88.8554 19.5359 89.1494 18.9153 89.7374 18.4859C90.3254 18.0566 91.1701 17.8419 92.2714 17.8419H93.1254V17.4779C93.1254 17.0206 93.0227 16.7033 92.8174 16.5259C92.6121 16.3486 92.2714 16.2599 91.7954 16.2599C91.2727 16.2599 90.6194 16.3906 89.8354 16.6519L89.3874 15.3219C90.3114 14.9579 91.2261 14.7759 92.1314 14.7759C93.1394 14.7759 93.8814 14.9953 94.3574 15.4339C94.8334 15.8633 95.0714 16.5073 95.0714 17.3659V20.3619ZM91.8094 21.2159C92.3694 21.2159 92.8081 20.9406 93.1254 20.3899V18.9759H92.4674C91.3941 18.9759 90.8574 19.3773 90.8574 20.1799C90.8574 20.5066 90.9367 20.7633 91.0954 20.9499C91.2634 21.1273 91.5014 21.2159 91.8094 21.2159ZM102.412 14.9999L102.16 16.4979H100.06V22.4199H98.0722V16.4979H95.8462V14.9999H102.412ZM105.937 17.3239C107.113 17.3239 107.972 17.5433 108.513 17.9819C109.064 18.4113 109.339 19.0413 109.339 19.8719C109.339 20.7026 109.05 21.3373 108.471 21.7759C107.902 22.2053 107.16 22.4199 106.245 22.4199H103.319V14.9999H105.307V17.3239H105.937ZM106.049 21.0759C106.88 21.0759 107.295 20.6653 107.295 19.8439C107.295 19.4333 107.193 19.1299 106.987 18.9339C106.782 18.7379 106.427 18.6399 105.923 18.6399H105.307V21.0759H106.049ZM119.666 14.9999L119.414 16.4979H117.314V22.4199H115.326V16.4979H113.1V14.9999H119.666ZM125.683 20.3619C125.683 20.6513 125.725 20.8659 125.809 21.0059C125.893 21.1366 126.033 21.2346 126.229 21.2999L125.809 22.6159C125.37 22.5786 125.011 22.4759 124.731 22.3079C124.46 22.1399 124.25 21.8786 124.101 21.5239C123.615 22.2706 122.873 22.6439 121.875 22.6439C121.137 22.6439 120.549 22.4339 120.111 22.0139C119.681 21.5846 119.467 21.0293 119.467 20.3479C119.467 19.5359 119.761 18.9153 120.349 18.4859C120.937 18.0566 121.781 17.8419 122.883 17.8419H123.737V17.4779C123.737 17.0206 123.634 16.7033 123.429 16.5259C123.223 16.3486 122.883 16.2599 122.407 16.2599C121.884 16.2599 121.231 16.3906 120.447 16.6519L119.999 15.3219C120.923 14.9579 121.837 14.7759 122.743 14.7759C123.751 14.7759 124.493 14.9953 124.969 15.4339C125.445 15.8633 125.683 16.5073 125.683 17.3659V20.3619ZM122.421 21.2159C122.981 21.2159 123.419 20.9406 123.737 20.3899V18.9759H123.079C122.005 18.9759 121.469 19.3773 121.469 20.1799C121.469 20.5066 121.548 20.7633 121.707 20.9499C121.875 21.1273 122.113 21.2159 122.421 21.2159ZM134.067 14.9999L132.023 18.4439L134.263 22.4199H132.121L130.399 19.1719H129.657V22.4199H127.669V14.9999H129.657V17.9119H130.441L132.107 14.9999H134.067ZM138.173 14.7759C138.668 14.7759 139.111 14.8506 139.503 14.9999C139.904 15.1399 140.282 15.3639 140.637 15.6719L139.769 16.8479C139.526 16.6613 139.288 16.5259 139.055 16.4419C138.831 16.3579 138.584 16.3159 138.313 16.3159C137.258 16.3159 136.731 17.1279 136.731 18.7519C136.731 19.5733 136.866 20.1613 137.137 20.5159C137.408 20.8706 137.795 21.0479 138.299 21.0479C138.56 21.0479 138.798 21.0106 139.013 20.9359C139.228 20.8519 139.48 20.7166 139.769 20.5299L140.637 21.7759C139.928 22.3546 139.116 22.6439 138.201 22.6439C137.473 22.6439 136.838 22.4853 136.297 22.1679C135.765 21.8506 135.354 21.4026 135.065 20.8239C134.776 20.2359 134.631 19.5499 134.631 18.7659C134.631 17.9819 134.776 17.2913 135.065 16.6939C135.354 16.0873 135.765 15.6159 136.297 15.2799C136.838 14.9439 137.464 14.7759 138.173 14.7759ZM148.107 22.4199H146.203V19.6059C146.203 19.0739 146.231 18.5699 146.287 18.0939C146.343 17.6179 146.403 17.2399 146.469 16.9599L143.837 22.4199H141.765V14.9999H143.669V17.8419C143.669 18.3459 143.641 18.8453 143.585 19.3399C143.538 19.8253 143.482 20.1986 143.417 20.4599L146.007 14.9999H148.107V22.4199Z" fill="#313E47"/>
<path d="M59.3992 34.8538C59.1005 35.7965 58.6292 36.5245 57.9852 37.0378C57.3505 37.5512 56.4872 37.8452 55.3952 37.9198L55.1852 36.4918C55.8945 36.3985 56.4125 36.2305 56.7392 35.9878C57.0752 35.7452 57.3505 35.3625 57.5652 34.8398H56.8792L54.5692 27.4198H56.6832L58.1672 33.5518L59.7352 27.4198H61.7932L59.3992 34.8538ZM68.5842 27.4198V34.8398H66.5962V28.9038H64.9582L64.8042 30.7098C64.7108 31.7738 64.5942 32.5718 64.4542 33.1038C64.3235 33.6265 64.0948 34.0372 63.7682 34.3358C63.4508 34.6252 62.9655 34.8492 62.3122 35.0078L61.8362 33.5518C62.1442 33.4212 62.3635 33.2765 62.4942 33.1178C62.6248 32.9498 62.7182 32.6932 62.7742 32.3478C62.8395 32.0025 62.9002 31.4145 62.9562 30.5838L63.1942 27.4198H68.5842ZM76.8899 34.8398H74.9859V32.0258C74.9859 31.4938 75.0139 30.9898 75.0699 30.5138C75.1259 30.0378 75.1865 29.6598 75.2519 29.3798L72.6199 34.8398H70.5479V27.4198H72.4519V30.2618C72.4519 30.7658 72.4239 31.2652 72.3679 31.7598C72.3212 32.2452 72.2652 32.6185 72.1999 32.8798L74.7899 27.4198H76.8899V34.8398ZM84.9927 33.3558H86.1127V37.1078H84.6987L84.4607 34.8398H78.8467V27.4198H80.8347V33.3418H83.0047V27.4198H84.9927V33.3558ZM92.8019 32.7818C92.8019 33.0712 92.8439 33.2858 92.9279 33.4258C93.0119 33.5565 93.1519 33.6545 93.3479 33.7198L92.9279 35.0358C92.4892 34.9985 92.1299 34.8958 91.8499 34.7278C91.5792 34.5598 91.3692 34.2985 91.2199 33.9438C90.7345 34.6905 89.9925 35.0638 88.9939 35.0638C88.2565 35.0638 87.6685 34.8538 87.2299 34.4338C86.8005 34.0045 86.5859 33.4492 86.5859 32.7678C86.5859 31.9558 86.8799 31.3352 87.4679 30.9058C88.0559 30.4765 88.9005 30.2618 90.0019 30.2618H90.8559V29.8978C90.8559 29.4405 90.7532 29.1232 90.5479 28.9458C90.3425 28.7685 90.0019 28.6798 89.5259 28.6798C89.0032 28.6798 88.3499 28.8105 87.5659 29.0718L87.1179 27.7418C88.0419 27.3778 88.9565 27.1958 89.8619 27.1958C90.8699 27.1958 91.6119 27.4152 92.0879 27.8538C92.5639 28.2832 92.8019 28.9272 92.8019 29.7858V32.7818ZM89.5399 33.6358C90.0999 33.6358 90.5385 33.3605 90.8559 32.8098V31.3958H90.1979C89.1245 31.3958 88.5879 31.7972 88.5879 32.5998C88.5879 32.9265 88.6672 33.1832 88.8259 33.3698C88.9939 33.5472 89.2319 33.6358 89.5399 33.6358ZM103.204 29.7158C103.857 29.8372 104.385 30.0752 104.786 30.4298C105.197 30.7752 105.402 31.3072 105.402 32.0258C105.402 33.0432 105.038 33.7665 104.31 34.1958C103.582 34.6252 102.569 34.8398 101.272 34.8398H98.2481V25.1518H100.894C102.219 25.1518 103.232 25.3478 103.932 25.7398C104.632 26.1318 104.982 26.7618 104.982 27.6298C104.982 28.1992 104.809 28.6612 104.464 29.0158C104.128 29.3612 103.708 29.5945 103.204 29.7158ZM100.306 26.6358V29.0858H101.314C101.818 29.0858 102.205 28.9832 102.476 28.7778C102.747 28.5632 102.882 28.2412 102.882 27.8118C102.882 27.3825 102.737 27.0792 102.448 26.9018C102.159 26.7245 101.706 26.6358 101.09 26.6358H100.306ZM101.286 33.3138C101.93 33.3138 102.42 33.2205 102.756 33.0338C103.092 32.8378 103.26 32.4738 103.26 31.9418C103.26 30.9712 102.663 30.4858 101.468 30.4858H100.306V33.3138H101.286ZM112.489 32.7818C112.489 33.0712 112.531 33.2858 112.615 33.4258C112.699 33.5565 112.839 33.6545 113.035 33.7198L112.615 35.0358C112.177 34.9985 111.817 34.8958 111.537 34.7278C111.267 34.5598 111.057 34.2985 110.907 33.9438C110.422 34.6905 109.68 35.0638 108.681 35.0638C107.944 35.0638 107.356 34.8538 106.917 34.4338C106.488 34.0045 106.273 33.4492 106.273 32.7678C106.273 31.9558 106.567 31.3352 107.155 30.9058C107.743 30.4765 108.588 30.2618 109.689 30.2618H110.543V29.8978C110.543 29.4405 110.441 29.1232 110.235 28.9458C110.03 28.7685 109.689 28.6798 109.213 28.6798C108.691 28.6798 108.037 28.8105 107.253 29.0718L106.805 27.7418C107.729 27.3778 108.644 27.1958 109.549 27.1958C110.557 27.1958 111.299 27.4152 111.775 27.8538C112.251 28.2832 112.489 28.9272 112.489 29.7858V32.7818ZM109.227 33.6358C109.787 33.6358 110.226 33.3605 110.543 32.8098V31.3958H109.885C108.812 31.3958 108.275 31.7972 108.275 32.5998C108.275 32.9265 108.355 33.1832 108.513 33.3698C108.681 33.5472 108.919 33.6358 109.227 33.6358ZM118.886 30.7798C120.146 30.9198 120.776 31.5172 120.776 32.5718C120.776 33.3372 120.482 33.9065 119.894 34.2798C119.306 34.6532 118.508 34.8398 117.5 34.8398H114.476V27.5038C115.521 27.2985 116.459 27.1958 117.29 27.1958C118.27 27.1958 119.04 27.3685 119.6 27.7138C120.16 28.0498 120.44 28.5492 120.44 29.2118C120.44 29.6318 120.304 29.9772 120.034 30.2478C119.772 30.5092 119.39 30.6865 118.886 30.7798ZM117.262 28.5118C117.01 28.5118 116.744 28.5258 116.464 28.5538V30.3458H117.388C117.724 30.3458 117.985 30.2712 118.172 30.1218C118.368 29.9725 118.466 29.7392 118.466 29.4218C118.466 29.1138 118.363 28.8852 118.158 28.7358C117.962 28.5865 117.663 28.5118 117.262 28.5118ZM117.458 33.4958C118.307 33.4958 118.732 33.1412 118.732 32.4318C118.732 32.1052 118.629 31.8625 118.424 31.7038C118.228 31.5452 117.91 31.4658 117.472 31.4658H116.464V33.4958H117.458ZM128.624 34.8398H126.72V32.0258C126.72 31.4938 126.748 30.9898 126.804 30.5138C126.86 30.0378 126.921 29.6598 126.986 29.3798L124.354 34.8398H122.282V27.4198H124.186V30.2618C124.186 30.7658 124.158 31.2652 124.102 31.7598C124.056 32.2452 124 32.6185 123.934 32.8798L126.524 27.4198H128.624V34.8398ZM136.629 27.4198V34.8398H134.641V28.9038H133.003L132.849 30.7098C132.756 31.7738 132.639 32.5718 132.499 33.1038C132.368 33.6265 132.14 34.0372 131.813 34.3358C131.496 34.6252 131.01 34.8492 130.357 35.0078L129.881 33.5518C130.189 33.4212 130.408 33.2765 130.539 33.1178C130.67 32.9498 130.763 32.6932 130.819 32.3478C130.884 32.0025 130.945 31.4145 131.001 30.5838L131.239 27.4198H136.629ZM141.715 27.1958C142.825 27.1958 143.693 27.5458 144.319 28.2458C144.944 28.9365 145.257 29.8978 145.257 31.1298C145.257 31.9138 145.112 32.6045 144.823 33.2018C144.543 33.7898 144.132 34.2472 143.591 34.5738C143.059 34.9005 142.429 35.0638 141.701 35.0638C140.59 35.0638 139.717 34.7185 139.083 34.0278C138.457 33.3278 138.145 32.3618 138.145 31.1298C138.145 30.3458 138.285 29.6598 138.565 29.0718C138.854 28.4745 139.265 28.0125 139.797 27.6858C140.338 27.3592 140.977 27.1958 141.715 27.1958ZM141.715 28.6798C141.211 28.6798 140.833 28.8805 140.581 29.2818C140.338 29.6738 140.217 30.2898 140.217 31.1298C140.217 31.9698 140.338 32.5905 140.581 32.9918C140.833 33.3838 141.206 33.5798 141.701 33.5798C142.195 33.5798 142.564 33.3838 142.807 32.9918C143.059 32.5905 143.185 31.9698 143.185 31.1298C143.185 30.2898 143.063 29.6738 142.821 29.2818C142.578 28.8805 142.209 28.6798 141.715 28.6798ZM151.179 30.7798C152.439 30.9198 153.069 31.5172 153.069 32.5718C153.069 33.3372 152.775 33.9065 152.187 34.2798C151.599 34.6532 150.801 34.8398 149.793 34.8398H146.769V27.5038C147.814 27.2985 148.752 27.1958 149.583 27.1958C150.563 27.1958 151.333 27.3685 151.893 27.7138C152.453 28.0498 152.733 28.5492 152.733 29.2118C152.733 29.6318 152.597 29.9772 152.327 30.2478C152.065 30.5092 151.683 30.6865 151.179 30.7798ZM149.555 28.5118C149.303 28.5118 149.037 28.5258 148.757 28.5538V30.3458H149.681C150.017 30.3458 150.278 30.2712 150.465 30.1218C150.661 29.9725 150.759 29.7392 150.759 29.4218C150.759 29.1138 150.656 28.8852 150.451 28.7358C150.255 28.5865 149.956 28.5118 149.555 28.5118ZM149.751 33.4958C150.6 33.4958 151.025 33.1412 151.025 32.4318C151.025 32.1052 150.922 31.8625 150.717 31.7038C150.521 31.5452 150.203 31.4658 149.765 31.4658H148.757V33.4958H149.751ZM160.108 32.7818C160.108 33.0712 160.15 33.2858 160.234 33.4258C160.318 33.5565 160.458 33.6545 160.654 33.7198L160.234 35.0358C159.796 34.9985 159.436 34.8958 159.156 34.7278C158.886 34.5598 158.676 34.2985 158.526 33.9438C158.041 34.6905 157.299 35.0638 156.3 35.0638C155.563 35.0638 154.975 34.8538 154.536 34.4338C154.107 34.0045 153.892 33.4492 153.892 32.7678C153.892 31.9558 154.186 31.3352 154.774 30.9058C155.362 30.4765 156.207 30.2618 157.308 30.2618H158.162V29.8978C158.162 29.4405 158.06 29.1232 157.854 28.9458C157.649 28.7685 157.308 28.6798 156.832 28.6798C156.31 28.6798 155.656 28.8105 154.872 29.0718L154.424 27.7418C155.348 27.3778 156.263 27.1958 157.168 27.1958C158.176 27.1958 158.918 27.4152 159.394 27.8538C159.87 28.2832 160.108 28.9272 160.108 29.7858V32.7818ZM156.846 33.6358C157.406 33.6358 157.845 33.3605 158.162 32.8098V31.3958H157.504C156.431 31.3958 155.894 31.7972 155.894 32.5998C155.894 32.9265 155.974 33.1832 156.132 33.3698C156.3 33.5472 156.538 33.6358 156.846 33.6358ZM162.781 32.6698C163.126 32.6698 163.411 32.7865 163.635 33.0198C163.868 33.2438 163.985 33.5238 163.985 33.8598C163.985 34.0465 163.952 34.2425 163.887 34.4478C163.831 34.6438 163.733 34.9052 163.593 35.2318L162.683 37.2758H161.521L162.109 34.8398C161.95 34.7372 161.824 34.6018 161.731 34.4338C161.637 34.2565 161.591 34.0652 161.591 33.8598C161.591 33.5238 161.703 33.2438 161.927 33.0198C162.16 32.7865 162.445 32.6698 162.781 32.6698ZM174.14 26.8458H170.654V29.0158C171.111 28.8012 171.587 28.6938 172.082 28.6938C172.605 28.6938 173.067 28.8152 173.468 29.0578C173.879 29.3005 174.201 29.6552 174.434 30.1218C174.667 30.5792 174.784 31.1205 174.784 31.7458C174.784 32.3992 174.635 32.9778 174.336 33.4818C174.037 33.9765 173.613 34.3638 173.062 34.6438C172.521 34.9238 171.891 35.0638 171.172 35.0638C169.959 35.0638 168.941 34.6065 168.12 33.6918L169.24 32.6418C169.763 33.2392 170.388 33.5378 171.116 33.5378C171.629 33.5378 172.026 33.3838 172.306 33.0758C172.595 32.7678 172.74 32.3245 172.74 31.7458C172.74 30.6352 172.264 30.0798 171.312 30.0798C171.107 30.0798 170.911 30.1078 170.724 30.1638C170.547 30.2105 170.351 30.2945 170.136 30.4158H168.75V25.4038H174.378L174.14 26.8458ZM181.07 25.4038V26.7758L177.598 35.0498L175.792 34.4478L179.012 26.9158H175.12V25.4038H181.07ZM187.085 34.8398L186.539 32.6698H183.501L182.955 34.8398H180.813L183.795 25.1518H186.301L189.269 34.8398H187.085ZM183.893 31.1438H186.147L185.013 26.6778L183.893 31.1438Z" fill="#8C8C8C"/>
<path d="M202 0H209C210.657 0 212 1.34315 212 3V10H202V0Z" fill="#DA8400"/>
<rect x="11" y="11" width="25" height="25" rx="5" fill="#FFBE06"/>
<path d="M11 28C11 25.2386 13.2386 23 16 23H36V30.963C36 33.7244 33.7614 35.963 31 35.963H16C13.2386 35.963 11 33.7244 11 30.963V28Z" fill="#292A2C"/>
<path d="M11 23H23.7727V35.88H16C13.2386 35.88 11 33.6414 11 30.88V23Z" fill="#E9EDED"/>
</svg>
